<?xml version="1.0" encoding="utf-8"?>
<!-- Generator: Adobe Illustrator 19.0.0, SVG Export Plug-In . SVG Version: 6.00 Build 0)  -->
<svg version="1.1" id="Layer_1" xmlns="http://www.w3.org/2000/svg" xmlns:xlink="http://www.w3.org/1999/xlink" x="0px" y="0px"
	 viewBox="0 0 595.3 841.9" style="enable-background:new 0 0 595.3 841.9;" xml:space="preserve">
<style type="text/css">
	.st0{fill:#A7A9AC;}
	.st1{fill:#BCBEC0;}
	.st2{fill:#808285;}
	.st3{fill:#D1D3D4;}
	.st4{fill:#6D6E71;}
	.st5{opacity:0.78;}
	.st6{fill:#FDB83D;}
</style>
<circle id="XMLID_1_" class="st0" cx="281.8" cy="332.1" r="119.7"/>
<path id="XMLID_24_" class="st1" d="M400.8,439.2c0,0,0.6-0.8,1.7-2.4c0.6-0.8,1.2-1.8,2-2.9c0.8-1.2,1.6-2.6,2.6-4.1
	c3.9-6.3,9-16,13.3-29.1c2.2-6.6,4.1-14,5.7-22.2c0.8-4.1,1.5-8.4,2.2-12.8c0.7-4.5,1.4-9.1,2.1-13.8c1.3-9.6,2.2-19.8,2.1-30.6
	c0-5.4-0.3-10.9-0.8-16.6c-0.5-5.6-1.4-11.4-2.5-17.2c-2.3-11.6-5.7-23.5-10.2-35.5c-4.5-11.9-10.2-23.9-17.5-35.3
	c-7.3-11.4-16.2-22.3-27-31.4c-5.4-4.5-11.3-8.6-17.7-12.1c-1.6-0.8-3.2-1.7-4.8-2.5c-1.6-0.7-3.3-1.5-4.9-2.2
	c-1.7-0.7-3.4-1.3-5.2-2c-1.7-0.6-3.5-1.1-5.2-1.7c-14.1-4.1-29.3-5.1-44.3-3.3c-15,1.8-29.9,6.3-44,12.6c-14.1,6.3-27.6,14.5-40,24
	c-12.4,9.5-23.9,20.4-33.9,32.6l-1.8,2.3l-0.5,0.6c-0.1,0.1-0.3,0.4-0.4,0.6l-0.9,1.2c-1.2,1.6-2.4,3.2-3.5,4.8
	c-1.1,1.6-2.3,3.2-3.3,4.8l-3.2,4.9c-4.1,6.7-7.8,13.6-11.1,20.7c-3.3,7.1-6.3,14.3-8.7,21.7c-2.5,7.4-4.5,14.9-6.1,22.4
	c-1.7,7.5-2.7,15.2-3.4,22.8c-0.7,7.6-0.9,15.2-0.6,22.8c0.4,7.5,1.1,15,2.5,22.3c1.4,7.3,3.4,14.4,5.8,21.3
	c2.5,6.9,5.5,13.5,8.9,19.8c3.5,6.2,7.5,12.2,11.8,17.7c8.7,11.1,19,20.4,30.1,28c11.1,7.6,23,13.4,34.9,17.6
	c12,4.2,24,6.9,35.7,8.3c23.4,2.8,45.4,0.3,63.8-5.2c9.2-2.7,17.6-6,25.1-9.6c0.9-0.5,1.9-0.9,2.8-1.3c0.9-0.5,1.8-1,2.7-1.4
	c1.7-1,3.5-1.9,5.1-2.8c3.2-2,6.4-3.8,9.2-5.9c11.4-7.9,19.1-15.6,24.1-21.1c0.3-0.3,0.6-0.7,0.9-1c0.3-0.3,0.5-0.7,0.8-1
	c0.5-0.6,1-1.2,1.4-1.8c0.9-1.1,1.6-2,2.2-2.8C400.2,440,400.8,439.2,400.8,439.2z M401.2,439.5c0,0-0.6,0.8-1.8,2.3
	c-0.6,0.8-1.3,1.7-2.2,2.8c-0.4,0.6-0.9,1.2-1.4,1.8c-0.3,0.3-0.5,0.7-0.8,1c-0.3,0.3-0.6,0.7-0.9,1c-4.9,5.6-12.6,13.4-24,21.4
	c-2.8,2.1-6,3.9-9.2,6c-1.6,1-3.4,1.9-5.1,2.9c-0.9,0.5-1.8,1-2.7,1.5c-0.9,0.5-1.9,0.9-2.8,1.4c-7.5,3.8-15.9,7.3-25.1,10.1
	c-18.5,5.9-40.6,8.8-64.5,6.4c-11.9-1.2-24.2-3.7-36.5-7.9c-12.2-4.2-24.5-9.9-35.9-17.6c-23-15.1-42.6-38.8-52.7-67.3
	c-2.5-7.1-4.4-14.5-5.9-22c-1.4-7.5-2.2-15.2-2.5-22.9c-0.3-7.7-0.1-15.5,0.7-23.3c0.8-7.8,1.9-15.5,3.6-23.2
	c1.7-7.7,3.8-15.3,6.4-22.8c2.6-7.5,5.6-14.8,9-22c3.4-7.2,7.2-14.2,11.5-21l3.3-5c1.1-1.7,2.3-3.3,3.4-4.9c1.1-1.7,2.4-3.2,3.6-4.8
	l0.9-1.2c0.2-0.2,0.3-0.4,0.5-0.6l0.5-0.6l1.9-2.3c10.2-12.3,21.9-23.3,34.5-32.9c12.7-9.6,26.3-17.8,40.7-24.2
	c14.4-6.3,29.5-10.8,44.8-12.6c15.3-1.8,30.8-0.7,45.3,3.6c1.8,0.6,3.6,1.1,5.4,1.7c1.7,0.7,3.4,1.3,5.2,2c1.7,0.8,3.4,1.5,5.1,2.3
	c1.7,0.8,3.3,1.7,4.9,2.6c6.5,3.6,12.5,7.8,18,12.4c11,9.3,20,20.4,27.2,32c7.2,11.6,12.9,23.7,17.3,35.8
	c4.4,12.1,7.7,24.1,9.9,35.8c1.1,5.9,1.9,11.6,2.3,17.3c0.5,5.7,0.7,11.2,0.7,16.7c0,10.9-1,21.1-2.3,30.7
	c-1.4,9.6-2.9,18.5-4.5,26.7c-1.6,8.2-3.6,15.6-5.7,22.2c-4.3,13.2-9.5,22.9-13.4,29.2c-1,1.6-1.9,3-2.6,4.2c-0.8,1.2-1.5,2.1-2,2.9
	C401.7,438.6,401.2,439.5,401.2,439.5z"/>
<path id="XMLID_53_" class="st2" d="M387.1,448.8c0,0-0.8,0.6-2.5,1.6c-0.8,0.5-1.8,1.2-3,2c-1.2,0.8-2.6,1.7-4.2,2.6
	c-6.4,3.9-16.1,9.2-29.1,14.6c-6.5,2.6-13.8,5.4-21.9,7.8c-4,1.3-8.3,2.4-12.7,3.7c-2.2,0.6-4.5,1.1-6.8,1.6
	c-1.2,0.3-2.3,0.5-3.5,0.8c-1.2,0.2-2.4,0.5-3.6,0.7c-2.4,0.5-4.8,1-7.3,1.4c-2.5,0.4-5,0.8-7.6,1.3c-2.6,0.3-5.2,0.7-7.8,1
	c-1.3,0.2-2.7,0.3-4,0.4c-1.3,0.1-2.7,0.3-4.1,0.4c-10.9,0.9-22.5,1.3-34.5,0.6c-12-0.7-24.6-2.3-37.2-5.5
	c-12.6-3.2-25.4-7.8-37.5-14.7c-1.5-0.9-3-1.8-4.5-2.7l-2.2-1.4l-2.1-1.5c-1.4-1-2.9-2-4.3-3.1c-1.4-1.1-2.7-2.3-4.1-3.4
	c-2.8-2.2-5.3-4.8-7.9-7.3c-0.7-0.6-1.2-1.3-1.8-2l-1.8-2.1l-1.8-2.1c-0.3-0.3-0.6-0.7-0.9-1l-0.8-1.1c-1.1-1.5-2.2-3-3.2-4.4
	l-0.8-1.1c-0.3-0.4-0.5-0.8-0.8-1.2l-1.5-2.3c-1-1.5-1.9-3.2-2.8-4.8c-0.9-1.6-1.7-3.3-2.5-5c-3.2-6.7-5.7-13.9-7.5-21.3
	c-3.6-14.8-4.3-30.4-2.9-45.9c1.4-15.5,4.8-31,10-46l0.5-1.4l0.3-0.7l0.3-0.7l1.1-2.8c0.8-1.8,1.4-3.7,2.3-5.5l2.5-5.5
	c0.9-1.8,1.8-3.6,2.8-5.3c3.8-7.1,8-13.9,12.8-20.4c4.8-6.5,9.9-12.7,15.6-18.5c5.6-5.8,11.6-11.3,17.9-16.3
	c25.3-20.2,55.5-34,86.8-40.2c15.6-3.1,31.5-4.3,47.2-3.4c2,0.1,3.9,0.3,5.8,0.4c1.9,0.2,3.9,0.3,5.8,0.6c1.9,0.3,3.9,0.5,5.8,0.8
	c1.9,0.3,3.9,0.7,5.7,1.1c7.6,1.6,14.9,3.7,22.1,6c14.4,4.8,28.1,10.7,40.8,18c12.6,7.4,24.3,16,33.9,26.1c2.5,2.5,4.7,5.2,6.9,7.8
	c1.1,1.3,2.1,2.7,3.1,4.1c0.5,0.7,1.1,1.3,1.5,2.1l1.4,2.1c0.9,1.4,1.9,2.8,2.8,4.2c0.9,1.5,1.7,2.9,2.5,4.4l0.6,1.1l0.6,1.1
	l1.1,2.2c0.7,1.5,1.5,2.9,2.1,4.5c0.6,1.5,1.3,3,1.9,4.5c0.3,0.7,0.6,1.5,0.9,2.3c0.3,0.8,0.5,1.5,0.8,2.3c0.3,0.8,0.5,1.5,0.8,2.3
	l0.4,1.1c0,0.1,0.1,0.1,0.1,0.3l0.1,0.3l0.1,0.6c0.4,1.5,0.8,3.1,1.2,4.6c0.9,3,1.3,6.2,1.9,9.2c0.1,0.8,0.3,1.5,0.4,2.3
	c0.1,0.8,0.2,1.5,0.2,2.3c0.2,1.5,0.3,3.1,0.5,4.6c0.2,1.5,0.2,3,0.3,4.5c0,1.5,0.1,3,0.1,4.5c0,3-0.2,5.9-0.2,8.8
	c-0.1,1.4-0.3,2.9-0.4,4.3c-0.1,1.4-0.2,2.9-0.4,4.3c-0.2,1.4-0.4,2.8-0.6,4.2c-0.1,0.7-0.2,1.4-0.3,2.1c-0.1,0.7-0.3,1.4-0.4,2
	c-2,10.9-5.1,20.9-8.8,30c-7.4,18.2-17.2,32.6-26.4,43.1c-4.6,5.3-9.1,9.7-13.2,13.3c-4.1,3.6-7.7,6.6-10.7,8.8
	c-3,2.3-5.4,3.9-6.9,5.1C387.9,448.3,387.1,448.8,387.1,448.8z M386.9,448.5c0,0,0.8-0.6,2.4-1.7c1.6-1.1,3.9-2.8,6.9-5.1
	c3-2.3,6.6-5.2,10.6-8.9c4-3.7,8.5-8.1,13-13.4c4.5-5.3,9.2-11.5,13.6-18.7c0.6-0.9,1.1-1.8,1.7-2.7c0.5-0.9,1-1.9,1.6-2.8
	c0.5-1,1.1-1.9,1.6-2.9c0.5-1,1-2,1.5-3c1-2.1,2-4.1,2.9-6.3c0.9-2.2,1.8-4.4,2.7-6.6c3.5-9.1,6.3-19.1,8.1-29.8
	c0.1-0.7,0.2-1.3,0.4-2c0.1-0.7,0.2-1.4,0.3-2c0.2-1.4,0.3-2.7,0.5-4.1c0.2-1.4,0.2-2.8,0.4-4.2c0.1-1.4,0.2-2.8,0.3-4.2
	c0-2.9,0.1-5.7,0.1-8.6c-0.1-1.5-0.1-2.9-0.2-4.4c-0.1-1.5-0.1-2.9-0.3-4.4c-1.1-11.8-4.2-24-9.5-35.6c-0.6-1.5-1.4-2.9-2.1-4.3
	l-1.1-2.2l-0.6-1.1l-0.6-1c-0.8-1.4-1.7-2.8-2.5-4.2c-0.8-1.4-1.8-2.7-2.7-4.1l-1.4-2c-0.5-0.7-1-1.3-1.5-2c-1-1.3-2-2.6-3.1-3.9
	c-2.2-2.5-4.4-5.1-6.8-7.5c-4.8-4.8-9.9-9.4-15.5-13.6c-5.6-4.2-11.5-8.1-17.7-11.7c-12.4-7.1-25.9-13-40.1-17.6
	c-7.1-2.3-14.3-4.3-21.7-5.9c-1.9-0.4-3.7-0.8-5.5-1.1c-1.9-0.3-3.8-0.5-5.6-0.8c-1.9-0.3-3.8-0.4-5.7-0.6c-1.9-0.2-3.8-0.4-5.7-0.4
	c-15.3-0.9-30.8,0.2-46.2,3.1c-30.7,5.9-60.5,19.3-85.5,39c-6.3,4.9-12.1,10.3-17.7,15.9c-5.6,5.6-10.7,11.8-15.4,18.1
	c-4.8,6.3-8.9,13.1-12.7,20c-0.9,1.7-1.9,3.5-2.7,5.2l-2.5,5.3c-0.9,1.7-1.5,3.6-2.3,5.5l-1.1,2.7l-0.3,0.7l-0.2,0.7l-0.5,1.4
	c-5.2,14.8-8.7,30.1-10.1,45.4c-1.4,15.3-0.8,30.6,2.7,45.1c3.4,14.5,9.7,28,18.5,39.4l0.8,1.1c0.3,0.4,0.6,0.7,0.9,1l1.7,2l1.7,2
	c0.6,0.7,1.1,1.4,1.8,2c2.5,2.5,4.9,5.1,7.7,7.2c1.3,1.1,2.7,2.3,4,3.4c1.4,1,2.8,2,4.2,3.1l2.1,1.5l2.2,1.4
	c1.5,0.9,2.9,1.8,4.4,2.7c11.8,6.9,24.4,11.6,36.9,14.9c12.5,3.2,24.9,5,36.9,5.7c12,0.8,23.5,0.5,34.4-0.3c1.4-0.1,2.7-0.2,4.1-0.3
	c1.3-0.1,2.7-0.2,4-0.4c2.6-0.3,5.3-0.6,7.8-1c2.6-0.4,5.1-0.8,7.6-1.2c2.5-0.4,4.9-0.9,7.3-1.4c19.2-3.7,35.4-9.2,48.4-14.5
	c12.9-5.4,22.7-10.7,29.1-14.6c1.6-0.9,3-1.8,4.2-2.6c1.2-0.8,2.2-1.4,3-2C386.1,449,386.9,448.5,386.9,448.5z"/>
<circle id="XMLID_2_" class="st1" cx="169" cy="234.3" r="6.9"/>
<circle id="XMLID_9_" class="st1" cx="398.3" cy="441.7" r="6.9"/>
<path id="XMLID_13_" class="st1" d="M188.3,260.7c1.5-2.1,33.4-43.6,82-38.7c8,0.8,34.1,3.4,49.3,24c20.9,28.2,6.5,68.5-7.3,89.3
	c-19.8,29.9-64.2,59-102,42c-23.5-10.6-37.6-35.9-40-59.3C167.4,289,182.8,268.1,188.3,260.7z"/>
<path id="XMLID_14_" class="st3" d="M187.6,258.7c3.2-4.2,26.1-33.5,63.4-33.4c6.8,0,32.5,0.1,47.3,18.7c18.3,22.9,7.3,57.7-4,76
	c-17.7,28.7-53.4,45.1-84.7,38.7c-6.6-1.4-22.5-4.6-32.7-18C159.2,317.2,171.7,279.7,187.6,258.7z"/>
<path id="XMLID_15_" class="st1" d="M171.7,368.7c4.1-2.5,17.7,31.5,45.3,38c20.2,4.8,27-10,66-11.3c15.2-0.5,31.9-0.9,37.3,8.7
	c5,8.8-1.3,22.7-8.7,30.7c-18.1,19.6-51.6,13.2-61.3,11.3c-38.3-7.3-62.7-35.5-73.3-57.3C172.8,380.1,169.5,370,171.7,368.7z"/>
<path id="XMLID_16_" class="st3" d="M177.7,385.3c3.2-2.8,34.3,45,65.3,38.7c14.7-3,21-16.5,36.7-14c8.3,1.3,18.2,7,18.7,14
	c0.4,5.7-5.7,10.4-8.7,12.7c-13.3,10.2-30,8.7-36.7,8c-3.7-0.4-19.5-2.3-38.7-15.3C189.1,412.1,175.5,387.3,177.7,385.3z"/>
<g id="XMLID_12_">
	<path id="XMLID_3_" class="st0" d="M221.1,266.7c-4.1-3.1-2.4-15,3.6-21.1c9.6-9.7,30.7-5.3,32.6,1.2c2,7-18.2,17.7-30.4,20.4
		C225.1,267.6,222.7,268,221.1,266.7z"/>
	<path id="XMLID_5_" class="st4" d="M223,267.2c-3.2-3,2.1-19.3,13.9-23.8c8.6-3.3,19.8,0,20.7,4.1c0.4,2.1-1.8,4.1-5.1,7
		c-3,2.7-6.9,5.3-15.6,8.7C228.4,266.7,224.2,268.4,223,267.2z"/>
</g>
<g id="XMLID_17_">
	<path id="XMLID_19_" class="st0" d="M211.9,346.4c-7.5,3.9-24-6.8-28.8-20c-7.7-20.9,13.4-49.1,24.3-47.4
		c11.8,1.9,13.6,39.2,9.3,59.1C216.1,341,215,344.8,211.9,346.4z"/>
	<path id="XMLID_18_" class="st4" d="M214,343.9c-6.7,2.6-27.1-16.4-25.7-37c1-15,13.7-29.4,20.4-27.7c3.3,0.8,4.8,5.5,6.9,12.4
		c2,6.4,3.1,13.8,2.2,29.1C217,335.5,216.5,342.9,214,343.9z"/>
</g>
<g id="XMLID_28_">
	<path id="XMLID_30_" class="st0" d="M254.6,307.1c-2.8-1-4.1-7.8-1.9-12.3c3.5-7.1,15.9-8.6,18.2-5.4c2.4,3.5-6.8,13.1-12.9,16.9
		C257,306.9,255.8,307.5,254.6,307.1z"/>
	<path id="XMLID_29_" class="st4" d="M255.8,307c-2.3-1.1-2.4-11,3.2-15.7c4.1-3.4,10.9-3.7,12.1-1.6c0.6,1.1-0.2,2.6-1.5,4.8
		c-1.2,2.1-2.8,4.2-6.9,7.7C258.6,305.7,256.6,307.4,255.8,307z"/>
</g>
<g id="XMLID_31_">
	<path id="XMLID_33_" class="st0" d="M204,385.1c-0.5-5.4,9.9-12.8,19-12.5c14.4,0.4,26.4,19.9,22.7,26.1c-4,6.7-26.9-1.3-37.8-8.7
		C206.2,388.9,204.2,387.4,204,385.1z"/>
	<path id="XMLID_32_" class="st4" d="M205,387c0-4.7,16.5-12.4,28.5-6.6c8.8,4.3,14.4,15.4,11.8,19c-1.3,1.8-4.5,1.5-9.2,1.2
		c-4.3-0.4-9.1-1.5-18.1-5.7C209.3,390.8,205,388.8,205,387z"/>
</g>
<g id="XMLID_34_">
	<path id="XMLID_36_" class="st2" d="M356.3,276c6.9-0.1,21.8,13.7,26.2,25.1c6.9,18.1-12.6,31-22.6,25.7
		c-10.8-5.7-12.1-33.6-8-46.5C352.5,278.4,353.5,276,356.3,276z"/>
	<path id="XMLID_35_" class="st4" d="M354.4,277.1c6.1,0.5,24.7,21.9,23.2,36.4c-1.1,10.6-12.8,16.4-18.9,12.8
		c-3-1.8-4.3-5.7-6.2-11.6c-1.8-5.4-2.7-11.2-1.8-22C351.6,282.1,352.1,276.9,354.4,277.1z"/>
</g>
<g id="XMLID_37_">
	<path id="XMLID_39_" class="st2" d="M341.4,247.6c2.3-1.4,10,0.4,13.7,3.4c5.8,4.8,1.7,12.9-2.7,13c-4.8,0.2-10.6-9-11.7-14.2
		C340.6,249.2,340.4,248.2,341.4,247.6z"/>
	<path id="XMLID_38_" class="st4" d="M341,248.3c2.2-1,12.6,2.7,14.9,7.8c1.7,3.8-1.2,8-3.9,8c-1.4,0-2.6-1.1-4.3-2.7
		c-1.6-1.5-3.1-3.3-4.9-7.1C341,250.6,340.1,248.7,341,248.3z"/>
</g>
<g id="XMLID_40_">
	<path id="XMLID_42_" class="st2" d="M333.3,329.7c2.5,1,5.8,8.2,5.6,13c-0.3,7.5-9.2,9.2-12,5.8c-3-3.7,0.7-13.9,4.1-17.9
		C331.5,330,332.2,329.3,333.3,329.7z"/>
	<path id="XMLID_41_" class="st4" d="M332.4,329.8c2.1,1.1,5.6,11.6,2.8,16.6c-2,3.6-7.1,4-8.7,1.8c-0.8-1.1-0.7-2.7-0.5-5.1
		c0.2-2.2,0.7-4.4,2.7-8.2C330.6,331.2,331.6,329.4,332.4,329.8z"/>
</g>
<g id="XMLID_43_">
	<path id="XMLID_45_" class="st2" d="M379.5,343.5c1.7-1,7.4,0.5,10.1,2.8c4.2,3.6,1.1,9.6-2.2,9.6c-3.5,0-7.7-6.8-8.4-10.7
		C378.9,344.6,378.8,343.9,379.5,343.5z"/>
	<path id="XMLID_44_" class="st4" d="M379.2,344c1.6-0.7,9.3,2.1,10.9,6c1.2,2.8-1,5.9-3,5.8c-1,0-1.9-0.9-3.2-2.1
		c-1.2-1.1-2.2-2.5-3.5-5.3C379.2,345.7,378.6,344.3,379.2,344z"/>
</g>
<g id="XMLID_46_">
	<path id="XMLID_48_" class="st2" d="M369,378.3c2.9,2.5,4,13.7,1.7,20c-3.8,10-16.6,8.2-18.8,2.4c-2.4-6.3,7.3-18.4,13.7-22.2
		C366.6,378,367.8,377.3,369,378.3z"/>
	<path id="XMLID_47_" class="st4" d="M367.8,378.1c2.4,2.5,2.2,18.1-3.7,23.6c-4.3,4-11.3,2.1-12.5-1.6c-0.6-1.9,0.3-4,1.7-7.1
		c1.2-2.9,3-5.6,7.3-9.8C364.8,379.2,366.9,377.2,367.8,378.1z"/>
</g>
<g id="XMLID_49_">
	<path id="XMLID_51_" class="st2" d="M317.9,421.5c1.5,3.5-2.5,14-7.4,18.6c-7.8,7.3-18.5,0-17.9-6.2c0.7-6.7,14.7-13.2,22.2-13.8
		C315.8,420.1,317.2,420.1,317.9,421.5z"/>
	<path id="XMLID_50_" class="st4" d="M316.9,420.8c1,3.3-6.1,17.2-13.8,19.5c-5.7,1.7-11.1-3.1-10.5-7c0.3-1.9,2-3.4,4.6-5.6
		c2.4-2,5.2-3.7,10.9-5.5C313.7,420.4,316.5,419.6,316.9,420.8z"/>
</g>
<g id="XMLID_4_" class="st5">
	<path id="XMLID_6_" class="st6" d="M280.3,340.4l-0.2-4.4c-0.5-8.7,2.4-17.5,10-26.7c5.4-6.5,9.9-11.9,9.9-17.7
		c0-6-3.9-9.9-12.4-10.2c-5.6,0-12.4,2-16.8,5.1l-5.8-18.5c6.1-3.6,16.3-7,28.4-7c22.4,0,32.6,12.4,32.6,26.5
		c0,12.9-8,21.4-14.5,28.6c-6.3,7-8.8,13.6-8.7,21.3v3.1H280.3z M275.9,363.8c0-9,6.3-15.5,15.1-15.5c9.2,0,15.1,6.5,15.3,15.5
		c0,8.8-6.1,15.5-15.3,15.5C282,379.3,275.9,372.7,275.9,363.8z"/>
</g>
</svg>
