<?xml version="1.0" encoding="utf-8"?>
<!-- Generator: Adobe Illustrator 21.0.2, SVG Export Plug-In . SVG Version: 6.00 Build 0)  -->
<svg version="1.1" xmlns="http://www.w3.org/2000/svg" xmlns:xlink="http://www.w3.org/1999/xlink" x="0px" y="0px"
	 viewBox="0 0 960 640" style="enable-background:new 0 0 960 640;" xml:space="preserve">
<g id="Layer_1">
</g>
<g id="Layer_2">
	<rect x="0.021" y="0.188" style="fill:#12131E;" width="960" height="640"/>
	
		<radialGradient id="SVGID_1_" cx="36.5681" cy="289.4535" r="107.3432" gradientTransform="matrix(1.3241 -0.9893 3.1067 4.1582 -933.855 -607.951)" gradientUnits="userSpaceOnUse">
		<stop  offset="0" style="stop-color:#2484C6"/>
		<stop  offset="0" style="stop-color:#2484C6;stop-opacity:0.9598"/>
		<stop  offset="0.4686" style="stop-color:#2484C6;stop-opacity:0"/>
		<stop  offset="0.7517" style="stop-color:#2484C6;stop-opacity:0"/>
		<stop  offset="0.8705" style="stop-color:#2484C6;stop-opacity:0"/>
	</radialGradient>
	<path style="opacity:0.31;fill:url(#SVGID_1_);" d="M-118.473,450.843c53.123-46.359,81.531-52.235,97.716-48.709
		c11.668,2.542,11.189,8.708,42.666,37.776c25.037,23.121,37.556,34.681,52.623,40.056c23.958,8.548,34.933,2.106,52.112,14.52
		c3.871,2.798,17.537,12.999,21.976,32.176c4.398,19-5.16,25.647-3.092,42.807c3.773,31.316,38.107,29.929,37.51,52.967
		c-0.562,21.687-31.526,43.651-48.94,56.003c-9.39,6.66-63.389,44.963-110.691,34.105C6.969,708.77-3.874,697.386-25.56,674.617
		c-40.442-42.462-34.084-59.529-65.101-76.089c-22.728-12.135-34.158-7.251-47.822-22.585
		c-18.018-20.222-15.425-48.112-14.631-55.482C-149.282,484.899-125.426,458.202-118.473,450.843z"/>
	
		<radialGradient id="SVGID_2_" cx="302.5659" cy="344.4319" r="107.3432" gradientTransform="matrix(5.5666 1.0927 -1.3244 6.7472 -850.621 -2489.1387)" gradientUnits="userSpaceOnUse">
		<stop  offset="0" style="stop-color:#2484C6"/>
		<stop  offset="0" style="stop-color:#2484C6;stop-opacity:0.9598"/>
		<stop  offset="0.4686" style="stop-color:#2484C6;stop-opacity:0"/>
		<stop  offset="0.7517" style="stop-color:#2484C6;stop-opacity:0"/>
		<stop  offset="0.8705" style="stop-color:#2484C6;stop-opacity:0"/>
	</radialGradient>
	<path style="opacity:0.18;fill:url(#SVGID_2_);" d="M281.955-77.704C520.098-38.17,605.452-4.817,638.819,18.623
		c24.056,16.899,9.145,20.253,24.729,80.182c12.396,47.667,18.594,71.501,45.009,94.673c42.005,36.848,84.24,47.039,100.406,77.519
		c3.643,6.869,15.779,31.325-15.5,49.511c-30.989,18.018-70.076,9.812-102.911,23.594c-59.923,25.153,30.548,69.154-22.122,83.248
		c-49.581,13.267-177.157-13.041-248.905-27.837c-38.687-7.978-261.175-53.86-357.465-122.723
		c-33.465-23.933-35.789-45.462-40.435-88.52c-8.666-80.299,45.411-83.003,3.229-134.255C-6.056,16.46-45.993,4.667-46.726-23.1
		c-0.967-36.617,67.557-51.234,85.942-54.954C127.923-96.004,247.917-82.045,281.955-77.704z"/>
	
		<radialGradient id="SVGID_3_" cx="659.8124" cy="253.6842" r="132.7843" gradientTransform="matrix(1.6528 0 0 6.189 -122.6543 -1368.1217)" gradientUnits="userSpaceOnUse">
		<stop  offset="0" style="stop-color:#2484C6"/>
		<stop  offset="0" style="stop-color:#2484C6;stop-opacity:0.9598"/>
		<stop  offset="0.4686" style="stop-color:#2484C6;stop-opacity:0"/>
		<stop  offset="0.7517" style="stop-color:#2484C6;stop-opacity:0"/>
		<stop  offset="0.8705" style="stop-color:#2484C6;stop-opacity:0"/>
	</radialGradient>
	<path style="opacity:0.46;fill:url(#SVGID_3_);" d="M917.246-43.228c86.967-7.88,119.469,10.255,132.897,28.709
		c9.681,13.304,4.64,20.167,14.312,82.3c7.693,49.421,11.54,74.132,22.49,93.784c17.413,31.25,33.058,33.326,40.891,63.161
		c1.765,6.723,7.755,30.841-2.045,57.419c-9.709,26.333-24.102,25.749-34.758,47.849c-19.447,40.332,15.604,69.004-2.045,95.698
		c-16.614,25.129-63.559,23.746-89.961,22.968c-14.236-0.419-96.107-2.832-134.942-57.419
		c-13.497-18.971-15.813-41.995-20.446-88.042c-8.639-85.873,10.298-100.426-8.178-147.375
		c-13.539-34.402-28.482-38.722-30.669-68.903c-2.884-39.8,20.336-70.465,26.579-78.472C861.5-30.187,904.907-40.671,917.246-43.228
		z"/>
	<g style="display:none;">
		
			<radialGradient id="SVGID_4_" cx="660" cy="346" r="0" gradientTransform="matrix(1 0 0 4 0 -1038)" gradientUnits="userSpaceOnUse">
			<stop  offset="0" style="stop-color:#2484C6"/>
			<stop  offset="1" style="stop-color:#2484C6;stop-opacity:0"/>
		</radialGradient>
		<path style="display:inline;fill:url(#SVGID_4_);stroke:#FFFFFF;stroke-miterlimit:10;" d="M660,346"/>
		<circle style="display:inline;fill:#F9ED32;" cx="218" cy="401" r="3.5"/>
		<circle style="display:inline;opacity:0.17;fill:#F9ED32;" cx="217.984" cy="401.012" r="3.677"/>
		<circle style="display:inline;fill:#F9ED32;" cx="57.016" cy="60.988" r="3.5"/>
		<circle style="display:inline;opacity:0.17;fill:#F9ED32;" cx="57" cy="61" r="3.677"/>
		<circle style="display:inline;fill:#4A64AE;" cx="80.932" cy="571.583" r="2.535"/>
		<circle style="display:inline;opacity:0.17;fill:#4A64AE;" cx="80.92" cy="571.591" r="2.664"/>
		<circle style="display:inline;fill:#4A64AE;" cx="383.814" cy="125.428" r="2.535"/>
		<circle style="display:inline;opacity:0.17;fill:#4A64AE;" cx="383.802" cy="125.436" r="2.664"/>
		<circle style="display:inline;fill:#4A64AE;" cx="396.107" cy="259.749" r="2.535"/>
		<circle style="display:inline;opacity:0.17;fill:#4A64AE;" cx="396.095" cy="259.757" r="2.664"/>
		<circle style="display:inline;opacity:0.17;fill:#4A64AE;" cx="485.803" cy="98.332" r="2.664"/>
		<circle style="display:inline;opacity:0.17;fill:#4A64AE;" cx="508.853" cy="47.988" r="2.664"/>
		<circle style="display:inline;opacity:0.17;fill:#4A64AE;" cx="591.698" cy="400.5" r="2.026"/>
		<ellipse style="display:inline;opacity:0.17;fill:#4A64AE;" cx="624.649" cy="380.144" rx="1.976" ry="1.519"/>
		<circle style="display:inline;opacity:0.17;fill:#4A64AE;" cx="920.003" cy="174.664" r="2.664"/>
		<circle style="display:inline;opacity:0.17;fill:#4A64AE;" cx="930.336" cy="85" r="2.664"/>
		<circle style="display:inline;opacity:0.17;fill:#4A64AE;" cx="945" cy="59.987" r="2.664"/>
		<circle style="display:inline;opacity:0.17;fill:#4A64AE;" cx="66.004" cy="129.423" r="2.664"/>
		<circle style="display:inline;opacity:0.17;fill:#4A64AE;" cx="21.536" cy="82.336" r="2.664"/>
		<circle style="display:inline;fill:#4A64AE;" cx="408.106" cy="174.655" r="2.535"/>
		<circle style="display:inline;opacity:0.17;fill:#4A64AE;" cx="408.094" cy="174.664" r="2.664"/>
		<circle style="display:inline;fill:#4A64AE;" cx="689.844" cy="169.328" r="2.535"/>
		<circle style="display:inline;opacity:0.17;fill:#4A64AE;" cx="689.832" cy="169.336" r="2.664"/>
		<circle style="display:inline;fill:#4A64AE;" cx="914.688" cy="433.632" r="2.535"/>
		<circle style="display:inline;opacity:0.17;fill:#4A64AE;" cx="914.676" cy="433.641" r="2.664"/>
		<circle style="display:inline;fill:#4A64AE;" cx="881.012" cy="517.655" r="2.535"/>
		<circle style="display:inline;opacity:0.17;fill:#4A64AE;" cx="881" cy="517.664" r="2.664"/>
		<circle style="display:inline;fill:#4A64AE;" cx="63.353" cy="229.144" r="2.535"/>
		<circle style="display:inline;opacity:0.17;fill:#4A64AE;" cx="63.341" cy="229.153" r="2.664"/>
		<circle style="display:inline;fill:#4A64AE;" cx="95.012" cy="199.26" r="2.535"/>
		<circle style="display:inline;opacity:0.17;fill:#4A64AE;" cx="95" cy="199.268" r="2.664"/>
		<circle style="display:inline;fill:#4A64AE;" cx="277.949" cy="238.992" r="2.535"/>
		<circle style="display:inline;opacity:0.17;fill:#4A64AE;" cx="277.937" cy="239" r="2.664"/>
		<circle style="display:inline;fill:#4A64AE;" cx="878.348" cy="87.655" r="2.535"/>
		<circle style="display:inline;opacity:0.17;fill:#4A64AE;" cx="878.336" cy="87.664" r="2.664"/>
		<circle style="display:inline;fill:#4A64AE;" cx="899.012" cy="120.101" r="2.535"/>
		<circle style="display:inline;opacity:0.17;fill:#4A64AE;" cx="899" cy="120.109" r="2.664"/>
		<circle style="display:inline;fill:#4A64AE;" cx="63.236" cy="397.326" r="2.535"/>
		<circle style="display:inline;opacity:0.17;fill:#4A64AE;" cx="63.224" cy="397.335" r="2.664"/>
		<circle style="display:inline;fill:#4A64AE;" cx="80.943" cy="409.707" r="2.535"/>
		<circle style="display:inline;opacity:0.17;fill:#4A64AE;" cx="80.932" cy="409.716" r="2.664"/>
		<circle style="display:inline;fill:#F9F9FA;" cx="103.375" cy="438.25" r="1.138"/>
		<circle style="display:inline;opacity:0.17;fill:#F9F9FA;" cx="103.375" cy="438.25" r="1.332"/>
		<circle style="display:inline;fill:#F9F9FA;" cx="417.094" cy="503.345" r="1.138"/>
		<circle style="display:inline;opacity:0.17;fill:#F9F9FA;" cx="417.094" cy="503.345" r="1.332"/>
		<circle style="display:inline;fill:#F9F9FA;" cx="653.341" cy="97" r="1.138"/>
		<circle style="display:inline;opacity:0.17;fill:#F9F9FA;" cx="653.341" cy="97" r="1.332"/>
		<circle style="display:inline;fill:#F9F9FA;" cx="629.332" cy="95.862" r="1.138"/>
		<circle style="display:inline;opacity:0.17;fill:#F9F9FA;" cx="629.332" cy="95.862" r="1.332"/>
		<circle style="display:inline;fill:#F9F9FA;" cx="658.667" cy="110" r="1.138"/>
		<circle style="display:inline;opacity:0.17;fill:#F9F9FA;" cx="658.667" cy="110" r="1.332"/>
		<circle style="display:inline;fill:#F9F9FA;" cx="687.309" cy="125.428" r="1.138"/>
		<circle style="display:inline;opacity:0.17;fill:#F9F9FA;" cx="687.309" cy="125.428" r="1.332"/>
		<circle style="display:inline;fill:#F9F9FA;" cx="815.672" cy="246.594" r="1.138"/>
		<circle style="display:inline;opacity:0.17;fill:#F9F9FA;" cx="815.672" cy="246.594" r="1.332"/>
		<circle style="display:inline;fill:#F9F9FA;" cx="853.572" cy="246.594" r="1.138"/>
		<circle style="display:inline;opacity:0.17;fill:#F9F9FA;" cx="853.572" cy="246.594" r="1.332"/>
		<circle style="display:inline;fill:#F9F9FA;" cx="160.188" cy="520.077" r="0.924"/>
		<circle style="display:inline;opacity:0.17;fill:#F9F9FA;" cx="160.188" cy="520.077" r="1.081"/>
		<circle style="display:inline;fill:#F9F9FA;" cx="900.081" cy="597.664" r="0.924"/>
		<circle style="display:inline;opacity:0.17;fill:#F9F9FA;" cx="900.081" cy="597.664" r="1.081"/>
		<circle style="display:inline;fill:#F9F9FA;" cx="900.081" cy="515" r="0.924"/>
		<circle style="display:inline;opacity:0.17;fill:#F9F9FA;" cx="900.081" cy="515" r="1.081"/>
		<circle style="display:inline;fill:#F9F9FA;" cx="524.5" cy="622.081" r="0.924"/>
		<circle style="display:inline;opacity:0.17;fill:#F9F9FA;" cx="524.5" cy="622.081" r="1.081"/>
		<circle style="display:inline;fill:#F9F9FA;" cx="417.265" cy="34.409" r="0.856"/>
		<circle style="display:inline;opacity:0.17;fill:#F9F9FA;" cx="417.265" cy="34.409" r="1.003"/>
		<circle style="display:inline;fill:#F9F9FA;" cx="737.331" cy="44.323" r="0.856"/>
		<circle style="display:inline;opacity:0.17;fill:#F9F9FA;" cx="737.331" cy="44.323" r="1.003"/>
		<circle style="display:inline;fill:#F9F9FA;" cx="118.904" cy="289.89" r="0.684"/>
		<circle style="display:inline;opacity:0.17;fill:#F9F9FA;" cx="118.904" cy="289.89" r="0.8"/>
		<circle style="display:inline;fill:#F9F9FA;" cx="411.558" cy="199.26" r="0.684"/>
		<circle style="display:inline;opacity:0.17;fill:#F9F9FA;" cx="411.558" cy="199.26" r="0.8"/>
		<circle style="display:inline;fill:#F9F9FA;" cx="436.866" cy="201.932" r="0.684"/>
		<circle style="display:inline;opacity:0.17;fill:#F9F9FA;" cx="436.866" cy="201.932" r="0.8"/>
		<circle style="display:inline;fill:#F9F9FA;" cx="456.333" cy="238.2" r="0.684"/>
		<circle style="display:inline;opacity:0.17;fill:#F9F9FA;" cx="456.333" cy="238.2" r="0.8"/>
		<circle style="display:inline;fill:#F9F9FA;" cx="511.677" cy="415.789" r="0.684"/>
		<circle style="display:inline;opacity:0.17;fill:#F9F9FA;" cx="511.677" cy="415.789" r="0.8"/>
		<circle style="display:inline;fill:#F9F9FA;" cx="589.673" cy="468" r="0.684"/>
		<circle style="display:inline;opacity:0.17;fill:#F9F9FA;" cx="589.673" cy="468" r="0.8"/>
		<circle style="display:inline;fill:#F9F9FA;" cx="621.872" cy="448.983" r="0.684"/>
		<circle style="display:inline;opacity:0.17;fill:#F9F9FA;" cx="621.872" cy="448.983" r="0.8"/>
		<circle style="display:inline;fill:#F9F9FA;" cx="755" cy="463.8" r="0.684"/>
		<circle style="display:inline;opacity:0.17;fill:#F9F9FA;" cx="755" cy="463.8" r="0.8"/>
		<circle style="display:inline;fill:#F9F9FA;" cx="455.533" cy="620.2" r="0.684"/>
		<circle style="display:inline;opacity:0.17;fill:#F9F9FA;" cx="455.533" cy="620.2" r="0.8"/>
		<circle style="display:inline;fill:#F9F9FA;" cx="764.123" cy="494" r="0.684"/>
		<circle style="display:inline;opacity:0.17;fill:#F9F9FA;" cx="764.123" cy="494" r="0.8"/>
		<circle style="display:inline;fill:#F9F9FA;" cx="928.473" cy="259.757" r="0.684"/>
		<circle style="display:inline;opacity:0.17;fill:#F9F9FA;" cx="928.473" cy="259.757" r="0.8"/>
		<circle style="display:inline;fill:#F9F9FA;" cx="933.8" cy="216" r="0.684"/>
		<circle style="display:inline;opacity:0.17;fill:#F9F9FA;" cx="933.8" cy="216" r="0.8"/>
		<circle style="display:inline;fill:#F9F9FA;" cx="46" cy="35.266" r="0.684"/>
		<circle style="display:inline;opacity:0.17;fill:#F9F9FA;" cx="46" cy="35.266" r="0.8"/>
		<circle style="display:inline;fill:#F9F9FA;" cx="21.95" cy="394.791" r="0.684"/>
		<circle style="display:inline;opacity:0.17;fill:#F9F9FA;" cx="21.95" cy="394.791" r="0.8"/>
		<circle style="display:inline;fill:#F9F9FA;" cx="535.8" cy="226.478" r="0.684"/>
		<circle style="display:inline;opacity:0.17;fill:#F9F9FA;" cx="535.8" cy="226.478" r="0.8"/>
		<circle style="display:inline;fill:#F9F9FA;" cx="694.399" cy="306" r="0.684"/>
		<circle style="display:inline;opacity:0.17;fill:#F9F9FA;" cx="694.399" cy="306" r="0.8"/>
		<circle style="display:inline;fill:#F9F9FA;" cx="862.399" cy="127.163" r="0.684"/>
		<circle style="display:inline;opacity:0.17;fill:#F9F9FA;" cx="862.399" cy="127.163" r="0.8"/>
		<circle style="display:inline;fill:#F9F9FA;" cx="120.505" cy="117.565" r="0.684"/>
		<circle style="display:inline;opacity:0.17;fill:#F9F9FA;" cx="120.505" cy="117.565" r="0.8"/>
		<circle style="display:inline;fill:#F9F9FA;" cx="66.138" cy="129.472" r="0.684"/>
		<circle style="display:inline;opacity:0.17;fill:#F9F9FA;" cx="66.138" cy="129.472" r="0.8"/>
		<circle style="display:inline;fill:#F9F9FA;" cx="21.95" cy="82.336" r="0.684"/>
		<circle style="display:inline;opacity:0.17;fill:#F9F9FA;" cx="21.95" cy="82.336" r="0.8"/>
		<circle style="display:inline;fill:#F9F9FA;" cx="21.149" cy="82.336" r="0.684"/>
		<circle style="display:inline;opacity:0.17;fill:#F9F9FA;" cx="21.149" cy="82.336" r="0.8"/>
		<circle style="display:inline;fill:#F9F9FA;" cx="3.988" cy="130.875" r="0.684"/>
		<circle style="display:inline;opacity:0.17;fill:#F9F9FA;" cx="3.988" cy="130.875" r="0.8"/>
		<circle style="display:inline;fill:#F9F9FA;" cx="405.43" cy="258.948" r="0.684"/>
		<circle style="display:inline;opacity:0.17;fill:#F9F9FA;" cx="405.43" cy="258.948" r="0.8"/>
		<circle style="display:inline;fill:#A02821;" cx="25" cy="320" r="0.684"/>
		<circle style="display:inline;opacity:0.17;fill:#A02821;" cx="25" cy="320" r="0.8"/>
		<circle style="display:inline;fill:#A02821;" cx="451.268" cy="419.533" r="0.684"/>
		<circle style="display:inline;opacity:0.17;fill:#A02821;" cx="451.268" cy="419.533" r="0.8"/>
		<circle style="display:inline;fill:#A02821;" cx="117.303" cy="597.664" r="0.684"/>
		<circle style="display:inline;opacity:0.17;fill:#A02821;" cx="117.303" cy="597.664" r="0.8"/>
		<circle style="display:inline;fill:#A02821;" cx="164.2" cy="524" r="0.684"/>
		<circle style="display:inline;opacity:0.17;fill:#A02821;" cx="164.2" cy="524" r="0.8"/>
		<circle style="display:inline;fill:#A02821;" cx="212.333" cy="406.372" r="0.684"/>
		<circle style="display:inline;opacity:0.17;fill:#A02821;" cx="212.333" cy="406.372" r="0.8"/>
		<circle style="display:inline;fill:#A02821;" cx="224.333" cy="423.533" r="0.684"/>
		<circle style="display:inline;opacity:0.17;fill:#A02821;" cx="224.333" cy="423.533" r="0.8"/>
		<circle style="display:inline;fill:#A02821;" cx="28.333" cy="500.988" r="0.684"/>
		<circle style="display:inline;opacity:0.17;fill:#A02821;" cx="28.333" cy="500.988" r="0.8"/>
		<circle style="display:inline;fill:#A02821;" cx="702" cy="138.2" r="0.684"/>
		<circle style="display:inline;opacity:0.17;fill:#A02821;" cx="702" cy="138.2" r="0.8"/>
		<circle style="display:inline;fill:#4A64AE;" cx="291.012" cy="582.328" r="2.535"/>
		<circle style="display:inline;opacity:0.17;fill:#4A64AE;" cx="291" cy="582.336" r="2.664"/>
		<circle style="display:inline;fill:#4A64AE;" cx="310.348" cy="594.992" r="2.535"/>
		<circle style="display:inline;opacity:0.17;fill:#4A64AE;" cx="310.336" cy="595" r="2.664"/>
		<circle style="display:inline;fill:#4A64AE;" cx="657.348" cy="592.448" r="2.535"/>
		<circle style="display:inline;opacity:0.17;fill:#4A64AE;" cx="657.336" cy="592.456" r="2.664"/>
		<circle style="display:inline;fill:#4A64AE;" cx="672.348" cy="606.992" r="2.535"/>
		<circle style="display:inline;opacity:0.17;fill:#4A64AE;" cx="672.336" cy="607" r="2.664"/>
		<circle style="display:inline;fill:#F9ED32;" cx="183.063" cy="30.988" r="3.5"/>
		<circle style="display:inline;opacity:0.17;fill:#F9ED32;" cx="183.047" cy="31" r="3.677"/>
		<circle style="display:inline;fill:#F9ED32;" cx="199.693" cy="47.988" r="3.5"/>
		<circle style="display:inline;opacity:0.17;fill:#F9ED32;" cx="199.677" cy="48" r="3.677"/>
		<circle style="display:inline;fill:#F9ED32;" cx="444.955" cy="412.371" r="2.513"/>
		<circle style="display:inline;opacity:0.17;fill:#F9ED32;" cx="444.943" cy="412.38" r="2.64"/>
		<circle style="display:inline;fill:#F9ED32;" cx="508.016" cy="500.988" r="3.5"/>
		<circle style="display:inline;opacity:0.17;fill:#F9ED32;" cx="508" cy="501" r="3.677"/>
		<circle style="display:inline;fill:#F9ED32;" cx="578.016" cy="378.988" r="3.5"/>
		<circle style="display:inline;opacity:0.17;fill:#F9ED32;" cx="578" cy="379" r="3.677"/>
		<circle style="display:inline;fill:#F9ED32;" cx="692.528" cy="229.153" r="2.554"/>
		<circle style="display:inline;opacity:0.17;fill:#F9ED32;" cx="692.516" cy="229.161" r="2.684"/>
		<circle style="display:inline;fill:#F9ED32;" cx="767.016" cy="411.299" r="3.5"/>
		<circle style="display:inline;opacity:0.17;fill:#F9ED32;" cx="767" cy="411.311" r="3.677"/>
		<circle style="display:inline;fill:#F9ED32;" cx="773.797" cy="428.506" r="2.345"/>
		<circle style="display:inline;opacity:0.17;fill:#F9ED32;" cx="773.786" cy="428.513" r="2.464"/>
		<line style="display:inline;fill:none;" x1="173.042" y1="254.958" x2="173.042" y2="253.5"/>
		<path style="display:inline;" d="M171.753,253.729"/>
		<polygon style="display:inline;fill:none;stroke:#B5E3EE;stroke-width:2;stroke-linejoin:round;stroke-miterlimit:10;" points="
			97.203,216.055 97.203,246.614 85.15,246.614 102.404,268.898 120.88,246.614 108.829,246.614 108.829,216.055 		"/>
		
			<polygon style="display:inline;opacity:0.27;fill:none;stroke:#B5E3EE;stroke-width:3;stroke-linejoin:round;stroke-miterlimit:10;" points="
			97,216.055 97,246.707 84.589,246.707 102.356,269.058 121.38,246.707 108.971,246.707 108.971,216.055 		"/>
		<path style="display:inline;fill:none;stroke:#B5E3EE;stroke-width:2;stroke-linejoin:round;stroke-miterlimit:10;" d="
			M200.886,317.676h25.495c0.971,0,1.758,0.787,1.758,1.758v4.84c0,1.406,1.568,2.243,2.736,1.461l16.31-10.915
			c1.02-0.683,1.044-2.175,0.046-2.89l-16.31-11.688c-1.163-0.834-2.782-0.002-2.782,1.429v4.707c0,0.971-0.787,1.758-1.758,1.758
			h-25.495c-0.971,0-1.758,0.787-1.758,1.758v6.023C199.128,316.889,199.915,317.676,200.886,317.676z"/>
		
			<path style="display:inline;opacity:0.27;fill:none;stroke:#B5E3EE;stroke-width:3;stroke-linejoin:round;stroke-miterlimit:10;" d="
			M200.886,317.843h25.583c0.971,0,1.758,0.787,1.758,1.758v5.085c0,1.415,1.587,2.251,2.754,1.449l16.428-11.286
			c0.997-0.685,1.021-2.149,0.046-2.865l-16.428-12.085c-1.161-0.854-2.8-0.025-2.8,1.416v4.948c0,0.971-0.787,1.758-1.758,1.758
			h-25.583c-0.971,0-1.758,0.787-1.758,1.758v6.306C199.128,317.056,199.915,317.843,200.886,317.843z"/>
		<path style="display:inline;fill:none;stroke:#B5E3EE;stroke-width:2;stroke-linejoin:round;stroke-miterlimit:10;" d="
			M201.816,156.007h25.495c0.971,0,1.758,0.787,1.758,1.758v4.84c0,1.406,1.568,2.243,2.736,1.461l16.31-10.915
			c1.02-0.683,1.044-2.175,0.046-2.89l-16.31-11.688c-1.163-0.834-2.782-0.002-2.782,1.429v4.708c0,0.971-0.787,1.758-1.758,1.758
			h-25.495c-0.971,0-1.758,0.787-1.758,1.758v6.023C200.058,155.219,200.845,156.007,201.816,156.007z"/>
		
			<path style="display:inline;opacity:0.27;fill:none;stroke:#B5E3EE;stroke-width:3;stroke-linejoin:round;stroke-miterlimit:10;" d="
			M201.816,156.173H227.4c0.971,0,1.758,0.787,1.758,1.758v5.085c0,1.415,1.587,2.251,2.754,1.449l16.428-11.286
			c0.997-0.685,1.021-2.149,0.046-2.865l-16.428-12.085c-1.161-0.854-2.8-0.025-2.8,1.416v4.948c0,0.971-0.787,1.758-1.758,1.758
			h-25.583c-0.971,0-1.758,0.787-1.758,1.758v6.306C200.058,155.386,200.845,156.173,201.816,156.173z"/>
		<path style="display:inline;fill:none;stroke:#B5E3EE;stroke-width:2;stroke-linejoin:round;stroke-miterlimit:10;" d="
			M316.885,156.532h25.495c0.971,0,1.758,0.787,1.758,1.758v4.84c0,1.406,1.568,2.243,2.736,1.461l16.31-10.915
			c1.02-0.683,1.044-2.175,0.046-2.89l-16.31-11.688c-1.163-0.834-2.782-0.002-2.782,1.429v4.707c0,0.971-0.787,1.758-1.758,1.758
			h-25.495c-0.971,0-1.758,0.787-1.758,1.758v6.023C315.127,155.745,315.914,156.532,316.885,156.532z"/>
		
			<path style="display:inline;opacity:0.27;fill:none;stroke:#B5E3EE;stroke-width:3;stroke-linejoin:round;stroke-miterlimit:10;" d="
			M316.885,156.699h25.583c0.971,0,1.758,0.787,1.758,1.758v5.085c0,1.415,1.587,2.251,2.754,1.449l16.428-11.286
			c0.997-0.685,1.021-2.149,0.046-2.865l-16.428-12.085c-1.161-0.854-2.8-0.025-2.8,1.416v4.948c0,0.971-0.787,1.758-1.758,1.758
			h-25.583c-0.971,0-1.758,0.787-1.758,1.758v6.306C315.127,155.912,315.914,156.699,316.885,156.699z"/>
		<path style="display:inline;fill:none;stroke:#B5E3EE;stroke-width:2;stroke-linejoin:round;stroke-miterlimit:10;" d="
			M431.554,157.279h25.495c0.971,0,1.758,0.787,1.758,1.758v4.84c0,1.406,1.568,2.243,2.736,1.461l16.31-10.915
			c1.02-0.683,1.044-2.175,0.046-2.89l-16.31-11.688c-1.163-0.834-2.782-0.002-2.782,1.429v4.708c0,0.971-0.787,1.758-1.758,1.758
			h-25.495c-0.971,0-1.758,0.787-1.758,1.758v6.023C429.796,156.491,430.583,157.279,431.554,157.279z"/>
		
			<path style="display:inline;opacity:0.27;fill:none;stroke:#B5E3EE;stroke-width:3;stroke-linejoin:round;stroke-miterlimit:10;" d="
			M431.554,157.445h25.583c0.971,0,1.758,0.787,1.758,1.758v5.085c0,1.415,1.587,2.251,2.754,1.449l16.428-11.286
			c0.997-0.685,1.021-2.149,0.046-2.865L461.695,139.5c-1.161-0.854-2.8-0.025-2.8,1.416v4.948c0,0.971-0.787,1.758-1.758,1.758
			h-25.583c-0.971,0-1.758,0.787-1.758,1.758v6.306C429.796,156.658,430.583,157.445,431.554,157.445z"/>
		<path style="display:inline;fill:none;stroke:#B5E3EE;stroke-width:2;stroke-linejoin:round;stroke-miterlimit:10;" d="
			M560.261,111.066h25.495c0.971,0,1.758,0.787,1.758,1.758v4.84c0,1.406,1.568,2.243,2.736,1.461l16.31-10.915
			c1.02-0.683,1.044-2.175,0.046-2.89l-16.31-11.688c-1.163-0.834-2.782-0.002-2.782,1.429v4.707c0,0.971-0.787,1.758-1.758,1.758
			h-25.495c-0.971,0-1.758,0.787-1.758,1.758v6.023C558.503,110.279,559.29,111.066,560.261,111.066z"/>
		
			<path style="display:inline;opacity:0.27;fill:none;stroke:#B5E3EE;stroke-width:3;stroke-linejoin:round;stroke-miterlimit:10;" d="
			M560.261,111.232h25.583c0.971,0,1.758,0.787,1.758,1.758v5.085c0,1.415,1.587,2.251,2.754,1.449l16.428-11.286
			c0.997-0.685,1.021-2.149,0.046-2.865l-16.428-12.085c-1.161-0.854-2.8-0.025-2.8,1.416v4.948c0,0.971-0.787,1.758-1.758,1.758
			h-25.583c-0.971,0-1.758,0.787-1.758,1.758v6.306C558.503,110.445,559.29,111.232,560.261,111.232z"/>
		<path style="display:inline;fill:none;stroke:#B5E3EE;stroke-width:2;stroke-linejoin:round;stroke-miterlimit:10;" d="
			M560.278,198.193h25.495c0.971,0,1.758,0.787,1.758,1.758v4.84c0,1.406,1.568,2.243,2.736,1.461l16.31-10.915
			c1.02-0.683,1.044-2.175,0.046-2.89l-16.31-11.688c-1.163-0.834-2.782-0.002-2.782,1.429v4.708c0,0.971-0.787,1.758-1.758,1.758
			h-25.495c-0.971,0-1.758,0.787-1.758,1.758v6.023C558.52,197.406,559.307,198.193,560.278,198.193z"/>
		
			<path style="display:inline;opacity:0.27;fill:none;stroke:#B5E3EE;stroke-width:3;stroke-linejoin:round;stroke-miterlimit:10;" d="
			M560.278,198.36h25.583c0.971,0,1.758,0.787,1.758,1.758v5.085c0,1.415,1.587,2.251,2.754,1.449l16.428-11.286
			c0.997-0.685,1.021-2.149,0.046-2.865l-16.428-12.085c-1.161-0.854-2.8-0.025-2.8,1.416v4.948c0,0.971-0.787,1.758-1.758,1.758
			h-25.583c-0.971,0-1.758,0.787-1.758,1.758v6.306C558.52,197.573,559.307,198.36,560.278,198.36z"/>
		<path style="display:inline;fill:none;stroke:#B5E3EE;stroke-width:2;stroke-linejoin:round;stroke-miterlimit:10;" d="
			M695.81,177.491h25.495c0.971,0,1.758,0.787,1.758,1.758v4.84c0,1.406,1.568,2.243,2.736,1.461l16.31-10.915
			c1.021-0.683,1.044-2.175,0.046-2.89l-16.31-11.688c-1.163-0.834-2.782-0.002-2.782,1.429v4.708c0,0.971-0.787,1.758-1.758,1.758
			H695.81c-0.971,0-1.758,0.787-1.758,1.758v6.023C694.052,176.704,694.839,177.491,695.81,177.491z"/>
		
			<path style="display:inline;opacity:0.27;fill:none;stroke:#B5E3EE;stroke-width:3;stroke-linejoin:round;stroke-miterlimit:10;" d="
			M695.81,177.658h25.583c0.971,0,1.758,0.787,1.758,1.758v5.085c0,1.415,1.587,2.251,2.754,1.449l16.428-11.286
			c0.997-0.685,1.021-2.149,0.046-2.865l-16.428-12.085c-1.161-0.854-2.8-0.025-2.8,1.416v4.948c0,0.971-0.787,1.758-1.758,1.758
			H695.81c-0.971,0-1.758,0.787-1.758,1.758v6.306C694.052,176.871,694.839,177.658,695.81,177.658z"/>
		<path style="display:inline;fill:none;stroke:#B5E3EE;stroke-width:2;stroke-linejoin:round;stroke-miterlimit:10;" d="
			M695.763,259.292h25.495c0.971,0,1.758,0.787,1.758,1.758v4.84c0,1.406,1.568,2.243,2.736,1.461l16.31-10.915
			c1.02-0.683,1.044-2.175,0.046-2.89l-16.31-11.688c-1.163-0.834-2.782-0.002-2.782,1.429v4.707c0,0.971-0.787,1.758-1.758,1.758
			h-25.495c-0.971,0-1.758,0.787-1.758,1.758v6.023C694.005,258.505,694.792,259.292,695.763,259.292z"/>
		
			<path style="display:inline;opacity:0.27;fill:none;stroke:#B5E3EE;stroke-width:3;stroke-linejoin:round;stroke-miterlimit:10;" d="
			M695.763,259.459h25.583c0.971,0,1.758,0.787,1.758,1.758v5.085c0,1.415,1.587,2.251,2.754,1.449l16.428-11.286
			c0.997-0.685,1.021-2.149,0.046-2.865l-16.428-12.085c-1.161-0.854-2.8-0.025-2.8,1.416v4.948c0,0.971-0.787,1.758-1.758,1.758
			h-25.583c-0.971,0-1.758,0.787-1.758,1.758v6.306C694.005,258.672,694.792,259.459,695.763,259.459z"/>
		<path style="display:inline;fill:none;stroke:#B5E3EE;stroke-width:2;stroke-linejoin:round;stroke-miterlimit:10;" d="
			M200.872,479.952h25.495c0.971,0,1.758,0.787,1.758,1.758v4.84c0,1.406,1.568,2.243,2.736,1.461l16.31-10.915
			c1.02-0.683,1.044-2.175,0.046-2.89l-16.31-11.688c-1.163-0.834-2.782-0.002-2.782,1.429v4.707c0,0.971-0.787,1.758-1.758,1.758
			h-25.495c-0.971,0-1.758,0.787-1.758,1.758v6.023C199.114,479.165,199.901,479.952,200.872,479.952z"/>
		
			<path style="display:inline;opacity:0.27;fill:none;stroke:#B5E3EE;stroke-width:3;stroke-linejoin:round;stroke-miterlimit:10;" d="
			M200.872,480.119h25.583c0.971,0,1.758,0.787,1.758,1.758v5.085c0,1.415,1.587,2.251,2.754,1.449l16.428-11.286
			c0.997-0.685,1.021-2.149,0.046-2.865l-16.428-12.085c-1.161-0.854-2.8-0.025-2.8,1.416v4.948c0,0.971-0.787,1.758-1.758,1.758
			h-25.583c-0.971,0-1.758,0.787-1.758,1.758v6.306C199.114,479.332,199.901,480.119,200.872,480.119z"/>
		<path style="display:inline;fill:none;stroke:#B5E3EE;stroke-width:3;stroke-linejoin:round;stroke-miterlimit:10;" d="
			M114.826,214.269"/>
		<path style="display:inline;fill:none;stroke:#B5E3EE;stroke-width:2;stroke-linejoin:round;stroke-miterlimit:10;" d="
			M811.659,178.841h25.495c0.971,0,1.758,0.787,1.758,1.758v4.84c0,1.406,1.568,2.243,2.736,1.461l16.31-10.915
			c1.02-0.683,1.044-2.175,0.046-2.89l-16.31-11.688c-1.163-0.834-2.782-0.002-2.782,1.429v4.708c0,0.971-0.787,1.758-1.758,1.758
			h-25.495c-0.971,0-1.758,0.787-1.758,1.758v6.023C809.901,178.054,810.688,178.841,811.659,178.841z"/>
		
			<path style="display:inline;opacity:0.27;fill:none;stroke:#B5E3EE;stroke-width:3;stroke-linejoin:round;stroke-miterlimit:10;" d="
			M811.659,179.008h25.583c0.971,0,1.758,0.787,1.758,1.758v5.085c0,1.415,1.587,2.251,2.754,1.449l16.428-11.286
			c0.997-0.685,1.021-2.149,0.046-2.865L841.8,161.063c-1.161-0.854-2.8-0.025-2.8,1.416v4.948c0,0.971-0.787,1.758-1.758,1.758
			h-25.583c-0.971,0-1.758,0.787-1.758,1.758v6.306C809.901,178.221,810.688,179.008,811.659,179.008z"/>
		<path style="display:inline;fill:none;stroke:#B5E3EE;stroke-width:2;stroke-linejoin:round;stroke-miterlimit:10;" d="
			M811.612,260.642h25.495c0.971,0,1.758,0.787,1.758,1.758v4.84c0,1.406,1.568,2.243,2.736,1.461l16.31-10.915
			c1.02-0.683,1.044-2.175,0.046-2.89l-16.31-11.688c-1.163-0.834-2.782-0.002-2.782,1.429v4.707c0,0.971-0.787,1.758-1.758,1.758
			h-25.495c-0.971,0-1.758,0.787-1.758,1.758v6.023C809.854,259.855,810.641,260.642,811.612,260.642z"/>
		
			<path style="display:inline;opacity:0.27;fill:none;stroke:#B5E3EE;stroke-width:3;stroke-linejoin:round;stroke-miterlimit:10;" d="
			M811.612,260.808h25.583c0.971,0,1.758,0.787,1.758,1.758v5.085c0,1.415,1.587,2.251,2.754,1.449l16.428-11.286
			c0.997-0.685,1.021-2.149,0.046-2.865l-16.428-12.085c-1.161-0.854-2.8-0.025-2.8,1.416v4.948c0,0.971-0.787,1.758-1.758,1.758
			h-25.583c-0.971,0-1.758,0.787-1.758,1.758v6.306C809.854,260.021,810.641,260.808,811.612,260.808z"/>
	</g>
</g>
</svg>
