<?xml version="1.0" encoding="utf-8"?>
<!-- Generator: Adobe Illustrator 19.0.0, SVG Export Plug-In . SVG Version: 6.00 Build 0)  -->
<svg version="1.1" id="Layer_1" xmlns="http://www.w3.org/2000/svg" xmlns:xlink="http://www.w3.org/1999/xlink" x="0px" y="0px"
	 viewBox="-178 -182 834.1 1203.9" style="enable-background:new -178 -182 834.1 1203.9;" xml:space="preserve">
<g id="Layer_4">
	<path style="fill:#DD8D57;" d="M357.4,177.8c22,3,31,10.1,34.6,17.3c8,16.2-14.1,33-4,50.9c5.1,9.1,13.5-2.5,33.1,7.9
		c31.4,16.8,24.8,72.1,29.1,79.5c2,3.4-5.7,6,11.9,8.6c14,2.1,5.4,11.7,13,14.3c13.6,4.7,4.6,13,15,14.3c5.1,0.6,5.7,6.2,13.7,2.7
		c0.6-0.3,1.1-0.5,1.5-0.7c2.1-1.1,1.2,4.5-0.5,12c-2.6,10.9-17.2,43-23.7,48.8c-20,17.8-27.6,15.1-38.7,26.2
		c-11.2,11.2,5.1,5.6,0.9,40c-2.9,23.3-7.9,69.8-29.6,74.9c-17.3,4.1-38.4-22-55.3-11.5c-4.8,3-10.1,8.7-13.8,14.4
		c-1.8,2.8-5,8.3-7.9,20.2c-5.5,22.3-0.2,26.9-5.9,33.6c-9,10.4-29.2,7.3-32.6,6.7c-3.6-0.6-12.6-2.1-20.7-8.6
		c-7.8-6.3-6.7-10.7-14.8-17.3c-3.1-2.5-10.2-8.3-19.8-8.6c-11.4-0.4-19.6,7.1-29.6,16.3c-8.1,7.5-8.2,5.3-7.9,11.4
		c0.4,7.3-1,12.1,4.9,21.7c7.7,12.7-3.1,15.6-9,18.3c-5.3,2.4-19.9-5.7-36.5-17.5c-14.3-10.2-8.9,2.1-44.2-13.2
		c-46.8-20.3-33.2-20.6-48.6-19.8c-10.4,0.6-22.9,4.1-34.6-2.9c-5.5-3.3-9.4-7.8-10.9-9.6c-1.4-1.7-4.9-6-10.9-19.2
		c-2.7-6.1-5-11-6.9-17.3c-7.5-23.9-1.2-37.6-9.9-42.3c-4.3-2.4-8.1-1.3-13.8-1c-37.3,2.3-67.1-29.8-72.1-35.5
		c-9.6-10.8-10.6-17.3-10.9-20.2c-0.8-9.7,5-12.2,4-21.1c-1.2-10.3-9.5-12.1-15.8-25c-5.1-10.3-5-19.9-4.9-25
		c0.1-13.6,6-24.6,17.8-46.1c7.4-13.6,11.3-20.4,16.8-24c10.3-6.6,17.2-2.8,36.6-5.8c14.4-2.2,36.7-5.6,44.5-19.2
		c5.5-9.5-1.7-14.3-3-40.3c-0.5-10.6-1.2-30.1,6.9-50.9c7-17.7,12.5-16.3,14.8-28.8c4.1-22.7-1.6-47.2,23-48.1c1.2,0,2.4,0,3.7,0
		c7.5,0.4,20.7,1.5,38.5,5.8c5.1,1.2,21.1,5.2,63.2,23c32.5,13.8,37.6,17.6,50.4,17.3c16.1-0.4,17.8-6.9,37.5-11.5
		c26.7-6.3,66.7-4.7,78.1,14.4c7.6,12.8-4.8,23.7,4.9,37.5c12.8,18.1,39,20.3,40.5,17.3c1.3-2.6-16.6-8.2-27.7-27.8
		c-3.7-6.6-9-16-6.9-26.9c2.1-11.1,10.5-16.2,7.9-22.1c-1.9-4.3-7.2-3.6-13.8-6.7c-22.6-10.8-19.3-4.2-13.5-4.9
		c0.6-0.1,1.5-0.8,2.2-3.5c0.8-1.2,1.6-2.5,2.4-3.7"/>
	<path style="fill:#CCA78C;" d="M143,198.1c6.7,26.9,55.1,17.8,49.1,22.2c-10.5,7.6,26,4.1,37.5-0.7c7.8-3.2,0.8-17.7,17.6-13.1
		c16.8,4.5,15.4-20.8,34.5-24.2c4.3-0.8,26.4-4.8,37.4,6.2c4.8,4.8,4.9,9.8,13,17.1c4.8,4.3,9.3,6.6,14.7,9.3
		c12.9,6.6,15.4,4.8,22.8,9.3c11.7,7.2,16.5,18.6,17.9,21.8c4.2,9.9,1.5,13.5,3.3,26.5c1.9,14.3,8.9,26.7,22.8,51.4
		c9.7,17.2,12.7,19.5,16.3,20.2c13.5,2.7,29.5-18.5,29.3-18.7c-0.3-0.3-31.2,17.6-39.1,45.2c-2.8,9.8,9.9,22.4-0.8,28.7
		s11.8,31.7,10.5,32.1c-1.2,0.4-8.6-13.8-8.1-14c0.6-0.3,26.6,23.1,13,31.2c-22,13-50.4,47.7-21.2,59.2c9.5,3.7,9.6,9,9.8,14
		c0.2,5.2-23.7,52.7-30.7,20s-87.9,27.5-81.6,17.4c0.8-1.2-39.6-14.3-35.8,0.9c3.8,15.2-26.8,2.6-27,3.7c-1.1,7.2-7.6,2.4-7.6,3.6
		c0,3.6-40.5,25.7-32,8.8s-19.3,2.7-19.6,3.2c-2.9,5.3,5.7,12,11.4,17.1c13.4,12.1,27.9,12.6,27.7,15.6c-0.2,3.5-20.2,7.3-45.6,6.2
		c-11.2-0.5-39.3,10.6-32.6-3.7c6.7-14.3-59.7-17.8-58.6-22.8c1.3-5.9,41.7-5.6,42.3-1.6c0.6,3.5-51.9,29.8-52.5,14.7
		s-16.1-2.5-22.4-7c-10.2-7.3-29.9-11.7-21.2-38.9c2.1-6.6-8-46.6-1-35.8c6.9,10.8-7-29.2-10.7-25.3c-7.1,7.3-42.5-28.8-29.1-32.6
		s-18.2-16.6-28.2-11.5c-10.9-5.2-21.3-8.7-25.3-3.8c-2.8,3.5-2-3.1-8.1-17.1c-1.5-3.5-17.5-44,4.9-27.4c12.2,9.1-1-5.4,16-21
		c16.9-15.6-0.1-30.6,1.8-38.8c3.9-16.6,1.3-37.5-11.4-48.3c-8.5-7.1-20.5-9.1-21.2-7.8c-1.1,2.2,30.6,19.4,65.1,26.5
		c8.1,1.7,12.2,1.9,16.3,0c6.6-3.2-2-25.4,13.6-21.6s2.3-22.2-0.6-33c-2.6-9.7-7-16.4-3.3-23.4c3.4-6.3,9.1-4.9,14.7-10.9
		c10.6-11.4-0.2-27.3,8.1-37.4c0.3-0.3,6.2,12.7,18.8-3.4s22.5-0.3,22.5,7c0,4.7,25.3,15.6,16.3,7.6c-0.9-0.8,17.6,12.3,26.6-4.6
		S142.4,195.7,143,198.1z"/>
	<g>
		<path style="fill:#2F6F87;" d="M180.7,253.5c8.2,1.8,13.2,0.3,16.3-1.4c3.7-2,5.4-4.8,10.3-6c2.5-0.6,5-0.6,8.8,0
			c10,1.7,17.4,5.8,17.8,6c6.2,3.5,16.8,7.2,35.6,8.2c20.5,1.3,26.2,5.4,27.5,9.1c0.5,1.6,2.1,8.5,2.1,8.5c5.9-0.3,10.2,0.1,13,0.6
			c1.5,0.3,3,0.6,3.9,1.8c0.8,1.1,0.8,2.3,0.6,6.3c-0.2,4.8-0.3,4.9-0.3,5.4c0.3,5,7.7,8,11.5,9.7c7.6,3.3,11.6,2.5,12.1,4.5
			c0.6,2.6-4.6,7.4-9.7,7.2c-4.4-0.1-6-3.9-8.5-3c-4,1.4-2.6,13.1-4.2,13.3c-1.1,0.1-2.8-4.8-1.8-5.4c1.3-0.8,5,7.4,13.3,9.7
			c5.8,1.6,7.6-1.5,12.1,0.6c5.5,2.6,3.8,7.7,10.3,12.7c5.3,4.1,9.9,3.2,10.9,6.6c0.7,2.7-2,3.7-2.4,8.5c-0.3,3.5,0.6,8,3.6,10.9
			c3.5,3.3,7.3,1.9,8.5,4.2c1.4,2.9-3.3,7.4-7.2,12.1c0,0-8.6,10-13.9,20.5c-9.9,19.8,20.4,40.3,11.5,59.8
			c-4.6,10.1-19.4,19-30.8,22.4c-5.4,1.6-8.8,1.6-12.7,4.8c-7.3,6.1-3.7,13-9.1,26c-3.7,8.7-12.1,15.9-28.9,30.2
			c-1.5,1.2-2.9,2.4-4.9,2.4c-7.7,0.1-9.6-17.4-18.7-18.7c-3-0.4-2.7,1.4-14.5,4.8c-2.7,0.8-5,1.3-9.7,2.4c-7.9,1.9-11.9,2.8-13.9,3
			c-9.8,1.1-10.9-3.7-21.1-4.2c-7.2-0.4-13.3,1.8-25.4,6c-6.1,2.2-11.1,4.4-17.5,3c-2.4-0.5-4-1.4-7.2-3
			c-10.5-5.4-11.7-10-16.9-10.3c-6-0.4-8.1,5.5-11.5,4.2c-6.9-2.5-3.8-28.9-4.8-29c-0.5,0-0.9,4.8-1.8,4.8c-1.3,0-0.1-10.2-5.4-13.9
			c-1.2-0.8-1.9-0.8-12.7-0.6c-9.5,0.2-11.2,0.3-12.7,1.8c-3.1,3.2-1,8.7-2.4,9.1c-2.6,0.7-10.3-16.9-10.3-16.9s5.4-3.7,8.5-8.5
			c4-6.2,4.2-14.5,4.2-14.5s-12.7-13.1-22.4-10.9c-6.4,1.5-7,8.7-12.1,8.5c-4.4-0.2-8.7-5.8-9.1-10.9c-0.4-5,3.1-9.6,5.4-12.7
			c2.1-2.8,3-3,4.2-5.4c2-4.1,0.6-5.6,2.4-9.1c0.2-0.3,2.6-4.6,7.2-6c3.3-1,4.6,0.5,6.6-0.6c1.9-1,3.2-3.5,3.6-11.5
			c0.6-11.5-1.4-19.7-0.6-19.9c0.6-0.2,2.6,4.7,2.4,4.8c-0.3,0.1-7.8-8.9-6-17.5c1-4.8,3.9-4.8,5.4-10.3c1.6-5.6-0.1-10.6-1.8-15.7
			c-3.9-11.7-9.8-15.2-7.9-19.9c0.5-1.3,2.6-2.7,6.6-5.4c6.8-4.7,8.6-4.7,12.7-7.9c4.5-3.5,7.8-6.1,8.5-10.3
			c0.8-5.3-3-11.1-4.8-13.9c-2.2-3.4-3.7-4.3-3.6-6.6c0.2-3.8,4.5-7.4,6.6-6.6c2.1,0.7,1.1,4.9,3.6,6c1.9,0.9,5-0.4,6-2.4
			c1.2-2.3,0-6,0-6c5.7-4.7,8.5-7.9,8.5-7.9c7.4-8.3,5.3-15.8,9.7-16.9c3.2-0.8,7.5,2.5,9.1,6c2.2,5-1.8,9.2,0.6,12.1
			c1.9,2.2,6.6,2.4,9.7,0.6c6.7-3.9,6.6-17.4,6-17.5c-0.4-0.1-2.3,4.5-1.2,5.4c2.4,2,18-16.1,22.4-13.3c3,2-0.2,13.3-0.6,13.3
			c-0.3,0-0.3-4.6,0.6-4.8c1.3-0.3,3.4,8.1,5.4,7.9c1.8-0.2,0.7-7.5,5.4-10.9c1.9-1.4,4.4-1.9,4.8-1.2c0.9,1.2-5.4,6.5-4.8,7.2
			C171,259.4,173.5,258.3,180.7,253.5z"/>
		<path style="fill:#1B75BC;" d="M275.8,550.1c-4,0-6.5-4.3-9-8.8c-2.6-4.6-5.3-9.3-9.7-9.9c-1.3-0.2-1.9,0.1-3.4,0.8
			c-1.7,0.8-4.7,2.2-10.9,4c-2.7,0.8-5,1.3-9.6,2.4c-8,1.9-12,2.8-14,3c-5.4,0.6-8.3-0.6-11.3-1.8c-2.6-1.1-5.3-2.2-9.9-2.4
			c-7.1-0.3-13.2,1.8-25.2,6c-0.7,0.2-1.3,0.5-2,0.7c-5.3,1.9-9.9,3.6-15.8,2.3c-2.5-0.5-4.1-1.4-7.4-3.1c-5-2.6-8-5-10.2-6.8
			c-2.5-2-4-3.3-6.6-3.4c-3.1-0.2-5,1.3-6.8,2.6c-1.6,1.2-3,2.3-4.9,1.6c-5.3-1.9-5.1-15.9-4.9-24.2c0-1,0-2,0-2.8
			c-0.4,1.8-0.8,2.9-1.6,2.9c-0.8,0-1-1.1-1.3-3.3c-0.4-3.3-1.1-8.3-4.4-10.7c-1-0.7-1.8-0.7-12.4-0.5c-9.2,0.2-11,0.3-12.3,1.7
			c-1.7,1.8-1.7,4.3-1.7,6.2c0,1.5,0,2.7-0.9,3c-2.6,0.7-7.9-10.5-10.9-17.2l-1.1-2.4l1.6,1.6c1.2-0.9,5.4-4.1,8-8.1
			c3.5-5.5,4.1-12.7,4.1-14c-1.5-1.5-13-12.6-21.7-10.6c-3,0.7-4.6,2.7-6.2,4.7c-1.6,2-3.2,3.9-6,3.8c-4.9-0.2-9.1-6.3-9.5-11.3
			c-0.4-5.2,3.2-9.9,5.5-13c0.9-1.1,1.5-1.8,2.1-2.4c0.8-0.9,1.4-1.5,2.1-2.9c1-2,1.1-3.3,1.2-4.6c0.1-1.3,0.2-2.7,1.2-4.5
			c0.3-0.5,2.7-4.8,7.5-6.3c1.8-0.5,3-0.4,4-0.3c1,0.1,1.6,0.2,2.5-0.3c1.5-0.8,2.9-2.7,3.4-11.1c0.4-6.8-0.2-12.5-0.5-16
			c-0.1-1-0.2-1.7-0.2-2.3c-2.1-3.5-4.6-9-3.5-14.4c0.5-2.5,1.5-3.8,2.6-5.1c1-1.3,2.1-2.6,2.8-5.2c1.5-5.5-0.1-10.3-1.8-15.4
			c-1.7-5.1-3.8-8.6-5.5-11.4c-2.1-3.6-3.5-6-2.4-8.9c0.6-1.4,2.5-2.7,6.8-5.7c3.4-2.3,5.6-3.5,7.4-4.5c1.8-1,3.3-1.8,5.3-3.4
			c4.4-3.5,7.7-6,8.3-10c0.8-5.1-3-10.8-4.8-13.5c-0.6-1-1.2-1.8-1.7-2.4c-1.2-1.6-2-2.7-2-4.5c0.1-2.6,2-5,3.8-6.2
			c1.3-0.9,2.6-1.2,3.5-0.9c1.2,0.4,1.6,1.7,1.9,3c0.3,1.2,0.7,2.5,1.8,3c1.6,0.7,4.5-0.4,5.4-2.2c1.1-2.1,0-5.6,0-5.7l-0.1-0.3
			l0.3-0.2c5.6-4.6,8.4-7.8,8.4-7.8c3.8-4.2,5-8.4,6-11.4c0.9-2.9,1.6-5.1,3.9-5.7c3.6-0.9,8,2.6,9.6,6.3c1.2,2.7,0.7,5.1,0.2,7.3
			c-0.4,1.9-0.7,3.5,0.3,4.7c1.7,2,6,2.2,9,0.5c3.5-2.1,5.1-7,5.7-11c-0.4,0-0.7-0.1-0.9-0.3c-1.4-1.2,0.6-5.3,0.6-5.3
			c0.3-0.6,0.6-1.1,1.1-1c0.4,0.1,0.5,0.6,0.5,0.9c0.1,0.8,0.1,2.3,0,4.2c1.8-1,4.6-3.4,6.7-5.1c5.6-4.7,11.4-9.5,14.1-7.7
			c2,1.3,1.6,5.8,1,9.3c0.4,0.6,0.9,1.6,1.4,2.7c0.7,1.5,2,4.3,2.8,4.3c0.4,0,0.7-1.4,0.9-2.6c0.6-2.6,1.3-6.1,4.3-8.2
			c1.5-1.1,3.5-1.8,4.7-1.6c0.4,0.1,0.7,0.2,0.8,0.5c0.7,1-0.6,2.5-2.9,5c-0.6,0.6-1.3,1.4-1.6,1.9c0.9-0.4,3.2-1.6,9-5.4l0.2-0.1
			h0.2c6.4,1.4,11.8,1,16-1.3c1.3-0.7,2.4-1.6,3.4-2.4c1.8-1.4,3.7-2.9,6.9-3.7c2.6-0.7,5.1-0.7,9,0c9.8,1.6,17.2,5.6,18,6.1
			c8.3,4.6,20.2,7.3,35.4,8.1c17,1.1,26.1,4.1,27.9,9.4c0.5,1.4,1.7,6.6,2,8.1c4.5-0.2,8.8,0,12.7,0.6c1.7,0.3,3.2,0.6,4.2,2
			c0.9,1.2,0.9,2.7,0.7,6.7c-0.1,2.7-0.2,3.9-0.3,4.5c0,0.5,0,0.6,0,0.8c0.3,4.5,7.1,7.5,10.7,9l0.4,0.2c3.5,1.5,6.3,2.2,8.3,2.6
			c2.3,0.5,3.8,0.9,4.1,2.3c0.2,1-0.2,2.2-1.2,3.5c-1.7,2.2-5.2,4.4-8.9,4.3c-2.4-0.1-4-1.2-5.4-2c-1.3-0.9-2-1.3-2.9-1
			c-2.2,0.8-2.6,5.3-2.9,8.7c0,0.3,0,0.5-0.1,0.8c2.1,2.3,5.3,5.8,10.2,7.1c2.8,0.8,4.5,0.4,6.2,0.1c1.8-0.3,3.5-0.6,5.9,0.5
			c3,1.4,4,3.5,5.1,5.8c1,2.2,2.2,4.6,5.3,7c2.4,1.8,4.6,2.7,6.4,3.3c2.2,0.8,4,1.5,4.6,3.6c0.4,1.5-0.1,2.6-0.8,3.9
			c-0.6,1.2-1.4,2.5-1.6,4.8c-0.3,3,0.5,7.6,3.5,10.5c1.7,1.6,3.5,2,5.1,2.4c1.5,0.3,2.8,0.6,3.5,2c1.3,2.8-2.1,6.6-5.7,10.7
			c-0.5,0.6-1.1,1.3-1.6,1.9c-0.1,0.1-8.6,10.1-13.8,20.4c-4.9,9.8,0.4,20,5.6,30c5.1,9.8,10.4,20,5.9,29.8
			c-4.6,10.1-19.5,19.2-31.1,22.6c-1.4,0.4-2.8,0.7-3.9,1c-3.2,0.8-5.8,1.4-8.6,3.7c-4.1,3.4-4.6,7-5.4,12.1
			c-0.5,3.6-1.2,8.2-3.5,13.7c-3.7,8.9-12.2,16-29.1,30.4C279.6,548.7,278,550.1,275.8,550.1L275.8,550.1z M256.3,530.3
			c0.3,0,0.5,0,0.8,0.1c4.9,0.7,7.7,5.6,10.5,10.4c2.4,4.3,4.7,8.3,8.2,8.3l0,0c1.9,0,3.2-1.2,4.6-2.3c16.8-14.2,25.2-21.4,28.8-30
			c2.3-5.4,2.9-9.7,3.5-13.5c0.8-5,1.4-9,5.7-12.7c3-2.5,5.6-3.1,9-3.9c1.2-0.3,2.5-0.6,3.9-1c11.4-3.4,26-12.2,30.5-22.1
			c4.3-9.4-0.6-18.9-5.9-29c-5.3-10.1-10.8-20.6-5.6-30.9c5.3-10.5,13.9-20.5,14-20.6c0.5-0.6,1.1-1.3,1.6-1.9
			c3.2-3.7,6.6-7.5,5.5-9.7c-0.4-0.9-1.3-1.1-2.8-1.4c-1.6-0.4-3.6-0.8-5.6-2.7c-3.3-3.1-4.1-8-3.8-11.3c0.2-2.5,1-4,1.7-5.2
			c0.6-1.2,1.1-2,0.7-3.1c-0.4-1.6-1.9-2.1-4-2.9c-1.9-0.7-4.2-1.5-6.7-3.5c-3.3-2.5-4.5-5.1-5.6-7.3c-1.1-2.3-2-4.1-4.6-5.3
			c-2.1-1-3.6-0.7-5.3-0.4c-1.7,0.3-3.7,0.7-6.7-0.2c-4.6-1.3-7.9-4.4-10.1-6.7c-0.2,1.5-0.5,2.4-1.3,2.5h-0.1c-1,0-1.8-1.9-2.1-2.7
			c-0.3-0.9-0.9-3,0-3.6c0.7-0.5,1.5,0.2,2.6,1.5c0.3-3.8,0.8-8.4,3.5-9.4c1.4-0.5,2.6,0.3,3.8,1.1c1.3,0.9,2.7,1.8,4.8,1.9
			c3.1,0.1,6.5-1.9,8.1-4c0.8-1,1.2-2,1-2.7c-0.2-0.8-1.2-1-3.3-1.5c-2-0.5-4.8-1.1-8.5-2.7l-0.4-0.2c-3.9-1.7-11-4.8-11.3-9.9
			c0-0.3,0-0.4,0-1s0.1-1.8,0.3-4.5c0.2-4,0.2-5.1-0.5-6c-0.8-1.1-2.2-1.4-3.6-1.6c-3.9-0.7-8.3-0.9-12.9-0.6h-0.4l-0.1-0.4
			c0-0.1-1.6-6.9-2.1-8.4c-1.6-4.8-10.7-7.7-27-8.7c-15.4-0.8-27.4-3.5-35.9-8.2c-0.8-0.4-8-4.4-17.7-6c-3.7-0.6-6.1-0.6-8.6,0
			c-3,0.8-4.7,2.1-6.6,3.5c-1.1,0.8-2.2,1.7-3.6,2.5c-4.3,2.4-9.9,2.9-16.4,1.5c-9.6,6.4-10.1,5.9-10.5,5.4c-0.5-0.6,0.2-1.5,2-3.5
			c0.9-1.1,2.9-3.3,2.8-3.8c-0.3-0.2-2.3,0-4.1,1.3c-2.6,1.9-3.4,5.2-3.9,7.6c-0.4,1.9-0.7,3.2-1.8,3.4c-1.4,0.2-2.6-2.3-3.8-4.8
			c-0.2-0.5-0.5-1.1-0.8-1.7c-0.3,1.1-0.5,1.9-0.7,2.3c-0.2,0.7-0.5,1.2-0.9,1.1c-0.5-0.1-0.6-0.7-0.6-1.2c0-0.2-0.3-4.3,1.1-4.6
			c0.2,0,0.3,0,0.5,0c0.4-2,0.6-4.2,0.2-5.9c-0.2-0.9-0.5-1.5-0.9-1.7c-2.1-1.4-8.4,3.9-12.9,7.7c-3.4,2.9-5.8,4.8-7.5,5.6
			c-0.6,4.3-2.3,9.8-6.3,12.2c-3.4,2-8.3,1.6-10.3-0.7c-1.3-1.6-0.9-3.5-0.5-5.5s0.9-4.3-0.2-6.7c-1.4-3.2-5.5-6.5-8.5-5.8
			c-1.8,0.4-2.4,2.3-3.2,5c-1,3.1-2.3,7.3-6.2,11.7c0,0-2.8,3.1-8.3,7.7c0.3,1,0.9,4.1-0.1,6.1c-1.2,2.3-4.5,3.6-6.7,2.6
			c-1.5-0.7-2-2.3-2.3-3.7c-0.3-1.1-0.5-2.1-1.3-2.3c-0.6-0.2-1.6,0.1-2.6,0.8c-1.6,1.1-3.3,3.2-3.3,5.4c-0.1,1.4,0.6,2.3,1.8,3.9
			c0.5,0.7,1.1,1.5,1.8,2.5c1.9,2.9,5.8,8.8,4.9,14.2c-0.7,4.4-4.2,7.1-8.6,10.6c-2.1,1.6-3.6,2.4-5.4,3.4c-1.7,1-3.9,2.1-7.3,4.4
			c-3.9,2.6-6,4.1-6.5,5.2c-1,2.4,0.3,4.5,2.3,8c1.7,2.8,3.8,6.4,5.6,11.6c1.8,5.3,3.4,10.3,1.8,16c-0.8,2.8-2,4.3-3,5.6
			s-1.9,2.4-2.4,4.7c-0.9,4.5,0.8,9.1,2.6,12.4c0.1-0.2,0.2-0.3,0.4-0.3c1-0.2,2.2,2.6,2.8,4.4c0.2,0.7,0.4,1.2,0,1.4l-0.3,0.1
			l-0.3-0.2c-0.2-0.1-0.8-0.8-1.5-1.8c0,0.2,0,0.3,0,0.5c0.3,3.5,0.9,9.3,0.5,16.1c-0.4,8.4-1.9,10.8-3.9,11.9
			c-1.1,0.6-2.1,0.5-3.1,0.4s-2.1-0.2-3.6,0.3c-4.5,1.3-6.9,5.6-7,5.8c-0.9,1.6-1,2.8-1.1,4.1s-0.3,2.8-1.3,5
			c-0.8,1.6-1.4,2.3-2.3,3.2c-0.6,0.6-1.2,1.3-2,2.3c-2.3,3-5.7,7.5-5.3,12.3c0.4,5.1,4.6,10.2,8.6,10.4c2.3,0.1,3.6-1.5,5.2-3.4
			c1.6-2,3.4-4.2,6.8-5c9.7-2.3,22.3,10.5,22.8,11l0.1,0.2v0.2c0,0.4-0.3,8.6-4.3,14.8c-2.6,4-6.7,7.3-8.3,8.3
			c4,9.1,8.2,16.3,9.4,16.3h0.1c0.2-0.1,0.2-1.3,0.2-2c0-2.1,0-4.9,2-6.9c1.7-1.7,3.6-1.8,13-2c11-0.2,11.7-0.2,13,0.7
			c3.7,2.6,4.4,8.1,4.8,11.4c0.1,0.8,0.2,1.7,0.4,2.2c0.2-0.5,0.5-1.7,0.7-2.4c0.4-1.6,0.5-2.3,1.1-2.2c0.8,0,0.8,0.7,0.7,5.8
			c-0.1,7.5-0.3,21.6,4.3,23.3c1.3,0.5,2.5-0.4,3.9-1.5c1.8-1.3,4-3,7.4-2.8c2.9,0.2,4.6,1.6,7.1,3.6c2.2,1.8,5,4.1,10,6.7
			c3.2,1.6,4.8,2.5,7.1,3c5.6,1.2,10.1-0.4,15.2-2.3c0.7-0.2,1.3-0.5,2-0.7c12.1-4.3,18.2-6.4,25.6-6.1c4.8,0.2,7.7,1.4,10.2,2.5
			c3,1.3,5.7,2.3,10.9,1.8c2-0.2,5.9-1.2,13.8-3c4.6-1.1,6.9-1.6,9.7-2.4c6.1-1.8,9-3.1,10.7-3.9
			C254.5,530.7,255.2,530.3,256.3,530.3z M67.7,392c0.2,0.3,0.3,0.6,0.5,0.8c-0.2-0.4-0.4-0.7-0.5-1C67.7,391.9,67.7,392,67.7,392z
			 M315.9,318.7c0,0.1-0.1,0.7,0.3,2c0.4,1.4,1,2.3,1.3,2.5c0.2-0.3,0.4-1.4,0.5-2.5c0-0.1-0.1-0.1-0.1-0.2
			C317,319.7,316.2,318.7,315.9,318.7z M138.4,256.8c-0.4,0.9-0.8,2.3-0.8,3.1c0,0.3,0.1,0.5,0.1,0.5c0.1,0.1,0.2,0.1,0.4,0
			C138.4,259,138.4,257.7,138.4,256.8z M159.9,256.6c-0.2,0.3-0.3,1.1-0.4,1.9C159.7,257.9,159.9,257.3,159.9,256.6
			C160,256.6,160,256.6,159.9,256.6z"/>
	</g>
	<g>
		<path style="fill:#2D526D;" d="M172.7,373.3c-1.8,4.9-3.6,9.7-5.4,14.6l-11.5,15.3V425l25.3,4.8v4.8l4.9,3l1.2-10.9l15-0.6
			l5.7,4.8l6.9,1.2c-0.6-1.8-1.1-4.4,0-6.6c2.7-5.6,11.6-3.2,17.6-9.7c2.8-3,4.7-7.7,4.2-12.1c-1-8.8-11.3-14.3-10.3-15.7
			c0.6-0.9,4.6,1.6,5.4,0.6c1.3-1.6-7.9-7.7-8.5-16.9c-0.4-6.6,4-10.3,2.4-12.1c-2.1-2.3-10.6,3-19.3,6.6
			C198.8,369.7,187.7,373,172.7,373.3z"/>
		<path style="fill:#1B75BC;" d="M186.4,438.5l-5.8-3.6v-4.7l-25.3-4.8v-22.3l11.5-15.4l5.5-14.8h0.3c12.2-0.3,23.5-2.6,33.6-6.9
			c2.4-1,4.7-2.1,7-3.2c6.5-3.1,11.1-5.3,12.9-3.3c1,1.1,0.3,2.5-0.5,4.3c-0.9,2-2,4.6-1.8,8.1c0.3,5.5,3.9,10,6.3,12.9
			c1.7,2.1,2.8,3.4,2,4.4c-0.7,0.8-2.1,0.3-3.5-0.1c-0.6-0.2-1.5-0.5-1.8-0.5c0.2,0.4,1.2,1.4,2.1,2.3c2.8,2.7,7.5,7.2,8.2,13
			c0.5,4.2-1.2,9.1-4.4,12.5c-3.1,3.3-6.9,4.4-10.3,5.3c-3.2,0.9-6,1.6-7.3,4.3c-0.8,1.7-0.8,3.8,0,6.3l0.3,0.8l-7.9-1.4l-5.7-4.8
			l-14.4,0.6L186.4,438.5z M181.6,434.4l4,2.5l1.2-10.5l15.6-0.6l5.8,4.9l6,1c-0.6-2.4-0.6-4.5,0.3-6.2c1.4-3,4.6-3.9,7.9-4.8
			c3.2-0.9,6.9-1.9,9.8-5s4.5-7.7,4.1-11.7c-0.6-5.5-5-9.7-7.9-12.4c-1.9-1.8-2.9-2.8-2.3-3.6c0.5-0.7,1.7-0.3,3,0.1
			c0.7,0.2,2.2,0.7,2.5,0.5c0.2-0.3-1.1-2-2-3.1c-2.5-3-6.2-7.6-6.5-13.5c-0.2-3.7,1-6.5,1.9-8.5c0.7-1.7,1.1-2.7,0.6-3.3
			c-1.3-1.4-6.4,1-11.7,3.6c-2.3,1.1-4.6,2.2-7,3.2c-10.2,4.3-21.5,6.6-33.7,7l-5.4,14.4l-11.4,15.2v21.2l25.3,4.8L181.6,434.4
			L181.6,434.4z"/>
	</g>
	<path style="fill:#3E2D77;" d="M253.1,324.6c13.4,4.6,16.7,8.7,16.8,11.8c0.1,1.7-1.2,5.1-3.6,11.8c-1,2.8-1.7,4.3-0.9,5.4
		c0.9,1.5,3.2,1.1,8.2,1.4c6.7,0.4,10,0.6,11.8,2.7c2.4,3,0.5,8,1.4,8.2c0.8,0.2,2.9-4.1,2.3-4.5c-1.2-0.9-13,9.9-10.9,15
		c1.1,2.6,5.2,1.5,10,5.4c3,2.4,3.5,4.5,5.9,8.6c7.1,12.2,13.8,13,13.1,17.7c-0.8,5.4-9.6,5.8-11.8,13.6c-0.8,2.8-0.3,5.4,0,6.8
		c1.5,1.5,3.2,2.7,4.5,2.3c2.2-0.7,1.8-5,3.6-5.4c1.5-0.3,4,2.2,4.5,5c0.9,4.3-2.9,7.9-4.1,9.1c-4.1,4-9.4,4.5-11.3,4.5
		c-2,4.2-1.7,6.7-0.9,8.2c1.8,3.6,6.7,2.8,8.6,6.8c0.6,1.2,0.4,3.1,0,6.8c-0.6,5.7-0.9,8.6-2.7,10.4c-2.3,2.3-5,1.8-5.4,3.6
		c-0.4,1.5,1.3,3.1,2.3,4.1c4.2,4.2,10.9,10.7,13.6,16.8c1.7,3.7,0.6,7.5,1.8,7.7c0.9,0.2,2-1.6,2.5-2.6c0.8-1.7,0.6-3.1,0.7-4.4
		c0.1-4.3,2.7-8.8,6-10.9c1.4-0.9,2.7-1.2,3.4-1.3c0,0,6-1.4,18.6-6.9c4.5-2,13.2-5.8,18.6-14.6c1.2-2,4-6.7,4.2-13.3
		c0.3-8.5-3.8-19.7-11.3-22.1c-10.5-3.3-21.3,13.1-26.5,9.5c-3.3-2.3-1.5-10.9,0.5-15.4c1-2.4,3.3-7.6,8.2-9.5
		c3.1-1.2,5.6-0.4,6.8-2.3c0.5-0.8,0.3-1.4,0-6.3c-0.3-4.5-0.2-5,0-5.4c1-2.3,3.5-2.4,7.2-4.1c5.3-2.4,4.2-3.9,10-7.2
		c5.9-3.3,8.8-2.6,10.9-6c1.1-1.8,1-3.1,1.4-5.4c1.7-10,9.4-14.5,8.2-16.3c-0.6-0.9-3.1-1-22.2,6.3c-11,4.2-15.2,6.2-19.5,4.1
		c-3.1-1.6-5.9-5.2-5.4-8.2c0.5-2.9,3.7-3.5,7.7-8.2c1.9-2.2,5.4-5.8,4.5-7.2c-0.4-0.7-1.9-0.6-5-0.5c-4.2,0.2-4.5,0.8-5.9,0.5
		c-4-0.9-5.7-6.7-5.9-7.2c-1.2-4.2-0.2-9.2,1.4-9.5c1.3-0.2,3.2,2.6,2.7,3.2c-0.8,1-9.6-2.6-10-6.8c-0.3-4.4,8.8-7.2,8.2-9.1
		c-0.7-2-12.4-2.8-19,3.6c-3.8,3.7-4.5,8.4-8.6,9.1c-0.2,0-2.9,0.4-5-1.4c-1.8-1.5-2.5-3.9-2.3-5.9c0.6-4.9,7.3-6.3,6.8-8.6
		c-0.4-1.8-4.5-1.6-12.7-4.5c-6.3-2.3-7.3-3.6-7.7-4.5c-1.7-3.6,0.7-8.3,1.4-9.5c1.4-2.7,2.4-2.6,3.6-5c1.5-2.8,3.1-8.2,0.9-11.3
		c-3.3-4.8-12.3,0.2-17.7-5.4c-2.7-2.8-3-6.7-3.2-8.2c-0.7-7.1,3.9-11.5,1.8-14c-1.1-1.3-3.4-1.7-5-0.9c-3.1,1.6-1,7.1-3.2,15
		c-0.5,1.7-3.8,13.3-12.2,16.3c-3.8,1.4-7.7,0.6-8.2,2.3c-0.4,1.4,2,2.1,3.2,4.5c2.9,6.2-7.5,13.5-5,19.9c1.4,3.6,5.6,3.9,5.4,6.8
		c-0.1,2.4-2.9,4-4.7,5c-5.5,3.2-11.3,1.5-12.1,1.3c-0.5-0.2-0.9-0.3-1.2-0.4c-7.9-3-9.9-10.1-12.9-9.6c-1.6,0.3-2.3,2.5-3.2,5
		c-0.6,1.7-2.2,6.5,0,9.5c1.7,2.3,5.1,2.4,11.8,2.7c4.3,0.2,4.9-0.3,10,0c5.7,0.3,5.6,1,7.2,0.5c4.4-1.3,4.6-5.6,9.5-7.7
		C249.8,324.5,251.8,324.5,253.1,324.6z"/>
	<path style="fill:#3E2D77;" d="M215,538.8c-4.7-1.1-13.5-3.7-20.8-10.4c-5.8-5.3-7-9.9-7.2-10.9c-0.6-2.5-0.3-3.8-0.5-5.9
		c-0.5-10.1-9.4-21.6-17.7-21.7c-1.3,0-0.8,0.3-6.3,1.8c-8.4,2.3-12.6,3.4-15.4,1.8c-2.9-1.7-4.3-5.4-4.5-8.2
		c-0.3-4,2.2-5.1,1.4-7.7c-0.9-2.7-4.4-4-10.9-6.3c-5.3-1.9-7-1.8-8.2-3.6c-1.8-2.8,0.6-5-0.9-8.2c-1.7-3.5-5.4-2.2-10.4-5.9
		c-0.3-0.2-7.3-5.6-7.2-12.7c0-4,2.4-5.5,1.4-7.2c-2-3.6-12.2,1-15-2.7c-2.4-3.3,4-8.8,1.8-13.1c-2.4-4.6-13.5-6.1-18.6-1.4
		c-4.8,4.4,0,10.6-4.5,18.1c-3.2,5.4-7,4.7-19.9,12.2c-4.1,2.4-20,11.7-18.6,15.9c0.8,2.3,7.3,3.7,11.8,3.2c1.3-0.2,3.1-0.5,5.4,0
		c2.8,0.6,3,1.7,4.5,1.8c3.8,0.2,4.6-6.3,9.5-7.7c4-1.2,8.3,1.6,10.4,3.6c4,3.9,4.9,10,5,10s-1.2-2.1-0.5-3.6
		c1.4-3.1,10.7-3.1,11.8-0.5c0.6,1.4-1.6,2.6-7.2,10.9c-1.7,2.5-2.1,2.7-2.7,3.6c-3,4.7-4.1,8.7-4.5,8.6c-0.4-0.1,0.5-3.9,0-4.1
		c-0.8-0.3-4.6,3.8-4.8,8.8c-0.4,7.5,7.8,13.5,8.5,13c0.2-0.1-0.1-0.5-0.3-2.3c-0.2-1.6,0-1.8-0.2-3.1c-0.2-1.2-0.4-1.3-0.5-2.2
		c0-0.3-0.1-1.4,0.3-2.4c0.6-1.4,1.5-1.5,3.2-3.1c2.1-2,2.2-3.4,3.2-3.4c1.2,0.1,1.4,2.1,2.7,2.1c1,0,1.8-1.2,2.4-2.3
		c1-1.6,1.2-2.8,1.6-3.7c0.8-2.1,2.3-3.2,4.6-4.9c5.5-4,13-9.4,17.4-7c2.9,1.6,1.5,4.9,5,14c2.5,6.4,6.7,13.7,9.1,13.1
		c0.9-0.2,1.4-1.4,2.3-3.6c1.1-2.6,1.5-5.4,1.4-5.4c-0.3-0.1-4.5,8.4-2.7,17.2c0.6,3.2,2.3,7.5,4.5,7.7s2.8-3.8,6.3-4.5
		c2.6-0.5,5.8,1,7.2,3.2c2.7,4-0.3,10.2,0.5,10.4c1,0.3,4.7-10.8,7.2-10.4c1.5,0.2,2.3,4.2,2.3,7.2c-0.1,3.8-1.6,4.7-1.4,7.2
		c0.5,5.1,7.3,9.4,9.5,8.2c0.7-0.4,0.9-3,1.4-8.2c0.3-3.2,0.4-4.8,0.4-4.9c0-0.2-0.1-0.4,0-0.6c0.6-0.7,5.2,1.5,7.2,5.4
		c0.3,0.6,1.2,2.3,1.2,4.7c0,1.7-0.5,2.7-0.2,2.8c0.6,0.3,2.7-6.6,7.4-8.9c4.8-2.4,10.8,0.7,12,1.4c3.4,1.7,3,2.9,8.2,6.3
		c3.4,2.3,5.5,3.8,8.6,4.3c4.3,0.8,7.8-0.7,10-1.6c6.7-2.8,6.8-6.2,13.1-10.4c8.1-5.5,16-5.3,15.9-7.5c-0.1-1.9-6.2-1.6-8.6-6.3
		c-0.9-1.7-1-3.6-1.1-5.9c-0.2-3,0.3-4.6,0.5-6.8c0.2-2.1,0.7-7.4-1.6-11.6c-2.9-5.3-8-4.5-9.1-8.6c-1-4.3,3.8-7.9,2.5-9.5
		c-1-1.2-4.9-0.5-6.6,1.8c-1.6,2.1,0,4-0.5,9.3c-0.5,5.8-2.6,7.4-1.4,9.5c1.9,3.2,8.4,1.6,8.6,2.7c0.2,1.4-10,5.1-12.2,2.3
		c-0.7-0.9-1.4-3.4-1.4-3.4l0,0c0,0,7.2,3.9,6.8,6.8c-0.3,2.2-4.9,1.7-6.3,5c-1.1,2.4,1.2,3.4,1.1,8.4c0,0.7-0.7,3.6-2,9.3
		c-0.4,1.7-0.6,2.4-1.1,3.2c-1.5,2.2-3.7,2.2-4.3,3.9C213.9,536.1,213.9,537.2,215,538.8z"/>
	<g>
		<path style="fill:#3C8B9E;" d="M82.5,314.1c-0.7-2.2-0.1-4.3,0.5-5.8c0.5-3.5,0.9-6.9,1.4-10.4c0.5-0.4,0.9-0.8,1.4-1.1
			c1.8-0.3,3.6-0.7,5.3-1l8-1.6l1.4-5.7c0,0-1.1,1.5,2.3,0c3.3-1.5,3.3-1.5,3.3-1.5s1.8,0.9,5.4,1.5s3.6,0.6,3.6,0.6
			c0.1,0.4,0.7,3.6,3.9,5.2c1.9,1,4.8,1.3,6.6-0.1c3.6-2.7,1.4-10.5,3-10.9c1.2-0.3,2,4.1,5.4,5.1c2.3,0.7,4.8-0.4,6-0.9
			c3.4-1.5,4.4-3.8,6-3.3c1.1,0.3,1.6,1.6,2.1,2.7c0.6,1.5,0.2,2.2,0.6,3.9c0.4,2,1.4,3.3,1.8,3.9c1.1,1.6,4,4.9,6,4.2
			c2.2-0.7,0.8-5.6,3.9-10.6c0.5-0.9,3.3-5.8,6-5.4c2.2,0.3,2.3,3.7,4.5,3.9c1.8,0.2,3.7-1.9,6.9-5.4c1.7-1.9,2.4-2.9,2.7-2.7
			c0.8,0.4-1.2,6.5-1.5,7.6c-1.5,4.5-2.2,4.8-2.4,7.2c-0.2,2.7,0.5,3.2,0,5.7c-0.2,1.1-0.7,3.5-2.5,5.2c-2.2,2.1-5.2,2.2-7.5,2.3
			c-2,0.1-4.5-0.4-9.4-1.2c-1.9-0.3-3.2-0.6-4.8,0c-1.5,0.6-2.2,1.6-3.3,2.7c-3.2,3.3-7.9,6.1-9.1,5.1c-0.6-0.5-0.3-2.3,0.6-3.3
			c0.7-0.9,2.2-1.6,3-1.2c2.6,1.3-0.6,13.4-1.5,13.3c-0.2,0-0.2-0.8-0.9-2.7c-0.5-1.4-1.1-2.5-1.2-2.4c-0.2,0.1,4.6,7.6,2.1,12.4
			c-0.5,0.9-1.4,2-2.7,3.6c-1.8,2.2-2.3,2.8-3,3.3c-0.4,0.3-2.2,1.5-3.9,1.5c-3.7-0.1-3.9-5.8-8.8-8.2c-4.3-2.1-10.4-0.7-12.1,2.1
			c-0.5,0.8-0.3,1.3-1.2,3c-1.1,2.2-1.9,2.4-3,4.2c-1.5,2.6-0.6,3.2-1.8,4.8c-1.9,2.5-4.9,1.7-5.4,3.3c-0.6,1.8,2.9,2.7,4.2,6.3
			c1.7,4.7-2.7,7.6-0.9,13.3c0.6,1.8,1.1,1.8,1.8,4.2c0.7,2.2,1.9,6.3,0.3,7.9c-1.4,1.3-4-0.3-13.9-2.7c-4.7-1.2-7-1.5-8.2-0.3
			c-0.4,0.4-0.6,1-0.6,4.8c0.1,5.1,0.6,7,0,7.2c-0.8,0.3-2.2-3.7-6.6-7.9c-3.2-3-3.9-2.4-5.4-4.5c-2.8-4-0.6-6.9-3.3-10.3
			c-2.1-2.7-5.5-3.4-6.6-3.6c-5.2-1.1-9.3,1.4-9.7,0.6c-0.4-0.8,5.3-2.5,7.9-7.9c0.3-0.7,0.4-0.9,1.8-8.2c0.9-4.7,1.4-7,1.5-7.2
			c2.6-5.4,7.6-4.9,9.1-9.7c0.6-2-0.4-1.5-0.3-6.6c0.1-3.5,0.5-10.2,2.4-10.6c1.2-0.2,1.8,2.3,5.5,4.1c1.5,0.7,3.6,1.3,4.1,0.7
			C83.9,316.6,83,315.6,82.5,314.1z"/>
		<path style="fill:#1B75BC;" d="M83.2,388.7c-0.6,0-1.1-0.7-2-2c-1-1.5-2.5-3.7-4.9-6c-1.5-1.4-2.4-2-3.2-2.5s-1.5-0.9-2.3-2.2
			c-1.5-2.1-1.6-4-1.8-5.6c-0.1-1.6-0.3-3.1-1.5-4.6c-2-2.5-5.2-3.2-6.4-3.4c-3.2-0.7-6,0-7.6,0.5c-1.3,0.3-2.1,0.5-2.4-0.1
			c-0.3-0.7,0.4-1.2,1.6-2c1.7-1.1,4.6-3,6.2-6.3c0.3-0.6,0.4-1,1.8-8c1.2-5.9,1.4-7.2,1.6-7.4c1.3-2.8,3.3-4.1,5.1-5.2
			c1.8-1.1,3.3-2.1,3.9-4.3c0.2-0.8,0.2-1.1,0-1.8c-0.2-0.8-0.4-2-0.4-4.7c0.3-10.6,2.2-10.9,2.8-11c0.9-0.2,1.4,0.5,2.1,1.2
			c0.8,0.8,1.8,2,3.7,2.9c1.8,0.8,3.2,1.1,3.5,0.8c0-0.1-0.2-0.6-0.4-0.9c-0.2-0.4-0.5-1-0.7-1.6l0,0c-0.6-1.8-0.4-3.9,0.4-6.1
			l1.4-10.6l1.6-1.3l13.2-2.6l1.1-4.7c-0.1-0.3,0.1-0.6,0.2-0.9l1.5-2.1l-0.6,2.6c0.3-0.1,0.8-0.2,1.6-0.6l3.5-1.6l0.2,0.1
			c0,0,1.8,0.9,5.3,1.5l4,0.7l0.1,0.3c0.1,0.6,0.8,3.4,3.7,4.9c1.8,0.9,4.4,1.2,6.1,0c2-1.5,2.1-4.8,2.1-7.3c0-2,0.1-3.5,1.1-3.7
			c0.8-0.2,1.3,0.6,2,1.7c0.8,1.2,1.8,2.9,3.7,3.5c2.2,0.7,4.5-0.3,5.7-0.9c1.5-0.7,2.5-1.5,3.4-2.2c1.1-0.9,1.9-1.5,3-1.2
			c1.3,0.4,1.9,1.8,2.4,3c0.4,1,0.4,1.6,0.5,2.4c0,0.5,0,1,0.2,1.7c0.4,1.8,1.3,3.1,1.7,3.7c1.3,1.8,3.9,4.6,5.5,4
			c0.8-0.3,1-1.3,1.3-3.2c0.3-1.9,0.7-4.6,2.4-7.2l0.1-0.2c0.9-1.4,3.5-5.8,6.4-5.4c1.3,0.2,2,1.2,2.6,2.2c0.6,0.9,1,1.6,1.9,1.7
			c1.6,0.2,3.4-1.9,6.5-5.3c0.5-0.6,0.9-1,1.3-1.4c1-1.2,1.4-1.7,2-1.4c0.5,0.2,1.2,0.6-1.2,8.2c-0.6,1.9-1.1,3.1-1.5,3.9
			c-0.5,1.2-0.8,1.8-0.9,3.2c-0.1,1.2,0,1.9,0.1,2.6c0.1,0.9,0.2,1.7-0.1,3.2c-0.2,1.1-0.7,3.6-2.7,5.5c-2.3,2.3-5.5,2.4-7.8,2.4
			c-2.1,0.1-4.6-0.4-9.5-1.2h-0.2c-1.7-0.3-2.9-0.5-4.3,0c-1.2,0.4-1.8,1.1-2.6,2c-0.2,0.2-0.4,0.4-0.5,0.6
			c-1.2,1.2-2.7,2.5-4.3,3.6c-0.1,3.1-1.1,6.9-1.2,7.2c-0.5,1.7-0.9,2.5-1.2,2.9c0.7,2.4,1,5.1-0.2,7.3c-0.5,1-1.5,2.1-2.8,3.7
			l-0.4,0.5c-1.5,1.9-2,2.4-2.7,2.9c-1.9,1.3-3.4,1.6-4.2,1.6c-2.2,0-3.3-1.7-4.4-3.6c-1.1-1.7-2.3-3.5-4.5-4.6
			c-4.1-2-9.9-0.6-11.4,1.9c-0.2,0.3-0.3,0.6-0.4,0.9c-0.1,0.5-0.3,1.1-0.8,2.1c-0.6,1.2-1.2,1.9-1.7,2.5c-0.4,0.5-0.8,1-1.3,1.8
			c-0.7,1.3-0.9,2-1,2.7s-0.2,1.3-0.9,2.2c-1.1,1.5-2.6,1.9-3.7,2.2c-0.9,0.3-1.5,0.5-1.6,0.9c-0.2,0.5,0.3,1,1.3,1.9
			c1,1,2.3,2.2,3,4.1c0.9,2.4,0.2,4.4-0.4,6.4c-0.7,2-1.4,4.1-0.5,6.9c0.2,0.8,0.5,1.2,0.7,1.6c0.3,0.6,0.7,1.2,1.1,2.6
			c0.7,2.3,2,6.6,0.2,8.4c-1.1,1.1-2.7,0.6-6.9-0.6c-1.9-0.6-4.3-1.2-7.5-2c-4.5-1.1-6.7-1.5-7.7-0.4c-0.3,0.3-0.5,0.9-0.5,4.5
			c0,2.1,0.1,3.6,0.2,4.7c0.1,2,0.2,2.7-0.5,3C83.4,388.6,83.3,388.7,83.2,388.7z M58.5,361.1c0.9,0,1.9,0.1,2.9,0.3
			c1.2,0.2,4.7,1,6.9,3.8c1.5,1.8,1.6,3.5,1.8,5.2c0.1,1.6,0.3,3.2,1.6,5.1c0.7,1,1.3,1.4,2.1,1.9s1.8,1.1,3.3,2.6
			c2.5,2.4,4,4.6,5,6.1c0.4,0.5,0.8,1.1,1,1.4c0-0.4,0-1.1-0.1-1.8c-0.1-1.1-0.2-2.7-0.2-4.7c0-4,0.3-4.7,0.7-5.2
			c1.4-1.5,3.8-1.1,8.6,0.2c3.2,0.8,5.6,1.5,7.5,2c3.7,1.1,5.2,1.5,5.9,0.8c1.4-1.3,0.1-5.4-0.4-7.3c-0.4-1.3-0.7-1.8-1-2.4
			c-0.3-0.5-0.5-1-0.8-1.8c-1-3.1-0.2-5.5,0.5-7.5c0.6-1.9,1.2-3.6,0.4-5.7c-0.6-1.7-1.8-2.8-2.7-3.7c-1-1-1.9-1.8-1.5-3
			c0.3-1,1.3-1.3,2.3-1.6c1.1-0.3,2.3-0.7,3.2-1.9c0.5-0.7,0.6-1.1,0.7-1.8s0.3-1.6,1.1-3c0.5-0.9,1-1.4,1.4-1.9
			c0.5-0.6,1-1.2,1.6-2.3c0.5-0.9,0.6-1.4,0.8-1.9c0.1-0.4,0.2-0.7,0.5-1.2c1.9-3.2,8.5-4.4,12.7-2.3c2.5,1.2,3.8,3.2,4.9,5
			c1.1,1.7,2,3.1,3.6,3.1c0.8,0,1.9-0.2,3.6-1.4c0.6-0.4,1-1,2.5-2.7l0.4-0.5c1.3-1.5,2.2-2.7,2.7-3.5c1-2,0.7-4.4,0.1-6.6
			c-0.2-0.2-0.3-0.5-0.4-0.8c-0.1-0.2-0.1-0.5-0.2-0.9c-0.5-1.1-0.9-2.1-1.3-2.8c-0.4-0.8-0.5-0.9-0.4-1.2l0.1-0.2l0.4-0.2l0.2,0.1
			c0.5,0.2,1.4,2.4,1.5,2.7c0.2,0.5,0.3,0.9,0.4,1.2c0.1,0.2,0.1,0.4,0.2,0.6c0.7-1.6,1.6-5.3,1.8-8.2c-1.9,1.1-3.6,1.6-4.4,1
			c-0.3-0.2-0.4-0.6-0.5-1.1c-0.1-0.9,0.3-2.2,1-3c0.9-1.1,2.5-1.9,3.6-1.3c0.8,0.4,1.1,1.4,1.2,2.6c1.2-0.8,2.5-1.9,3.6-3.1
			c0.2-0.2,0.4-0.4,0.5-0.6c0.8-0.9,1.6-1.7,3-2.3c1.7-0.6,3.1-0.4,4.9-0.1h0.2c4.8,0.8,7.3,1.3,9.3,1.2c2.3-0.1,5.1-0.2,7.1-2.2
			c1.7-1.7,2.2-3.9,2.4-5c0.3-1.3,0.2-2,0.1-2.8c-0.1-0.7-0.2-1.6-0.1-2.8c0.1-1.5,0.5-2.3,1-3.5c0.4-0.9,0.8-2,1.5-3.9
			c1.3-3.9,1.7-5.9,1.7-6.7c-0.2,0.2-0.5,0.6-0.8,0.9c-0.3,0.4-0.8,0.9-1.3,1.5c-3.4,3.8-5.3,5.8-7.4,5.6c-1.4-0.1-2-1.2-2.7-2.2
			c-0.5-0.9-1-1.6-1.9-1.7c-1.5-0.2-3.3,1.5-5.4,5l-0.2,0.3c-1.5,2.5-1.9,4.9-2.2,6.8c-0.3,2-0.6,3.5-1.9,4
			c-2.8,0.9-6.5-4.2-6.6-4.4c-0.5-0.7-1.5-2.1-1.9-4.1c-0.2-0.7-0.2-1.3-0.2-1.8c0-0.7,0-1.2-0.4-2c-0.4-1-0.9-2.2-1.8-2.4
			c-0.6-0.2-1.1,0.2-2.1,1c-0.9,0.7-1.9,1.6-3.6,2.3c-1.3,0.6-3.9,1.7-6.4,0.9c-2.2-0.7-3.4-2.5-4.2-3.9c-0.3-0.5-0.7-1.2-0.9-1.2
			c-0.3,0.2-0.3,1.7-0.3,2.7c-0.1,2.6-0.1,6.3-2.5,8c-2,1.5-5.1,1.1-7.2,0.1c-2.9-1.4-3.8-4.2-4.1-5.2l-3.3-0.5
			c-3-0.5-4.8-1.2-5.4-1.5l-3.1,1.4c-1,0.5-1.7,0.7-2.2,0.7l-1.2,5l-13.6,2.6l-1.1,0.9l-1.4,10.3c-0.8,2-1,3.8-0.4,5.4l0,0
			c0.2,0.6,0.4,1,0.7,1.5c0.4,0.7,0.7,1.4,0.3,1.9c-0.9,1.2-4.1-0.2-4.7-0.5c-2.1-1-3.2-2.3-4-3.1c-0.6-0.6-0.9-1-1.2-0.9
			s-1.8,0.8-2,10.1c-0.1,2.6,0.2,3.8,0.3,4.5c0.2,0.7,0.3,1.2-0.1,2.3c-0.8,2.6-2.5,3.7-4.3,4.9c-1.7,1.1-3.5,2.3-4.7,4.8
			c-0.1,0.3-0.7,3.2-1.5,7.1c-1.5,7.4-1.5,7.6-1.9,8.3c-1.7,3.6-4.7,5.5-6.6,6.7c-0.2,0.2-0.5,0.3-0.7,0.5c0.2,0,0.4-0.1,0.6-0.2
			C54.5,361.5,56.3,361.1,58.5,361.1z M143.5,309.4c-0.6,0-1.5,0.5-2.1,1.2c-0.5,0.6-0.9,1.6-0.8,2.2c0,0.2,0.1,0.3,0.1,0.4
			c0.4,0.3,1.9-0.2,3.8-1.4c0-0.3,0-0.6-0.1-0.9c-0.1-0.8-0.3-1.3-0.6-1.4C143.7,309.4,143.6,309.4,143.5,309.4z"/>
	</g>
	<path style="fill:#5496BC;" d="M89.1,298.1c1.4-1.9,4-4.9,8.2-6.9c2.4-1.1,8-3.8,12.1-1.5c2,1.2,2.5,2.9,5.4,3.9
		c2.1,0.8,2.6,0.1,4.2,0.7c4.4,1.6,4,7.6,6.6,8.1c1.3,0.2,2-1,9.4-10.6c2.4-3.1,3.9-5,3.3-5.7c-0.5-0.7-2.7,0.2-2.7,0.3
		c0,0.3,8.1-2.2,10,0.6c0.9,1.4-0.3,2.9,0.9,5.7c0.2,0.5,0.7,1.7,1.8,2.7c2.5,2.3,7.2,2.5,10.3,0.6c1.6-1,1.3-1.6,5.1-6
		c3.7-4.2,4.6-4.4,5.1-4.2c1.4,0.5,0.6,3.6,1.8,4.2c3.1,1.5,13.5-15.8,19.3-13.9c0.6,0.2,1.4,0.7,2.1,0.3c1.7-0.9,1.4-6.2,0-6.6
		c-2.5-0.8-8.9,12.1-10.9,19.6c-0.8,3-1.4,5.4-0.9,8.5c0.4,2.3,1,3.1,0.6,4.2c-0.5,1.2-2.1,2.7-11.2,2.7c-9.2,0-13.2-1.6-22-0.9
		c-3.7,0.3-6.2,0.8-7.9,2.7c-2.1,2.4-1.9,6-1.8,7.6c0.3,5,2.7,5.7,2.7,9.1c0,5.2-6,10.5-11.5,12.1c-1.8,0.5-5.3,0.7-12.1,0.9
		c-3,0.1-3.6,0.1-5.1,0.3c-5.7,0.9-9.6,3.5-9.7,3.3s2.6-1.7,2.7-1.5c0.3,0.4-8.7,4.8-8.8,10.9c0,1.1,0.3,1,1.8,5.4
		c2.2,6.1,3.2,9.2,2.1,10.3c-1,1-3.6,0.5-4.8-0.9c-1.4-1.5-0.6-3.7-1.2-3.9c-1.4-0.5-6,10.5-7.6,10c-0.8-0.3-0.4-3.6-0.9-3.6
		c-0.7-0.1-1.3,6.7-3,6.9c-1.4,0.2-3-3.6-3.6-5.7c-1.5-4.6-0.1-6-1.5-7.6c-1.8-2-6.1-2.1-11.5-2.1c-1.5,0-2.9,0-3.6-0.9
		c-1-1.2-0.5-3.4,0.3-4.8c2-3.7,6.4-3.3,6.6-5.4c0.2-1.6-2.2-1.9-3.6-5.1c-1.1-2.5-0.9-5-0.6-7.6c0.2-1.5,0.4-2.4,1.2-5.4
		c2.5-9.3,2.6-10.1,3.6-10.6c0.5-0.2,0.9-0.2,8.5,2.1c2.9,0.9,3.7,1.2,4.8,0.9c3.3-0.8,4.8-4.6,4.8-4.8c1-2.7,0.2-5.1,0-5.7
		c-1-2.8-2.7-3.1-3-5.1c-0.2-1.2,0-3,2.2-5.5C87.9,299.3,88.5,298.7,89.1,298.1z"/>
	<polygon style="fill:#D8A55B;" points="247.8,597.3 266,586.1 291.6,585 302.7,582.2 325,587.7 333.6,568.5 356.8,557.5 
		374.3,558.2 380.7,550.4 380.7,531.5 385.1,513.6 374.4,519.8 371.8,510.9 375.7,499.1 368.8,490 353.4,490 338.8,499.1 
		321.6,513.6 304,537.6 292.9,552.7 274,561.7 265,555.5 253.8,543.7 	"/>
</g>
</svg>
