<?xml version="1.0" encoding="utf-8"?>
<!-- Generator: Adobe Illustrator 19.0.0, SVG Export Plug-In . SVG Version: 6.00 Build 0)  -->
<svg version="1.1" id="Layer_1" xmlns="http://www.w3.org/2000/svg" xmlns:xlink="http://www.w3.org/1999/xlink" x="0px" y="0px"
	 viewBox="-115 100.9 960 640" style="enable-background:new -115 100.9 960 640;" xml:space="preserve">
<g id="Layer_4">
	<path style="fill:#B5E3EE;" d="M109.8,264.1c-0.4,0-0.8-0.1-1.1-0.3c-0.8-0.4-1.3-1.2-1.3-2.1v-3.9c0-0.2-0.2-0.4-0.4-0.4H87
		c-1.3,0-2.4-1.1-2.4-2.4v-4.8c0-1.3,1.1-2.4,2.4-2.4h20c0.2,0,0.4-0.2,0.4-0.4v-3.8c0-0.9,0.5-1.7,1.3-2.1c0.8-0.4,1.7-0.3,2.5,0.2
		L124,251c0.6,0.5,1,1.2,1,2s-0.4,1.5-1,2l-12.8,8.7C110.8,264,110.3,264.1,109.8,264.1z M87.1,249.8c-0.2,0-0.4,0.2-0.4,0.4v4.8
		c0,0.2,0.2,0.4,0.4,0.4h20c1.3,0,2.4,1.1,2.4,2.4v3.9c0,0.2,0.1,0.3,0.2,0.4c0.1,0,0.2,0.1,0.4,0l12.8-8.7c0.1-0.1,0.2-0.3,0.2-0.3
		c0-0.1,0-0.2-0.2-0.3l-12.8-9.3c-0.1-0.1-0.3-0.1-0.4,0c-0.1,0-0.2,0.1-0.2,0.4v3.8c0,1.3-1.1,2.4-2.4,2.4h-20V249.8z"/>
	<path style="opacity:0.27;fill:#B5E3EE;enable-background:new    ;" d="M109.9,264.9c-0.4,0-0.9-0.1-1.3-0.3
		c-1-0.5-1.6-1.5-1.6-2.6v-4H87.1c-1.6,0-2.9-1.3-2.9-2.9v-5c0-1.6,1.3-2.9,2.9-2.9H107v-3.9c0-1.1,0.6-2.1,1.6-2.6s2.1-0.4,3,0.3
		l12.9,9.7c0.7,0.6,1.2,1.4,1.2,2.4s-0.5,1.8-1.2,2.3l-12.9,9C111.1,264.8,110.5,264.9,109.9,264.9z M87.2,255.1h19.9
		c1.6,0,2.9,1.3,2.9,2.9v3.9l12.6-8.8l-12.6-9.4v3.7c0,1.6-1.3,2.9-2.9,2.9H87.2V255.1z"/>
</g>
</svg>
