<?xml version="1.0" encoding="utf-8"?>
<!-- Generator: Adobe Illustrator 19.0.0, SVG Export Plug-In . SVG Version: 6.00 Build 0)  -->
<svg version="1.1" id="Layer_1" xmlns="http://www.w3.org/2000/svg" xmlns:xlink="http://www.w3.org/1999/xlink" x="0px" y="0px"
	 viewBox="-115 100.9 960 640" style="enable-background:new -115 100.9 960 640;" xml:space="preserve">
<ellipse style="fill:#FFF200;" cx="355.4" cy="540.8" rx="4.4" ry="4.6"/>
<ellipse style="opacity:0.29;fill:#FFF200;enable-background:new    ;" cx="355.4" cy="540.9" rx="4.9" ry="5"/>
<ellipse style="fill:#D1D3D4;" cx="160.6" cy="554.5" rx="2.4" ry="2.6"/>
<ellipse style="opacity:0.29;fill:#D1D3D4;enable-background:new    ;" cx="160.7" cy="554.6" rx="2.7" ry="2.9"/>
<ellipse style="fill:#D1D3D4;" cx="382.3" cy="517.9" rx="2.4" ry="2.6"/>
<ellipse style="opacity:0.29;fill:#D1D3D4;enable-background:new    ;" cx="382.4" cy="517.9" rx="2.7" ry="2.9"/>
<ellipse style="fill:#D1D3D4;" cx="390.7" cy="538.8" rx="2.4" ry="2.6"/>
<ellipse style="opacity:0.29;fill:#D1D3D4;enable-background:new    ;" cx="390.8" cy="538.9" rx="2.7" ry="2.9"/>
<ellipse style="fill:#D1D3D4;" cx="392.2" cy="527.6" rx="1.4" ry="1.5"/>
<ellipse style="opacity:0.29;fill:#D1D3D4;enable-background:new    ;" cx="392.2" cy="527.6" rx="1.6" ry="1.6"/>
<ellipse style="fill:#D1D3D4;" cx="644" cy="452.9" rx="1.4" ry="1.5"/>
<ellipse style="opacity:0.29;fill:#D1D3D4;enable-background:new    ;" cx="644" cy="453" rx="1.6" ry="1.6"/>
<ellipse style="fill:#D1D3D4;" cx="652" cy="490.3" rx="1.4" ry="1.5"/>
<ellipse style="opacity:0.29;fill:#D1D3D4;enable-background:new    ;" cx="652" cy="490.3" rx="1.6" ry="1.6"/>
<ellipse style="fill:#D1D3D4;" cx="3.7" cy="447.9" rx="1.4" ry="1.5"/>
<ellipse style="opacity:0.29;fill:#D1D3D4;enable-background:new    ;" cx="3.7" cy="447.9" rx="1.6" ry="1.6"/>
<ellipse style="fill:#D1D3D4;" cx="-14.3" cy="407.9" rx="1.4" ry="1.5"/>
<ellipse style="opacity:0.29;fill:#D1D3D4;enable-background:new    ;" cx="-14.3" cy="407.9" rx="1.6" ry="1.6"/>
<ellipse style="fill:#8EBACC;" cx="-52" cy="446.4" rx="1.4" ry="1.5"/>
<ellipse style="opacity:0.29;fill:#8EBACC;enable-background:new    ;" cx="-52" cy="446.4" rx="1.6" ry="1.6"/>
<ellipse style="fill:#8EBACC;" cx="182.3" cy="283.3" rx="1.4" ry="1.5"/>
<ellipse style="opacity:0.29;fill:#8EBACC;enable-background:new    ;" cx="182.3" cy="283.3" rx="1.6" ry="1.6"/>
<ellipse style="fill:#8EBACC;" cx="196.6" cy="272.9" rx="1.4" ry="1.5"/>
<ellipse style="opacity:0.29;fill:#8EBACC;enable-background:new    ;" cx="196.7" cy="273" rx="1.6" ry="1.6"/>
<ellipse style="fill:#8EBACC;" cx="203.3" cy="295.9" rx="1.4" ry="1.5"/>
<ellipse style="opacity:0.29;fill:#8EBACC;enable-background:new    ;" cx="203.3" cy="295.9" rx="1.6" ry="1.6"/>
<ellipse style="fill:#8EBACC;" cx="419.3" cy="200.5" rx="1.4" ry="1.5"/>
<ellipse style="opacity:0.29;fill:#8EBACC;enable-background:new    ;" cx="419.3" cy="200.5" rx="1.6" ry="1.6"/>
<ellipse style="fill:#8EBACC;" cx="428" cy="209.5" rx="1.4" ry="1.5"/>
<ellipse style="opacity:0.29;fill:#8EBACC;enable-background:new    ;" cx="428" cy="209.5" rx="1.6" ry="1.6"/>
<ellipse style="fill:#8EBACC;" cx="158" cy="629.5" rx="1.4" ry="1.5"/>
<ellipse style="opacity:0.29;fill:#8EBACC;enable-background:new    ;" cx="158" cy="629.5" rx="1.6" ry="1.6"/>
<ellipse style="fill:#8EBACC;" cx="161.7" cy="635.9" rx="1.4" ry="1.5"/>
<ellipse style="opacity:0.29;fill:#8EBACC;enable-background:new    ;" cx="161.7" cy="635.9" rx="1.6" ry="1.6"/>
<ellipse style="fill:#8EBACC;" cx="617.4" cy="417.2" rx="1.4" ry="1.5"/>
<ellipse style="opacity:0.29;fill:#8EBACC;enable-background:new    ;" cx="617.5" cy="417.2" rx="1.6" ry="1.6"/>
<ellipse style="fill:#8EBACC;" cx="642.4" cy="430.5" rx="1.4" ry="1.5"/>
<ellipse style="opacity:0.29;fill:#8EBACC;enable-background:new    ;" cx="642.4" cy="430.6" rx="1.6" ry="1.6"/>
<ellipse style="fill:#8EBACC;" cx="754.4" cy="207.9" rx="1.4" ry="1.5"/>
<ellipse style="opacity:0.29;fill:#8EBACC;enable-background:new    ;" cx="754.4" cy="207.9" rx="1.6" ry="1.6"/>
<ellipse style="fill:#8EBACC;" cx="763" cy="230.6" rx="1.4" ry="1.5"/>
<ellipse style="opacity:0.29;fill:#8EBACC;enable-background:new    ;" cx="763" cy="230.6" rx="1.6" ry="1.6"/>
<ellipse style="fill:#8EBACC;" cx="782" cy="198.6" rx="1.4" ry="1.5"/>
<ellipse style="opacity:0.29;fill:#8EBACC;enable-background:new    ;" cx="782.1" cy="198.6" rx="1.6" ry="1.6"/>
<ellipse style="fill:#8EBACC;" cx="783.7" cy="163" rx="1.4" ry="1.5"/>
<ellipse style="opacity:0.29;fill:#8EBACC;enable-background:new    ;" cx="783.7" cy="163" rx="1.6" ry="1.6"/>
<ellipse style="fill:#8EBACC;" cx="741.7" cy="197.1" rx="1.4" ry="1.5"/>
<ellipse style="opacity:0.29;fill:#8EBACC;enable-background:new    ;" cx="741.7" cy="197.1" rx="1.6" ry="1.6"/>
<ellipse style="fill:#8EBACC;" cx="708.5" cy="330.4" rx="1.4" ry="1.5"/>
<ellipse style="opacity:0.29;fill:#8EBACC;enable-background:new    ;" cx="708.6" cy="330.4" rx="1.6" ry="1.6"/>
<ellipse style="fill:#8EBACC;" cx="628.9" cy="473.5" rx="1.4" ry="1.5"/>
<ellipse style="opacity:0.29;fill:#8EBACC;enable-background:new    ;" cx="629" cy="473.5" rx="1.6" ry="1.6"/>
<ellipse style="fill:#8EBACC;" cx="0.5" cy="284.9" rx="1.4" ry="1.5"/>
<ellipse style="opacity:0.29;fill:#8EBACC;enable-background:new    ;" cx="0.5" cy="284.9" rx="1.6" ry="1.6"/>
<ellipse style="fill:#8EBACC;" cx="12.6" cy="211.1" rx="1.4" ry="1.5"/>
<ellipse style="opacity:0.29;fill:#8EBACC;enable-background:new    ;" cx="12.6" cy="211.1" rx="1.6" ry="1.6"/>
<ellipse style="fill:#8EBACC;" cx="-87.9" cy="359.6" rx="1.4" ry="1.5"/>
<ellipse style="opacity:0.29;fill:#8EBACC;enable-background:new    ;" cx="-87.9" cy="359.6" rx="1.6" ry="1.6"/>
<ellipse style="fill:#8EBACC;" cx="-65.4" cy="446.4" rx="1.4" ry="1.5"/>
<ellipse style="opacity:0.29;fill:#8EBACC;enable-background:new    ;" cx="-65.4" cy="446.4" rx="1.6" ry="1.6"/>
<ellipse style="fill:#8EBACC;" cx="5.1" cy="570.5" rx="1.4" ry="1.5"/>
<ellipse style="opacity:0.29;fill:#8EBACC;enable-background:new    ;" cx="5.1" cy="570.5" rx="1.6" ry="1.6"/>
<ellipse style="fill:#8EBACC;" cx="588" cy="664.3" rx="1.4" ry="1.5"/>
<ellipse style="opacity:0.29;fill:#8EBACC;enable-background:new    ;" cx="588" cy="664.3" rx="1.6" ry="1.6"/>
<ellipse style="fill:#8EBACC;" cx="330" cy="218.3" rx="1.4" ry="1.5"/>
<ellipse style="opacity:0.29;fill:#8EBACC;enable-background:new    ;" cx="330" cy="218.3" rx="1.6" ry="1.6"/>
<circle style="fill:#FFF200;" cx="140.5" cy="385.4" r="3.5"/>
<ellipse style="fill:#BE1E2D;" cx="380.1" cy="387.8" rx="2.3" ry="2.4"/>
<ellipse style="fill:#BE1E2D;" cx="43.3" cy="530.4" rx="2.3" ry="2.4"/>
<ellipse style="fill:#BE1E2D;" cx="180.7" cy="310.6" rx="2.3" ry="2.4"/>
<ellipse style="fill:#BE1E2D;" cx="272" cy="506.6" rx="2.3" ry="2.4"/>
<ellipse style="fill:#BE1E2D;" cx="612.1" cy="516.3" rx="2.3" ry="2.4"/>
<ellipse style="fill:#BE1E2D;" cx="765.3" cy="579.9" rx="2.3" ry="2.4"/>
<ellipse style="fill:#BE1E2D;" cx="785.6" cy="329.6" rx="2.3" ry="2.4"/>
<ellipse style="fill:#BE1E2D;" cx="-54.3" cy="280.9" rx="2.3" ry="2.4"/>
<circle style="fill:#FFF200;" cx="549.6" cy="301" r="3.5"/>
<circle style="fill:#FFF200;" cx="615.6" cy="574" r="3.5"/>
<circle style="fill:#FFF200;" cx="579.6" cy="317.5" r="3.5"/>
<circle style="fill:#FFF200;" cx="-13.9" cy="200.5" r="3.5"/>
<circle style="fill:#FFF200;" cx="-36.9" cy="675" r="3.5"/>
<circle style="fill:#FFF200;" cx="782.1" cy="654" r="3.5"/>
<circle style="fill:#FFF200;" cx="612.1" cy="184.5" r="3.5"/>
</svg>
