<?xml version="1.0" encoding="utf-8"?>
<!-- Generator: Adobe Illustrator 21.0.2, SVG Export Plug-In . SVG Version: 6.00 Build 0)  -->
<svg version="1.1" id="Layer_1" xmlns="http://www.w3.org/2000/svg" xmlns:xlink="http://www.w3.org/1999/xlink" x="0px" y="0px"
	 viewBox="0 0 960 640" style="enable-background:new 0 0 960 640;" xml:space="preserve">
<style type="text/css">
	.st0{fill:#FFF200;}
	.st1{opacity:0.29;fill:#FFF200;}
	.st2{fill:#D1D3D4;}
	.st3{opacity:0.29;fill:#D1D3D4;}
	.st4{fill:#8EBACC;}
	.st5{opacity:0.29;fill:#8EBACC;}
	.st6{fill:#BE1E2D;}
</style>
<ellipse class="st0" cx="470.4" cy="439.9" rx="4.4" ry="4.6"/>
<ellipse class="st1" cx="470.4" cy="440" rx="4.9" ry="5"/>
<ellipse class="st2" cx="275.6" cy="453.6" rx="2.4" ry="2.6"/>
<ellipse class="st3" cx="275.7" cy="453.7" rx="2.7" ry="2.9"/>
<ellipse class="st2" cx="497.3" cy="417" rx="2.4" ry="2.6"/>
<ellipse class="st3" cx="497.4" cy="417" rx="2.7" ry="2.9"/>
<ellipse class="st2" cx="505.7" cy="437.9" rx="2.4" ry="2.6"/>
<ellipse class="st3" cx="505.8" cy="438" rx="2.7" ry="2.9"/>
<ellipse class="st2" cx="507.2" cy="426.7" rx="1.4" ry="1.5"/>
<ellipse class="st3" cx="507.2" cy="426.7" rx="1.6" ry="1.6"/>
<ellipse class="st2" cx="759" cy="352" rx="1.4" ry="1.5"/>
<ellipse class="st3" cx="759" cy="352.1" rx="1.6" ry="1.6"/>
<ellipse class="st2" cx="767" cy="389.4" rx="1.4" ry="1.5"/>
<ellipse class="st3" cx="767" cy="389.4" rx="1.6" ry="1.6"/>
<ellipse class="st2" cx="118.7" cy="347" rx="1.4" ry="1.5"/>
<ellipse class="st3" cx="118.7" cy="347" rx="1.6" ry="1.6"/>
<ellipse class="st2" cx="100.7" cy="307" rx="1.4" ry="1.5"/>
<ellipse class="st3" cx="100.7" cy="307" rx="1.6" ry="1.6"/>
<ellipse class="st4" cx="63" cy="345.5" rx="1.4" ry="1.5"/>
<ellipse class="st5" cx="63" cy="345.5" rx="1.6" ry="1.6"/>
<ellipse class="st4" cx="297.3" cy="182.4" rx="1.4" ry="1.5"/>
<ellipse class="st5" cx="297.3" cy="182.4" rx="1.6" ry="1.6"/>
<ellipse class="st4" cx="311.6" cy="172" rx="1.4" ry="1.5"/>
<ellipse class="st5" cx="311.7" cy="172.1" rx="1.6" ry="1.6"/>
<ellipse class="st4" cx="318.3" cy="195" rx="1.4" ry="1.5"/>
<ellipse class="st5" cx="318.3" cy="195" rx="1.6" ry="1.6"/>
<ellipse class="st4" cx="534.3" cy="99.6" rx="1.4" ry="1.5"/>
<ellipse class="st5" cx="534.3" cy="99.6" rx="1.6" ry="1.6"/>
<ellipse class="st4" cx="543" cy="108.6" rx="1.4" ry="1.5"/>
<ellipse class="st5" cx="543" cy="108.6" rx="1.6" ry="1.6"/>
<ellipse class="st4" cx="273" cy="528.6" rx="1.4" ry="1.5"/>
<ellipse class="st5" cx="273" cy="528.6" rx="1.6" ry="1.6"/>
<ellipse class="st4" cx="276.7" cy="535" rx="1.4" ry="1.5"/>
<ellipse class="st5" cx="276.7" cy="535" rx="1.6" ry="1.6"/>
<ellipse class="st4" cx="732.4" cy="316.3" rx="1.4" ry="1.5"/>
<ellipse class="st5" cx="732.5" cy="316.3" rx="1.6" ry="1.6"/>
<ellipse class="st4" cx="757.4" cy="329.6" rx="1.4" ry="1.5"/>
<ellipse class="st5" cx="757.4" cy="329.7" rx="1.6" ry="1.6"/>
<ellipse class="st4" cx="869.4" cy="107" rx="1.4" ry="1.5"/>
<ellipse class="st5" cx="869.4" cy="107" rx="1.6" ry="1.6"/>
<ellipse class="st4" cx="878" cy="129.7" rx="1.4" ry="1.5"/>
<ellipse class="st5" cx="878" cy="129.7" rx="1.6" ry="1.6"/>
<ellipse class="st4" cx="897" cy="97.7" rx="1.4" ry="1.5"/>
<ellipse class="st5" cx="897.1" cy="97.7" rx="1.6" ry="1.6"/>
<ellipse class="st4" cx="898.7" cy="62.1" rx="1.4" ry="1.5"/>
<ellipse class="st5" cx="898.7" cy="62.1" rx="1.6" ry="1.6"/>
<ellipse class="st4" cx="856.7" cy="96.2" rx="1.4" ry="1.5"/>
<ellipse class="st5" cx="856.7" cy="96.2" rx="1.6" ry="1.6"/>
<ellipse class="st4" cx="823.5" cy="229.5" rx="1.4" ry="1.5"/>
<ellipse class="st5" cx="823.6" cy="229.5" rx="1.6" ry="1.6"/>
<ellipse class="st4" cx="743.9" cy="372.6" rx="1.4" ry="1.5"/>
<ellipse class="st5" cx="744" cy="372.6" rx="1.6" ry="1.6"/>
<ellipse class="st4" cx="115.5" cy="184" rx="1.4" ry="1.5"/>
<ellipse class="st5" cx="115.5" cy="184" rx="1.6" ry="1.6"/>
<ellipse class="st4" cx="127.6" cy="110.2" rx="1.4" ry="1.5"/>
<ellipse class="st5" cx="127.6" cy="110.2" rx="1.6" ry="1.6"/>
<ellipse class="st4" cx="27.1" cy="258.7" rx="1.4" ry="1.5"/>
<ellipse class="st5" cx="27.1" cy="258.7" rx="1.6" ry="1.6"/>
<ellipse class="st4" cx="49.6" cy="345.5" rx="1.4" ry="1.5"/>
<ellipse class="st5" cx="49.6" cy="345.5" rx="1.6" ry="1.6"/>
<ellipse class="st4" cx="120.1" cy="469.6" rx="1.4" ry="1.5"/>
<ellipse class="st5" cx="120.1" cy="469.6" rx="1.6" ry="1.6"/>
<ellipse class="st4" cx="703" cy="563.4" rx="1.4" ry="1.5"/>
<ellipse class="st5" cx="703" cy="563.4" rx="1.6" ry="1.6"/>
<ellipse class="st4" cx="445" cy="117.4" rx="1.4" ry="1.5"/>
<ellipse class="st5" cx="445" cy="117.4" rx="1.6" ry="1.6"/>
<circle class="st0" cx="255.5" cy="284.5" r="3.5"/>
<ellipse class="st6" cx="495.1" cy="286.9" rx="2.3" ry="2.4"/>
<ellipse class="st6" cx="158.3" cy="429.5" rx="2.3" ry="2.4"/>
<ellipse class="st6" cx="295.7" cy="209.7" rx="2.3" ry="2.4"/>
<ellipse class="st6" cx="387" cy="405.7" rx="2.3" ry="2.4"/>
<ellipse class="st6" cx="727.1" cy="415.4" rx="2.3" ry="2.4"/>
<ellipse class="st6" cx="880.3" cy="479" rx="2.3" ry="2.4"/>
<ellipse class="st6" cx="900.6" cy="228.7" rx="2.3" ry="2.4"/>
<ellipse class="st6" cx="60.7" cy="180" rx="2.3" ry="2.4"/>
<circle class="st0" cx="664.6" cy="200.1" r="3.5"/>
<circle class="st0" cx="730.6" cy="473.1" r="3.5"/>
<circle class="st0" cx="694.6" cy="216.6" r="3.5"/>
<circle class="st0" cx="101.1" cy="99.6" r="3.5"/>
<circle class="st0" cx="78.1" cy="574.1" r="3.5"/>
<circle class="st0" cx="897.1" cy="553.1" r="3.5"/>
<circle class="st0" cx="727.1" cy="83.6" r="3.5"/>
</svg>
