<?xml version="1.0" encoding="utf-8"?>
<!-- Generator: Adobe Illustrator 19.0.0, SVG Export Plug-In . SVG Version: 6.00 Build 0)  -->
<svg version="1.1" id="Layer_1" xmlns="http://www.w3.org/2000/svg" xmlns:xlink="http://www.w3.org/1999/xlink" x="0px" y="0px"
	 viewBox="-297 2.1 596.6 837.8" style="enable-background:new -297 2.1 596.6 837.8;" xml:space="preserve">
<g id="Layer_4">
	<path style="fill:#A01E22;" d="M-113.8,422.8c0,0,5.7-2.3,11-5.2c10.3-5.8,18.3-20.5,28.4-28.1c0,0,8.4-9,22.9-19.7
		c8.2-6,27.9-20.1,56.7-24.3c12.4-1.8,40-3.8,67.8,10.5c11.6,6,30.5,18.4,44.4,38.2c4.7,6.7,7.2,11.8,14.3,18.4
		c11.3,10.4,23.4,14.3,34,17.6c20.1,6.2,54.7,11.2,54.7,11.2s6.9,0.6,7.1,3.5c0.2,2.3-7.1,5.2-9.7,6.2c-34.1,12-78.8,12.4-78.8,12.4
		c-3.2,0-6.5,0.1-6.5,0.1l0,0c-0.7,0.1,14.5,1.1-55.7,2.2c-54.4,0.9-81.6,1.3-100.8,1.1c-45.5-0.6-82-1.2-129.9-7.2
		c-23.7-3-43.4-6.4-57.2-9c0,0-4.6-1.5-3.1-3.2c2-2.3,11.3-4.9,11.3-4.9l0,0c0,0,63.6-12.2,80.5-16.9
		C-118.2,424.6-115,423.3-113.8,422.8z"/>
	<path style="fill:#F05E24;" d="M-106.9,423.2c0,0,5.5-2.2,10.5-5c9.9-5.6,17.6-19.6,27.3-27c0,0,8-8.7,21.9-18.8
		c7.9-5.8,26.8-19.3,54.4-23.3c12-1.7,38.4-3.6,65.1,10c11.2,5.7,29.3,17.6,42.7,36.6c4.5,6.4,6.9,11.3,13.7,17.6
		c10.9,10,22.5,13.7,32.7,16.8c19.3,5.9,51.3,10.5,53.4,11c2,0.5,7.2,1.1,7,3c-0.2,2.2-7.8,5.1-10.4,6
		c-32.8,11.5-79.5,12.3-82.1,12.7c-2.1,0.3-13,0.8-53.4,1.5c-52.2,0.9-78.3,1.3-96.8,1c-43.7-0.6-78.7-1.2-124.7-6.9
		c-22.8-2.8-41.7-6.1-54.9-8.6c0,0-4.4-1.5-3-3c2-2.2,10.9-4.7,10.9-4.7l0,0c0,0,61.1-11.6,77.3-16.2
		C-111.2,424.8-108.1,423.6-106.9,423.2z"/>
	<path style="fill:#F05E24;" d="M-102.8,424c0,0,5.2-2.1,10-4.8c9.4-5.3,16.7-18.7,26-25.7c0,0,7.7-8.2,20.9-17.9
		c7.5-5.5,25.5-18.4,51.8-22.2c11.4-1.7,36.6-3.4,62,9.5c10.6,5.4,27.9,16.8,40.6,34.9c4.3,6.1,6.5,10.8,13.1,16.8
		c10.4,9.5,21.4,13,31.1,16c18.4,5.7,25.7,3.2,50.1,10.9c3.1,1,7.6,0.7,7.4,2.5c-0.2,2.1-7.5,4.8-9.9,5.7
		c-31.2,11-75.7,11.7-78.1,12.1c-2,0.3-12.4,0.8-50.8,1.4c-49.7,0.8-74.6,1.2-92.1,1c-41.6-0.6-74.9-1.1-118.7-6.6
		c-21.7-2.7-39.7-5.8-52.3-8.2c0,0-4.2-1.4-2.9-2.9c1.9-2.1,10.4-4.4,10.4-4.4l0,0c0,0,58.1-11.1,73.6-15.4
		C-106.9,425.5-103.9,424.4-102.8,424z"/>
	<path style="fill:#A01E22;" d="M-96.4,423.7c0,0,5-2,9.5-4.7c8.9-5.2,15.9-18.4,24.7-25.2c0,0,7.3-8.1,19.9-17.6
		c7.1-5.4,24.3-18.1,49.3-21.8c10.8-1.6,34.8-3.4,59,9.4c10.1,5.3,26.5,16.5,38.6,34.3c4.1,6,6.2,10.6,12.4,16.5
		c9.9,9.4,20.3,12.8,29.6,15.8c17.5,5.6,44.2,9,47.2,10s6.5,2,6.3,3.7c-0.2,2-5.9,4.1-8.2,5c-29.7,10.8-72,11.5-74.3,11.9
		c-1.9,0.3-11.8,0.8-48.3,1.4c-47.3,0.8-70.9,1.2-87.6,1c-39.5-0.6-71.3-1.1-112.9-6.5c-20.6-2.7-48.3-7.8-49.8-8.5
		s-3.2-1.8-1.9-3.2c2.3-2,2.8-1.8,5-2.4c2.2-0.6,4.1-1.2,6.7-1.8c2.6-0.6,52.7-10.3,67.4-14.6C-100.3,425.2-97.5,424.1-96.4,423.7z"
		/>
	<path style="fill:#F05E24;" d="M-95.9,424.8c0,0,5-2,9.5-4.7c8.9-5.2,15.9-18.4,24.7-25.2c0,0,7.3-8.1,19.9-17.6
		c7.1-5.4,24.3-18.1,49.3-21.8c10.8-1.6,34.8-3.4,59,9.4c10.1,5.3,26.5,16.5,38.6,34.3c4.1,6,6.2,10.6,12.4,16.5
		c9.9,9.4,20.3,12.8,29.6,15.8c17.5,5.6,35.1,7.3,40.8,8.4s10.9,2.6,10.7,4.4c-0.2,2-12.5,6.3-17.7,7.6c-18.4,3.9-47.9,8.1-57.4,8.6
		c-30.4,1.4-18.2,0.7-54,1.3c-47.3,0.8-70.3,1.2-87,1c-39.5-0.6-70.7-0.8-112.3-6.2c-20.6-2.7-33.8-5.1-45.8-7.4
		c0,0-5.4-1.9-5.4-3.2c-0.1-1.3,7.7-3.3,7.7-3.3l0,0c0,0,55.3-10.9,70-15.1C-99.8,426.3-97,425.2-95.9,424.8z"/>
	<line style="fill:none;" x1="132.6" y1="463.5" x2="132.6" y2="463.5"/>
	<path style="fill:#FFDDAD;" d="M-86.3,424c13.3-8.6,11.6-5.8,21.7-15.7c5.1-5.4,9.1-10.8,13.8-16.2c4.3-5,18.3-19,25.8-23.4
		c9-5.2,27.9-12.1,36.5-13.2c10.9-1.3,22.8-1,30.3,0.8c7.5,1.9,21.1,8.1,27.1,12.2c5.1,3.4,19.6,17.3,23.6,22.2
		c1.8,2.2,9.6,12.8,12.9,16.7c3.1,3.5,7.3,7.8,10.3,10.2c4.2,3.5,5.6,4.5,11.3,7.3c8.5,4.2,16.9,7.5,23.3,9.1
		c9.9,2.5,10.4,3,13.6,5.3c2.8,2,1,5.6-4.7,7s-18.2,4.9-27.2,6.4c-10.3,1.7-56.9,4.8-67.1,4.9c-10.1,0-75.5-0.8-87.2-1.3
		c-10.4-0.4-68.2-3.6-71.5-3.9c-4-0.3-25.8-2.3-29.5-4.7c-1.9-1.3-1.7-3.2,0.1-5.1C-120.5,439.5-91.5,427.4-86.3,424z"/>
	<path style="fill:#600B10;" d="M-61.8,473.3c0.7,7.9,3.6,20.2,12.1,35.6c20.2,23.8,43.9,31.9,43.9,31.9s27.7,6.2,52.2-1
		c12.4-3.7,25.4-10.5,38.9-31.4c8-13.9,13.3-28.7,13.1-35.6"/>
	<path style="fill:#C82728;" d="M-54.6,474.2c-0.4,6.4,1.6,19,7.3,30.2c5.7,11.2,33.3,27.9,44.1,31.1c9.1,2.6,32.7,7.1,52.2-3.3
		c11.1-4.5,28.2-17.1,33.3-26.6c5.2-9.5,10.6-25.4,10.4-32"/>
	<path style="fill:#F37423;" d="M-49.3,475.2c-0.3,5.5-0.1,15.3,5.3,25.4c10.2,19.1,31.2,25,40.7,27.7c6.3,1.8,24.5,6.7,45.8,0
		c7.3-2.3,25.4-7.9,35.9-25.4c6.9-11.4,7.4-22.6,7.2-28.2"/>
	<path style="fill:#FDD09F;" d="M-44.9,474c-0.3,4.7,1.1,12.8,6.1,21.5c9.4,16.4,27.5,21.8,36.2,24.1c5.8,1.5,22.5,5.7,42.2,0
		c6.7-2,23.4-6.8,33.1-21.8c6.3-9.8,6.8-19.4,6.6-24.3"/>
	<path style="fill:#600B10;" d="M-27.1,473.6c2,4.7,5.8,12.4,13.1,19.7c4.4,4.3,12.6,12.3,25.9,14.9c11.9,2.3,21.3-1,24.9-2.2
		c10.6-3.8,16.9-10.1,20-13.3c6.9-7.1,10.6-14.4,12.4-19"/>
	<path style="fill:#F4762B;" d="M-24.9,473.5h92.2c0,0-5.6,12.4-11.6,18s-12.3,10.4-19.8,12.6s-20,2.9-26.5,1.5
		c-7.3-2.9-9-2.5-14.7-7.1c-6.3-4.5-13.2-12.3-15.2-15.8C-22.9,478.5-24.9,473.5-24.9,473.5z"/>
	<path style="fill:#701912;" d="M-24,473.5h89.5c0,0-5.5,11.4-11.3,16.5s-11.9,9.6-19.2,11.6c-7.3,2-18.7,4.1-25.7,1.4
		c-7.1-2.7-8.8-2.3-14.3-6.5c-6.1-4.2-12.8-11.3-14.8-14.5C-22.1,478.1-24,473.5-24,473.5z"/>
	<path d="M-22.8,473.5h86.2c0,0-5.3,10.6-10.9,15.3c-5.6,4.7-11.5,8.9-18.5,10.8s-18,3.7-24.8,1.3c-6.8-2.5-8.5-2.2-13.7-6
		c-5.9-3.8-12.4-10.5-14.3-13.4C-20.9,477.8-22.8,473.5-22.8,473.5z"/>
	<path style="fill:#F05E24;" d="M-17.8,473.1h76c0,0-4.6,9.3-9.6,13.5s-10.1,7.8-16.3,9.5c-6.2,1.7-15.8,3.3-21.9,1.1
		c-6-2.2-7.5-1.9-12.1-5.3c-5.2-3.4-10.9-9.2-12.6-11.8C-16.2,476.9-17.8,473.1-17.8,473.1z"/>
	<path d="M-17.9,472.8h76c0,0-4.6,9.3-9.6,13.5s-10.1,7.8-16.3,9.5c-6.2,1.7-15.8,3.3-21.9,1.1c-6-2.2-7.5-1.9-12.1-5.3
		c-5.2-3.4-10.9-9.2-12.6-11.8C-16.3,476.5-17.9,472.8-17.9,472.8z"/>
	<path style="fill:#A91F23;" d="M-42.1,441.2c0.2,0.6,1.8,1.1,1.8,1.1c1.3,1.1,20.7,3,35.6,3.4s39,0.5,53.6,0.5s30.5-3.5,30.5-3.5
		c1.7-0.7,2.9-1.9,2.9-3.2c0-0.9-2.7-3.1-3.2-3.9c-0.7-0.9-3.9-10.6-6.8-15.6c-3.8-6.4-6.6-11.2-9.5-14.8
		c-5.8-7.2-18.7-18.6-37.2-20.4c-20.7-2-35.5,9.2-39.5,12.2c-4.2,3.2-9.4,8.7-15.1,16.3c-3.1,4.1-7.4,14.3-9.5,19.5s-3.6,5.7-3.8,7"
		/>
	<path style="fill:#C42A27;" d="M-79,426.3c5-3,16.7-10.8,20.5-16s10.3-12,14.1-17c3.8-5,13.5-14.7,20.2-19.1
		c6.7-4.5,18-10.7,22.3-11.7s12-2.7,15.7-3s15.4-2.1,26.4,1c10.4,3.3,19.2,7.6,25.8,11.2c10.4,8,17.8,16.8,21.6,21.4
		c3.8,4.6,9.2,13,12.1,16.6c2.8,3.5,13.8,14.4,20.3,17.1c5.3,2.2,22.9,7.6,26.2,8.6s6,1.3,7.6,3.2s2,5.2-3.1,7.3
		c-5.2,2.1-17,4.1-25.5,5.5c-8.6,1.3-66.6,5.3-62.4,5.1c4.1-0.3-62.9,0.2-79-0.3c-9.6-0.3-57.9-3.5-68.1-4.4
		c-3.1-0.3-23.4-0.8-29-3.2c-2.9-1.2-4.5-3.3-2.3-5.5C-113.6,440.8-84,429.3-79,426.3z"/>
	<path style="fill:#F57F20;" d="M150,438c1.3,0.7,4.4,3.5-1.5,6.4c-5.8,2.9-18.7,5.3-22,5.6s-56,4.8-63.8,5.1
		c-4.9,0.2-66.7,0.1-77.2,0.1c-10.5-0.1-61.2-3.4-67.4-3.8c-3.1-0.2-23.7-2.2-29.5-4.2c-2.9-1-3.9-2-1-4.5s29.1-11.6,34-14.4
		S-61.8,417.9-58,413c3.8-4.9,10.2-11.5,14.1-16.3c3.8-4.8,13.4-14,20.1-18.3s22.2-11.2,22.2-11.2s11.4-2.5,15.6-2.9
		s15.3-1.8,26.3,1c12,3.2,19.7,7.3,25.4,10.9c5.7,3.6,19.2,17.2,22,20.8c4.5,5.8,8.2,11.4,11.4,15.5c2.7,3.4,8.3,8.2,11.6,11
		c4.2,3.6,9.1,5.6,15.4,7.7"/>
	<path style="fill:#FFE3B3;" d="M-68.6,425.1c5.1-3.3,14.4-11.9,16.8-14.8s8.4-8.5,12-13c3.7-4.6,12.8-13.4,19.2-17.5
		c6.4-4.1,21.2-10.7,21.2-10.7s10.9-2.4,15-2.7s14.6-1.7,25.2,0.9c11.4,3.1,18.8,7,24.3,10.4s18.4,16.4,21,19.9
		c4.3,5.6,7.8,10.9,10.9,14.8c2.6,3.2,8,7.8,11.1,10.5c4,3.5,8.7,5.4,14.8,7.4c6.8,2.3,15.7,5,18.8,5.9c4.8,1.4,6,1.1,7.9,3.4
		c1.8,2.1,0.3,5.1-4.8,6.3c-5,1.2-15.1,3.4-25.3,4.3c-9.1,0.8-48.6,2.4-57.5,2.4c-10.1,0-65.4,1.2-71.4,1.1
		c-5.9-0.1-62.1-2.3-66.4-2.8c-3-0.4-27.7-1.7-30.5-2.7c-2.8-1.1-3.7-2.3-2.5-3.9s14.5-6.7,21.3-9.7
		C-77.1,430-71.1,426.7-68.6,425.1z"/>
	<path style="fill:#F57F20;" d="M-73.4,429.4c4.7-2.7,15.9-9.9,19.5-14.6s9.8-11,13.4-15.5c3.6-4.5,12.8-13.4,19.2-17.5
		s21.2-10.7,21.2-10.7s10.9-2.4,15-2.7c4.1-0.4,14.6-1.7,25.2,0.9c11.4,3.1,18.8,7,24.3,10.4s18.4,16.4,21,19.9
		c4.3,5.6,7.8,10.9,10.9,14.8c2.6,3.2,8,7.8,11.1,10.5c4,3.5,8,5.1,14.1,7.1c6.8,2.3,14.3,3.7,17.5,4.4c4.6,1,7.5,1.2,9.5,3.5
		c1.8,2.1,0.7,4.3-3.3,5.6c-4.2,1.4-14.9,3-22.2,3.7c-7.3,0.7-49,2.5-58.9,2.6c-9.9,0.2-59.3,0.9-72.4,0.6
		c-12.8-0.3-67.3-2.2-65.7-2.1s-26.5-1.9-30.3-3.1c-3.2-1-3.8-1.7-3.1-3.2C-106.7,442.4-78.1,432.1-73.4,429.4z"/>
	<path style="fill:#FFE3B3;" d="M-70.4,428.3c4.7-2.6,13.3-9.1,18.1-14.2c3.9-4.3,9-10.6,12.6-14.9c3.7-4.3,12.8-12.7,19.2-16.7
		c6.4-3.9,15.2-8.4,21.3-10.4c6.7-2.1,10.3-2.9,14.4-3.3s14.6-1.7,25.2,0.9c11.4,2.9,18.4,7.2,23.8,10.5s16.9,15.8,19.5,19.1
		c4.3,5.3,8.2,11.2,11.3,14.8c2.6,3.1,9,8.7,12.1,11.2c4,3.3,7.8,4.9,13.9,6.8c6.8,2.1,13.6,3.5,15.9,4.3c3.8,1.2,9.1,1.2,11,3.3
		c1.8,2,1.1,4.2-4,5.3c-5,1.1-2.9,0.8-17.3,3.3c-18.4,2.5-137.3,3.3-133.7,3.3c3.6,0-65.1-2.5-70.5-3c-7.3-0.7-17.3-1-22.3-2.2
		c-2.9-0.7-5.1-0.4-5.1-2.5C-105,442.1-75.2,430.9-70.4,428.3z"/>
	<path style="fill:#F05E24;" d="M-40.9,416.6c6.9-7,15.8-17.4,23.3-23.4c4.3-3.4,14.5-11.3,29.4-13.6c6.4-1,20.7-2.1,35.1,5.9
		c6,3.3,15.8,10.3,23,21.4c2.4,3.8,3.7,6.6,7.4,10.3c5.9,5.8,11.8,9.4,17.1,12.7s13.6,8.9,8.1,12.2c-7,4.2-23.5,3.8-24.9,4.1
		c-1.1,0.2-7,0.5-28.8,0.9c-28.2,0.5-42.3,0.8-52.2,0.6c-23.6-0.4-47.5-1.2-63-4.6c-8.5-5,3.4-11.8,11.7-15.7
		C-50.1,425.1-43.1,418.9-40.9,416.6z"/>
	<path style="fill:#B82126;" d="M-42.4,425.1c4.8-5.7,9.9-13,14.6-18.1c0,0,3.5-3.8,10.8-9.3c4.2-3.1,14.1-10.4,28.7-12.5
		c6.3-0.9,20.3-1.9,34.3,5.4c5.9,3.1,15.4,9.5,22.5,19.7c2.4,3.4,4.1,6.6,7.6,11c3.8,4.9,6.5,6.6,10.9,10c5.2,4.1,2.7,10.1,0.4,11
		c-4.7,4-9.9,3.7-11.3,3.9c-1.1,0.2-6.9,0.4-28.1,0.8c-27.5,0.5-41.3,0.7-51,0.6c-23-0.3-35.8-2.6-43.9-3.9
		c-8.3-2.8-12.2-6.2-6.3-10.9C-50,430.1-45.2,428.5-42.4,425.1z"/>
	<path d="M-40.8,442c0.7,2.2,4.5,1.6,15,3.5c4.7,0.3,34.5,1.6,45,1.7c9.9,0.6,46.1-1.8,46.1-1.8s8.4-1.8,9.8-2.4
		c1.4-0.5,3.5-2.3,2.2-6.1c-1.2-2.1-0.8-1.7-2.3-3.6c-1.2-1.4-3.1-5.7-9.7-18.2c-6.6-11.5-14.6-16.4-23.5-21.3
		c-8.6-3.9-21.3-4.7-21.3-4.7s-5.1-0.5-20,3.1c-17.5,6.2-26.6,20-26.6,20c-4.5,5.6-9.6,18-12.4,22.7c-1.2,1-2,2.3-2.5,3.4
		c-0.7,1.6-0.4,2.5-0.4,2.5C-40.8,442-40.8,442-40.8,442z"/>
	<path style="fill:#F59333;" d="M55.8,444.7c3-0.1,10.4,0.8,12.5,0c0.4-0.1,1.4-0.3,1.4-0.7c0-0.3-0.5-0.7-1.7-1.4
		c-1.2-0.7-2.6-1.5-3.8-2.8c-0.8-1.2-1.2-2.2-2-4.9c-0.8-2.8-1.2-4.3-1.6-6.5c-0.6-4.2-4.9-12.2-11.3-18.4
		c-9.2-8.9-19.7-11.1-23.6-11.7c-2.3-0.4-13.8-1.9-26.2,4.1c-7.8,3.8-12.4,8.9-13.9,10.6c-3.9,4.5-7.6,11.6-9,16.3
		c-0.2,0.6-0.8,3.9-2.1,8.7c-0.1,0.4-0.6,1.4-1.6,2.5s-5.4,3.3-5.4,3.3"/>
	<path style="fill:#060707;" d="M55.8,446c3-0.1,10.4-0.3,12.5-1.1c0.4-0.1,1.2-0.4,1.2-0.9c0-0.3-0.7-0.7-0.7-0.7
		c-4.2-2.3-4-2.5-4.7-3.3s-1.4-2.4-1.8-4s-1.5-5.7-1.9-7.9c-0.6-4.2-4.5-10.6-10.9-16.8c-9.2-8.9-19.6-11.5-23.4-12.1
		c-2.3-0.4-14.1-1.9-26.5,4.2c-7.8,3.8-12.3,9.3-13.7,11c-3.9,4.5-7.3,12.2-8.7,17.4c-0.1,0.7-2,7-2,7s-0.9,1.8-2.3,2.8
		c-1.6,1.1-4.2,2.4-4.2,2.4"/>
	<path d="M-172.7,457.1c44.1,3.6,77.1,8.1,89.5,8.4s21.9,0.5,27,0.6c5.5,0.1,13.8,1.1,43.7,0.9c50.8-0.4,89.8-1.6,89.8-1.6
		s78.1-2.3,81.8-2.6c2-0.2,35.8-5.6,41.7-6.9c1.7-0.4,14.4-4,16.2-4.7c1.8-0.6,10.2-5.5,11.9-5.8c29.5-4.9,10.3,11.9,5.5,15.2
		c-8.9,5.4-36.6,11.5-50.8,11.6c-14.2,0.1-132.4,0.8-132.4,0.8s-124.4,1.4-155,0.4c-27.5-0.9-85.9-7.8-94.9-10.8s-19.8-14-15.4-13.7
		C-209.6,449.3-189.1,453.7-172.7,457.1z"/>
</g>
</svg>
