<?xml version="1.0" encoding="utf-8"?>
<!-- Generator: Adobe Illustrator 21.0.2, SVG Export Plug-In . SVG Version: 6.00 Build 0)  -->
<svg version="1.1" xmlns="http://www.w3.org/2000/svg" xmlns:xlink="http://www.w3.org/1999/xlink" x="0px" y="0px"
	 viewBox="0 0 596.6 837.8" style="enable-background:new 0 0 596.6 837.8;" xml:space="preserve">
<style type="text/css">
	.st0{display:none;}
	.st1{display:inline;stroke:#FFFFFF;stroke-miterlimit:10;}
	.st2{fill:#662D91;}
	.st3{fill:#634A89;}
	.st4{fill:#A15063;}
	.st5{fill:#8B737D;}
	.st6{fill:#C2B59B;}
	.st7{fill:#5C90A8;}
	.st8{fill:#2B3990;}
	.st9{fill:#8B59A4;}
	.st10{fill:#9B747A;}
	.st11{fill:#E5E4CE;}
	.st12{fill:#E7D9D0;}
	.st13{fill:#70859F;}
	.st14{fill:#A55B73;}
	.st15{fill:#DDA78B;}
	.st16{fill:#D88064;}
	.st17{fill:#582621;}
	.st18{fill:#69342D;}
	.st19{fill:#6B463F;}
	.st20{fill:#C2C8B1;}
	.st21{fill:#1C9BCF;}
	.st22{fill:#A7C5B5;}
	.st23{fill:#5BC1D5;}
	.st24{fill:#BEB398;}
	.st25{fill:#127DA0;}
	.st26{fill:#478079;}
	.st27{fill:#147E9F;}
	.st28{fill:#9D7962;}
	.st29{fill:#725549;}
	.st30{fill:#AB604C;}
	.st31{fill:#5B1A1C;}
	.st32{fill:#5C403C;}
	.st33{fill:#7D4E24;}
	.st34{fill:#F3EFE8;}
	.st35{fill:#A01E22;}
	.st36{fill:#F05E24;}
	.st37{fill:#FFDDAD;}
	.st38{fill:#600B10;}
	.st39{fill:#C82728;}
	.st40{fill:#F37423;}
	.st41{fill:#FDD09F;}
	.st42{fill:#F4762B;}
	.st43{fill:#701912;}
	.st44{fill:#A91F23;}
	.st45{fill:#C42A27;}
	.st46{fill:#F57F20;}
	.st47{fill:#FFE3B3;}
	.st48{fill:#B82126;}
	.st49{fill:#F59333;}
	.st50{fill:#1D0F10;}
	.st51{fill:#060707;}
</style>
<g id="Layer_1">
</g>
<g id="Layer_3" class="st0">
	<rect x="1.4" y="-5.8" class="st1" width="595.3" height="841.9"/>
</g>
<g id="Layer_2">
	<path d="M124.3,455c44.1,3.6,77.1,8.1,89.5,8.4s21.9,0.5,27,0.6c5.5,0.1,13.8,1.1,43.7,0.9c50.8-0.4,89.8-1.6,89.8-1.6
		c0,0,78.1-2.3,81.8-2.6c2-0.2,35.8-5.6,41.7-6.9c1.7-0.4,14.4-4,16.2-4.7c1.8-0.6,10.2-5.5,11.9-5.8c29.5-4.9,10.3,11.9,5.5,15.2
		c-8.9,5.4-36.6,11.5-50.8,11.6c-14.2,0.1-132.4,0.8-132.4,0.8s-124.4,1.4-155,0.4c-27.5-0.9-85.9-7.8-94.9-10.8s-19.8-14-15.4-13.7
		C87.4,447.2,107.9,451.6,124.3,455z"/>
</g>
<g id="Layer_4">
	<path class="st35" d="M183.2,420.7c0,0,5.7-2.3,11-5.2c10.3-5.8,18.3-20.5,28.4-28.1c0,0,8.4-9,22.9-19.7
		c8.2-6,27.9-20.1,56.7-24.3c12.4-1.8,40-3.8,67.8,10.5c11.6,6,30.5,18.4,44.4,38.2c4.7,6.7,7.2,11.8,14.3,18.4
		c11.3,10.4,23.4,14.3,34,17.6c20.1,6.2,54.7,11.2,54.7,11.2s6.9,0.6,7.1,3.5c0.2,2.3-7.1,5.2-9.7,6.2c-34.1,12-78.8,12.4-78.8,12.4
		c-3.2,0-6.5,0.1-6.5,0.1c0,0,0,0,0,0c-0.7,0.1,14.5,1.1-55.7,2.2c-54.4,0.9-81.6,1.3-100.8,1.1c-45.5-0.6-82-1.2-129.9-7.2
		c-23.7-3-43.4-6.4-57.2-9c0,0-4.6-1.5-3.1-3.2c2-2.3,11.3-4.9,11.3-4.9l0,0c0,0,63.6-12.2,80.5-16.9
		C178.8,422.5,182,421.2,183.2,420.7z"/>
	<path class="st36" d="M190.1,421.1c0,0,5.5-2.2,10.5-5c9.9-5.6,17.6-19.6,27.3-27c0,0,8-8.7,21.9-18.8c7.9-5.8,26.8-19.3,54.4-23.3
		c12-1.7,38.4-3.6,65.1,10c11.2,5.7,29.3,17.6,42.7,36.6c4.5,6.4,6.9,11.3,13.7,17.6c10.9,10,22.5,13.7,32.7,16.8
		c19.3,5.9,51.3,10.5,53.4,11c2,0.5,7.2,1.1,7,3c-0.2,2.2-7.8,5.1-10.4,6c-32.8,11.5-79.5,12.3-82.1,12.7c-2.1,0.3-13,0.8-53.4,1.5
		c-52.2,0.9-78.3,1.3-96.8,1c-43.7-0.6-78.7-1.2-124.7-6.9c-22.8-2.8-41.7-6.1-54.9-8.6c0,0-4.4-1.5-3-3c2-2.2,10.9-4.7,10.9-4.7
		l0,0c0,0,61.1-11.6,77.3-16.2C185.8,422.7,188.9,421.5,190.1,421.1z"/>
	<path class="st36" d="M194.2,421.9c0,0,5.2-2.1,10-4.8c9.4-5.3,16.7-18.7,26-25.7c0,0,7.7-8.2,20.9-17.9
		c7.5-5.5,25.5-18.4,51.8-22.2c11.4-1.7,36.6-3.4,62,9.5c10.6,5.4,27.9,16.8,40.6,34.9c4.3,6.1,6.5,10.8,13.1,16.8
		c10.4,9.5,21.4,13,31.1,16c18.4,5.7,25.7,3.2,50.1,10.9c3.1,1,7.6,0.7,7.4,2.5c-0.2,2.1-7.5,4.8-9.9,5.7
		c-31.2,11-75.7,11.7-78.1,12.1c-2,0.3-12.4,0.8-50.8,1.4c-49.7,0.8-74.6,1.2-92.1,1c-41.6-0.6-74.9-1.1-118.7-6.6
		c-21.7-2.7-39.7-5.8-52.3-8.2c0,0-4.2-1.4-2.9-2.9c1.9-2.1,10.4-4.4,10.4-4.4l0,0c0,0,58.1-11.1,73.6-15.4
		C190.1,423.4,193.1,422.3,194.2,421.9z"/>
	<path class="st35" d="M200.6,421.6c0,0,5-2,9.5-4.7c8.9-5.2,15.9-18.4,24.7-25.2c0,0,7.3-8.1,19.9-17.6
		c7.1-5.4,24.3-18.1,49.3-21.8c10.8-1.6,34.8-3.4,59,9.4c10.1,5.3,26.5,16.5,38.6,34.3c4.1,6,6.2,10.6,12.4,16.5
		c9.9,9.4,20.3,12.8,29.6,15.8c17.5,5.6,44.2,9,47.2,10c3,1,6.5,2,6.3,3.7c-0.2,2-5.9,4.1-8.2,5c-29.7,10.8-72,11.5-74.3,11.9
		c-1.9,0.3-11.8,0.8-48.3,1.4c-47.3,0.8-70.9,1.2-87.6,1c-39.5-0.6-71.3-1.1-112.9-6.5c-20.6-2.7-48.3-7.8-49.8-8.5
		s-3.2-1.8-1.9-3.2c2.3-2,2.8-1.8,5-2.4s4.1-1.2,6.7-1.8c2.6-0.6,52.7-10.3,67.4-14.6C196.7,423.1,199.5,422,200.6,421.6z"/>
	<path class="st36" d="M201.1,422.7c0,0,5-2,9.5-4.7c8.9-5.2,15.9-18.4,24.7-25.2c0,0,7.3-8.1,19.9-17.6
		c7.1-5.4,24.3-18.1,49.3-21.8c10.8-1.6,34.8-3.4,59,9.4c10.1,5.3,26.5,16.5,38.6,34.3c4.1,6,6.2,10.6,12.4,16.5
		c9.9,9.4,20.3,12.8,29.6,15.8c17.5,5.6,35.1,7.3,40.8,8.4s10.9,2.6,10.7,4.4c-0.2,2-12.5,6.3-17.7,7.6c-18.4,3.9-47.9,8.1-57.4,8.6
		c-30.4,1.4-18.2,0.7-54,1.3c-47.3,0.8-70.3,1.2-87,1c-39.5-0.6-70.7-0.8-112.3-6.2c-20.6-2.7-33.8-5.1-45.8-7.4
		c0,0-5.4-1.9-5.4-3.2c-0.1-1.3,7.7-3.3,7.7-3.3l0,0c0,0,55.3-10.9,70-15.1C197.2,424.2,200,423.1,201.1,422.7z"/>
	<line class="st35" x1="429.6" y1="461.4" x2="429.6" y2="461.4"/>
	<path class="st37" d="M210.7,421.9c13.3-8.6,11.6-5.8,21.7-15.7c5.1-5.4,9.1-10.8,13.8-16.2c4.3-5,18.3-19,25.8-23.4
		c9-5.2,27.9-12.1,36.5-13.2c10.9-1.3,22.8-1,30.3,0.8c7.5,1.9,21.1,8.1,27.1,12.2c5.1,3.4,19.6,17.3,23.6,22.2
		c1.8,2.2,9.6,12.8,12.9,16.7c3.1,3.5,7.3,7.8,10.3,10.2c4.2,3.5,5.6,4.5,11.3,7.3c8.5,4.2,16.9,7.5,23.3,9.1
		c9.9,2.5,10.4,3,13.6,5.3c2.8,2,1,5.6-4.7,7c-5.7,1.4-18.2,4.9-27.2,6.4c-10.3,1.7-56.9,4.8-67.1,4.9c-10.1,0-75.5-0.8-87.2-1.3
		c-10.4-0.4-68.2-3.6-71.5-3.9c-4-0.3-25.8-2.3-29.5-4.7c-1.9-1.3-1.7-3.2,0.1-5.1C176.5,437.4,205.5,425.3,210.7,421.9z"/>
	<path class="st38" d="M235.2,471.2c0.7,7.9,3.6,20.2,12.1,35.6c20.2,23.8,43.9,31.9,43.9,31.9s27.7,6.2,52.2-1
		c12.4-3.7,25.4-10.5,38.9-31.4c8-13.9,13.3-28.7,13.1-35.6"/>
	<path class="st39" d="M242.4,472.1c-0.4,6.4,1.6,19,7.3,30.2s33.3,27.9,44.1,31.1c9.1,2.6,32.7,7.1,52.2-3.3
		c11.1-4.5,28.2-17.1,33.3-26.6c5.2-9.5,10.6-25.4,10.4-32"/>
	<path class="st40" d="M247.7,473.1c-0.3,5.5-0.1,15.3,5.3,25.4c10.2,19.1,31.2,25,40.7,27.7c6.3,1.8,24.5,6.7,45.8,0
		c7.3-2.3,25.4-7.9,35.9-25.4c6.9-11.4,7.4-22.6,7.2-28.2"/>
	<path class="st41" d="M252.1,471.9c-0.3,4.7,1.1,12.8,6.1,21.5c9.4,16.4,27.5,21.8,36.2,24.1c5.8,1.5,22.5,5.7,42.2,0
		c6.7-2,23.4-6.8,33.1-21.8c6.3-9.8,6.8-19.4,6.6-24.3"/>
	<path class="st38" d="M269.9,471.5c2,4.7,5.8,12.4,13.1,19.7c4.4,4.3,12.6,12.3,25.9,14.9c11.9,2.3,21.3-1,24.9-2.2
		c10.6-3.8,16.9-10.1,20-13.3c6.9-7.1,10.6-14.4,12.4-19"/>
	<path class="st42" d="M272.1,471.4h92.2c0,0-5.6,12.4-11.6,18c-6,5.6-12.3,10.4-19.8,12.6c-7.5,2.2-20,2.9-26.5,1.5
		c-7.3-2.9-9-2.5-14.7-7.1c-6.3-4.5-13.2-12.3-15.2-15.8C274.1,476.4,272.1,471.4,272.1,471.4z"/>
	<path class="st43" d="M273,471.4h89.5c0,0-5.5,11.4-11.3,16.5s-11.9,9.6-19.2,11.6c-7.3,2-18.7,4.1-25.7,1.4
		c-7.1-2.7-8.8-2.3-14.3-6.5c-6.1-4.2-12.8-11.3-14.8-14.5C274.9,476,273,471.4,273,471.4z"/>
	<path d="M274.2,471.4h86.2c0,0-5.3,10.6-10.9,15.3c-5.6,4.7-11.5,8.9-18.5,10.8c-7,1.9-18,3.7-24.8,1.3c-6.8-2.5-8.5-2.2-13.7-6
		c-5.9-3.8-12.4-10.5-14.3-13.4C276.1,475.7,274.2,471.4,274.2,471.4z"/>
	<path class="st36" d="M279.2,471h76c0,0-4.6,9.3-9.6,13.5c-5,4.2-10.1,7.8-16.3,9.5c-6.2,1.7-15.8,3.3-21.9,1.1
		c-6-2.2-7.5-1.9-12.1-5.3c-5.2-3.4-10.9-9.2-12.6-11.8C280.8,474.8,279.2,471,279.2,471z"/>
	<path d="M279.1,470.7h76c0,0-4.6,9.3-9.6,13.5c-5,4.2-10.1,7.8-16.3,9.5c-6.2,1.7-15.8,3.3-21.9,1.1c-6-2.2-7.5-1.9-12.1-5.3
		c-5.2-3.4-10.9-9.2-12.6-11.8C280.7,474.4,279.1,470.7,279.1,470.7z"/>
	<path class="st44" d="M254.9,439.1c0.2,0.6,1.8,1.1,1.8,1.1c1.3,1.1,20.7,3,35.6,3.4c14.9,0.4,39,0.5,53.6,0.5s30.5-3.5,30.5-3.5
		c1.7-0.7,2.9-1.9,2.9-3.2c0-0.9-2.7-3.1-3.2-3.9c-0.7-0.9-3.9-10.6-6.8-15.6c-3.8-6.4-6.6-11.2-9.5-14.8
		c-5.8-7.2-18.7-18.6-37.2-20.4c-20.7-2-35.5,9.2-39.5,12.2c-4.2,3.2-9.4,8.7-15.1,16.3c-3.1,4.1-7.4,14.3-9.5,19.5s-3.6,5.7-3.8,7"
		/>
	<path class="st45" d="M218,424.2c5-3,16.7-10.8,20.5-16c3.8-5.2,10.3-12,14.1-17s13.5-14.7,20.2-19.1c6.7-4.5,18-10.7,22.3-11.7
		c4.3-1,12-2.7,15.7-3c3.7-0.3,15.4-2.1,26.4,1c10.4,3.3,19.2,7.6,25.8,11.2c10.4,8,17.8,16.8,21.6,21.4c3.8,4.6,9.2,13,12.1,16.6
		c2.8,3.5,13.8,14.4,20.3,17.1c5.3,2.2,22.9,7.6,26.2,8.6s6,1.3,7.6,3.2s2,5.2-3.1,7.3c-5.2,2.1-17,4.1-25.5,5.5
		c-8.6,1.3-66.6,5.3-62.4,5.1c4.1-0.3-62.9,0.2-79-0.3c-9.6-0.3-57.9-3.5-68.1-4.4c-3.1-0.3-23.4-0.8-29-3.2
		c-2.9-1.2-4.5-3.3-2.3-5.5C183.4,438.7,213,427.2,218,424.2z"/>
	<path class="st46" d="M447,435.9c1.3,0.7,4.4,3.5-1.5,6.4c-5.8,2.9-18.7,5.3-22,5.6s-56,4.8-63.8,5.1c-4.9,0.2-66.7,0.1-77.2,0.1
		c-10.5-0.1-61.2-3.4-67.4-3.8c-3.1-0.2-23.7-2.2-29.5-4.2c-2.9-1-3.9-2-1-4.5c2.9-2.5,29.1-11.6,34-14.4s16.6-10.4,20.4-15.3
		c3.8-4.9,10.2-11.5,14.1-16.3c3.8-4.8,13.4-14,20.1-18.3c6.7-4.3,22.2-11.2,22.2-11.2s11.4-2.5,15.6-2.9s15.3-1.8,26.3,1
		c12,3.2,19.7,7.3,25.4,10.9c5.7,3.6,19.2,17.2,22,20.8c4.5,5.8,8.2,11.4,11.4,15.5c2.7,3.4,8.3,8.2,11.6,11
		c4.2,3.6,9.1,5.6,15.4,7.7"/>
	<path class="st47" d="M228.4,423c5.1-3.3,14.4-11.9,16.8-14.8s8.4-8.5,12-13c3.7-4.6,12.8-13.4,19.2-17.5
		c6.4-4.1,21.2-10.7,21.2-10.7s10.9-2.4,15-2.7s14.6-1.7,25.2,0.9c11.4,3.1,18.8,7,24.3,10.4c5.5,3.4,18.4,16.4,21,19.9
		c4.3,5.6,7.8,10.9,10.9,14.8c2.6,3.2,8,7.8,11.1,10.5c4,3.5,8.7,5.4,14.8,7.4c6.8,2.3,15.7,5,18.8,5.9c4.8,1.4,6,1.1,7.9,3.4
		c1.8,2.1,0.3,5.1-4.8,6.3c-5,1.2-15.1,3.4-25.3,4.3c-9.1,0.8-48.6,2.4-57.5,2.4c-10.1,0-65.4,1.2-71.4,1.1
		c-5.9-0.1-62.1-2.3-66.4-2.8c-3-0.4-27.7-1.7-30.5-2.7c-2.8-1.1-3.7-2.3-2.5-3.9c1.2-1.6,14.5-6.7,21.3-9.7
		C219.9,427.9,225.9,424.6,228.4,423z"/>
	<path class="st46" d="M223.6,427.3c4.7-2.7,15.9-9.9,19.5-14.6s9.8-11,13.4-15.5s12.8-13.4,19.2-17.5s21.2-10.7,21.2-10.7
		s10.9-2.4,15-2.7c4.1-0.4,14.6-1.7,25.2,0.9c11.4,3.1,18.8,7,24.3,10.4c5.5,3.4,18.4,16.4,21,19.9c4.3,5.6,7.8,10.9,10.9,14.8
		c2.6,3.2,8,7.8,11.1,10.5c4,3.5,8,5.1,14.1,7.1c6.8,2.3,14.3,3.7,17.5,4.4c4.6,1,7.5,1.2,9.5,3.5c1.8,2.1,0.7,4.3-3.3,5.6
		c-4.2,1.4-14.9,3-22.2,3.7c-7.3,0.7-49,2.5-58.9,2.6c-9.9,0.2-59.3,0.9-72.4,0.6c-12.8-0.3-67.3-2.2-65.7-2.1
		c1.6,0.1-26.5-1.9-30.3-3.1c-3.2-1-3.8-1.7-3.1-3.2C190.3,440.3,218.9,430,223.6,427.3z"/>
	<path class="st47" d="M226.6,426.2c4.7-2.6,13.3-9.1,18.1-14.2c3.9-4.3,9-10.6,12.6-14.9c3.7-4.3,12.8-12.7,19.2-16.7
		c6.4-3.9,15.2-8.4,21.3-10.4c6.7-2.1,10.3-2.9,14.4-3.3s14.6-1.7,25.2,0.9c11.4,2.9,18.4,7.2,23.8,10.5s16.9,15.8,19.5,19.1
		c4.3,5.3,8.2,11.2,11.3,14.8c2.6,3.1,9,8.7,12.1,11.2c4,3.3,7.8,4.9,13.9,6.8c6.8,2.1,13.6,3.5,15.9,4.3c3.8,1.2,9.1,1.2,11,3.3
		c1.8,2,1.1,4.2-4,5.3c-5,1.1-2.9,0.8-17.3,3.3c-18.4,2.5-137.3,3.3-133.7,3.3c3.6,0-65.1-2.5-70.5-3c-7.3-0.7-17.3-1-22.3-2.2
		c-2.9-0.7-5.1-0.4-5.1-2.5C192,440,221.8,428.8,226.6,426.2z"/>
	<path class="st36" d="M256.1,414.5c6.9-7,15.8-17.4,23.3-23.4c4.3-3.4,14.5-11.3,29.4-13.6c6.4-1,20.7-2.1,35.1,5.9
		c6,3.3,15.8,10.3,23,21.4c2.4,3.8,3.7,6.6,7.4,10.3c5.9,5.8,11.8,9.4,17.1,12.7s13.6,8.9,8.1,12.2c-7,4.2-23.5,3.8-24.9,4.1
		c-1.1,0.2-7,0.5-28.8,0.9c-28.2,0.5-42.3,0.8-52.2,0.6c-23.6-0.4-47.5-1.2-63-4.6c-8.5-5,3.4-11.8,11.7-15.7
		C246.9,423,253.9,416.8,256.1,414.5z"/>
	<path class="st48" d="M254.6,423c4.8-5.7,9.9-13,14.6-18.1c0,0,3.5-3.8,10.8-9.3c4.2-3.1,14.1-10.4,28.7-12.5
		c6.3-0.9,20.3-1.9,34.3,5.4c5.9,3.1,15.4,9.5,22.5,19.7c2.4,3.4,4.1,6.6,7.6,11c3.8,4.9,6.5,6.6,10.9,10c5.2,4.1,2.7,10.1,0.4,11
		c-4.7,4-9.9,3.7-11.3,3.9c-1.1,0.2-6.9,0.4-28.1,0.8c-27.5,0.5-41.3,0.7-51,0.6c-23-0.3-35.8-2.6-43.9-3.9
		c-8.3-2.8-12.2-6.2-6.3-10.9C247,428,251.8,426.4,254.6,423z"/>
	<path d="M256.2,439.9c0.7,2.2,4.5,1.6,15,3.5c4.7,0.3,34.5,1.6,45,1.7c9.9,0.6,46.1-1.8,46.1-1.8s8.4-1.8,9.8-2.4
		c1.4-0.5,3.5-2.3,2.2-6.1c-1.2-2.1-0.8-1.7-2.3-3.6c-1.2-1.4-3.1-5.7-9.7-18.2c-6.6-11.5-14.6-16.4-23.5-21.3
		c-8.6-3.9-21.3-4.7-21.3-4.7s-5.1-0.5-20,3.1c-17.5,6.2-26.6,20-26.6,20c-4.5,5.6-9.6,18-12.4,22.7c-1.2,1-2,2.3-2.5,3.4
		c-0.7,1.6-0.4,2.5-0.4,2.5C256.2,439.9,256.2,439.9,256.2,439.9z"/>
	<path class="st49" d="M352.8,442.6c3-0.1,10.4,0.8,12.5,0c0.4-0.1,1.4-0.3,1.4-0.7c0-0.3-0.5-0.7-1.7-1.4c-1.2-0.7-2.6-1.5-3.8-2.8
		c-0.8-1.2-1.2-2.2-2-4.9c-0.8-2.8-1.2-4.3-1.6-6.5c-0.6-4.2-4.9-12.2-11.3-18.4c-9.2-8.9-19.7-11.1-23.6-11.7
		c-2.3-0.4-13.8-1.9-26.2,4.1c-7.8,3.8-12.4,8.9-13.9,10.6c-3.9,4.5-7.6,11.6-9,16.3c-0.2,0.6-0.8,3.9-2.1,8.7
		c-0.1,0.4-0.6,1.4-1.6,2.5c-1,1.1-5.4,3.3-5.4,3.3"/>
	<path class="st51" d="M352.8,443.9c3-0.1,10.4-0.3,12.5-1.1c0.4-0.1,1.2-0.4,1.2-0.9c0-0.3-0.7-0.7-0.7-0.7c-4.2-2.3-4-2.5-4.7-3.3
		c-0.7-0.8-1.4-2.4-1.8-4s-1.5-5.7-1.9-7.9c-0.6-4.2-4.5-10.6-10.9-16.8c-9.2-8.9-19.6-11.5-23.4-12.1c-2.3-0.4-14.1-1.9-26.5,4.2
		c-7.8,3.8-12.3,9.3-13.7,11c-3.9,4.5-7.3,12.2-8.7,17.4c-0.1,0.7-2,7-2,7s-0.9,1.8-2.3,2.8c-1.6,1.1-4.2,2.4-4.2,2.4"/>
</g>
</svg>
