<?xml version="1.0" encoding="utf-8"?>
<!-- Generator: Adobe Illustrator 19.0.0, SVG Export Plug-In . SVG Version: 6.00 Build 0)  -->
<svg version="1.1" id="Layer_1" xmlns="http://www.w3.org/2000/svg" xmlns:xlink="http://www.w3.org/1999/xlink" x="0px" y="0px"
	 viewBox="-174 -175.7 841.9 1190.6" style="enable-background:new -174 -175.7 841.9 1190.6;" xml:space="preserve">
<g id="Layer_3">
	<g>
		<path style="fill:#2B3990;" d="M396,472.3c-0.8,77.6-64.5,144-144,144c-79.3,0-143.2-66.2-144-144c-0.8-78.6,63-146.2,142.5-147
			c4.4,0,8.8,0.1,13.1,0.5C338.2,332,396.8,397.2,396,472.3z"/>
		<path style="fill:#1B75BC;" d="M252,616.8c-38.2,0-74.4-15.3-101.8-43c-27.1-27.4-42.3-63.5-42.7-101.5
			c-0.4-38.4,14.3-74.9,41.3-103c27.2-28.3,63.3-44.1,101.7-44.5c4.4,0,8.8,0.1,13.1,0.5c36.2,3,69.8,19.9,94.8,47.6
			c24.9,27.6,38.4,62.9,38.1,99.5H396h0.5c-0.4,37.9-15.5,74-42.6,101.4C326.4,601.5,290.3,616.8,252,616.8z M251.9,325.8
			c-0.5,0-1,0-1.4,0c-38.1,0.4-74,16.1-101,44.2c-26.8,27.9-41.4,64.2-41,102.3c0.8,79.1,65.2,143.5,143.5,143.5
			s142.7-64.4,143.5-143.5c0.8-75.7-57.2-139.8-132-146C259.7,326,255.8,325.8,251.9,325.8z"/>
	</g>
	<g>
		<path style="fill:#2B3990;" d="M290,324.8c7.2,1.1,17.7,3.6,29,9.5c5.6,2.9,17.7,9.6,36.5,33c17.6,22,29.9,36.3,37.5,60.5
			c4.1,13,4.7,26.2,6,52.5c0.9,19.3,0.1,32.2-7.5,37c-2.9,1.8-6.5,2.3-10,6.5c-3.2,3.8-3.9,7.8-5,13c-1.5,6.9-3.7,13.6-5,20.5
			c-3.1,17.1-32.4,37.7-56,48.5c-33.8,15.4-63.6,14-79.5,13c-13.1-0.8-57.4-3.5-62.5-22.5c-0.9-3.4,1.9-5.8,0.5-9.5
			c-2.8-7.6-17.1-3.4-26.5-10c-8.1-5.7-4.4-13.6-10.5-28.5c-8-19.6-18.9-18.7-27.5-35.5c-6.6-12.9-5.7-24.6-4-48
			c1.1-14.8,2.8-35.6,14-60c4.9-10.6,15.4-32.8,39-51.5c12.7-10,23.9-18.9,40.5-21c21.1-2.7,29.4,8.3,46.5,1
			c10.1-4.3,13.9-10.9,25.5-12C278.8,320.6,285.5,322.8,290,324.8z"/>
		<path style="fill:#1B75BC;" d="M251.5,619.9c-6.2,0-11.5-0.3-15.5-0.6c-38.3-2.3-59.5-10-63-22.9c-0.5-1.7-0.1-3.2,0.3-4.6
			c0.4-1.6,0.8-3,0.2-4.9c-1.4-3.8-6.1-4.4-11.5-5.2c-4.8-0.7-10.3-1.4-14.8-4.6c-4.9-3.5-5.7-7.7-6.7-13.6c-0.7-4-1.5-9-4-15.1
			c-4.2-10.4-9.2-14.9-14.5-19.6c-4.4-3.9-9-8-13-15.9c-6.6-13-5.8-24.8-4.1-48.3c1-14,2.6-35.2,14-60.2c4.5-9.7,15-32.5,39.1-51.7
			c12.9-10.2,24-19,40.7-21.1c9.6-1.2,16.6,0.4,22.8,1.8c7.7,1.7,14.3,3.2,23.6-0.7c3.8-1.6,6.6-3.5,9.4-5.4
			c4.6-3.1,8.9-5.9,16.2-6.6c6.2-0.6,12.7,0.6,19.2,3.5c10.3,1.6,20.1,4.9,29.1,9.5c4.7,2.5,17.3,9,36.7,33.1l2.9,3.6
			c16,19.8,27.5,34.1,34.7,57c4.1,13.1,4.8,26.3,6,52.6c1,20,0,32.6-7.7,37.4c-0.9,0.6-1.9,1-2.9,1.5c-2.3,1-4.6,2.1-7,4.9
			c-2.9,3.5-3.7,7.2-4.7,12l-0.2,0.8c-0.7,3.1-1.5,6.2-2.3,9.2c-1,3.7-2,7.5-2.7,11.3c-3.1,16.6-30.6,37.2-56.3,48.9
			C290.6,617.7,267.8,619.9,251.5,619.9z M205.6,332.4c-2.1,0-4.2,0.1-6.6,0.4c-16.5,2.1-27.5,10.8-40.3,20.9
			c-24,19-34.4,41.6-38.9,51.3c-11.4,24.8-12.9,45.9-14,59.8c-1.7,23.3-2.5,35,3.9,47.7c3.9,7.7,8.4,11.7,12.8,15.6
			c5.1,4.6,10.4,9.3,14.7,19.9c2.5,6.2,3.4,11.2,4.1,15.3c1,5.9,1.7,9.7,6.2,13c4.3,3,9.6,3.7,14.4,4.4c5.7,0.8,10.7,1.5,12.3,5.8
			c0.8,2.1,0.3,3.8-0.1,5.5c-0.4,1.3-0.7,2.6-0.3,4.1c3.3,12.4,24.2,19.8,62,22.1c14.6,0.9,44.8,2.7,79.3-13
			c24.8-11.3,52.8-32,55.7-48.1c0.7-3.8,1.7-7.7,2.7-11.4c0.8-3,1.6-6.1,2.3-9.2l0.2-0.8c1-4.9,1.8-8.8,4.9-12.4
			c2.5-3,5.1-4.1,7.4-5.2c1-0.5,1.9-0.9,2.8-1.4c7.3-4.6,8.2-16.9,7.3-36.6c-1.3-26.2-1.9-39.4-6-52.4c-7.1-22.7-18.6-37-34.5-56.7
			l-2.9-3.6c-19.3-24-31.7-30.4-36.3-32.9c-8.9-4.6-18.6-7.8-28.8-9.4h-0.1c-6.3-2.9-12.7-4-18.7-3.5c-7.1,0.7-11.3,3.5-15.8,6.5
			c-2.8,1.9-5.7,3.8-9.6,5.5c-9.6,4.1-16.3,2.5-24.2,0.8C216.9,333.5,211.9,332.4,205.6,332.4z"/>
	</g>
	<path style="fill:#262262;" d="M192.7,336.3c-0.9,1.4-0.6,2.7,0.7,9.3c2.4,12.2,2.2,12.5,3,13.3c4.3,4.8,10.9,0.4,16.7,5.3
		c4,3.5,5.6,9.9,3.7,12c-2.1,2.2-6.4-2-15.3-1.7c-8,0.3-12.6,4.1-15,1.7c-2-2-0.2-5.7-2-6.7c-1.7-0.9-4.7,1.9-7.3,4
		c-8.3,6.7-9.8,4.4-18,10.7c-4.7,3.5-8.2,8.4-13.3,14.3c-1.9,2.2-11.9-22.4-3,18.7c0.8,3.7,3.6,6,8.3,10.7c8.6,8.5,14.7,11,14,13
		c-0.9,2.7-11.3-1.7-19.7,4.3c-3.8,2.7-5.9,6.6-7.3,9.3c-2.3,4.3-4.4,8.2-3.7,12.3c1.5,8.8,14.5,10.1,14.3,16
		c-0.1,4.1-6.2,4.3-12,13c-2,3-4.6,6.9-4.3,11.3c0.3,6.6,6.3,7.8,13.7,16.7c6.4,7.7,10.1,16.8,15.3,29.7c1.5,3.6,2.6,6.8,5.7,10.3
		c4.6,5.3,7.8,4.9,13,9.3c8.7,7.3,6,13.7,12.3,16.7c7.2,3.3,18.9-1.2,21.7-8c1.9-4.8-1.8-7.5,0.3-13.7c1.5-4.5,5.6-9.3,10.7-10
		c6-0.9,11.1,4.3,14.3,7.7c8.3,8.5,7.1,15.6,15.3,20c1.5,0.8,3.4,1.3,7,2.3c2.2,0.6,7.5,2,18.3,2.7c9.6,0.6,14.4,0.9,16.7-1.3
		c3.3-3.3,2.7-8.6,2.7-9c-0.1-0.5-0.7-4.8-4.3-7.7c-4.1-3.2-7.9-1.4-9.3-4s1.3-6.7,2-7.7c2.3-3.3,4.2-3,8-7.3
		c2.3-2.6,2.2-3.4,3.3-3.7c3.1-0.6,4.4,5.5,10.3,7.7c4.7,1.8,8.4-0.4,9.3,1.3c1.1,2.1-3.2,6.5-4.3,7.7c-5.2,5.4-9.3,5.3-10,8.7
		c-0.6,2.9,1.7,5.9,3.7,7.3c3.9,2.9,9.3,1.5,12.3-0.7c3.7-2.6,2.9-5.6,5.7-9.7c5.1-7.5,12-3.9,19.7-10.7c7.1-6.2,10.1-17,9.3-25.3
		c-0.5-5.1-2.1-5.9-1.7-10.7c0.8-8.4,6.8-14.5,8.3-16c2-2,1.9-1.4,8.3-6.3c4.8-3.7,8.6-6.6,12-10c3.2-3.2,7.3-7.3,10.3-13.7
		c3-6.2,3.6-11.6,4-15.3c0.7-6.6,2.3-22.1-6.3-37.3c-6.9-12.2-16.3-17.3-34.3-27c-16.2-8.8-21.7-7.7-24-7c-8.6,2.5-16,11.8-15.7,20
		c0.3,6.1,4.6,7.3,5.3,15.3c0.7,7.8-2.7,15.1-4.7,15c-1.5-0.1-1-4.4-5-8c-1.9-1.7-2.7-1.4-7-3.7c-4.7-2.5-7-3.8-8.7-6.3
		c-2.1-3.3-2.5-7.9-1-11.7c2.5-6.1,8.4-5.2,10.3-10.3c2-5.5-2.1-14.2-7.7-16c-4.9-1.6-7.5,3.4-16.3,3c-2.8-0.1-7.4-0.3-10.3-3.7
		c-3-3.5-3.8-9.9-1-13c4.1-4.6,12,1.8,23.3-3c2.5-1.1,7.1-3.1,9.3-8c1.5-3.2,2.5-9.1-0.3-11.7c-4.5-4.2-13.1,5-26.3,2
		c-5.5-1.2-12.2-4.7-12.7-9c-0.2-2.2,1.3-2.2,3.3-8.7c0.6-2,1-4.3,1.7-9c0.4-2.4,0.4-3,0-3.3c-1.3-1.2-5.4,1.7-11.2,5.1
		c-9,5.3-13.4,8-18.1,8.9c-3.1,0.6-7.2,0-15.3-1.1c-8.7-1.2-11.6-2.4-18.8-2.6C199.1,333.5,194.5,333.5,192.7,336.3z"/>
	<path style="fill:#2B3990;" d="M240.5,442.6c-0.6-1.1-2.1-3.7-5.3-5c-2.6-1-5.9-1-6.3,0c-0.2,0.5,0.4,0.8,4,4.5
		c0,0,2.7,2.7,4.3,4.7c0.6,0.7,1.1,1.4,1.1,1.4s0,0.1,0.1,0.1c5.2,6.8,4.5,10.2,4.5,10.2c-0.5,2.9-3.5,2.3-5.5,6.3
		c-0.2,0.3-2,3.9-1,7.8c1.3,5.4,6.5,5,9.3,10.8c2.6,5.5,3.8,1.7,2.8-4.8c-0.3-2-0.8-4.7,0.8-6.8c2-2.7,5.3-1.1,8-3.5
		c3.7-3.3,1.2-9.6,3.5-10.5c2-0.8,4.2,4.2,11.3,7.8c1,0.5,7.3,3.6,9,1.8c1.3-1.4-1.2-4.3-0.3-9.8c0.3-2,0.6-3.3,1.5-3.8
		c3.1-1.4,8.9,9.2,12,8c2-0.8,1.8-6,1.3-8.8c-0.2-0.9-1.5-8.3-6-9.5c-3.2-0.8-4.5,2.4-10,3c-3.9,0.4-8.8-0.7-9.5-3
		c-0.6-2.1,2.3-4.9,6.5-9c2.4-2.3,4-3.4,3.8-3.8c-0.3-0.5-4.9,1.4-9,3.8c-5.6,3.2-6.4,4.9-8.5,4.5c-3.4-0.6-3.3-5.3-7.3-6.3
		c-2.9-0.7-6.6,0.8-8,3.3c-1.1,1.8-0.1,2.8-1.5,5c-1,1.5-1.5,1.2-3.8,3.8c-1.2,1.4-1.6,2.2-2.4,2.2c-1,0-2.1-1.1-2-1.9
		c0-0.1,0.1-0.4,0.9-1.2C239.4,443.3,240.1,442.8,240.5,442.6z"/>
	<g>
		<path style="fill:#94D4C8;" d="M343,379c-0.1-1.4,6-1.3,9.3-4.3c3.1-2.8,1.3-6.2,3.3-17.3c1-5.4,1.6-8.6,3.7-12
			c2.8-4.6,6.7-7.2,9.3-8.7c-1.2,1.8-4.4,6.7-4.3,13c0,1.3,0.1,3.9,1.3,7c0,0,0.9,2.3,2.3,4c4,5,12.9,6.3,19.3,3.7
			c3.6-1.5,6.4-4.2,6.3-4.3c-0.1-0.2-10.3,4-12.3,12c-0.3,1.1-0.8,3.1,0,5.3c2.5,6.9,15.4,7.6,16,7.7c2.6,0.1,4.6-0.2,4.7,0
			c0.1,0.4-6,1.9-12.7,2.7s-8.7,0.2-12.3,2c-2.3,1.1-3.8,2.4-6,4.3c-4.5,3.9-7.5,8.1-7.7,8c-0.1-0.1,2.6-4.2,3.4-7.7
			c0.1-0.6,0.3-1.5-0.2-2s-1.4-0.3-1.8-0.3c-1.1,0.2-1.9,0.8-2.7,1.5c-2.3,2-3.1,3.1-3.4,2.9c-0.4-0.2,1.2-2.3,0.6-4.8
			c-0.1-0.4-0.4-1.7-1.6-2.5c-0.7-0.5-1.4-0.6-1.8-0.7c-1.2-0.2-2.3,0.2-3.2,0.5c-1.2,0.4-1.6,0.8-1.8,0.7c-0.5-0.5,3.8-4.4,2.9-5.8
			c-0.3-0.5-1-0.4-3.7-0.3c-4.9,0.1-4.1-0.2-6,0c-3.8,0.4-6.9,1-6.9,1c-0.6,0.1-1.4,0.3-1.5,0.1c-0.1-0.3,1.5-1.5,3.2-2.3
			c2.8-1.3,5-1.2,5.1-2C344.1,379.8,343,379.5,343,379z"/>
		<path style="fill:#7BA7BF;" d="M363.3,402.5c-0.1,0-0.2-0.1-0.3-0.1c-0.4-0.3-0.2-0.5,0.4-1.6c0.8-1.5,2.3-4.2,2.9-6.6
			c0.1-0.3,0.3-1.2,0-1.5s-1.1-0.2-1.4-0.1c-1,0.2-1.7,0.7-2.4,1.4c-1,0.8-1.7,1.5-2.2,2c-0.9,0.9-1.3,1.3-1.8,1s-0.3-0.9-0.1-1.5
			c0.3-0.9,0.8-2.2,0.4-3.6c-0.2-1-0.7-1.7-1.4-2.2c-0.6-0.4-1.3-0.5-1.6-0.6c-1.1-0.2-2.1,0.2-2.9,0.5c-0.5,0.2-0.9,0.4-1.2,0.5
			c-0.4,0.2-0.8,0.4-1.1,0.1c-0.5-0.5,0-1.1,1-2.5c0.7-0.9,2.2-2.9,1.9-3.5c-0.1-0.2-1-0.2-2.3-0.1h-1c-2.6,0.1-3.6,0-4.3,0
			c-0.6,0-0.8,0-1.7,0c-3.7,0.4-6.8,1-6.9,1c-1.1,0.2-1.8,0.4-2.1-0.2c-0.4-1,2.8-2.6,3.4-2.9c1.3-0.6,2.5-0.9,3.4-1.2
			c0.6-0.1,1.3-0.3,1.4-0.5c0,0-0.2-0.1-0.3-0.2c-0.3-0.2-0.7-0.5-0.7-1l0,0c-0.1-1,1.2-1.4,3.2-1.9c1.9-0.5,4.6-1.2,6.3-2.8
			s1.8-3.3,2-6.8c0.1-2.4,0.3-5.7,1.2-10.2c0.9-5.2,1.6-8.6,3.7-12.2c2.2-3.6,5.4-6.6,9.5-8.8l1.9-1l-1.2,1.7
			c-1.6,2.3-4.3,7-4.2,12.7c0,1.1,0,3.8,1.3,6.8c0,0,0.9,2.2,2.3,3.9c3.4,4.2,10.9,5.9,17.2,4.1c3.4-3.2,7.4-4.8,7.9-4.9l0.3-0.1
			l0.4,0.5l-0.1,0.2c-0.2,0.5-3.1,3.2-6.6,4.6c-0.5,0.2-0.9,0.4-1.4,0.5c-1.9,1.8-3.6,4.1-4.3,6.8c-0.3,1-0.8,3,0,5
			c2.4,6.7,15.4,7.3,15.6,7.3c1.3,0.1,2.5,0,3.3,0c1.3-0.1,1.7-0.1,1.8,0.5v0.2l-0.1,0.2c-0.6,0.8-7.6,2.2-13,2.8
			c-2.1,0.3-3.8,0.4-5.2,0.5c-3,0.2-4.6,0.3-7,1.5c-2.3,1.1-3.8,2.4-5.9,4.3c-3.1,2.7-5.6,5.6-6.7,7
			C363.9,402.2,363.6,402.5,363.3,402.5z M365.6,391.5c0.5,0,1,0.1,1.4,0.5c0.7,0.7,0.4,2,0.3,2.5c-0.3,1.4-1,2.9-1.6,4.2
			c1.3-1.5,3-3.3,5-5c2.2-1.9,3.7-3.3,6.1-4.4c2.6-1.2,4.4-1.4,7.4-1.6c1.3-0.1,3-0.2,5.1-0.5c3.8-0.5,7.3-1.1,9.5-1.6
			c-0.5,0-1,0-1.5,0c-0.6,0-13.8-0.7-16.4-8c-0.9-2.3-0.3-4.5,0-5.6c0.6-2.4,1.9-4.4,3.4-6.1c-6.3,1.3-13.2-0.6-16.6-4.8
			c-1.4-1.8-2.4-4-2.4-4.1c-1.3-3.2-1.4-6-1.4-7.2c0-4.8,1.7-8.8,3.3-11.5c-3.1,2-5.6,4.5-7.4,7.4c-2,3.3-2.6,6.2-3.6,11.8
			c-0.8,4.5-1,7.7-1.2,10.1c-0.2,3.6-0.3,5.7-2.3,7.5c-1.9,1.8-4.7,2.5-6.7,3.1c-1,0.3-2.3,0.6-2.4,0.9c0,0.1,0.2,0.2,0.3,0.3
			c0.3,0.2,0.7,0.6,0.7,1.1c-0.1,0.8-0.9,1-2.1,1.3c-0.9,0.2-2,0.5-3.3,1.1c-0.9,0.4-1.7,0.9-2.2,1.3c0.1,0,0.1,0,0.2,0s3.3-0.6,7-1
			c0.9-0.1,1.3-0.1,1.9,0c0.6,0,1.6,0.1,4.2,0h1c2,0,2.7-0.1,3.1,0.6c0.7,1.1-0.7,3-1.9,4.6c-0.1,0.2-0.3,0.4-0.4,0.6
			c0.2-0.1,0.4-0.1,0.6-0.2c0.9-0.3,2-0.7,3.4-0.5c0.4,0.1,1.2,0.2,2.1,0.8c0.9,0.6,1.5,1.6,1.8,2.8c0.4,1.5,0,2.8-0.3,3.8l0.1-0.1
			c0.5-0.5,1.2-1.2,2.2-2c0.9-0.7,1.7-1.4,2.9-1.6C364.9,391.5,365.2,391.5,365.6,391.5z M343.5,378.9L343.5,378.9L343.5,378.9z
			 M390.5,362c-0.4,0.2-0.7,0.5-1.1,0.7C389.7,362.5,390.1,362.3,390.5,362z"/>
	</g>
	<g>
		<path style="fill:#94D4C8;" d="M300.4,525.6c-0.9-0.2,0.5-5-0.7-8.2c-1.1-2.9-3.5-2.1-10-5.6c-3.1-1.7-4.9-2.7-6.6-4.9
			c-2.2-3-3-6.6-3.3-8.9c0.8,1.3,3.2,4.6,7.1,5.6c0.8,0.2,2.4,0.6,4.6,0.1c0,0,1.6-0.4,3-1.2c3.6-2.1,5.2-20.6,5.1-20.6
			c-0.2,0.1,0.2,8.9,4.7,11.8c0.6,0.4,1.8,1.2,3.3,0.9c4.8-0.8,8-11,8.2-11.5c0.6-2.1,0.9-3.7,1-3.7c0.2,0-0.1,5.1-1.1,10.5
			c-1,5.5-1.7,7-1.4,10.2c0.2,2,0.7,3.5,1.4,5.5c1.4,4.2,3.4,7.4,3.3,7.4c-0.1,0.1-2-2.7-4-4c-0.3-0.2-0.9-0.5-1.3-0.2
			s-0.5,1.1-0.6,1.4c-0.1,0.9,0.1,1.6,0.3,2.4c0.7,2.2,1.2,3,1.1,3.2c-0.2,0.3-1.2-1.3-2.9-1.3c-0.3,0-1.1,0.1-1.9,0.8
			c-0.5,0.5-0.7,1-0.8,1.3c-0.4,1-0.4,1.9-0.4,2.6c0,1,0.2,1.4,0,1.5c-0.4,0.3-1.9-3.8-3-3.3c-0.4,0.2-0.5,0.8-1,2.9
			c-1,3.9-1,3.2-1.3,4.8c-0.6,3.1-1.5-0.2-2-0.4C301.1,524.9,300.7,525.7,300.4,525.6z"/>
		<path style="fill:#7BA7BF;" d="M302.8,527.3c-0.6,0-0.9-0.7-1.3-1.3c-0.1-0.1-0.1-0.2-0.2-0.3l0,0c-0.2,0.2-0.5,0.5-1,0.4l0,0
			c-0.8-0.2-0.8-1.2-0.7-3c0.1-1.6,0.2-3.8-0.4-5.5c-0.6-1.5-1.5-1.9-3.6-2.6c-1.5-0.5-3.5-1.2-6.1-2.7c-3-1.6-5-2.7-6.8-5.1
			c-1.8-2.4-2.9-5.4-3.4-9.1l-0.3-2.2l1.2,1.9c1.1,1.6,3.3,4.5,6.8,5.4c0.7,0.2,2.3,0.6,4.4,0.1c0,0,1.5-0.4,2.8-1.1
			c2.9-1.7,4.6-16.3,4.9-19.7c0-0.2,0-0.3,0-0.4c0-0.1,0-0.4,0.3-0.5l0.4-0.2l0.2,0.4c0,0,0,0.2,0,0.4l0,0
			c-0.1,0.6,0.4,8.6,4.5,11.3c0.6,0.4,1.6,1,2.9,0.8c4.6-0.8,7.8-11,7.8-11.1c0.3-1.1,0.5-2,0.7-2.7c0.2-1.1,0.3-1.4,0.8-1.4h0.2
			l0.1,0.2c0.5,0.7-0.5,8-1,10.9c-0.3,1.7-0.6,3.1-0.8,4.2c-0.5,2.4-0.8,3.7-0.6,5.8c0.2,2,0.7,3.4,1.4,5.4c1,2.9,2.3,5.4,2.9,6.5
			c0.5,1,0.6,1.2,0.3,1.4l-0.2,0.1h-0.2c-0.3,0-0.3-0.1-0.8-0.7c-0.7-0.9-2-2.5-3.4-3.4c-0.4-0.2-0.6-0.3-0.7-0.2
			c-0.2,0.1-0.3,0.5-0.4,1.1c-0.1,0.8,0.1,1.4,0.3,2.2c0.3,0.9,0.6,1.6,0.8,2c0.4,0.9,0.5,1.3,0.2,1.6l-0.1,0.2h-0.3
			c-0.3,0-0.5-0.2-0.8-0.4c-0.4-0.4-1.1-1-2-0.9c-0.6,0-1.1,0.3-1.5,0.7s-0.6,0.9-0.7,1.2c-0.3,0.9-0.3,1.7-0.3,2.4
			c0,0.5,0,0.8,0.1,1c0,0.4,0.1,0.7-0.2,0.9l-0.2,0.1h-0.3c-0.4-0.1-0.6-0.5-1.2-1.4c-0.3-0.6-1.1-1.9-1.5-2
			c-0.1,0.1-0.3,0.8-0.5,1.7l-0.2,0.8c-0.5,2.1-0.8,2.9-0.9,3.4s-0.2,0.7-0.3,1.4c-0.2,0.8-0.4,1.6-1,1.7
			C302.8,527.3,302.8,527.3,302.8,527.3z M301.3,524.5c0.1,0,0.2,0,0.3,0.1c0.3,0.1,0.5,0.5,0.7,0.9c0.1,0.2,0.3,0.4,0.4,0.6
			c0.1-0.1,0.1-0.4,0.2-0.8c0.1-0.8,0.2-1,0.4-1.5c0.2-0.5,0.4-1.3,0.9-3.3l0.2-0.8c0.4-1.7,0.5-2.2,1.1-2.4c1-0.4,1.9,1,2.6,2.2
			c0-0.7,0-1.7,0.4-2.8c0.1-0.3,0.4-0.9,0.9-1.5c0.4-0.4,1.1-0.9,2.2-1c0.8,0,1.5,0.3,2,0.6c-0.2-0.5-0.4-1.1-0.7-1.9
			c-0.3-0.8-0.5-1.6-0.4-2.6c0-0.4,0.2-1.3,0.7-1.8c0.7-0.5,1.6,0,1.8,0.2c0.6,0.4,1.2,0.9,1.7,1.4c-0.6-1.2-1.2-2.7-1.7-4.3
			c-0.7-2.1-1.2-3.5-1.4-5.6c-0.2-2.3,0.1-3.7,0.6-6.1c0.2-1.1,0.5-2.4,0.8-4.2c0.4-2.2,0.7-4.3,0.9-6c-0.8,2.3-3.9,10.4-8.4,11.2
			c-1.7,0.3-3-0.6-3.7-1c-2.5-1.7-3.8-5-4.4-7.8c-0.2,1.8-0.5,3.8-0.7,5.1c-1.2,6.7-2.5,10.4-4.2,11.4c-1.4,0.9-3,1.2-3.1,1.2
			c-2.3,0.5-4.1,0.1-4.9-0.1c-2.7-0.7-4.8-2.5-6.1-4.1c0.6,2.6,1.5,4.8,2.9,6.6c1.6,2.1,3.2,3,6.5,4.8c2.6,1.4,4.5,2.1,6,2.6
			c2.2,0.8,3.5,1.3,4.2,3.2c0.7,1.8,0.5,4.2,0.4,5.9c0,0.6-0.1,1.3-0.1,1.7C300.7,524.8,301,524.5,301.3,524.5z"/>
	</g>
	<g>
		<path style="fill:#94D4C8;" d="M401.2,455.3c0.9,0.4-1,4.2,0,7.1c0.9,2.8,3.5,2.6,9.9,7.2c3.1,2.2,4.9,3.5,6.5,5.8
			c2.1,3.1-0.2,3.7-4.2,1.9c-0.8-0.4-2.5-1.1-4.8-1.2c0,0-1.7-0.1-3.2,0.3c-4.3,1.1-6.6,8.7-11,5.1c-0.6-0.5-1.7-1.4-3.4-1.6
			c-4.6-0.4-9,2.5-8.8,2c1.5-4.5,2.4-5.5,2.3-8.4c0-1.8-0.4-3.1-1-5c-1.2-3.9-2.9-7.1-2.8-7.2c0.1,0,1.9,2.8,3.8,4.4
			c0.3,0.3,0.8,0.6,1.3,0.5c0.5-0.2,0.6-0.8,0.7-1.1c0.2-0.8,0-1.4-0.2-2.1c-0.6-2-1-2.9-0.8-3c0.3-0.2,1.1,1.4,2.9,1.8
			c0.3,0.1,1.2,0.2,2-0.3c0.5-0.3,0.8-0.7,1-1c0.5-0.7,0.5-1.5,0.6-2.1c0.1-0.9,0-1.2,0.1-1.3c0.4-0.2,1.7,3.7,2.8,3.5
			c0.4,0,0.5-0.5,1.3-2.2c1.4-3.1,1.3-2.5,1.8-3.8c0.9-2.5,2.3-4.2,2.3-3c0,2.1-0.7,3.5-0.2,3.8
			C400.4,455.8,400.8,455.2,401.2,455.3z"/>
		<path style="fill:#7BA7BF;" d="M396.7,483c-0.8,0-1.7-0.3-2.6-1.1c-0.6-0.5-1.6-1.3-3.1-1.4c-3.1-0.3-6.2,1.1-7.7,1.7
			c-0.9,0.4-1.2,0.5-1.5,0.2l-0.2-0.2l0.1-0.3c0.5-1.4,0.9-2.5,1.2-3.4c0.7-1.9,1.1-3,1.1-4.8c0-1.7-0.4-3.1-1-4.9
			c-0.8-2.7-1.9-5.1-2.4-6.3c-0.4-0.9-0.6-1.3-0.1-1.5c0.4-0.2,0.6,0,1.1,0.7c0.7,0.9,1.9,2.6,3.3,3.7c0.5,0.4,0.7,0.4,0.8,0.4
			s0.3-0.3,0.4-0.7c0.2-0.6,0-1.2-0.2-1.9c-0.2-0.8-0.5-1.5-0.6-1.9c-0.3-0.9-0.5-1.3,0-1.6c0.4-0.3,0.8,0.1,1.2,0.4
			c0.4,0.4,1.1,1.1,2.1,1.3c0.7,0.1,1.2,0.1,1.7-0.2c0.4-0.2,0.7-0.6,0.8-0.8c0.4-0.6,0.5-1.3,0.5-1.9c0-0.4,0-0.7,0-0.9
			c0-0.3,0-0.7,0.4-0.9c0.6-0.2,0.9,0.4,1.4,1.4c0.3,0.5,1.1,2.1,1.5,2.1l0,0c0.1-0.1,0.3-0.6,0.6-1.3l0.3-0.6
			c0.7-1.7,1.1-2.3,1.3-2.7c0.2-0.3,0.3-0.5,0.5-1.1c0,0,1.4-3.9,2.6-3.7c0.2,0,0.6,0.2,0.6,0.9c0,1-0.2,1.9-0.3,2.5
			c0,0.2-0.1,0.5-0.1,0.7c0.2-0.1,0.6-0.3,1-0.2l0,0c0.8,0.3,0.6,1.3,0.4,2.7c-0.2,1.4-0.6,3.2-0.1,4.7s1.5,2,3.6,3.2
			c1.5,0.8,3.5,1.9,6.1,3.7c3,2.1,5,3.5,6.6,5.9c0.9,1.4,1.1,2.4,0.5,3.1c-1,1.2-3.8,0.2-5.4-0.5c-0.7-0.3-2.4-1.1-4.6-1.2
			c0,0-1.6-0.1-3.1,0.3c-1.6,0.4-2.9,1.8-4.2,3.1C400,481.4,398.5,483,396.7,483z M390.2,479.4c0.3,0,0.6,0,0.9,0
			c1.8,0.2,3,1.2,3.6,1.7c2.2,1.8,3.7,0.5,6-1.8c1.4-1.4,2.8-2.9,4.6-3.3c1.6-0.4,3.3-0.3,3.3-0.3c2.5,0.1,4.2,0.9,5,1.2
			c2.6,1.2,3.9,1.1,4.2,0.8c0.2-0.2,0.1-0.8-0.6-1.9c-1.5-2.2-3.1-3.4-6.4-5.7c-2.6-1.8-4.6-2.9-6-3.7c-2.3-1.2-3.5-1.9-4.1-3.7
			s-0.2-3.8,0-5.2c0.1-0.5,0.2-1.2,0.2-1.6h-0.1c-0.2,0.1-0.7,0.3-1.1,0.1c-0.5-0.3-0.4-1-0.3-1.9c0.1-0.5,0.2-1.1,0.2-1.9
			c-0.4,0.5-0.9,1.4-1.3,2.6c-0.2,0.6-0.3,0.8-0.5,1.2s-0.5,1-1.2,2.6l-0.3,0.6c-0.6,1.3-0.8,1.8-1.4,1.9c-1,0.1-1.8-1.3-2.5-2.6
			c-0.1,0.6-0.2,1.5-0.7,2.3c-0.1,0.2-0.5,0.8-1.1,1.1c-0.5,0.3-1.3,0.5-2.4,0.3c-0.8-0.2-1.5-0.6-1.9-0.9c0.1,0.4,0.3,0.9,0.5,1.5
			c0.2,0.8,0.4,1.5,0.2,2.4c-0.1,0.3-0.3,1.2-1,1.4c-0.8,0.3-1.5-0.3-1.8-0.6c-0.5-0.4-1.1-1-1.6-1.5c0.4,1.1,0.9,2.4,1.3,3.8
			c0.6,1.9,1,3.3,1,5.2c0,2-0.4,3.2-1.2,5.2c-0.3,0.7-0.6,1.5-0.9,2.4C384.4,480.6,387.2,479.4,390.2,479.4z M399.8,451.7
			L399.8,451.7L399.8,451.7z"/>
	</g>
	<polyline style="fill:#2B3990;" points="245.8,483.3 250.5,495.1 248.8,481.3 248.7,480.3 	"/>
	<g>
		<path style="fill:#94D4C8;" d="M310.2,506.8c0.2,0.8,0.6,2.1,1.6,3.2c2.5,3,6.8,3.4,7,3.1c0-0.1-2.2-0.3-3.6-2.1
			c-0.4-0.5-0.7-1.1-1.2-2.3s-0.7-1.8-0.6-2.4c0-0.4,0.2-0.7,0.3-0.9"/>
		<path style="fill:#7BA7BF;" d="M318.2,513.7c-1.5,0-4.8-0.8-6.8-3.4c-0.8-1-1.4-2.1-1.7-3.4l1-0.2c0.3,1.1,0.8,2.1,1.5,3
			c1,1.2,2.2,1.9,3.4,2.4c-0.3-0.2-0.6-0.5-0.8-0.8c-0.4-0.5-0.7-1.1-1.3-2.4c-0.6-1.2-0.8-1.9-0.7-2.7c0-0.4,0.1-0.7,0.3-1.1
			l0.9,0.4c-0.1,0.2-0.2,0.5-0.2,0.8c-0.1,0.5,0.1,1.1,0.6,2.1c0.5,1.1,0.8,1.7,1.2,2.1c1,1.3,2.5,1.7,3.1,1.9
			c0.3,0.1,0.5,0.1,0.6,0.3l0.1,0.2l-0.1,0.2c-0.1,0.2-0.3,0.4-0.6,0.4C318.5,513.7,318.3,513.7,318.2,513.7z"/>
	</g>
	<g>
		<path style="fill:#94D4C8;" d="M388.5,399.3c-0.3,1.2-0.9,4.1,0.5,5.3c1.7,1.4,5.9,0.1,8.5-1.9c1.4-1,2.3-2.3,3.7-2.1
			c0.8,0.1,1.6,0.7,1.9,1.4c1.5,2.6-1.2,7.4-3.2,10.1c-1.1,1.4-2.4,2.6-2.7,4.7c-0.2,1.4,0.4,2.5,0.1,2.6c-0.5,0.2-2.3-1.7-3.5-3.7
			c-0.6-1-2-3.5-3.5-4.1c-0.1,0-0.1,0-0.1,0c-1.4-0.5-2.3,0.3-2.7,0c-0.7-0.5,1.5-3.3,0.6-4.7c-0.6-1-2.1-0.1-4.8-1.4
			c0,0-1.6-0.8-2.8-2.5c-0.1-0.1-0.4-0.6-0.3-0.8c0.2-0.2,1.2,0.9,2.6,0.9c0.7,0,1.2-0.3,1.4-0.3c0.4-0.2,0.5-0.4,1.6-1.5
			c0.9-1,1.1-1.2,1.4-1.4C387.7,399.7,388.2,399.5,388.5,399.3z"/>
		<path style="fill:#7BA7BF;" d="M397.3,420.1c-1.4,0-3.8-3.9-3.8-3.9l-0.2-0.3c-0.6-1-1.9-3.1-3.1-3.6c-0.8-0.3-1.4-0.1-1.8,0
			c-0.4,0.1-0.8,0.2-1.1-0.1c-0.6-0.4-0.3-1.3,0.1-2.3c0.3-0.9,0.8-2,0.4-2.6c-0.2-0.2-0.4-0.3-1.1-0.3c-0.8-0.1-1.9-0.1-3.4-0.9
			c-0.1,0-1.8-0.9-3-2.7c-0.3-0.5-0.6-1-0.2-1.4c0.4-0.4,0.8-0.1,1.2,0.1c0.4,0.3,1.1,0.6,1.8,0.6l0,0c0.3,0,0.7,0,1.2-0.3
			c0.3-0.1,0.4-0.3,1.4-1.4l0.3-0.3c0.7-0.7,0.9-0.9,1.2-1.2c0.4-0.3,0.9-0.5,1.4-0.7l0.9-0.3l-0.2,0.9c-0.6,2.4-0.5,4.1,0.4,4.8
			c1.3,1.1,5.2,0.2,7.9-1.9c0.3-0.2,0.6-0.5,0.9-0.7c1-0.8,1.9-1.6,3.2-1.4c1.1,0.2,1.9,1,2.3,1.7c1.7,2.9-1.3,8-3.3,10.6
			c-0.2,0.2-0.4,0.5-0.6,0.7c-0.9,1.1-1.8,2.1-2,3.8c-0.1,0.7,0,1.3,0.1,1.7c0.1,0.5,0.2,1-0.3,1.3
			C397.5,420,397.4,420.1,397.3,420.1z M389.2,411c0.3,0,0.7,0.1,1.1,0.2h0.1c1.5,0.6,2.9,2.8,3.6,4l0.2,0.3c0.9,1.5,2,2.7,2.6,3.2
			c-0.1-0.5-0.2-1.2-0.1-2c0.3-1.9,1.3-3.1,2.2-4.2c0.2-0.2,0.4-0.5,0.6-0.7c2-2.6,4.5-7.2,3.2-9.5c-0.4-0.6-1-1.1-1.6-1.2
			c-0.8-0.1-1.5,0.5-2.4,1.2c-0.3,0.3-0.6,0.5-0.9,0.8c-2.8,2.1-7.3,3.4-9.2,1.9c-1.2-1-1.2-3-0.9-4.8c-0.1,0.1-0.2,0.1-0.3,0.2
			c-0.3,0.2-0.4,0.3-1.1,1l-0.3,0.3c-1.1,1.1-1.3,1.4-1.7,1.6c-0.6,0.3-1.2,0.4-1.6,0.4l0,0c-0.6,0-1.1-0.2-1.5-0.3
			c1,1.2,2.2,1.8,2.2,1.8c1.3,0.6,2.3,0.7,3.1,0.8s1.5,0.1,1.9,0.8c0.6,1,0.1,2.4-0.3,3.5c-0.1,0.3-0.3,0.8-0.3,1.1
			c0.1,0,0.2,0,0.2-0.1C388.4,411.1,388.8,411,389.2,411z"/>
	</g>
	<g>
		<path style="fill:#94D4C8;" d="M359.8,348l-0.5,2.8c0,0-0.2,2.3-0.9,1.8S359.8,348,359.8,348z"/>
		<path style="fill:#7BA7BF;" d="M358.6,353.2c-0.1,0-0.3,0-0.4-0.1c-0.3-0.2-1.2-0.7,1.2-5.3l1.5-2.9l-1,6c0,0.6-0.2,1.9-0.9,2.2
			C358.8,353.2,358.7,353.2,358.6,353.2z"/>
	</g>
	<g>
		<polygon style="fill:#94D4C8;" points="393.4,408.7 394.1,408.7 392.4,409.5 391.6,410.3 391.6,410 391.6,409 391.2,408.2 
			391.2,407.6 		"/>
		<path style="fill:#7BA7BF;" d="M391.1,411.5v-2.4l-0.4-0.9v-1.4l2.8,1.4h2.9l-3.7,1.6L391.1,411.5z M391.9,408.6l0.1,0.4v0.2
			l0.2-0.1l0.3-0.1L391.9,408.6z"/>
	</g>
	<g>
		<path style="fill:#94D4C8;" d="M114.3,520.2c0-6.7,1.2-14.7,6.5-21c6.3-7.4,15.9-9.6,15.5-11c-0.6-1.9-18.3,3.8-21-1
			c-1.9-3.3,4.7-9.6,3-11.5c-1.9-2.1-11,5.7-14.5,3c-3.4-2.6-2-33.1-7.5-20.5c0,0-0.4,1-4.5,15c0.7,3.8,0.8,8.7-2,12
			c-5.2,6-17.5,3.4-17.5,4c-0.1,0.8,9,4.3,20,3c3.6-0.4,6.1-1.2,7,0c2,2.8-7.4,11.7-5.5,14c1.2,1.5,5.2-1.9,9,0
			c2.6,1.3,2.5,3.8,5.5,8C110.4,517.1,112.7,519,114.3,520.2z"/>
		<path style="fill:#7BA7BF;" d="M114.8,521.2l-0.8-0.6c-2.4-1.7-4.4-3.8-6.1-6.1c-1.3-1.8-2-3.2-2.6-4.4c-0.8-1.6-1.4-2.7-2.7-3.4
			c-2-1-4-0.4-5.7,0c-1.5,0.4-2.7,0.7-3.5-0.2c-1.1-1.4,0.6-4,2.6-7.1c1.7-2.6,3.7-5.7,2.9-6.9c-0.5-0.7-2.1-0.5-4.2-0.1
			c-0.7,0.1-1.5,0.2-2.3,0.3c-10.6,1.3-19.1-1.8-20.3-2.9c-0.2-0.2-0.3-0.4-0.3-0.6c0.1-0.6,0.6-0.6,2.3-0.5
			c3.4,0.2,11.5,0.6,15.3-3.8c2.2-2.5,2.8-6.4,1.9-11.6v-0.1v-0.1c4-13.9,4.5-15,4.5-15.1c1.1-2.5,1.9-3.5,2.9-3.3
			c1.7,0.3,2.2,4.5,3,11.9c0.5,4.8,1.1,10.8,2.3,11.8c1.7,1.3,5.1-0.3,8.1-1.7c2.9-1.3,5.3-2.5,6.5-1.2c1,1.1,0,3-1.2,5.2
			s-2.6,4.8-1.7,6.3c1.5,2.7,9.1,1.6,14.1,0.9c4.6-0.6,6.6-0.9,7,0.2c0.3,0.9-0.9,1.6-3.4,2.8c-3.3,1.7-8.4,4.2-12.2,8.7
			c-4.3,5-6.4,12-6.4,20.7L114.8,521.2z M100.1,505.1c0.9,0,1.9,0.2,2.9,0.7c1.7,0.9,2.3,2.1,3.2,3.9c0.6,1.2,1.3,2.6,2.5,4.3
			c1.4,2,3.1,3.7,5.1,5.3c0.1-8.5,2.3-15.3,6.6-20.3c4-4.7,9.3-7.3,12.5-8.9c1.2-0.6,2.5-1.3,2.8-1.6c-0.6-0.2-3.5,0.2-5.8,0.5
			c-5.9,0.8-13.2,1.9-15.1-1.4c-1.2-2,0.4-4.8,1.7-7.3c0.9-1.6,1.9-3.5,1.4-4.1c-0.6-0.7-3.1,0.5-5.3,1.5c-3.3,1.5-7,3.2-9.1,1.6
			c-1.4-1.1-2-5.4-2.7-12.4c-0.4-4-1.1-10.8-2.2-11c0,0-0.6-0.1-1.8,2.7c0,0-0.5,1.4-4.4,14.8c0.9,5.4,0.2,9.6-2.1,12.3
			c-4.1,4.8-12.5,4.3-16.1,4.1c-0.1,0-0.2,0-0.2,0c2.7,1.1,10,3.1,18.4,2.1c0.8-0.1,1.6-0.2,2.3-0.3c2.5-0.4,4.3-0.7,5.2,0.5
			c1.2,1.7-0.8,4.8-2.9,8c-1.5,2.3-3.3,5.1-2.7,5.9c0.3,0.4,1.3,0.1,2.4-0.2C97.6,505.4,98.8,505.1,100.1,505.1z"/>
	</g>
	<g>
		<path style="fill:#94D4C8;" d="M119.2,430.9c-1.7,0.8-6.7,3.1-12.8,1.7c-5.2-1.2-12.8-5.4-12.9-12.5c0-5,3.8-10.2,9-11.5
			c5.5-1.3,10.1,2.3,12.1,3.8c6.8,5.3,7.9,14.4,7.7,14.5c-0.1,0-0.7-2.6-3-5.9c-1.7-2.4-6.4-6.1-8.2-6.3c-1.8-0.2-7.1-0.7-9.3,1.6
			s-3.3,6.9-0.6,10.3C105,431.1,112,432.8,119.2,430.9z"/>
		<path style="fill:#7BA7BF;" d="M110.3,433.6c-1.3,0-2.6-0.1-4-0.4c-5.3-1.2-13.2-5.6-13.3-13c-0.1-5.5,4.1-10.7,9.4-12
			c5.7-1.4,10.5,2.3,12.5,3.9c6.8,5.3,8,14.3,7.9,14.9v0.3l-0.5,0.2l-0.2-0.1c-0.2-0.1-0.3-0.2-0.4-0.6c-0.3-0.8-1-2.9-2.8-5.5
			c-1.6-2.4-6.2-5.9-7.8-6.1H111c-1.8-0.2-6.8-0.6-8.8,1.4c-1.9,1.9-3.2,6.3-0.5,9.6c3.5,4.4,10.3,6,17.3,4.2l4.7-1.2l-4.3,2.2
			C117.6,432.3,114.3,433.6,110.3,433.6z M105,408.9c-0.7,0-1.5,0.1-2.3,0.3c-4.9,1.2-8.7,6-8.6,11c0.1,6.7,7.5,10.9,12.5,12
			c2.8,0.6,5.4,0.5,7.6,0c-5.4,0.2-10.3-1.7-13.1-5.3c-2.9-3.6-1.9-8.5,0.6-11c2.4-2.3,7.6-1.9,9.6-1.7h0.1c2.1,0.2,6.9,4,8.6,6.5
			c0.4,0.6,0.7,1.1,1,1.6c-1-3-3-6.8-6.5-9.5C112.7,411.6,109.2,408.9,105,408.9z"/>
	</g>
	<g>
		<path style="fill:#94D4C8;" d="M106.1,402c-0.9-0.9,9,2.5,10.9,4.3c6.1,6,7.2,18.5,6.9,16.3c-0.2-2.2-0.6-2.9-2.7-6.7
			c-1.5-2.7-2.9-5.5-6-8.2C113.4,406,107.1,402.9,106.1,402z"/>
		<path style="fill:#7BA7BF;" d="M124.2,423.4l-0.4-0.1c-0.3-0.1-0.4-0.2-0.4-0.5l0,0l0,0c0-0.1,0-0.1,0-0.2c0-0.3-0.1-0.9-0.3-1.6
			c-0.3-1.1-0.9-2.2-2.3-4.9l-0.2-0.4c-1.4-2.6-2.8-5.2-5.7-7.7c-1-0.9-3.4-2.2-5.4-3.4s-3.3-1.9-3.7-2.3c-0.2-0.2-0.2-0.5-0.2-0.6
			l0.1-0.3l0.3-0.1c1.1-0.3,9.8,3,11.4,4.6c4.7,4.5,6.6,13,7,16c0,0.2,0,0.4,0.1,0.5v0.2l0,0c0,0.2,0,0.3,0,0.3L124.2,423.4z
			 M108.6,402.9c0.5,0.3,1,0.6,1.5,0.8c2.1,1.2,4.5,2.6,5.6,3.5c3,2.6,4.4,5.3,5.9,8l0.2,0.4c0,0.1,0.1,0.2,0.1,0.3
			c-1-3.2-2.7-6.8-5.2-9.3C115.6,405.6,111.3,403.8,108.6,402.9z M106.5,401.6l-0.3,0.4L106.5,401.6L106.5,401.6z"/>
	</g>
	<g>
		<path style="fill:#94D4C8;" d="M118.9,433.5c0.6-0.1-3.8,2.6-4.9,2.8c-3.7,0.7-7.2-2.1-6.6-1.6s1,0.5,2.6,0.7
			c1.2,0.2,2.4,0.3,4.2-0.1C115.3,435,118.3,433.6,118.9,433.5z"/>
		<path style="fill:#7BA7BF;" d="M112.8,436.8c-2.1,0-4.1-0.9-5.1-1.5c-0.2-0.1-0.4-0.2-0.6-0.3l0,0c-0.1-0.1-0.2-0.2-0.2-0.2
			l-0.2-0.3l0.6-0.5l0.4,0.3c0.1,0.1,0.2,0.2,0.5,0.3c0.3,0.2,0.8,0.2,2,0.4h0.2c1.2,0.2,2.3,0.3,3.8-0.1c0.5-0.1,1.7-0.6,2.7-1.1
			c1-0.4,1.6-0.7,1.9-0.8l0.3-0.1l0.4,0.4l-0.1,0.3c-0.2,0.6-4.5,2.9-5.3,3.1C113.7,436.8,113.2,436.8,112.8,436.8z"/>
	</g>
	<g>
		<path style="fill:#94D4C8;" d="M102.4,398.5c-0.6-0.1,4.4-1.1,5.5-0.9c3.7,0.6,6.1,4.5,5.6,3.8c-0.4-0.7-0.7-0.8-2.2-1.6
			c-1.1-0.6-2.2-1.2-3.9-1.4C106.3,398.3,103,398.6,102.4,398.5z"/>
		<path style="fill:#7BA7BF;" d="M113.4,402.1l-0.3-0.4c-0.1-0.1-0.2-0.2-0.3-0.4c-0.3-0.3-0.7-0.5-1.7-1l-0.2-0.1
			c-1-0.5-2-1.1-3.6-1.3c-0.6-0.1-1.9,0-2.9,0c-1.1,0.1-1.8,0.1-2.1,0H102l-0.2-0.6l0.2-0.2c0.4-0.5,5.2-1.2,6-1
			c2.6,0.5,4.6,2.4,5.5,3.5c0.1,0.2,0.3,0.3,0.4,0.5l0,0c0.1,0.2,0.2,0.3,0.2,0.3v0.4L113.4,402.1z"/>
	</g>
</g>
</svg>
