<?xml version="1.0" encoding="utf-8"?>
<!-- Generator: Adobe Illustrator 19.0.0, SVG Export Plug-In . SVG Version: 6.00 Build 0)  -->
<svg version="1.1" id="Layer_1" xmlns="http://www.w3.org/2000/svg" xmlns:xlink="http://www.w3.org/1999/xlink" x="0px" y="0px"
	 viewBox="-179 -182 831.1 1203.9" style="enable-background:new -179 -182 831.1 1203.9;" xml:space="preserve">
<path style="fill:#CE203A;" d="M93.4,145.6c2.5,0,15.7,0.8,15.7,0.8v6.1l-4.4,0.8l2.5,4.1l1.9,5.5l17.1-8.8l43.5-12.9l26.4-3.3h14
	v7.2l33,1.4l40.7,4l6.3,1.2l-8.3,6.3l-3.6,6.1l-0.6,2.8l30-4.1c0,0,20.9-0.8,19.3,0.8s-10.5,2.8-17.1,11.3s-19.5,27.8-19.5,27.8
	l-12.1-4.1l5.5,10.2l18.7,14.9l27,5.2l31.1,12.1l21.7,7.4l-9.4-11l12.7,3.6l23.1,4.1l1.7-11l5.5,11.6l5.2-4.4l-2.8,7.2l39.4-4.1
	l14-4.7l-2.9,19.4l-15.7,7c0,0-2.9-9.1-2.9,13.6s0,22.7,0,22.7l9.5,10.7l-2.1,10.7l8.3,14.5l5.8,13.6l10.7-17.8l-3.3-12.4l19,0.8
	l16.1,8.3l-9.9,21.1l7.8,13.6l19-7.8l7,16.1l-1.7,9.5h-15l12.7,34.1l4,6.6l7.6-12.7l11-16l7.7-6.6c0,0-0.6-5.5,0,14.3
	s17.6,9.4,0.6,19.8s3.9-5-9.4,8.3c-13.2,13.2-13.2,13.2-13.2,13.2l8.8,4.4c0,0,11.6-14.9,17.1-12.7s6.1-13.2,5.5,2.2
	s19.3,9.4-0.6,15.4c-19.8,6.1-16.5,4.4-16.5,4.4l-3.3,1.7c0,0-9.9-7.7-0.6,10.5c9.4,18.2,9.4,18.2,9.4,18.2l8.8,17.6
	c0,0-11,7.7-13.8,9.4s-13.2-8.8-13.2-8.8l-3.9-2.2h-6.6v11.2l-7.2-6.8l-8.3,11.6l-2.8,8.8l1.1,9.4c0,0-24.2,12.1-12.1,14.9
	c12.1,2.8,23.7-1.4,23.7-1.4l16.8-7.4l8.5-3l12.4-21.7l-17.6,63v6.1l11.3,3.6h5.2l-35,26.1L493,633.1l-14.6-3c0,0-3.6,4.4-3.9,5.5
	c-0.3,1.1-22.3-4.4-22.3-4.4l-9.6,4.4l-9.9,20.6l16.2,0.3l-107.6,51.2h-19.8l-10.7,18.2l-22.3,8.3L248,752.4l25.6,19l-12.4,9.9
	l-9.1-14l-20.6-21.5l-22.3-2.5l-42.9,5.8c0,0,21.5-2.5-9.9-17.3s-26.4-14-26.4-14l-28.1-28.9L85.4,665h-19L54,652.4l-19,19.8
	l-21.5,30.6c0,0-5.8,6.6-8.3,20.6s-5-3.3-5-3.3l-10.7-21.5v-14.9v-8.3l-19.8-19.8l-4.1-25.6l4.1-8.3l8.3-14.9l-12.4-9.1l-9.1-16.5
	l5.8-19l-9.9-13.2l-9.1,21.5l-4.1-20.6l-5.8-13.2l-9.9-14l-4.1-12.4l-6.6,10.7l-5-5l-2.5,17.3l-5.8-11.5l-14.9-11.6h-16.4l14-19
	l5.8-19.8l-9.9-30.4l5-19.8l17.3-13.2l2.5-20.6v-6.6l2.5-9.1l-3.3-19l10.7,11.6l9.1-6.6l0.8-21.5l2.5-10.7l-5-6.6l10.7-2.5l0.8-9.9
	l-4.1-4.1l8.3,0.8l7.4,1.7l5.8-6.6v-5.8l-8.3,5.8l-9.1-2.5l-9.1-4.1l-34.6,41.1l-14.9,10.7l5-42.9l7.4-23.1v-11.6v-10.7l17.3,10.7
	l22.3-8.3l7.4-10.7l20.6-14l-1.7,19l23.1-10.7l7.4,4.1l-9.9,14.9l9.9,11.6c0,0,11.6-12.4,43.8-30.6S57.9,223,57.9,223v-30.6
	l-13.2-0.8L68.6,171L93.4,145.6z"/>
<path style="fill:#F27840;" d="M65.1,206.7c1-0.6,23.3-18.4,23.3-18.4l-1.9,14.9l14.9-17.1l14.9-7.6l-1.4,9.9l11.1-8.3l21.3-6
	l5.8-3.9l8.7-8.5h18l7-8.1l38.4-6.8l-15.3,10.3l45.2-0.8l25.6,0.6l-19.4,10.3c0,0-23.7,3.7,7,5.4s30.8,1.7,30.8,1.7l4.1,3.5
	L264.8,189l-5.8,5l19.8,9.7l-20.2,10.9l-14.9,7.6l3.3,12.1h-21.5c0,0-25.9-11-25.3,5.5s0.6,16.5,0.6,16.5v8.8l18.7,14.3h16l6.1-4.4
	l8.3,0.6l-1.7,14.9c0,0,16-9.4-6.6-3.3s-30.3-4.4-22.6,6.1c7.7,10.5,3.3,0.6,7.7,10.5c4.4,9.9,4.4,9.9,4.4,9.9h-11.6
	c0,0,12.1-15.4-13.8-8.8s-25.9,20.9-25.9,6.6s0-14.3,0-14.3l9.9-9.4l2.8-8.3l-1.1-7.7l-9.9-1.1l2.7,16.5l-11,7.2l-16.5,3.3
	l-2.8,11.6l7.2,14.9l-33.6,11c0,0-10.5-0.6-12.1,12.1c-1.7,12.7-1.7,12.7-1.7,12.7s28.6-22.6,22-0.6s-0.6,16-0.6,16l-6.6,17.6
	l8.3,2.8l39.6-8.3l-14.9,8.3l-32.5,16l-1.1-3.9l-26.4-6.6c0,0-19.3-27.5-17.6-3.9c1.7,23.7,1.7,23.7,1.7,23.7l0.6,8.8H68l-2.9,9.4
	l-11.4,1.1l-4.4-6.1l-2.8-13.2l-6.1-4.4l-6.1,3.9l-9.9,12.1l-6.1,7.7L15,457.5l8.8,20.4l-3.9,4.4l2.2,21.5l6.6,21.5l10.5,9.3h5
	l3.3,5.4l7.7,6.8l23.1,26.4H86v-13.8l9.9,22l19.3,8.3l8.8,20.4l7.2,12.1l-17.1,11l6.6,1.1l13.2,5l5,7.7l14.3,6.1l13.8,3.3l5.5,13.2
	l14.9,6.1l9.4-14.9l3.9,1.1l11.6,11l10.5-3.3l15.4-3.9v9.9l8.3,2.8c0,0,15.4,2.8,16-2.8c0.6-5.5,0.6-5.5,0.6-5.5l3.9-5.5
	c0,0,9.4,13.8,12.1,5c2.8-8.8,2.8-8.8,2.8-8.8l21.5-6.1v6.1c0,0-5,7.2-5.6,8.8c-0.6,1.7-0.6,1.7-0.6,1.7h6.1v5.5l-9.4,5l15.4-2.6
	l3.9-2.3c0,0,0.6-1.1-1.1-4.4s-1.7-3.3-1.7-3.3l1.1-5l3.3-7.2v-7.7l18.7-3.3l3,1.1l27.2-7.4l6.2-8.3l-4.1-8.7l10.7-2.5l-6.2-5
	l-1.7-4.1c0,0-7-4.1,3.7-5c10.7-0.8,10.7-0.8,10.7-0.8s2.5,0.8,0.8,9.1s-1.7,8.3-1.7,8.3l11.6-5l8.3-8.3l6.6-7.8
	c0,0-3.3,1.7-3.7-3.3s-0.4-5-0.4-5l5.8-14.9l-5.8-2.1l9.5-9.9l12-12.8l7-4.5l2.5-14.5c0,0-1.2-8.6,7.8-18.5s9.1-9.9,9.1-9.9
	l-8.3-7.4l-18.2,3.3l9.1-20.6l-7.4-5.4l7.8-10.3l36.3-2.5l-12-15.7L443.6,429c0,0,2.1-17.5-13.2-14.6c-15.3,3-33.9-13.9-15.3,3
	c18.6,16.9,18.6,16.9,18.6,16.9l-12.4,11.1l-5.4-5l-22.7,8.7V434l-10.3-9.9l5.8-7.4l-5.8-5.8l0.4-8.3c0,0,12.8-7.8,1.2-12
	c-11.6-4.1-11.6-4.1-11.6-4.1l-9.9,12.8l-18.2-5l4.5-10.7l13.6-2.1l3.3-9.9l-3.3-9.5l-3.7-10.7l3.7-5l-6.2-10.3l-0.4-7l5,2.5V323
	l-5-3.3l-12,7l-2.1,1.2l-10.3-18.2l-17.3-4.1l-1.2,12.4c0,0-11.6-8.3-12.8-7.4c-1.2,0.8-13.6-5.4-13.6-5.4l2.5-8.7l19.8-4.5l27.2,7
	c0,0-9.9-12.4,5.4,1.7c15.3,14,15.3,14,15.3,14l5.8-0.4c0,0,0,4.5,4.1-5.4s4.1-9.9,4.1-9.9s12.8,0.8,0.8-4.5c-12-5.4,7.4,0.4-12-5.4
	s-0.4-2.1-17.3-4.1c-16.9-2.1-16.9-2.1-16.9-2.1l-26.4,9.1l-4.1-8.3v-14c0,0,16.9-9.9-9.9-9.9s-12.4-3.3-23.9-1.2
	c-11.6,2.1-11.6,2.1-11.6,2.1v-9.9l15.7-3.7l-8.7-8.7l-1.2-8.3l5-5.4l6.6-7.8l-1.2,17.3l5,3.7l8.7-2.5l27.7,3.3l29.7,13.6l36.3,20.2
	l18.2,4.1l12.8-5l2.5-19.4l9.5,20.6l-7,16.1l16.1,14l7.8,3.7l14.9,31.8l11.6,14l17.8,12l-1.2,9.1l14,14l3.7,29.7l-8.3,15.7h-4.1
	c0,0-14.5-7.4-10.3,5.4s4.1,12.8,4.1,12.8l8.3,13.2l-2.9,9.9l7.4,9.9l13.2-0.4l7.8-23.1l9.9-2.1l18.2,6.2v2.5L523,480.7l-5,13.2
	l-10.7,7.4l0.8,35.9l-9.9,25.2l-11.6,6.6c0,0,7-7.8-6.2,16.1s-7.4,13.6-7.4,13.6l-5.8,10.3l18.2,0.8l20.2-7.4l7.4-9.9l18.6-2.1
	l5.8,13.6l-15.3,7.4l-4.5,8.3c0,0-7.4,4.1-9.1,4.5c-1.7,0.4-23.9,2.5-23.9,2.5l-12,1.7l-3.7-5.8c0,0,6.6-10.7-14.9,3.7
	c-21.5,14.5-13.6,8.3-13.6,8.3L426,647.5l-20.6,14l24.4-2.1l-28.9,19.8l-14.9,8.7l-21.1,8.3c0,0-28.5-1.7-37.6-1.7
	s-31.8,1.7-31.8,1.7h-31.4h-63.6L153.9,678l-18.6-2.1l-14,2.1l5.4,9.9l9.1,10.3l6.6,9.1l-10.7-3.7l-2.1-5.8l-6.6-8.3l-5-9.5
	l-1.2-7.8l4.1,0.8l-6.2-9.9l-9.9-9.9l-21.1-12l-23.1-14.5l-37.2,8.7l5,17.3l5,4.5L15.2,669l-8.3,7.2l-4.1-1.7l-3.3-15.3l4.5-8.3
	l-2.5-10.3l-7.8-7.4l-5.4-16.9l-7.8-21.9l13.2-30.6l5-16.9l-44-17.9l7.7-6.4l2.8-20.9l-10.5-13.2v-11.6l7.2-8.3L-41,449l-7.7-5.5
	v-24.8l-9.9-6.6l-13.2,7.7l-5.5-8.8v-9.9l5-22.6l8.3,5l4.4-16.5v-16l7.7-21.5l2.8-11l-1.1-11l12.1-9.9l6.6-6.6l2.8-12.7l-19.8-7.2
	l-19.8,14.3l-11.6,6.6l3.3,2.8v-8.3l-9.9,3.9l-11.6-12.1v-11h29.7l3.3-11.6l8.8-5l38.5,9.9l-5,6.6L6.9,265l15.4-3.3l10.5-17.1
	l0.6-12.1l11-2.8l7.7-7.2l7.2-8.3L65.1,206.7z"/>
<polygon style="fill:#F27840;" points="243.1,350.2 238.1,335.8 246.6,334.3 249.5,337.8 256.1,342.3 265.2,343.2 261.9,347.3 
	261.9,350.2 266.8,350.2 267,355 256.1,356.4 238.1,371.9 225.9,383.4 223.9,374.4 221.6,363.8 216.9,359.5 229.9,356 "/>
<path style="fill:#F27840;" d="M336.4,422.3l8.8-9.4l7.2,0.8l14.3,8.5l-6.1,4.8l-0.6,6.2l0.3,6.9l-9.1,3.9h-5.5l-1.1,3.9l6.9,5.8
	v3.9c0,0,10.5,3,9.4,7.7s-1.1,4.7-1.1,4.7l5.8-7l3-4.8l1.7,11.8l-6.3,5l-1.4,8l-1.9,6.6l-4.4-10.2v-2.5l-7.7,8.8l-1.4,9.4l-15.7,8.8
	l-1.1-5l6.1-5.2l-5-0.3l-6.3,5.2l-2.2,6.6l-5.8,2.5l-14.6-0.6l-6.1-6.1l2.8-11.6c0,0,2.5-4.4,3.6-5s16.8-11,16.8-11l4.1-6.6
	l-1.7-8.5l-4.1-10.2l1.9-6.3l-6.3,0.6l-7.2,1.1l-1.4-8.3l0.8-6.9l14-13.8l13.5-0.3L336.4,422.3z"/>
<path style="fill:#F27840;" d="M311.1,464.4c0,0-5.4-3.6-2.2,5.2s3.2,8.8,3.2,8.8v3.3l-5.2-2.2l-10.4-1.1l-7.7-5l-10.5-5.5l3.6-5.1
	l-4.7-8.6l1.1-6.9v-9.9l-6.1,1.4l11.6-6.1l0.6,8.5l0.3,6.9l3.3,9.1h3l9.4-3.6L311.1,464.4z"/>
<path style="fill:#F27840;" d="M-111.5,474.3l26-42.9l8.3,2.1l4.1-8.3c0,0,8.7,5,9.9,0.8c1.2-4.1,1.2-4.1,1.2-4.1l2.9-0.8l1.7,15.2
	l-0.8,13.7l2.5,7l-23.5,6.6l-2.9,7.4l-12-1.7l-2.1-7l-5,12l-8.3,5"/>
<path style="fill:#F27840;" d="M367.6,537.8l13.6-12.4v5.3l-5,9.3h3.3l6.6-5.2c0,0-7-12.5,2.9-4.2s3.7,0,3.7,0s-4.5-5.1,6.2,8.3
	c10.7,13.5,4.1,5.8,4.1,5.8l6.5,7.7c0,0,8.7-2.3-7.8-2.7s-16.5-0.4-16.5-0.4s9.5-3.3-7,5.4s-5-1.7-14,7.4s0,11.1-9.1,9.1
	c-9.1-2.1-5.4,3.7-5.4,3.7l-3.7-5.8c0,0,12-8.7,1.7-7s-10.3,1.7-10.3,1.7l-8.3,5.8c0,0-9.1,7.4-12.8,0.8c-3.7-6.6-3.7,2.5-3.7-6.6
	s0-9.1,0-9.1l11.6,5l0.8-5l-1.7-4.5v-2.9l-3.8-1.6l-1.9-0.8c0,0,0.8-1,0.9-1.8c0.2-1.1-0.7-1.8-5.9,0.6c-9.1,4.1-9.1,4.1-9.1,4.1
	l-7.4,7l-4.5,7.4v-2.5l-6.2-2.5l4.1-7l2.1-15.3l-2.5-0.4l-2.5-1.7l-1.2-2.1l15.7-5.3l8.7-5.8l-2.1,7.4l1.2,3.7l4.1-2.8v5l-2.9,3.3
	l2.1,2.5h2.9l4.4,1.7l9.6,5l0.4,2.1h16.1l3-6.2l3.4,9.5L367.6,537.8z"/>
<path style="fill:#EFA841;" d="M107.2,266.2l23.5-13.6l70.6-20.6h30.1v-5.4c0,0,23.1-3.3,0-2.1c-23.1,1.2-23.1,1.2-23.1,1.2
	l-8.7-1.2l0.4-9.1l5.4-8.3l11.1-6.2c0,0-15.7,6.6-2.5,8.7s13.2,2.1,13.2,2.1s-3.3-2.9-0.4-7.8c2.9-5,2.9-5,2.9-5s7,6.6,8.3,0
	c1.2-6.6,1.2-6.6,1.2-6.6v-4.1l8.7-0.8l19-3.3l-27.7-6.6l-19-2.5l8.7-8.3l-5.8,1.2l-54.9,12.8l-26,10.3l2.5,1.7l-3.7,5l-11.1-4.1
	l-12.8-1.2l-4.5,4.5l-2.1,5l-22.3,1.2L82,214.7l-6.6,5.8l-9.5,5.4c0,0,7,4.5-4.1,7s-11.1,2.5-11.1,2.5l-10.3,7.8l-7,5.4l7.4,12.8
	l-14.6,0.7L15.7,261l-7.2,9.9L-9.7,272l-13.2,3.9l-7.7,18.2l17.1-13.8h24.8l-0.6,10.5c0,0,1.1-0.6,0,8.3c-1.1,8.8-1.1,8.8-1.1,8.8
	l9.9,3.9L4.6,325.6L-2.6,341l-23.5,14l-7.2,2.8c0,0,40.2-33,2.8,24.2s-33,25.9-33,25.9l-4.4,31.4l17.1-6.1l6.1,13.8l9.9,19.9
	l1.1-10.6l2.2,19.3l10.5,33.6l9.9,29.1l9.9-2.7l3.9,8.3l0.6,6.6l-3.9,9.4L0,576.4l-3.9,18.2l3.3,11.6l-2.8,7.7l-12.7,11.6l17.6,1.1
	l-3.9,10.5L1.5,662l1.7,13.6l10.5-18.7l3.9-11l53.4-7.7l-6.6-9.4l18.7,7.7l13.2,7.2l0.6-9.4l-4.4-12.1l7.3-0.6l7.6,1.7l-7.6-12.7
	l-9.5-8.3v-7.7l-5.5-13.2l-3.3-6.6l-6.6,4.4c0,0,3.9,1.7-2.8-4.4c-6.6-6.1,4.4-6.1-6.6-6.1s-11,0-11,0l-2.8-1.4c0,0,5,6.9-1.7-5
	c-6.6-11.8-6.6-11.8-6.6-11.8l-11.6-3.3l-5.5-3.3l-3.9,1.7l-11-12.1l-12.1-14.3l-1-4.5l-3.5-16.4l13.8,12.1l-1.7-12.1l-11.6-15.4
	l4.4-8.8l1.1-4.4l5.5,4.4l0.6-7l-2.2-7.8l-6.6-9.4c0,0,9.4,1.1,12.1,0.6s2.8-0.6,2.8-0.6l-1.7-7.2l-2.2-6.6L20.7,419l6.1-6.6
	l23.1-5.5l7.7-1.7v7.7l7.2-6.6l8.8-8.3l3.9-3.3l-1.1-8.3h5l11-5.5l-3.3-8.8l-6.1-2.2l1.1-12.1l-15.4,4.4l-8.3-0.6l-6.6-2.2h-7.2
	l3.3-34.1l5.5-16.5l1.7-5.5l14.3-2.8l7.2-8.3l-1.7-3.3l11.6-6.6l8.8-7.2L107.2,266.2z"/>
<path style="fill:#F7D394;" d="M231.5,195.4l-2.5,7.4l-54.5,18.6l5.4-11.1L144,229.7v5.4v12.4l-53.3,33.4l-47.9,55.3L30,346.5
	l-31,83v86.3v18.6h-5.8l-7.4,8.7l-14-128.4l-4.1-0.4l26-50.8l14-4.1l3.3-7l-20.6,7.4l7.8-9.1l39.6-28.9l-1.2-9.1l9.1-13.6l-13.2,3.7
	l-9.5-2.5l-9.5-2.5l6.2-10.3l-7-3.7l-2.9-3.7l48.7-27.2l11.6-10.3c0,0,12.4,11.6,15.7-7s3.3-18.6,3.3-18.6l7.8,5.4l28.1-2.9
	l23.1-18.6L231.5,195.4z"/>
<polygon style="fill:#F2D9AD;" points="27.2,560.1 18.4,581.5 11.8,624.5 22.8,635.6 29.4,653.1 36.6,603 55.9,610.7 63.6,611.3 
	64.7,599.7 58.6,587 "/>
<polygon style="fill:#F2D9AD;" points="417,590.6 430.7,589.5 429.6,602.1 435.7,606.5 420.3,616.5 348.7,651.1 "/>
<polyline style="fill:#F2D9AD;" points="400.9,325.8 423.4,350.6 432.2,348.4 456.5,417.3 443.2,417.3 417.9,382.5 414.1,388.2 
	410.2,388.2 407.5,371.6 415.7,374.3 411.9,368.3 400.9,360.5 368.4,337.9 394.2,342.9 388.2,333 403.6,325.8 "/>
<path style="fill:#F2D9AD;" d="M53.3,567.5l31.4,28.1l-8.8,11.1l8.8-6.2l14.9,19.8l-9-27.5l-10.8-16.4l-12.7-19.9l0.6-8.8
	c0,0-2.2-1.1-3.9,0.6C62.1,549.8,53.3,567.5,53.3,567.5z"/>
<polygon style="fill:#F27840;" points="210.7,532 210.7,539.4 238,547.7 242.8,550.6 225.2,552.2 221.9,558.8 221.5,570.4 
	227.7,577 234.7,577 240.5,567.1 246.2,567.5 239.6,557.6 250.8,552.2 255.7,553.5 262.7,559.3 267,563 262.7,574.9 249.1,577 
	255.7,582.8 238.8,580.3 234.7,582.8 233.9,595.6 231,607.1 237.2,615.8 221.1,628.2 205.4,642.2 203.7,638.9 195.1,638.5 
	204.5,628.6 211.2,618.7 214.1,612.5 216.9,620.8 222.3,612.9 208.7,597.2 204.5,588.6 203.7,580.7 202.9,573.3 193,577.4 
	184.3,585.7 177.7,582.4 176.5,591 176.9,597.2 161.2,592.7 148,582 134.8,578.2 136.8,567.9 123.2,569.6 119.9,563 135.6,554.7 
	138.5,558 155.4,560.1 153.8,552.2 143.4,551.4 141,542.7 133.5,535.3 131.9,525.8 138.1,518.7 150,527.1 156.2,518.7 161.2,507.6 
	"/>
<path style="fill:#F7D394;" d="M149.2,550.5v-29.7l18.7,6.6l33.3,8.3l15.7,7.5l-13.3,16.1l-4.9,5.8l8.6,8.8L188,561.7l-20.1-2.5
	l-7.8,14.5l-8.3-5.7c0,0-15.3-1.8-17.6-8.8c-2.3-7,0-3.8,0-3.8h7.7l0.6,3.8l6.6,2.2l10.5-2.2l3.3-11.9h12.2h13.5l4.1-8.4l-17.5-7.3
	h-11.7l-2.2,5.1l1.7,3.9l0.6,3.8L149.2,550.5z"/>
<path style="fill:#F7D394;" d="M352.3,440.6l-12.4-3.8l-7.4-0.4l0.8,4.2l2.1,4v9.2l0.4,3l-0.4,4.1l-0.8,8.1l-11.8,3.3
	c0,0-11.3,12-7.6,17.8c3.7,5.8,3.7,5.8,3.7,5.8h6.2l2.9-2.9l2.3-1.7l2.3-1.7l-8.7-4.5l-0.4-2.5l-4.7,9.1v-9.1V475l5.2,0.2l6.6-2.5
	l5-1.2l-2,2.1l-1.7-7.4l5.8-7l2.5-7.8v-5l4.5-0.8l0.8,3.3l2.5-3.7"/>
</svg>
