<?xml version="1.0" encoding="utf-8"?>
<!-- Generator: Adobe Illustrator 21.0.2, SVG Export Plug-In . SVG Version: 6.00 Build 0)  -->
<svg version="1.1" xmlns="http://www.w3.org/2000/svg" xmlns:xlink="http://www.w3.org/1999/xlink" x="0px" y="0px"
	 viewBox="0 0 831.1 1203.9" style="enable-background:new 0 0 831.1 1203.9;" xml:space="preserve">
<style type="text/css">
	.st0{display:none;}
	.st1{display:inline;stroke:#FFFFFF;stroke-miterlimit:10;}
	.st2{display:inline;fill:#F15A29;}
	.st3{fill:#2B3990;}
	.st4{fill:#1B75BC;}
	.st5{fill:#262262;}
	.st6{fill:#94D4C8;}
	.st7{fill:#7BA7BF;}
	.st8{fill:#94D4C8;stroke:#7BA7BF;stroke-miterlimit:10;}
	.st9{fill:#DD8D57;}
	.st10{fill:#CCA78C;}
	.st11{fill:#2F6F87;}
	.st12{fill:#2D526D;}
	.st13{fill:#4B93BC;stroke:#1B75BC;stroke-width:5;stroke-miterlimit:10;}
	.st14{fill:#3E2D77;}
	.st15{fill:#3C8B9E;}
	.st16{fill:#5496BC;}
	.st17{fill:#D8A55B;}
	.st18{fill:#F2D9AD;}
	.st19{fill:#F7D394;}
	.st20{fill:#CE203A;}
	.st21{fill:#F27840;}
	.st22{fill:#EFA841;}
	.st23{fill:#911A23;}
	.st24{fill:#FFFFFF;}
	.st25{fill:#6C0C16;}
	.st26{fill:#311114;}
	.st27{fill:#EF4136;}
	.st28{fill:#CD8029;}
	.st29{fill:#FBB040;}
	.st30{fill:#F15A29;}
	.st31{fill:#EEB227;}
	.st32{fill:#EC2B47;}
	.st33{fill:#EFCE8D;}
	.st34{fill:#F8B067;}
</style>
<g id="Layer_1" class="st0">
</g>
<g id="Layer_2" class="st0">
	<rect y="2.3" class="st1" width="841.9" height="1214.9"/>
</g>
<g id="Layer_3">
</g>
<g id="Layer_4">
	<line class="st18" x1="521.8" y1="616.8" x2="530.5" y2="621.8"/>
</g>
<g id="Layer_5">
	<path class="st20" d="M272.4,327.6c2.5,0,15.7,0.8,15.7,0.8v6.1l-4.4,0.8l2.5,4.1l1.9,5.5l17.1-8.8l43.5-12.9l26.4-3.3h14v7.2
		l33,1.4l40.7,4l6.3,1.2l-8.3,6.3l-3.6,6.1l-0.6,2.8l30-4.1c0,0,20.9-0.8,19.3,0.8s-10.5,2.8-17.1,11.3
		c-6.6,8.5-19.5,27.8-19.5,27.8l-12.1-4.1l5.5,10.2l18.7,14.9l27,5.2l31.1,12.1l21.7,7.4l-9.4-11l12.7,3.6l23.1,4.1l1.7-11l5.5,11.6
		l5.2-4.4l-2.8,7.2l39.4-4.1l14-4.7l-2.9,19.4l-15.7,7c0,0-2.9-9.1-2.9,13.6s0,22.7,0,22.7l9.5,10.7l-2.1,10.7l8.3,14.5l5.8,13.6
		l10.7-17.8l-3.3-12.4l19,0.8l16.1,8.3l-9.9,21.1l7.8,13.6l19-7.8l7,16.1l-1.7,9.5h-15l12.7,34.1l4,6.6l7.6-12.7l11-16l7.7-6.6
		c0,0-0.6-5.5,0,14.3c0.6,19.8,17.6,9.4,0.6,19.8s3.9-5-9.4,8.3c-13.2,13.2-13.2,13.2-13.2,13.2l8.8,4.4c0,0,11.6-14.9,17.1-12.7
		c5.5,2.2,6.1-13.2,5.5,2.2c-0.6,15.4,19.3,9.4-0.6,15.4c-19.8,6.1-16.5,4.4-16.5,4.4l-3.3,1.7c0,0-9.9-7.7-0.6,10.5
		c9.4,18.2,9.4,18.2,9.4,18.2l8.8,17.6c0,0-11,7.7-13.8,9.4c-2.8,1.7-13.2-8.8-13.2-8.8l-3.9-2.2h-6.6v11.2l-7.2-6.8l-8.3,11.6
		l-2.8,8.8l1.1,9.4c0,0-24.2,12.1-12.1,14.9c12.1,2.8,23.7-1.4,23.7-1.4l16.8-7.4l8.5-3l12.4-21.7l-17.6,63v6.1l11.3,3.6h5.2
		l-35,26.1L672,815.1l-14.6-3c0,0-3.6,4.4-3.9,5.5c-0.3,1.1-22.3-4.4-22.3-4.4l-9.6,4.4l-9.9,20.6l16.2,0.3l-107.6,51.2h-19.8
		l-10.7,18.2l-22.3,8.3l-40.5,18.2l25.6,19l-12.4,9.9l-9.1-14l-20.6-21.5l-22.3-2.5l-42.9,5.8c0,0,21.5-2.5-9.9-17.3
		s-26.4-14-26.4-14l-28.1-28.9l-16.5-23.9h-19L233,834.4l-19,19.8l-21.5,30.6c0,0-5.8,6.6-8.3,20.6c-2.5,14-5-3.3-5-3.3l-10.7-21.5
		v-14.9v-8.3l-19.8-19.8l-4.1-25.6l4.1-8.3l8.3-14.9l-12.4-9.1l-9.1-16.5l5.8-19l-9.9-13.2l-9.1,21.5l-4.1-20.6l-5.8-13.2l-9.9-14
		l-4.1-12.4l-6.6,10.7l-5-5l-2.5,17.3l-5.8-11.5l-14.9-11.6H47.2l14-19l5.8-19.8L57.1,623l5-19.8l17.3-13.2l2.5-20.6v-6.6l2.5-9.1
		l-3.3-19l10.7,11.6l9.1-6.6l0.8-21.5l2.5-10.7l-5-6.6l10.7-2.5l0.8-9.9l-4.1-4.1l8.3,0.8l7.4,1.7l5.8-6.6v-5.8l-8.3,5.8l-9.1-2.5
		l-9.1-4.1L67,514.8l-14.9,10.7l5-42.9l7.4-23.1v-11.6v-10.7l17.3,10.7l22.3-8.3l7.4-10.7l20.6-14l-1.7,19l23.1-10.7l7.4,4.1
		l-9.9,14.9l9.9,11.6c0,0,11.6-12.4,43.8-30.6s32.2-18.2,32.2-18.2v-30.6l-13.2-0.8l23.9-20.6L272.4,327.6z"/>
	<path class="st21" d="M244.1,388.7c1-0.6,23.3-18.4,23.3-18.4l-1.9,14.9l14.9-17.1l14.9-7.6l-1.4,9.9l11.1-8.3l21.3-6l5.8-3.9
		l8.7-8.5h18l7-8.1l38.4-6.8l-15.3,10.3l45.2-0.8l25.6,0.6l-19.4,10.3c0,0-23.7,3.7,7,5.4s30.8,1.7,30.8,1.7l4.1,3.5L443.8,371
		l-5.8,5l19.8,9.7l-20.2,10.9l-14.9,7.6l3.3,12.1h-21.5c0,0-25.9-11-25.3,5.5s0.6,16.5,0.6,16.5v8.8l18.7,14.3h16l6.1-4.4l8.3,0.6
		l-1.7,14.9c0,0,16-9.4-6.6-3.3c-22.6,6.1-30.3-4.4-22.6,6.1c7.7,10.5,3.3,0.6,7.7,10.5c4.4,9.9,4.4,9.9,4.4,9.9h-11.6
		c0,0,12.1-15.4-13.8-8.8c-25.9,6.6-25.9,20.9-25.9,6.6s0-14.3,0-14.3l9.9-9.4l2.8-8.3l-1.1-7.7l-9.9-1.1l2.7,16.5l-11,7.2
		l-16.5,3.3l-2.8,11.6l7.2,14.9l-33.6,11c0,0-10.5-0.6-12.1,12.1c-1.7,12.7-1.7,12.7-1.7,12.7s28.6-22.6,22-0.6
		c-6.6,22-0.6,16-0.6,16l-6.6,17.6l8.3,2.8l39.6-8.3l-14.9,8.3l-32.5,16l-1.1-3.9l-26.4-6.6c0,0-19.3-27.5-17.6-3.9
		c1.7,23.7,1.7,23.7,1.7,23.7l0.6,8.8H247l-2.9,9.4l-11.4,1.1l-4.4-6.1l-2.8-13.2l-6.1-4.4l-6.1,3.9l-9.9,12.1l-6.1,7.7l-3.3,17.1
		l8.8,20.4l-3.9,4.4l2.2,21.5l6.6,21.5l10.5,9.3h5l3.3,5.4l7.7,6.8l23.1,26.4h7.7v-13.8l9.9,22l19.3,8.3l8.8,20.4l7.2,12.1l-17.1,11
		l6.6,1.1l13.2,5l5,7.7l14.3,6.1l13.8,3.3l5.5,13.2l14.9,6.1l9.4-14.9l3.9,1.1l11.6,11l10.5-3.3l15.4-3.9v9.9l8.3,2.8
		c0,0,15.4,2.8,16-2.8c0.6-5.5,0.6-5.5,0.6-5.5l3.9-5.5c0,0,9.4,13.8,12.1,5c2.8-8.8,2.8-8.8,2.8-8.8l21.5-6.1v6.1
		c0,0-5,7.2-5.6,8.8c-0.6,1.7-0.6,1.7-0.6,1.7h6.1v5.5l-9.4,5l15.4-2.6l3.9-2.3c0,0,0.6-1.1-1.1-4.4s-1.7-3.3-1.7-3.3l1.1-5l3.3-7.2
		v-7.7l18.7-3.3l3,1.1l27.2-7.4l6.2-8.3l-4.1-8.7l10.7-2.5l-6.2-5l-1.7-4.1c0,0-7-4.1,3.7-5c10.7-0.8,10.7-0.8,10.7-0.8
		s2.5,0.8,0.8,9.1c-1.7,8.3-1.7,8.3-1.7,8.3l11.6-5l8.3-8.3l6.6-7.8c0,0-3.3,1.7-3.7-3.3c-0.4-5-0.4-5-0.4-5l5.8-14.9l-5.8-2.1
		l9.5-9.9l12-12.8l7-4.5l2.5-14.5c0,0-1.2-8.6,7.8-18.5s9.1-9.9,9.1-9.9l-8.3-7.4l-18.2,3.3l9.1-20.6l-7.4-5.4l7.8-10.3l36.3-2.5
		l-12-15.7l-16.1-18.6c0,0,2.1-17.5-13.2-14.6c-15.3,3-33.9-13.9-15.3,3c18.6,16.9,18.6,16.9,18.6,16.9l-12.4,11.1l-5.4-5l-22.7,8.7
		V616l-10.3-9.9l5.8-7.4l-5.8-5.8l0.4-8.3c0,0,12.8-7.8,1.2-12c-11.6-4.1-11.6-4.1-11.6-4.1l-9.9,12.8l-18.2-5l4.5-10.7l13.6-2.1
		l3.3-9.9l-3.3-9.5l-3.7-10.7l3.7-5l-6.2-10.3l-0.4-7l5,2.5V505l-5-3.3l-12,7l-2.1,1.2l-10.3-18.2l-17.3-4.1l-1.2,12.4
		c0,0-11.6-8.3-12.8-7.4c-1.2,0.8-13.6-5.4-13.6-5.4l2.5-8.7l19.8-4.5l27.2,7c0,0-9.9-12.4,5.4,1.7c15.3,14,15.3,14,15.3,14l5.8-0.4
		c0,0,0,4.5,4.1-5.4c4.1-9.9,4.1-9.9,4.1-9.9s12.8,0.8,0.8-4.5c-12-5.4,7.4,0.4-12-5.4s-0.4-2.1-17.3-4.1
		c-16.9-2.1-16.9-2.1-16.9-2.1l-26.4,9.1l-4.1-8.3v-14c0,0,16.9-9.9-9.9-9.9c-26.8,0-12.4-3.3-23.9-1.2c-11.6,2.1-11.6,2.1-11.6,2.1
		v-9.9l15.7-3.7l-8.7-8.7l-1.2-8.3l5-5.4l6.6-7.8l-1.2,17.3l5,3.7l8.7-2.5l27.7,3.3l29.7,13.6l36.3,20.2l18.2,4.1l12.8-5l2.5-19.4
		l9.5,20.6l-7,16.1l16.1,14l7.8,3.7l14.9,31.8l11.6,14l17.8,12l-1.2,9.1l14,14l3.7,29.7l-8.3,15.7h-4.1c0,0-14.5-7.4-10.3,5.4
		s4.1,12.8,4.1,12.8l8.3,13.2l-2.9,9.9l7.4,9.9l13.2-0.4l7.8-23.1l9.9-2.1l18.2,6.2v2.5L702,662.7l-5,13.2l-10.7,7.4l0.8,35.9
		l-9.9,25.2l-11.6,6.6c0,0,7-7.8-6.2,16.1s-7.4,13.6-7.4,13.6l-5.8,10.3l18.2,0.8l20.2-7.4l7.4-9.9l18.6-2.1l5.8,13.6l-15.3,7.4
		l-4.5,8.3c0,0-7.4,4.1-9.1,4.5c-1.7,0.4-23.9,2.5-23.9,2.5l-12,1.7l-3.7-5.8c0,0,6.6-10.7-14.9,3.7c-21.5,14.5-13.6,8.3-13.6,8.3
		L605,829.5l-20.6,14l24.4-2.1l-28.9,19.8l-14.9,8.7l-21.1,8.3c0,0-28.5-1.7-37.6-1.7s-31.8,1.7-31.8,1.7h-31.4h-63.6L332.9,860
		l-18.6-2.1l-14,2.1l5.4,9.9l9.1,10.3l6.6,9.1l-10.7-3.7l-2.1-5.8l-6.6-8.3l-5-9.5l-1.2-7.8l4.1,0.8l-6.2-9.9l-9.9-9.9l-21.1-12
		l-23.1-14.5l-37.2,8.7l5,17.3l5,4.5l-18.2,11.8l-8.3,7.2l-4.1-1.7l-3.3-15.3l4.5-8.3l-2.5-10.3l-7.8-7.4l-5.4-16.9l-7.8-21.9
		l13.2-30.6l5-16.9l-44-17.9l7.7-6.4l2.8-20.9l-10.5-13.2v-11.6l7.2-8.3L138,631l-7.7-5.5v-24.8l-9.9-6.6l-13.2,7.7l-5.5-8.8v-9.9
		l5-22.6l8.3,5l4.4-16.5v-16l7.7-21.5l2.8-11l-1.1-11l12.1-9.9l6.6-6.6l2.8-12.7l-19.8-7.2l-19.8,14.3l-11.6,6.6l3.3,2.8v-8.3
		l-9.9,3.9l-11.6-12.1v-11h29.7l3.3-11.6l8.8-5l38.5,9.9l-5,6.6l29.7-2.2l15.4-3.3l10.5-17.1l0.6-12.1l11-2.8l7.7-7.2l7.2-8.3
		L244.1,388.7z"/>
	<polygon class="st21" points="422.1,532.2 417.1,517.8 425.6,516.3 428.5,519.8 435.1,524.3 444.2,525.2 440.9,529.3 440.9,532.2 
		445.8,532.2 446,537 435.1,538.4 417.1,553.9 404.9,565.4 402.9,556.4 400.6,545.8 395.9,541.5 408.9,538 	"/>
	<path class="st21" d="M515.4,604.3l8.8-9.4l7.2,0.8l14.3,8.5l-6.1,4.8l-0.6,6.2l0.3,6.9l-9.1,3.9h-5.5l-1.1,3.9l6.9,5.8v3.9
		c0,0,10.5,3,9.4,7.7c-1.1,4.7-1.1,4.7-1.1,4.7l5.8-7l3-4.8l1.7,11.8l-6.3,5l-1.4,8l-1.9,6.6l-4.4-10.2v-2.5l-7.7,8.8l-1.4,9.4
		l-15.7,8.8l-1.1-5l6.1-5.2l-5-0.3l-6.3,5.2l-2.2,6.6l-5.8,2.5l-14.6-0.6l-6.1-6.1l2.8-11.6c0,0,2.5-4.4,3.6-5
		c1.1-0.6,16.8-11,16.8-11l4.1-6.6l-1.7-8.5l-4.1-10.2l1.9-6.3l-6.3,0.6l-7.2,1.1l-1.4-8.3l0.8-6.9l14-13.8l13.5-0.3L515.4,604.3z"
		/>
	<path class="st21" d="M490.1,646.4c0,0-5.4-3.6-2.2,5.2s3.2,8.8,3.2,8.8v3.3l-5.2-2.2l-10.4-1.1l-7.7-5l-10.5-5.5l3.6-5.1l-4.7-8.6
		l1.1-6.9v-9.9l-6.1,1.4l11.6-6.1l0.6,8.5l0.3,6.9l3.3,9.1h3l9.4-3.6L490.1,646.4z"/>
	<path class="st21" d="M67.5,656.3l26-42.9l8.3,2.1l4.1-8.3c0,0,8.7,5,9.9,0.8c1.2-4.1,1.2-4.1,1.2-4.1l2.9-0.8l1.7,15.2l-0.8,13.7
		l2.5,7l-23.5,6.6l-2.9,7.4l-12-1.7l-2.1-7l-5,12l-8.3,5"/>
	<path class="st21" d="M546.6,719.8l13.6-12.4v5.3l-5,9.3h3.3l6.6-5.2c0,0-7-12.5,2.9-4.2c9.9,8.3,3.7,0,3.7,0s-4.5-5.1,6.2,8.3
		c10.7,13.5,4.1,5.8,4.1,5.8l6.5,7.7c0,0,8.7-2.3-7.8-2.7c-16.5-0.4-16.5-0.4-16.5-0.4s9.5-3.3-7,5.4c-16.5,8.7-5-1.7-14,7.4
		s0,11.1-9.1,9.1c-9.1-2.1-5.4,3.7-5.4,3.7l-3.7-5.8c0,0,12-8.7,1.7-7c-10.3,1.7-10.3,1.7-10.3,1.7l-8.3,5.8c0,0-9.1,7.4-12.8,0.8
		c-3.7-6.6-3.7,2.5-3.7-6.6s0-9.1,0-9.1l11.6,5l0.8-5l-1.7-4.5v-2.9l-3.8-1.6l-1.9-0.8c0,0,0.8-1,0.9-1.8c0.2-1.1-0.7-1.8-5.9,0.6
		c-9.1,4.1-9.1,4.1-9.1,4.1l-7.4,7l-4.5,7.4v-2.5l-6.2-2.5l4.1-7l2.1-15.3l-2.5-0.4l-2.5-1.7l-1.2-2.1l15.7-5.3l8.7-5.8l-2.1,7.4
		l1.2,3.7l4.1-2.8v5l-2.9,3.3l2.1,2.5h2.9l4.4,1.7l9.6,5l0.4,2.1h16.1l3-6.2l3.4,9.5L546.6,719.8z"/>
	<path class="st22" d="M286.2,448.2l23.5-13.6l70.6-20.6h30.1v-5.4c0,0,23.1-3.3,0-2.1c-23.1,1.2-23.1,1.2-23.1,1.2l-8.7-1.2
		l0.4-9.1l5.4-8.3l11.1-6.2c0,0-15.7,6.6-2.5,8.7c13.2,2.1,13.2,2.1,13.2,2.1s-3.3-2.9-0.4-7.8c2.9-5,2.9-5,2.9-5s7,6.6,8.3,0
		c1.2-6.6,1.2-6.6,1.2-6.6v-4.1l8.7-0.8l19-3.3l-27.7-6.6l-19-2.5l8.7-8.3l-5.8,1.2l-54.9,12.8l-26,10.3l2.5,1.7l-3.7,5l-11.1-4.1
		l-12.8-1.2l-4.5,4.5l-2.1,5l-22.3,1.2l-6.2,11.6l-6.6,5.8l-9.5,5.4c0,0,7,4.5-4.1,7c-11.1,2.5-11.1,2.5-11.1,2.5l-10.3,7.8l-7,5.4
		l7.4,12.8l-14.6,0.7l-10.5-1.1l-7.2,9.9l-18.2,1.1l-13.2,3.9l-7.7,18.2l17.1-13.8h24.8l-0.6,10.5c0,0,1.1-0.6,0,8.3
		c-1.1,8.8-1.1,8.8-1.1,8.8l9.9,3.9l-14.9,13.8l-7.2,15.4L152.9,537l-7.2,2.8c0,0,40.2-33,2.8,24.2s-33,25.9-33,25.9l-4.4,31.4
		l17.1-6.1l6.1,13.8l9.9,19.9l1.1-10.6l2.2,19.3l10.5,33.6l9.9,29.1l9.9-2.7l3.9,8.3l0.6,6.6l-3.9,9.4l0.6,16.5l-3.9,18.2l3.3,11.6
		l-2.8,7.7l-12.7,11.6l17.6,1.1l-3.9,10.5l3.9,24.9l1.7,13.6l10.5-18.7l3.9-11l53.4-7.7l-6.6-9.4l18.7,7.7l13.2,7.2l0.6-9.4
		l-4.4-12.1l7.3-0.6l7.6,1.7l-7.6-12.7l-9.5-8.3v-7.7l-5.5-13.2l-3.3-6.6l-6.6,4.4c0,0,3.9,1.7-2.8-4.4c-6.6-6.1,4.4-6.1-6.6-6.1
		s-11,0-11,0l-2.8-1.4c0,0,5,6.9-1.7-5c-6.6-11.8-6.6-11.8-6.6-11.8l-11.6-3.3l-5.5-3.3l-3.9,1.7l-11-12.1l-12.1-14.3l-1-4.5
		l-3.5-16.4l13.8,12.1l-1.7-12.1l-11.6-15.4l4.4-8.8l1.1-4.4l5.5,4.4l0.6-7l-2.2-7.8l-6.6-9.4c0,0,9.4,1.1,12.1,0.6s2.8-0.6,2.8-0.6
		l-1.7-7.2l-2.2-6.6l11.6-17.1l6.1-6.6l23.1-5.5l7.7-1.7v7.7l7.2-6.6l8.8-8.3l3.9-3.3l-1.1-8.3h5l11-5.5l-3.3-8.8l-6.1-2.2l1.1-12.1
		l-15.4,4.4l-8.3-0.6l-6.6-2.2h-7.2l3.3-34.1l5.5-16.5l1.7-5.5l14.3-2.8l7.2-8.3l-1.7-3.3l11.6-6.6l8.8-7.2L286.2,448.2z"/>
	<path class="st19" d="M410.5,377.4l-2.5,7.4l-54.5,18.6l5.4-11.1l-35.9,19.4v5.4v12.4l-53.3,33.4l-47.9,55.3L209,528.5l-31,83v86.3
		v18.6h-5.8l-7.4,8.7l-14-128.4l-4.1-0.4l26-50.8l14-4.1l3.3-7l-20.6,7.4l7.8-9.1l39.6-28.9l-1.2-9.1l9.1-13.6l-13.2,3.7l-9.5-2.5
		l-9.5-2.5l6.2-10.3l-7-3.7l-2.9-3.7l48.7-27.2l11.6-10.3c0,0,12.4,11.6,15.7-7s3.3-18.6,3.3-18.6l7.8,5.4l28.1-2.9l23.1-18.6
		L410.5,377.4z"/>
	<polygon class="st18" points="206.2,742.1 197.4,763.5 190.8,806.5 201.8,817.6 208.4,835.1 215.6,785 234.9,792.7 242.6,793.3 
		243.7,781.7 237.6,769 	"/>
	<polygon class="st18" points="596,772.6 609.7,771.5 608.6,784.1 614.7,788.5 599.3,798.5 527.7,833.1 	"/>
	<polyline class="st18" points="579.9,507.8 602.4,532.6 611.2,530.4 635.5,599.3 622.2,599.3 596.9,564.5 593.1,570.2 589.2,570.2 
		586.5,553.6 594.7,556.3 590.9,550.3 579.9,542.5 547.4,519.9 573.2,524.9 567.2,515 582.6,507.8 	"/>
	<path class="st18" d="M232.3,749.5l31.4,28.1l-8.8,11.1l8.8-6.2l14.9,19.8l-9-27.5l-10.8-16.4l-12.7-19.9l0.6-8.8
		c0,0-2.2-1.1-3.9,0.6C241.1,731.8,232.3,749.5,232.3,749.5z"/>
	<polygon class="st21" points="389.7,714 389.7,721.4 417,729.7 421.8,732.6 404.2,734.2 400.9,740.8 400.5,752.4 406.7,759 
		413.7,759 419.5,749.1 425.2,749.5 418.6,739.6 429.8,734.2 434.7,735.5 441.7,741.3 446,745 441.7,756.9 428.1,759 434.7,764.8 
		417.8,762.3 413.7,764.8 412.9,777.6 410,789.1 416.2,797.8 400.1,810.2 384.4,824.2 382.7,820.9 374.1,820.5 383.5,810.6 
		390.2,800.7 393.1,794.5 395.9,802.8 401.3,794.9 387.7,779.2 383.5,770.6 382.7,762.7 381.9,755.3 372,759.4 363.3,767.7 
		356.7,764.4 355.5,773 355.9,779.2 340.2,774.7 327,764 313.8,760.2 315.8,749.9 302.2,751.6 298.9,745 314.6,736.7 317.5,740 
		334.4,742.1 332.8,734.2 322.4,733.4 320,724.7 312.5,717.3 310.9,707.8 317.1,700.7 329,709.1 335.2,700.7 340.2,689.6 	"/>
	<path class="st19" d="M328.2,732.5v-29.7l18.7,6.6l33.3,8.3l15.7,7.5l-13.3,16.1l-4.9,5.8l8.6,8.8L367,743.7l-20.1-2.5l-7.8,14.5
		l-8.3-5.7c0,0-15.3-1.8-17.6-8.8c-2.3-7,0-3.8,0-3.8h7.7l0.6,3.8l6.6,2.2l10.5-2.2l3.3-11.9h12.2h13.5l4.1-8.4l-17.5-7.3h-11.7
		l-2.2,5.1l1.7,3.9l0.6,3.8L328.2,732.5z"/>
	<path class="st19" d="M531.3,622.6l-12.4-3.8l-7.4-0.4l0.8,4.2l2.1,4v9.2l0.4,3l-0.4,4.1l-0.8,8.1l-11.8,3.3c0,0-11.3,12-7.6,17.8
		c3.7,5.8,3.7,5.8,3.7,5.8h6.2l2.9-2.9l2.3-1.7l2.3-1.7l-8.7-4.5l-0.4-2.5l-4.7,9.1v-9.1V657l5.2,0.2l6.6-2.5l5-1.2l-2,2.1l-1.7-7.4
		l5.8-7l2.5-7.8v-5l4.5-0.8l0.8,3.3l2.5-3.7"/>
</g>
<g id="Layer_6">
</g>
</svg>
