<?xml version="1.0" encoding="utf-8"?>
<!-- Generator: Adobe Illustrator 19.0.0, SVG Export Plug-In . SVG Version: 6.00 Build 0)  -->
<svg version="1.1" id="Layer_1" xmlns="http://www.w3.org/2000/svg" xmlns:xlink="http://www.w3.org/1999/xlink" x="0px" y="0px"
	 viewBox="-115 100.9 960 640" style="enable-background:new -115 100.9 960 640;" xml:space="preserve">
<g id="Layer_1_1_">
</g>
<g id="Layer_2">
	<rect x="-113.7" y="99.8" style="fill:#12131E;" width="960" height="640"/>
	
		<radialGradient id="SVGID_1_" cx="-170.3136" cy="523.4575" r="107.3494" gradientTransform="matrix(1.3241 -0.9893 -3.1067 -4.1582 1755.8192 2664.6536)" gradientUnits="userSpaceOnUse">
		<stop  offset="0" style="stop-color:#2484C6"/>
		<stop  offset="0" style="stop-color:#2484C6;stop-opacity:0.9598"/>
		<stop  offset="0.4686" style="stop-color:#2484C6;stop-opacity:0"/>
		<stop  offset="0.7517" style="stop-color:#2484C6;stop-opacity:0"/>
		<stop  offset="0.8705" style="stop-color:#2484C6;stop-opacity:0"/>
	</radialGradient>
	<path style="opacity:0.31;fill:url(#SVGID_1_);enable-background:new    ;" d="M-228.2,547.8c53.1-46.4,81.5-52.2,97.7-48.7
		c11.7,2.5,11.2,8.7,42.7,37.8c25,23.1,37.6,34.7,52.6,40.1c24,8.5,34.9,2.1,52.1,14.5c3.9,2.8,17.5,13,22,32.2
		c4.4,19-5.2,25.6-3.1,42.8c3.8,31.3,38.1,29.9,37.5,53c-0.6,21.7-31.5,43.7-48.9,56c-9.4,6.7-63.4,45-110.7,34.1
		c-16.4-3.8-27.3-15.2-49-37.9c-40.4-42.5-34.1-59.5-65.1-76.1c-22.7-12.1-34.2-7.3-47.8-22.6c-18-20.2-15.4-48.1-14.6-55.5
		C-259,581.9-235.2,555.2-228.2,547.8z"/>
	
		<radialGradient id="SVGID_2_" cx="96.0647" cy="487.044" r="107.3483" gradientTransform="matrix(5.5666 1.0927 1.3244 -6.7472 -916.0389 3446.2263)" gradientUnits="userSpaceOnUse">
		<stop  offset="0" style="stop-color:#2484C6"/>
		<stop  offset="0" style="stop-color:#2484C6;stop-opacity:0.9598"/>
		<stop  offset="0.4686" style="stop-color:#2484C6;stop-opacity:0"/>
		<stop  offset="0.7517" style="stop-color:#2484C6;stop-opacity:0"/>
		<stop  offset="0.8705" style="stop-color:#2484C6;stop-opacity:0"/>
	</radialGradient>
	<path style="opacity:0.18;fill:url(#SVGID_2_);enable-background:new    ;" d="M168.3,21.9c238.1,39.5,323.5,72.9,356.8,96.3
		c24.1,16.9,9.1,20.3,24.7,80.2c12.4,47.7,18.6,71.5,45,94.7c42,36.8,84.2,47,100.4,77.5c3.6,6.9,15.8,31.3-15.5,49.5
		c-31,18-70.1,9.8-102.9,23.6c-59.9,25.2,30.6,69.2-22.1,83.2c-49.6,13.3-177.2-13-248.9-27.8c-38.7-8-261.2-53.9-357.5-122.7
		c-33.4-23.9-35.7-45.5-40.4-88.5c-8.7-80.3,45.4-83,3.2-134.3c-30.9-37.5-70.8-49.3-71.5-77.1c-1-36.6,67.6-51.2,85.9-55
		C14.2,3.6,134.2,17.6,168.3,21.9z"/>
	
		<radialGradient id="SVGID_3_" cx="502.6137" cy="574.2952" r="132.7303" gradientTransform="matrix(1.6528 0 0 -6.189 27.4897 3853.2493)" gradientUnits="userSpaceOnUse">
		<stop  offset="0" style="stop-color:#2484C6"/>
		<stop  offset="0" style="stop-color:#2484C6;stop-opacity:0.9598"/>
		<stop  offset="0.4686" style="stop-color:#2484C6;stop-opacity:0"/>
		<stop  offset="0.7517" style="stop-color:#2484C6;stop-opacity:0"/>
		<stop  offset="0.8705" style="stop-color:#2484C6;stop-opacity:0"/>
	</radialGradient>
	<path style="opacity:0.46;fill:url(#SVGID_3_);enable-background:new    ;" d="M807.5,53.8c87-7.9,119.5,10.3,132.9,28.7
		c9.7,13.3,4.6,20.2,14.3,82.3c7.7,49.4,11.5,74.1,22.5,93.8c17.4,31.2,33.1,33.3,40.9,63.2c1.8,6.7,7.8,30.8-2,57.4
		c-9.7,26.3-24.1,25.7-34.8,47.8c-19.4,40.3,15.6,69-2,95.7c-16.6,25.1-63.6,23.7-90,23c-14.2-0.4-96.1-2.8-134.9-57.4
		c-13.5-19-15.8-42-20.4-88c-8.6-85.9,10.3-100.4-8.2-147.4c-13.5-34.4-28.5-38.7-30.7-68.9c-2.9-39.8,20.3-70.5,26.6-78.5
		C751.7,66.8,795.2,56.3,807.5,53.8z"/>
	
		<radialGradient id="SVGID_4_" cx="550.2" cy="474.4311" r="0" gradientTransform="matrix(1 0 0 -4 0 2340.7144)" gradientUnits="userSpaceOnUse">
		<stop  offset="0" style="stop-color:#2484C6"/>
		<stop  offset="1" style="stop-color:#2484C6;stop-opacity:0"/>
	</radialGradient>
	<path style="fill:url(#SVGID_4_);stroke:#FFFFFF;stroke-miterlimit:10;" d="M550.2,443"/>
	<circle style="fill:#F9ED32;" cx="108.2" cy="498" r="3.5"/>
	<circle style="opacity:0.17;fill:#F9ED32;enable-background:new    ;" cx="108.2" cy="498" r="3.7"/>
	<circle style="fill:#F9ED32;" cx="-52.7" cy="158" r="3.5"/>
	<circle style="opacity:0.17;fill:#F9ED32;enable-background:new    ;" cx="-52.8" cy="158" r="3.7"/>
	<circle style="fill:#4A64AE;" cx="-28.8" cy="668.6" r="2.5"/>
	<circle style="opacity:0.17;fill:#4A64AE;enable-background:new    ;" cx="-28.8" cy="668.6" r="2.7"/>
	<circle style="fill:#4A64AE;" cx="274.1" cy="222.4" r="2.5"/>
	<circle style="opacity:0.17;fill:#4A64AE;enable-background:new    ;" cx="274" cy="222.4" r="2.7"/>
	<circle style="fill:#4A64AE;" cx="286.4" cy="356.7" r="2.5"/>
	<circle style="opacity:0.17;fill:#4A64AE;enable-background:new    ;" cx="286.3" cy="356.8" r="2.7"/>
	<circle style="opacity:0.17;fill:#4A64AE;enable-background:new    ;" cx="376.1" cy="195.3" r="2.7"/>
	<circle style="opacity:0.17;fill:#4A64AE;enable-background:new    ;" cx="399.1" cy="145" r="2.7"/>
	<circle style="opacity:0.17;fill:#4A64AE;enable-background:new    ;" cx="481.9" cy="497.5" r="2"/>
	<ellipse style="opacity:0.17;fill:#4A64AE;enable-background:new    ;" cx="514.9" cy="477.1" rx="2" ry="1.5"/>
	<circle style="opacity:0.17;fill:#4A64AE;enable-background:new    ;" cx="810.3" cy="271.7" r="2.7"/>
	<circle style="opacity:0.17;fill:#4A64AE;enable-background:new    ;" cx="820.6" cy="182" r="2.7"/>
	<circle style="opacity:0.17;fill:#4A64AE;enable-background:new    ;" cx="835.2" cy="157" r="2.7"/>
	<circle style="opacity:0.17;fill:#4A64AE;enable-background:new    ;" cx="-43.7" cy="226.4" r="2.7"/>
	<circle style="opacity:0.17;fill:#4A64AE;enable-background:new    ;" cx="-88.2" cy="179.3" r="2.7"/>
	<circle style="fill:#4A64AE;" cx="359.5" cy="246.4" r="2.5"/>
	<circle style="opacity:0.17;fill:#4A64AE;enable-background:new    ;" cx="359.5" cy="246.4" r="2.7"/>
	<circle style="fill:#4A64AE;" cx="585.1" cy="227.3" r="2.5"/>
	<circle style="opacity:0.17;fill:#4A64AE;enable-background:new    ;" cx="585.1" cy="227.3" r="2.7"/>
	<circle style="fill:#4A64AE;" cx="804.9" cy="530.6" r="2.5"/>
	<circle style="opacity:0.17;fill:#4A64AE;enable-background:new    ;" cx="804.9" cy="530.6" r="2.7"/>
	<circle style="fill:#4A64AE;" cx="771.3" cy="614.7" r="2.5"/>
	<circle style="opacity:0.17;fill:#4A64AE;enable-background:new    ;" cx="771.2" cy="614.7" r="2.7"/>
	<circle style="fill:#4A64AE;" cx="-46.4" cy="326.1" r="2.5"/>
	<circle style="opacity:0.17;fill:#4A64AE;enable-background:new    ;" cx="-46.4" cy="326.2" r="2.7"/>
	<circle style="fill:#4A64AE;" cx="-14.7" cy="296.3" r="2.5"/>
	<circle style="opacity:0.17;fill:#4A64AE;enable-background:new    ;" cx="-14.8" cy="296.3" r="2.7"/>
	<circle style="fill:#4A64AE;" cx="168.2" cy="336" r="2.5"/>
	<circle style="opacity:0.17;fill:#4A64AE;enable-background:new    ;" cx="168.2" cy="336" r="2.7"/>
	<circle style="fill:#4A64AE;" cx="768.6" cy="184.7" r="2.5"/>
	<circle style="opacity:0.17;fill:#4A64AE;enable-background:new    ;" cx="768.6" cy="184.7" r="2.7"/>
	<circle style="fill:#4A64AE;" cx="789.3" cy="217.1" r="2.5"/>
	<circle style="opacity:0.17;fill:#4A64AE;enable-background:new    ;" cx="789.2" cy="217.1" r="2.7"/>
	<circle style="fill:#4A64AE;" cx="-46.5" cy="494.3" r="2.5"/>
	<circle style="opacity:0.17;fill:#4A64AE;enable-background:new    ;" cx="-46.5" cy="494.3" r="2.7"/>
	<circle style="fill:#4A64AE;" cx="-28.8" cy="506.7" r="2.5"/>
	<circle style="opacity:0.17;fill:#4A64AE;enable-background:new    ;" cx="-28.8" cy="506.7" r="2.7"/>
	<circle style="fill:#F9F9FA;" cx="-6.4" cy="535.2" r="1.1"/>
	<circle style="opacity:0.17;fill:#F9F9FA;enable-background:new    ;" cx="-6.4" cy="535.2" r="1.3"/>
	<circle style="fill:#F9F9FA;" cx="307.3" cy="600.3" r="1.1"/>
	<circle style="opacity:0.17;fill:#F9F9FA;enable-background:new    ;" cx="307.3" cy="600.3" r="1.3"/>
	<circle style="fill:#F9F9FA;" cx="543.6" cy="194" r="1.1"/>
	<circle style="opacity:0.17;fill:#F9F9FA;enable-background:new    ;" cx="543.6" cy="194" r="1.3"/>
	<circle style="fill:#F9F9FA;" cx="519.6" cy="192.9" r="1.1"/>
	<circle style="opacity:0.17;fill:#F9F9FA;enable-background:new    ;" cx="519.6" cy="192.9" r="1.3"/>
	<circle style="fill:#F9F9FA;" cx="548.9" cy="207" r="1.1"/>
	<circle style="opacity:0.17;fill:#F9F9FA;enable-background:new    ;" cx="548.9" cy="207" r="1.3"/>
	<circle style="fill:#F9F9FA;" cx="582.5" cy="183.4" r="1.1"/>
	<circle style="opacity:0.17;fill:#F9F9FA;enable-background:new    ;" cx="582.5" cy="183.4" r="1.3"/>
	<circle style="fill:#F9F9FA;" cx="710.9" cy="304.6" r="1.1"/>
	<circle style="opacity:0.17;fill:#F9F9FA;enable-background:new    ;" cx="710.9" cy="304.6" r="1.3"/>
	<circle style="fill:#F9F9FA;" cx="743.8" cy="343.6" r="1.1"/>
	<circle style="opacity:0.17;fill:#F9F9FA;enable-background:new    ;" cx="743.8" cy="343.6" r="1.3"/>
	<circle style="fill:#F9F9FA;" cx="50.4" cy="617.1" r="0.9"/>
	<circle style="opacity:0.17;fill:#F9F9FA;enable-background:new    ;" cx="50.4" cy="617.1" r="1.1"/>
	<circle style="fill:#F9F9FA;" cx="790.3" cy="694.7" r="0.9"/>
	<circle style="opacity:0.17;fill:#F9F9FA;enable-background:new    ;" cx="790.3" cy="694.7" r="1.1"/>
	<circle style="fill:#F9F9FA;" cx="790.3" cy="612" r="0.9"/>
	<circle style="opacity:0.17;fill:#F9F9FA;enable-background:new    ;" cx="790.3" cy="612" r="1.1"/>
	<circle style="fill:#F9F9FA;" cx="410.8" cy="721.7" r="0.9"/>
	<circle style="opacity:0.17;fill:#F9F9FA;enable-background:new    ;" cx="410.8" cy="721.7" r="1.1"/>
	<circle style="fill:#F9F9FA;" cx="307.5" cy="131.4" r="0.9"/>
	<circle style="opacity:0.17;fill:#F9F9FA;enable-background:new    ;" cx="307.5" cy="131.4" r="1"/>
	<circle style="fill:#F9F9FA;" cx="627.6" cy="141.3" r="0.9"/>
	<circle style="opacity:0.17;fill:#F9F9FA;enable-background:new    ;" cx="627.6" cy="141.3" r="1"/>
	<circle style="fill:#F9F9FA;" cx="9.2" cy="386.9" r="0.7"/>
	<circle style="opacity:0.17;fill:#F9F9FA;enable-background:new    ;" cx="9.2" cy="386.9" r="0.8"/>
	<circle style="fill:#F9F9FA;" cx="301.8" cy="296.3" r="0.7"/>
	<circle style="opacity:0.17;fill:#F9F9FA;enable-background:new    ;" cx="301.8" cy="296.3" r="0.8"/>
	<circle style="fill:#F9F9FA;" cx="327.1" cy="298.9" r="0.7"/>
	<circle style="opacity:0.17;fill:#F9F9FA;enable-background:new    ;" cx="327.1" cy="298.9" r="0.8"/>
	<circle style="fill:#F9F9FA;" cx="346.6" cy="335.2" r="0.7"/>
	<circle style="opacity:0.17;fill:#F9F9FA;enable-background:new    ;" cx="346.6" cy="335.2" r="0.8"/>
	<circle style="fill:#F9F9FA;" cx="401.9" cy="512.8" r="0.7"/>
	<circle style="opacity:0.17;fill:#F9F9FA;enable-background:new    ;" cx="401.9" cy="512.8" r="0.8"/>
	<circle style="fill:#F9F9FA;" cx="479.9" cy="565" r="0.7"/>
	<circle style="opacity:0.17;fill:#F9F9FA;enable-background:new    ;" cx="479.9" cy="565" r="0.8"/>
	<circle style="fill:#F9F9FA;" cx="512.1" cy="546" r="0.7"/>
	<circle style="opacity:0.17;fill:#F9F9FA;enable-background:new    ;" cx="512.1" cy="546" r="0.8"/>
	<circle style="fill:#F9F9FA;" cx="645.2" cy="560.8" r="0.7"/>
	<circle style="opacity:0.17;fill:#F9F9FA;enable-background:new    ;" cx="645.2" cy="560.8" r="0.8"/>
	<circle style="fill:#F9F9FA;" cx="341.8" cy="719.8" r="0.7"/>
	<circle style="opacity:0.17;fill:#F9F9FA;enable-background:new    ;" cx="341.8" cy="719.8" r="0.8"/>
	<circle style="fill:#F9F9FA;" cx="654.4" cy="591" r="0.7"/>
	<circle style="opacity:0.17;fill:#F9F9FA;enable-background:new    ;" cx="654.4" cy="591" r="0.8"/>
	<circle style="fill:#F9F9FA;" cx="818.7" cy="356.8" r="0.7"/>
	<circle style="opacity:0.17;fill:#F9F9FA;enable-background:new    ;" cx="818.7" cy="356.8" r="0.8"/>
	<circle style="fill:#F9F9FA;" cx="824" cy="313" r="0.7"/>
	<circle style="opacity:0.17;fill:#F9F9FA;enable-background:new    ;" cx="824" cy="313" r="0.8"/>
	<circle style="fill:#F9F9FA;" cx="-63.8" cy="132.3" r="0.7"/>
	<circle style="opacity:0.17;fill:#F9F9FA;enable-background:new    ;" cx="-63.8" cy="132.3" r="0.8"/>
	<circle style="fill:#F9F9FA;" cx="-87.8" cy="491.8" r="0.7"/>
	<circle style="opacity:0.17;fill:#F9F9FA;enable-background:new    ;" cx="-87.8" cy="491.8" r="0.8"/>
	<ellipse style="fill:#F9F9FA;" cx="426.3" cy="301.5" rx="0.7" ry="0.5"/>
	<ellipse style="opacity:0.17;fill:#F9F9FA;enable-background:new    ;" cx="426.3" cy="301.5" rx="0.8" ry="0.6"/>
	<circle style="fill:#F9F9FA;" cx="594.9" cy="340.9" r="0.7"/>
	<circle style="opacity:0.17;fill:#F9F9FA;enable-background:new    ;" cx="594.9" cy="340.9" r="0.8"/>
	<circle style="fill:#F9F9FA;" cx="752.6" cy="224.2" r="0.7"/>
	<circle style="opacity:0.17;fill:#F9F9FA;enable-background:new    ;" cx="752.6" cy="224.2" r="0.8"/>
	<circle style="fill:#F9F9FA;" cx="10.8" cy="214.6" r="0.7"/>
	<circle style="opacity:0.17;fill:#F9F9FA;enable-background:new    ;" cx="10.8" cy="214.6" r="0.8"/>
	<circle style="fill:#F9F9FA;" cx="-43.6" cy="226.5" r="0.7"/>
	<circle style="opacity:0.17;fill:#F9F9FA;enable-background:new    ;" cx="-43.6" cy="226.5" r="0.8"/>
	<circle style="fill:#F9F9FA;" cx="-87.8" cy="179.3" r="0.7"/>
	<circle style="opacity:0.17;fill:#F9F9FA;enable-background:new    ;" cx="-87.8" cy="179.3" r="0.8"/>
	<circle style="fill:#F9F9FA;" cx="-88.6" cy="179.3" r="0.7"/>
	<circle style="opacity:0.17;fill:#F9F9FA;enable-background:new    ;" cx="-88.6" cy="179.3" r="0.8"/>
	<circle style="fill:#F9F9FA;" cx="-105.8" cy="227.9" r="0.7"/>
	<circle style="opacity:0.17;fill:#F9F9FA;enable-background:new    ;" cx="-105.8" cy="227.9" r="0.8"/>
	<circle style="fill:#F9F9FA;" cx="295.7" cy="355.9" r="0.7"/>
	<circle style="opacity:0.17;fill:#F9F9FA;enable-background:new    ;" cx="295.7" cy="355.9" r="0.8"/>
	<circle style="fill:#A02821;" cx="-84.8" cy="417" r="0.7"/>
	<circle style="opacity:0.17;fill:#A02821;enable-background:new    ;" cx="-84.8" cy="417" r="0.8"/>
	<circle style="fill:#A02821;" cx="341.5" cy="516.5" r="0.7"/>
	<circle style="opacity:0.17;fill:#A02821;enable-background:new    ;" cx="341.5" cy="516.5" r="0.8"/>
	<circle style="fill:#A02821;" cx="7.5" cy="694.7" r="0.7"/>
	<circle style="opacity:0.17;fill:#A02821;enable-background:new    ;" cx="7.5" cy="694.7" r="0.8"/>
	<circle style="fill:#A02821;" cx="54.4" cy="621" r="0.7"/>
	<circle style="opacity:0.17;fill:#A02821;enable-background:new    ;" cx="54.4" cy="621" r="0.8"/>
	<circle style="fill:#A02821;" cx="102.6" cy="503.4" r="0.7"/>
	<circle style="opacity:0.17;fill:#A02821;enable-background:new    ;" cx="102.6" cy="503.4" r="0.8"/>
	<ellipse style="fill:#A02821;" cx="117.7" cy="563.3" rx="0.7" ry="0.5"/>
	<ellipse style="opacity:0.17;fill:#A02821;enable-background:new    ;" cx="117.7" cy="563.3" rx="0.8" ry="0.6"/>
	<circle style="fill:#A02821;" cx="-81.4" cy="598" r="0.7"/>
	<circle style="opacity:0.17;fill:#A02821;enable-background:new    ;" cx="-81.4" cy="598" r="0.8"/>
	<circle style="fill:#A02821;" cx="597.2" cy="196.2" r="0.7"/>
	<circle style="opacity:0.17;fill:#A02821;enable-background:new    ;" cx="597.2" cy="196.2" r="0.8"/>
	<circle style="fill:#4A64AE;" cx="181.3" cy="679.3" r="2.5"/>
	<circle style="opacity:0.17;fill:#4A64AE;enable-background:new    ;" cx="181.2" cy="679.3" r="2.7"/>
	<circle style="fill:#4A64AE;" cx="200.6" cy="692" r="2.5"/>
	<circle style="opacity:0.17;fill:#4A64AE;enable-background:new    ;" cx="200.6" cy="692" r="2.7"/>
	<circle style="fill:#4A64AE;" cx="547.6" cy="689.4" r="2.5"/>
	<circle style="opacity:0.17;fill:#4A64AE;enable-background:new    ;" cx="547.6" cy="689.5" r="2.7"/>
	<circle style="fill:#4A64AE;" cx="562.6" cy="704" r="2.5"/>
	<circle style="opacity:0.17;fill:#4A64AE;enable-background:new    ;" cx="562.6" cy="704" r="2.7"/>
	<circle style="fill:#F9ED32;" cx="73.3" cy="128" r="3.5"/>
	<circle style="opacity:0.17;fill:#F9ED32;enable-background:new    ;" cx="73.3" cy="128" r="3.7"/>
	<circle style="fill:#F9ED32;" cx="89.9" cy="145" r="3.5"/>
	<circle style="opacity:0.17;fill:#F9ED32;enable-background:new    ;" cx="89.9" cy="145" r="3.7"/>
	<circle style="fill:#F9ED32;" cx="335.2" cy="509.4" r="2.5"/>
	<circle style="opacity:0.17;fill:#F9ED32;enable-background:new    ;" cx="335.2" cy="509.4" r="2.6"/>
	<circle style="fill:#F9ED32;" cx="398.3" cy="598" r="3.5"/>
	<circle style="opacity:0.17;fill:#F9ED32;enable-background:new    ;" cx="398.2" cy="598" r="3.7"/>
	<circle style="fill:#F9ED32;" cx="67.4" cy="676.4" r="3.5"/>
	<circle style="opacity:0.17;fill:#F9ED32;enable-background:new    ;" cx="210.3" cy="383" r="3.7"/>
	<circle style="fill:#F9ED32;" cx="593.1" cy="264.1" r="2.6"/>
	<circle style="opacity:0.17;fill:#F9ED32;enable-background:new    ;" cx="593.1" cy="264.1" r="2.7"/>
	<circle style="fill:#F9ED32;" cx="657.3" cy="508.3" r="3.5"/>
	<circle style="opacity:0.17;fill:#F9ED32;enable-background:new    ;" cx="657.2" cy="508.3" r="3.7"/>
	<circle style="fill:#F9ED32;" cx="664" cy="525.5" r="2.3"/>
	<circle style="opacity:0.17;fill:#F9ED32;enable-background:new    ;" cx="664" cy="525.5" r="2.5"/>
	<line style="fill:none;" x1="63.3" y1="352" x2="63.3" y2="350.5"/>
	<path d="M62,350.7"/>
</g>
<g id="Layer_3" style="display:none;">
	<g style="display:inline;">
		<path style="fill:#B5E3EE;" d="M-11.3,369.5L-11.3,369.5c-0.3,0-0.6-0.1-0.8-0.4l-17.3-22.3c-0.2-0.3-0.3-0.7-0.1-1.1
			c0.2-0.3,0.5-0.6,0.9-0.6h11.1v-29.6c0-0.6,0.4-1,1-1h11.6c0.6,0,1,0.4,1,1v29.6H7.2c0.4,0,0.7,0.2,0.9,0.6
			c0.2,0.4,0.1,0.8-0.1,1.1l-18.5,22.3C-10.7,369.4-11,369.5-11.3,369.5z M-26.5,347.2l15.2,19.7L5,347.2h-9.9c-0.6,0-1-0.4-1-1
			v-29.6h-9.6v29.6c0,0.6-0.4,1-1,1H-26.5z"/>
		<path style="opacity:0.27;fill:#B5E3EE;enable-background:new    ;" d="M-11.3,370.2C-11.3,370.2-11.4,370.2-11.3,370.2
			c-0.5,0-0.9-0.2-1.2-0.6l-17.8-22.4c-0.4-0.5-0.4-1.1-0.2-1.6c0.3-0.5,0.8-0.8,1.4-0.8h10.9v-29.2c0-0.8,0.7-1.5,1.5-1.5h12
			c0.8,0,1.5,0.7,1.5,1.5v29.2H7.7c0.6,0,1.1,0.3,1.4,0.9c0.2,0.5,0.2,1.2-0.2,1.6l-19,22.4C-10.5,370-10.9,370.2-11.3,370.2z
			 M-26,347.8l14.7,18.5l15.7-18.5h-9.2c-0.8,0-1.5-0.7-1.5-1.5v-29.2h-9v29.2c0,0.8-0.7,1.5-1.5,1.5H-26z"/>
	</g>
	<path style="display:inline;fill:#B5E3EE;" d="M109.8,264.1c-0.4,0-0.8-0.1-1.1-0.3c-0.8-0.4-1.3-1.2-1.3-2.1v-3.9
		c0-0.2-0.2-0.4-0.4-0.4H87c-1.3,0-2.4-1.1-2.4-2.4v-4.8c0-1.3,1.1-2.4,2.4-2.4h20c0.2,0,0.4-0.2,0.4-0.4v-3.8
		c0-0.9,0.5-1.7,1.3-2.1c0.8-0.4,1.7-0.3,2.5,0.2L124,251c0.6,0.5,1,1.2,1,2s-0.4,1.5-1,2l-12.8,8.7
		C110.8,264,110.3,264.1,109.8,264.1z M87.1,249.8c-0.2,0-0.4,0.2-0.4,0.4v4.8c0,0.2,0.2,0.4,0.4,0.4h20c1.3,0,2.4,1.1,2.4,2.4v3.9
		c0,0.2,0.1,0.3,0.2,0.4c0.1,0,0.2,0.1,0.4,0l12.8-8.7c0.1-0.1,0.2-0.3,0.2-0.3c0-0.1,0-0.2-0.2-0.3l-12.8-9.3
		c-0.1-0.1-0.3-0.1-0.4,0c-0.1,0-0.2,0.1-0.2,0.4v3.8c0,1.3-1.1,2.4-2.4,2.4h-20V249.8z"/>
	<path style="display:inline;opacity:0.27;fill:#B5E3EE;enable-background:new    ;" d="M109.9,264.9c-0.4,0-0.9-0.1-1.3-0.3
		c-1-0.5-1.6-1.5-1.6-2.6v-4H87.1c-1.6,0-2.9-1.3-2.9-2.9v-5c0-1.6,1.3-2.9,2.9-2.9H107v-3.9c0-1.1,0.6-2.1,1.6-2.6s2.1-0.4,3,0.3
		l12.9,9.7c0.7,0.6,1.2,1.4,1.2,2.4s-0.5,1.8-1.2,2.3l-12.9,9C111.1,264.8,110.5,264.9,109.9,264.9z M87.2,255.1h19.9
		c1.6,0,2.9,1.3,2.9,2.9v3.9l12.6-8.8l-12.6-9.4v3.7c0,1.6-1.3,2.9-2.9,2.9H87.2V255.1z"/>
	<path style="display:inline;fill:#B5E3EE;" d="M110.5,446c-0.4,0-0.8-0.1-1.2-0.3c-0.7-0.4-1.2-1.1-1.2-1.9v-3.4
		c0-0.1-0.2-0.2-0.4-0.2h-20c-1.3,0-2.4-1-2.4-2.2v-4.3c0-1.2,1.1-2.2,2.4-2.2h20c0.2,0,0.4-0.1,0.4-0.2V428c0-0.8,0.4-1.5,1.2-1.9
		s1.8-0.4,2.5,0.1l12.8,8.3c0.7,0.4,1,1.1,1,1.9s-0.4,1.4-1.1,1.9l-12.8,7.7C111.4,445.9,111,446,110.5,446z M87.8,433.3
		c-0.2,0-0.4,0.1-0.4,0.2v4.3c0,0.1,0.2,0.2,0.4,0.2h20c1.3,0,2.4,1,2.4,2.2v3.4c0,0.1,0.1,0.1,0.1,0.2c0.1,0.1,0.3,0.1,0.5,0
		l12.8-7.7c0.1,0,0.1-0.1,0.1-0.2s-0.1-0.1-0.1-0.2l-12.8-8.3c-0.2-0.1-0.4-0.1-0.5,0c-0.1,0-0.1,0.1-0.1,0.2v3.3
		c0,1.2-1.1,2.2-2.4,2.2h-20V433.3z"/>
	<path style="display:inline;opacity:0.27;fill:#B5E3EE;enable-background:new    ;" d="M110.6,446.8c-0.5,0-1-0.1-1.5-0.4
		c-0.9-0.5-1.4-1.4-1.4-2.4v-3.3H87.8c-1.6,0-2.9-1.2-2.9-2.7v-4.5c0-1.5,1.3-2.7,2.9-2.7h19.9v-3.2c0-1,0.5-1.9,1.5-2.4
		s2.1-0.5,3.1,0.1l12.9,8.5c0.8,0.5,1.2,1.4,1.2,2.3s-0.5,1.8-1.3,2.3l-12.9,8C111.7,446.6,111.2,446.8,110.6,446.8z M87.9,437.7
		h19.9c1.6,0,2.9,1.2,2.9,2.7v3.3L123,436l-12.3-8.2v3.2c0,1.5-1.3,2.7-2.9,2.7H87.9V437.7z"/>
	<path style="display:inline;fill:#B5E3EE;" d="M214.8,446.3c-0.4,0-0.8-0.1-1.2-0.3c-0.7-0.4-1.2-1.1-1.2-1.9v-3.4
		c0-0.1-0.2-0.2-0.4-0.2h-20c-1.3,0-2.4-1-2.4-2.2v-4.4c0-1.2,1.1-2.2,2.4-2.2h20c0.2,0,0.4-0.1,0.4-0.2v-3.3c0-0.8,0.4-1.5,1.2-1.9
		c0.8-0.4,1.8-0.4,2.5,0.1l12.8,8.3c0.7,0.4,1,1.1,1,1.9s-0.4,1.4-1.1,1.9l-12.8,7.7C215.7,446.2,215.2,446.3,214.8,446.3z
		 M192.1,433.7c-0.2,0-0.4,0.1-0.4,0.2v4.3c0,0.1,0.2,0.2,0.4,0.2h20c1.3,0,2.4,1,2.4,2.2v3.4c0,0.1,0.1,0.1,0.1,0.2
		c0.1,0.1,0.3,0.1,0.5,0l12.8-7.7c0.1,0,0.1-0.1,0.1-0.2s-0.1-0.1-0.1-0.2l-12.9-8.2c-0.2-0.1-0.4-0.1-0.5,0c-0.1,0-0.1,0.1-0.1,0.2
		v3.3c0,1.2-1.1,2.2-2.4,2.2L192.1,433.7L192.1,433.7z"/>
	<path style="display:inline;opacity:0.27;fill:#B5E3EE;enable-background:new    ;" d="M214.8,447.1c-0.5,0-1-0.1-1.5-0.4
		c-0.9-0.5-1.4-1.4-1.4-2.4V441H192c-1.6,0-2.9-1.2-2.9-2.7v-4.5c0-1.5,1.3-2.7,2.9-2.7h20v-3.2c0-1,0.5-1.9,1.5-2.4
		s2.1-0.5,3.1,0.1l12.9,8.5c0.8,0.5,1.2,1.4,1.2,2.3s-0.5,1.8-1.3,2.3l-12.9,8C215.9,447,215.4,447.1,214.8,447.1z M192.2,438h19.9
		c1.6,0,2.9,1.2,2.9,2.7v3.3l12.3-7.7l-12.3-8.2v3.2c0,1.5-1.3,2.7-2.9,2.7h-19.9V438z"/>
	<path style="display:inline;fill:#B5E3EE;" d="M214.8,575c-0.4,0-0.8-0.1-1.2-0.3c-0.7-0.4-1.2-1.1-1.2-2v-3.5
		c0-0.1-0.2-0.3-0.4-0.3h-20c-1.3,0-2.4-1-2.4-2.3v-4.4c0-1.3,1.1-2.3,2.4-2.3h20c0.2,0,0.4-0.1,0.4-0.3v-3.4c0-0.8,0.5-1.6,1.2-2
		c0.8-0.4,1.8-0.4,2.5,0.1l12.8,8.5c0.7,0.4,1,1.1,1,1.9s-0.4,1.5-1.1,1.9l-12.8,8C215.7,574.8,215.2,575,214.8,575z M192.1,561.9
		c-0.2,0-0.4,0.1-0.4,0.3v4.4c0,0.2,0.2,0.3,0.4,0.3h20c1.3,0,2.4,1,2.4,2.3v3.5c0,0.1,0.1,0.2,0.2,0.2c0.1,0.1,0.3,0.1,0.5,0
		l12.8-8c0.1-0.1,0.1-0.2,0.1-0.2c0-0.1,0-0.1-0.1-0.2l-12.8-8.5c-0.2-0.1-0.3-0.1-0.5,0c-0.1,0-0.2,0.1-0.2,0.2v3.4
		c0,1.3-1.1,2.3-2.4,2.3L192.1,561.9L192.1,561.9z"/>
	<path style="display:inline;opacity:0.27;fill:#B5E3EE;enable-background:new    ;" d="M214.8,575.8c-0.5,0-1-0.1-1.4-0.4
		c-0.9-0.5-1.5-1.4-1.5-2.4v-3.5H192c-1.6,0-2.9-1.2-2.9-2.8v-4.6c0-1.5,1.3-2.8,2.9-2.8h20v-3.4c0-1,0.6-2,1.5-2.4
		c1-0.5,2.1-0.4,3,0.2l12.9,8.8c0.8,0.5,1.2,1.4,1.2,2.3c0,0.9-0.5,1.8-1.3,2.3l-12.9,8.2C216,575.6,215.4,575.8,214.8,575.8z
		 M192.2,566.5h19.9c1.6,0,2.9,1.2,2.9,2.8v3.4l12.4-8l-12.4-8.5v3.3c0,1.5-1.3,2.8-2.9,2.8h-19.9V566.5z M192.1,566.5v1.5V566.5
		L192.1,566.5z"/>
	<path style="display:inline;fill:#B5E3EE;" d="M110.3,574.1c-0.4,0-0.8-0.1-1.2-0.3c-0.7-0.4-1.2-1.2-1.2-2v-3.5
		c0-0.1-0.2-0.3-0.4-0.3h-20c-1.3,0-2.4-1-2.4-2.3v-4.4c0-1.3,1.1-2.3,2.4-2.3h20c0.2,0,0.4-0.1,0.4-0.3v-3.4c0-0.8,0.5-1.6,1.2-2
		c0.8-0.4,1.8-0.4,2.5,0.1l12.8,8.5c0.6,0.4,1,1.1,1,1.9s-0.4,1.5-1.1,1.9l-12.8,8C111.2,574,110.7,574.1,110.3,574.1z M87.6,561.1
		c-0.2,0-0.4,0.1-0.4,0.3v4.4c0,0.1,0.2,0.3,0.4,0.3h20c1.3,0,2.4,1,2.4,2.3v3.5c0,0.1,0.1,0.2,0.2,0.2c0.1,0.1,0.3,0.1,0.5,0
		l12.8-8c0.1-0.1,0.1-0.2,0.1-0.2c0-0.1,0-0.1-0.1-0.2l-12.8-8.5c-0.2-0.1-0.3-0.1-0.5,0c-0.1,0-0.2,0.1-0.2,0.2v3.4
		c0,1.3-1.1,2.3-2.4,2.3L87.6,561.1L87.6,561.1z"/>
	<path style="display:inline;opacity:0.27;fill:#B5E3EE;enable-background:new    ;" d="M110.4,574.9c-0.5,0-1-0.1-1.4-0.4
		c-0.9-0.5-1.5-1.4-1.5-2.4v-3.5H87.6c-1.6,0-2.9-1.2-2.9-2.8v-4.6c0-1.5,1.3-2.8,2.9-2.8h19.9V555c0-1,0.6-2,1.5-2.4
		c1-0.5,2.1-0.4,3,0.2l12.9,8.8c0.8,0.5,1.2,1.4,1.2,2.3c0,0.9-0.5,1.8-1.3,2.3l-12.9,8.2C111.5,574.8,110.9,574.9,110.4,574.9z
		 M87.7,565.7h19.9c1.6,0,2.9,1.2,2.9,2.8v3.4l12.4-8l-12.4-8.5v3.3c0,1.5-1.3,2.8-2.9,2.8H87.7V565.7z M87.6,565.7v1.5V565.7
		L87.6,565.7z"/>
	<path style="display:inline;fill:#B5E3EE;" d="M214.9,264.7c-0.4,0-0.8-0.1-1.1-0.3c-0.8-0.4-1.3-1.2-1.3-2.1v-3.9
		c0-0.2-0.2-0.4-0.4-0.4h-20c-1.3,0-2.4-1.1-2.4-2.4v-4.8c0-1.3,1.1-2.4,2.4-2.4h20c0.2,0,0.4-0.2,0.4-0.4v-3.8
		c0-0.9,0.5-1.7,1.3-2.2c0.8-0.4,1.7-0.3,2.5,0.2l12.8,9.3c0.6,0.5,1,1.2,1,2s-0.4,1.5-1,2l-12.8,8.7
		C215.8,264.6,215.4,264.7,214.9,264.7z M192.2,250.4c-0.2,0-0.4,0.2-0.4,0.4v4.8c0,0.2,0.2,0.4,0.4,0.4h20c1.3,0,2.4,1.1,2.4,2.4
		v3.9c0,0.2,0.1,0.3,0.2,0.4c0.1,0,0.2,0.1,0.4,0L228,254c0.1-0.1,0.2-0.3,0.2-0.3c0-0.1,0-0.2-0.2-0.3l-12.8-9.3
		c-0.1-0.1-0.3-0.1-0.4,0c-0.1,0-0.2,0.1-0.2,0.4v3.8c0,1.3-1.1,2.4-2.4,2.4h-20V250.4z"/>
	<path style="display:inline;opacity:0.27;fill:#B5E3EE;enable-background:new    ;" d="M215,265.6c-0.4,0-0.9-0.1-1.3-0.3
		c-1-0.5-1.6-1.5-1.6-2.6v-4h-19.9c-1.6,0-2.9-1.3-2.9-2.9v-5c0-1.6,1.3-2.9,2.9-2.9h19.9V244c0-1.1,0.6-2.1,1.6-2.6s2.1-0.4,3,0.3
		l12.9,9.7c0.7,0.6,1.2,1.4,1.2,2.4c0,0.9-0.5,1.8-1.2,2.3l-12.9,9C216.1,265.4,215.5,265.6,215,265.6z M192.3,255.7h19.9
		c1.6,0,2.9,1.3,2.9,2.9v3.9l12.6-8.8l-12.6-9.4v3.7c0,1.6-1.3,2.9-2.9,2.9h-19.9V255.7z"/>
	<path style="display:inline;fill:#B5E3EE;" d="M315.8,264.7c-0.4,0-0.8-0.1-1.1-0.3c-0.8-0.4-1.3-1.2-1.3-2.1v-3.9
		c0-0.2-0.2-0.4-0.4-0.4h-20c-1.3,0-2.4-1.1-2.4-2.4v-4.8c0-1.3,1.1-2.4,2.4-2.4h20c0.2,0,0.4-0.2,0.4-0.4v-3.8
		c0-0.9,0.5-1.7,1.3-2.2c0.8-0.4,1.7-0.3,2.5,0.2l12.8,9.3c0.6,0.5,1,1.2,1,2s-0.4,1.5-1,2l-12.8,8.7
		C316.7,264.6,316.3,264.7,315.8,264.7z M293.1,250.4c-0.2,0-0.4,0.2-0.4,0.4v4.8c0,0.2,0.2,0.4,0.4,0.4h20c1.3,0,2.4,1.1,2.4,2.4
		v3.9c0,0.2,0.1,0.3,0.2,0.4c0.1,0,0.2,0.1,0.4,0l12.8-8.7c0.1-0.1,0.2-0.3,0.2-0.3c0-0.1,0-0.2-0.2-0.3l-12.9-9.5
		c-0.1-0.1-0.3-0.1-0.4,0c-0.1,0-0.2,0.1-0.2,0.4v3.8c0,1.3-1.1,2.4-2.4,2.4L293.1,250.4L293.1,250.4z"/>
	<path style="display:inline;opacity:0.27;fill:#B5E3EE;enable-background:new    ;" d="M315.9,265.6c-0.4,0-0.9-0.1-1.3-0.3
		c-1-0.5-1.6-1.5-1.6-2.6v-4h-19.9c-1.6,0-2.9-1.3-2.9-2.9v-5c0-1.6,1.3-2.9,2.9-2.9H313V244c0-1.1,0.6-2.1,1.6-2.6s2.1-0.4,3,0.3
		l12.9,9.7c0.7,0.6,1.2,1.4,1.2,2.4c0,0.9-0.5,1.8-1.2,2.3l-12.9,9C317,265.4,316.5,265.6,315.9,265.6z M293.2,255.7h19.9
		c1.6,0,2.9,1.3,2.9,2.9v3.9l12.6-8.8l-12.6-9.4v3.7c0,1.6-1.3,2.9-2.9,2.9h-19.9V255.7z"/>
	<path style="display:inline;fill:#B5E3EE;" d="M417,221.3c-0.4,0-0.8-0.1-1.1-0.3c-0.8-0.4-1.2-1.2-1.2-2.1v-3.7
		c0-0.2-0.2-0.3-0.4-0.3h-20c-1.3,0-2.4-1.1-2.4-2.3V208c0-1.3,1.1-2.3,2.4-2.3h20c0.2,0,0.4-0.2,0.4-0.3v-3.6
		c0-0.9,0.5-1.7,1.3-2.1c0.8-0.4,1.8-0.4,2.5,0.2l12.8,8.9c0.6,0.4,1,1.2,1,1.9c0,0.8-0.4,1.5-1.1,1.9l-12.8,8.3
		C417.9,221.2,417.4,221.3,417,221.3z M394.3,207.7c-0.2,0-0.4,0.2-0.4,0.3v4.6c0,0.2,0.2,0.3,0.4,0.3h20c1.3,0,2.4,1.1,2.4,2.3v3.7
		c0,0.2,0.1,0.2,0.2,0.3c0.1,0,0.2,0.1,0.4,0l12.7-8.3c0.1-0.1,0.2-0.2,0.2-0.3c0-0.1,0-0.2-0.1-0.3l-12.8-8.9
		c-0.2-0.1-0.4-0.1-0.4,0c-0.1,0-0.2,0.1-0.2,0.3v3.6c0,1.3-1.1,2.3-2.4,2.3h-20V207.7z"/>
	<path style="display:inline;opacity:0.27;fill:#B5E3EE;enable-background:new    ;" d="M417,222.1c-0.5,0-0.9-0.1-1.4-0.3
		c-0.9-0.5-1.5-1.5-1.5-2.5v-3.7h-19.9c-1.6,0-2.9-1.3-2.9-2.8v-4.9c0-1.6,1.3-2.8,2.9-2.8h19.9v-3.6c0-1.1,0.6-2,1.5-2.5
		c1-0.5,2.1-0.4,3,0.2l12.9,9.2c0.8,0.5,1.2,1.4,1.2,2.3c0,0.9-0.5,1.8-1.3,2.3l-12.9,8.6C418.2,222,417.6,222.1,417,222.1z
		 M394.4,212.6h19.9c1.6,0,2.9,1.3,2.9,2.8v3.7l12.5-8.4l-12.5-8.9v3.5c0,1.6-1.3,2.8-2.9,2.8h-19.9V212.6z M429.9,210.6
		L429.9,210.6L429.9,210.6z"/>
	<path style="display:inline;fill:#B5E3EE;" d="M417.8,308c-0.4,0-0.8-0.1-1.2-0.3c-0.8-0.4-1.2-1.2-1.2-2V302
		c0-0.2-0.2-0.3-0.4-0.3h-20c-1.3,0-2.4-1-2.4-2.3v-4.6c0-1.3,1.1-2.3,2.4-2.3h20c0.2,0,0.4-0.1,0.4-0.3v-3.6c0-0.9,0.5-1.7,1.3-2.1
		s1.8-0.4,2.5,0.2l12.8,8.9c0.6,0.4,1,1.2,1,1.9c0,0.8-0.4,1.5-1.1,1.9l-12.8,8.3C418.7,307.8,418.3,308,417.8,308z M395.1,294.4
		c-0.2,0-0.4,0.1-0.4,0.3v4.6c0,0.2,0.2,0.3,0.4,0.3h20c1.3,0,2.4,1,2.4,2.3v3.7c0,0.2,0.1,0.2,0.2,0.3c0.1,0,0.2,0.1,0.4,0
		l12.8-8.3c0.1-0.1,0.2-0.2,0.2-0.3s0-0.2-0.1-0.3l-12.8-8.9c-0.2-0.1-0.4-0.1-0.4,0c-0.1,0-0.2,0.1-0.2,0.3v3.6
		c0,1.3-1.1,2.3-2.4,2.3L395.1,294.4L395.1,294.4z"/>
	<path style="display:inline;opacity:0.27;fill:#B5E3EE;enable-background:new    ;" d="M417.9,308.8c-0.5,0-0.9-0.1-1.4-0.3
		c-0.9-0.5-1.5-1.4-1.5-2.5v-3.7h-19.9c-1.6,0-2.9-1.3-2.9-2.8v-4.8c0-1.6,1.3-2.8,2.9-2.8H415v-3.6c0-1.1,0.6-2,1.5-2.5
		c1-0.5,2.1-0.4,3,0.2l12.9,9.2c0.8,0.5,1.2,1.4,1.2,2.3c0,0.9-0.5,1.8-1.3,2.3l-12.9,8.5C419,308.6,418.4,308.8,417.9,308.8z
		 M395.2,299.3h19.9c1.6,0,2.9,1.3,2.9,2.8v3.6l12.5-8.3l-12.5-8.9v3.5c0,1.6-1.3,2.8-2.9,2.8h-19.9L395.2,299.3L395.2,299.3z
		 M430.7,297.3L430.7,297.3L430.7,297.3z"/>
	<path style="display:inline;fill:#B5E3EE;" d="M519.3,222.2c-0.4,0-0.8-0.1-1.1-0.3c-0.8-0.4-1.2-1.2-1.2-2.1v-3.7
		c0-0.2-0.2-0.3-0.4-0.3h-20c-1.3,0-2.4-1.1-2.4-2.3v-4.6c0-1.3,1.1-2.3,2.4-2.3h20c0.2,0,0.4-0.2,0.4-0.3v-3.6
		c0-0.9,0.5-1.7,1.3-2.1c0.8-0.4,1.8-0.4,2.5,0.2l12.8,8.9c0.6,0.4,1,1.2,1,1.9c0,0.8-0.4,1.5-1.1,1.9l-12.8,8.3
		C520.2,222.1,519.7,222.2,519.3,222.2z M496.5,208.6c-0.2,0-0.4,0.2-0.4,0.3v4.6c0,0.2,0.2,0.3,0.4,0.3h20c1.3,0,2.4,1.1,2.4,2.3
		v3.7c0,0.2,0.1,0.2,0.2,0.3c0.1,0,0.2,0.1,0.4,0l12.8-8.3c0.1-0.1,0.2-0.2,0.2-0.3s0-0.2-0.1-0.3l-12.8-8.9c-0.2-0.1-0.4-0.1-0.4,0
		c-0.1,0-0.2,0.1-0.2,0.3v3.6c0,1.3-1.1,2.3-2.4,2.3L496.5,208.6L496.5,208.6z"/>
	<path style="display:inline;opacity:0.27;fill:#B5E3EE;enable-background:new    ;" d="M519.3,223c-0.5,0-0.9-0.1-1.4-0.3
		c-0.9-0.5-1.5-1.5-1.5-2.5v-3.7h-19.9c-1.6,0-2.9-1.3-2.9-2.8v-4.8c0-1.6,1.3-2.8,2.9-2.8h19.9v-3.6c0-1.1,0.6-2,1.5-2.5
		c1-0.5,2.1-0.4,3,0.2l12.9,9.2c0.8,0.5,1.2,1.4,1.2,2.3c0,0.9-0.5,1.8-1.3,2.3l-12.9,8.6C520.4,222.8,519.9,223,519.3,223z
		 M496.7,213.5h19.9c1.6,0,2.9,1.3,2.9,2.8v3.7l12.5-8.4l-12.5-8.9v3.5c0,1.6-1.3,2.8-2.9,2.8h-19.9V213.5z M532.1,211.4
		L532.1,211.4L532.1,211.4z"/>
	<path style="display:inline;fill:#B5E3EE;" d="M520,308.3c-0.4,0-0.8-0.1-1.2-0.3c-0.8-0.4-1.2-1.2-1.2-2v-3.7
		c0-0.2-0.2-0.3-0.4-0.3h-20c-1.3,0-2.4-1-2.4-2.3v-4.6c0-1.3,1.1-2.3,2.4-2.3h20c0.2,0,0.4-0.1,0.4-0.3v-3.6c0-0.9,0.5-1.7,1.3-2.1
		s1.8-0.4,2.5,0.2l12.8,8.9c0.6,0.4,1,1.2,1,1.9c0,0.8-0.4,1.5-1.1,1.9l-12.8,8.3C521,308.2,520.5,308.3,520,308.3z M497.3,294.8
		c-0.2,0-0.4,0.1-0.4,0.3v4.6c0,0.2,0.2,0.3,0.4,0.3h20c1.3,0,2.4,1,2.4,2.3v3.7c0,0.2,0.1,0.2,0.2,0.3c0.1,0,0.2,0.1,0.4,0
		l12.8-8.3c0.1-0.1,0.2-0.2,0.2-0.3s0-0.2-0.1-0.3l-12.8-8.9c-0.2-0.1-0.4-0.1-0.4,0c-0.1,0-0.2,0.1-0.2,0.3v3.6
		c0,1.3-1.1,2.3-2.4,2.3L497.3,294.8L497.3,294.8z"/>
	<path style="display:inline;opacity:0.27;fill:#B5E3EE;enable-background:new    ;" d="M520.1,309.1c-0.5,0-0.9-0.1-1.4-0.3
		c-0.9-0.5-1.5-1.4-1.5-2.5v-3.7h-19.9c-1.6,0-2.9-1.3-2.9-2.8V295c0-1.6,1.3-2.8,2.9-2.8h19.9v-3.6c0-1.1,0.6-2,1.5-2.5
		c1-0.5,2.1-0.4,3,0.2l12.9,9.2c0.8,0.5,1.2,1.4,1.2,2.3s-0.5,1.8-1.3,2.3l-12.9,8.5C521.2,309,520.7,309.1,520.1,309.1z
		 M497.5,299.6h19.9c1.6,0,2.9,1.3,2.9,2.8v3.6l12.5-8.3l-12.5-8.9v3.5c0,1.6-1.3,2.8-2.9,2.8h-19.9V299.6z M532.9,297.6
		L532.9,297.6L532.9,297.6z"/>
	<path style="display:inline;fill:none;stroke:#B5E3EE;stroke-width:3;stroke-linejoin:round;stroke-miterlimit:10;" d="M1.1,313.9"
		/>
	<path style="display:inline;fill:#B5E3EE;" d="M621.8,222.8c-0.4,0-0.8-0.1-1.1-0.3c-0.8-0.4-1.2-1.2-1.2-2.1v-3.7
		c0-0.2-0.2-0.3-0.4-0.3h-20c-1.3,0-2.4-1.1-2.4-2.3v-4.6c0-1.3,1.1-2.3,2.4-2.3h20c0.2,0,0.4-0.2,0.4-0.3v-3.6
		c0-0.9,0.5-1.7,1.3-2.1c0.8-0.4,1.8-0.4,2.5,0.2l12.8,8.9c0.6,0.4,1,1.2,1,1.9c0,0.8-0.4,1.5-1.1,1.9l-12.8,8.3
		C622.7,222.6,622.2,222.8,621.8,222.8z M599.1,209.1c-0.2,0-0.4,0.2-0.4,0.3v4.6c0,0.2,0.2,0.3,0.4,0.3h20c1.3,0,2.4,1.1,2.4,2.3
		v3.7c0,0.2,0.1,0.2,0.2,0.3c0.1,0,0.2,0.1,0.4,0l12.8-8.3c0.1-0.1,0.2-0.2,0.2-0.3s0-0.2-0.1-0.3l-13-8.8c-0.2-0.1-0.4-0.1-0.4,0
		c-0.1,0-0.2,0.1-0.2,0.3v3.6c0,1.3-1.1,2.3-2.4,2.3C619,209.1,599.1,209.1,599.1,209.1z"/>
	<path style="display:inline;opacity:0.27;fill:#B5E3EE;enable-background:new    ;" d="M621.9,223.6c-0.5,0-0.9-0.1-1.4-0.3
		c-0.9-0.5-1.5-1.5-1.5-2.5v-3.7h-19.9c-1.6,0-2.9-1.3-2.9-2.8v-4.8c0-1.6,1.3-2.8,2.9-2.8H619v-3.8c0-1.1,0.6-2,1.5-2.5
		c1-0.5,2.1-0.4,3,0.2l12.9,9.2c0.8,0.5,1.2,1.4,1.2,2.3c0,0.9-0.5,1.8-1.3,2.3l-12.9,8.6C623,223.4,622.4,223.6,621.9,223.6z
		 M599.2,214h19.9c1.6,0,2.9,1.3,2.9,2.8v3.7l12.5-8.4l-12.5-8.9v3.5c0,1.6-1.3,2.8-2.9,2.8h-19.9V214z M634.7,212L634.7,212
		L634.7,212z"/>
	<path style="display:inline;fill:#B5E3EE;" d="M622.5,308.5c-0.4,0-0.8-0.1-1.2-0.3c-0.8-0.4-1.2-1.2-1.2-2v-3.7
		c0-0.2-0.2-0.3-0.4-0.3h-20c-1.3,0-2.4-1-2.4-2.3v-4.6c0-1.3,1.1-2.3,2.4-2.3h20c0.2,0,0.4-0.1,0.4-0.3v-3.6c0-0.9,0.5-1.7,1.3-2.1
		s1.8-0.4,2.5,0.2l12.8,8.9c0.6,0.4,1,1.2,1,1.9c0,0.8-0.4,1.5-1.1,1.9l-12.8,8.3C623.4,308.4,623,308.5,622.5,308.5z M599.8,294.9
		c-0.2,0-0.4,0.1-0.4,0.3v4.6c0,0.2,0.2,0.3,0.4,0.3h20c1.3,0,2.4,1,2.4,2.3v3.7c0,0.2,0.1,0.2,0.2,0.3c0.1,0,0.2,0.1,0.4,0
		l12.8-8.3c0.1-0.1,0.2-0.2,0.2-0.3s0-0.2-0.1-0.3l-12.8-8.9c-0.2-0.1-0.4-0.1-0.4,0c-0.1,0-0.2,0.1-0.2,0.3v3.6
		c0,1.3-1.1,2.3-2.4,2.3L599.8,294.9L599.8,294.9z"/>
	<path style="display:inline;opacity:0.27;fill:#B5E3EE;enable-background:new    ;" d="M622.6,309.3c-0.5,0-0.9-0.1-1.4-0.3
		c-0.9-0.5-1.5-1.4-1.5-2.5v-3.7h-19.9c-1.6,0-2.9-1.3-2.9-2.8v-4.8c0-1.6,1.3-2.8,2.9-2.8h19.9v-3.6c0-1.1,0.6-2,1.5-2.5
		c1-0.5,2.1-0.4,3,0.2l12.9,9.2c0.8,0.5,1.2,1.4,1.2,2.3c0,0.9-0.5,1.8-1.3,2.3l-12.9,8.5C623.7,309.1,623.2,309.3,622.6,309.3z
		 M599.9,299.8h19.9c1.6,0,2.9,1.3,2.9,2.8v3.6l12.5-8.3l-12.5-8.9v3.5c0,1.6-1.3,2.8-2.9,2.8h-19.9V299.8z M635.4,297.8
		L635.4,297.8L635.4,297.8z"/>
	<path style="display:inline;fill:#B5E3EE;" d="M318.1,399.7c-0.4,0-0.8-0.1-1.2-0.3c-0.7-0.4-1.2-1.1-1.2-1.9v-3.4
		c0-0.1-0.2-0.2-0.4-0.2h-20c-1.3,0-2.4-1-2.4-2.2v-4.3c0-1.2,1.1-2.2,2.4-2.2h20c0.2,0,0.4-0.1,0.4-0.2v-3.3c0-0.8,0.4-1.5,1.2-1.9
		c0.8-0.4,1.8-0.4,2.5,0.1l12.8,8.3c0.7,0.4,1,1.1,1,1.9s-0.4,1.4-1.1,1.9l-12.8,7.7C319,399.6,318.5,399.7,318.1,399.7z
		 M295.4,387.1c-0.2,0-0.4,0.1-0.4,0.2v4.3c0,0.1,0.2,0.2,0.4,0.2h20c1.3,0,2.4,1,2.4,2.2v3.4c0,0.1,0.1,0.1,0.1,0.2
		c0.1,0.1,0.3,0.1,0.5,0l12.8-7.7c0.1,0,0.1-0.1,0.1-0.2s-0.1-0.1-0.1-0.2l-12.8-8.3c-0.2-0.1-0.4-0.1-0.5,0c-0.1,0-0.1,0.1-0.1,0.2
		v3.3c0,1.2-1.1,2.2-2.4,2.2h-20V387.1z"/>
	<path style="display:inline;opacity:0.27;fill:#B5E3EE;enable-background:new    ;" d="M318.2,400.5c-0.5,0-1-0.1-1.5-0.4
		c-0.9-0.5-1.4-1.4-1.4-2.4v-3.3h-19.9c-1.6,0-2.9-1.2-2.9-2.7v-4.5c0-1.5,1.3-2.7,2.9-2.7h19.9v-3.2c0-1,0.5-1.9,1.5-2.4
		s2.1-0.5,3.1,0.1l12.9,8.5c0.8,0.5,1.2,1.4,1.2,2.3s-0.5,1.8-1.3,2.3l-12.9,8C319.2,400.3,318.7,400.5,318.2,400.5z M295.5,391.4
		h19.9c1.6,0,2.9,1.2,2.9,2.7v3.3l12.3-7.7l-12.3-8.2v3.2c0,1.5-1.3,2.7-2.9,2.7h-19.9V391.4z"/>
	<path style="display:inline;fill:#B5E3EE;" d="M316.7,512.7c-0.4,0-0.9-0.1-1.2-0.3c-0.7-0.4-1.1-1.1-1.1-1.9v-3.4
		c0-0.1-0.1-0.2-0.4-0.2h-20c-1.3,0-2.4-1-2.4-2.2v-4.2c0-1.2,1.1-2.2,2.4-2.2h20c0.2,0,0.4-0.1,0.4-0.2v-3.3c0-0.8,0.4-1.5,1.2-1.9
		c0.8-0.4,1.8-0.4,2.5,0.1l12.8,8.2c0.7,0.4,1,1.1,1,1.9s-0.4,1.4-1.1,1.8l-12.8,7.6C317.5,512.6,317.1,512.7,316.7,512.7z
		 M293.9,500.2c-0.2,0-0.4,0.1-0.4,0.2v4.2c0,0.1,0.1,0.2,0.4,0.2h20c1.3,0,2.4,1,2.4,2.2v3.4c0,0.1,0.1,0.1,0.1,0.2
		c0.1,0.1,0.3,0.1,0.5,0l12.8-7.6c0.1,0,0.1-0.1,0.1-0.2s-0.1-0.1-0.1-0.2l-12.8-8.2c-0.2-0.1-0.4-0.1-0.5,0c-0.1,0-0.1,0.1-0.1,0.2
		v3.3c0,1.2-1.1,2.2-2.4,2.2L293.9,500.2L293.9,500.2z"/>
	<path style="display:inline;opacity:0.27;fill:#B5E3EE;enable-background:new    ;" d="M316.7,513.5c-0.5,0-1-0.1-1.5-0.4
		c-0.9-0.5-1.4-1.4-1.4-2.3v-3.3h-19.9c-1.6,0-2.9-1.2-2.9-2.7v-4.4c0-1.5,1.3-2.7,2.9-2.7h19.9v-3.2c0-1,0.5-1.9,1.4-2.4
		c1-0.5,2.1-0.5,3.1,0.1l12.9,8.4c0.8,0.5,1.3,1.4,1.2,2.3c0,0.9-0.5,1.8-1.3,2.3l-12.9,7.9C317.8,513.3,317.3,513.5,316.7,513.5z
		 M294.1,504.5H314c1.6,0,2.9,1.2,2.9,2.7v3.2l12.3-7.6l-12.3-8.1v3.1c0,1.5-1.3,2.7-2.9,2.7h-19.9V504.5z"/>
	<path style="display:inline;fill:#B5E3EE;" d="M420.3,399.8c-0.4,0-0.8-0.1-1.2-0.3c-0.7-0.4-1.2-1.1-1.2-1.9v-3.4
		c0-0.1-0.2-0.2-0.4-0.2h-20c-1.3,0-2.4-1-2.4-2.2v-4.3c0-1.2,1.1-2.2,2.4-2.2h20c0.2,0,0.4-0.1,0.4-0.2v-3.3c0-0.8,0.4-1.5,1.2-1.9
		s1.8-0.4,2.5,0.1l12.8,8.3c0.7,0.4,1,1.1,1,1.9s-0.4,1.4-1.1,1.9l-12.8,7.7C421.2,399.7,420.8,399.8,420.3,399.8z M397.6,387.1
		c-0.2,0-0.4,0.1-0.4,0.2v4.3c0,0.1,0.2,0.2,0.4,0.2h20c1.3,0,2.4,1,2.4,2.2v3.4c0,0.1,0.1,0.1,0.1,0.2c0.1,0.1,0.3,0.1,0.5,0
		l12.8-7.7c0.1,0,0.1-0.1,0.1-0.2s-0.1-0.1-0.1-0.2l-12.8-8.3c-0.2-0.1-0.4-0.1-0.5,0c-0.1,0-0.1,0.1-0.1,0.2v3.3
		c0,1.2-1.1,2.2-2.4,2.2h-20V387.1z"/>
	<path style="display:inline;fill:#B5E3EE;" d="M419.4,473.3c-0.4,0-0.8-0.1-1.2-0.3c-0.7-0.4-1.2-1.1-1.2-2v-3.5
		c0-0.1-0.2-0.3-0.4-0.3h-20c-1.3,0-2.4-1-2.4-2.3v-4.3c0-1.2,1.1-2.3,2.4-2.3h20c0.2,0,0.4-0.1,0.4-0.3v-3.4c0-0.8,0.5-1.6,1.2-2
		c0.8-0.4,1.8-0.4,2.5,0.1l12.8,8.4c0.7,0.4,1,1.1,1,1.9s-0.4,1.5-1.1,1.9l-12.8,7.9C420.3,473.2,419.9,473.3,419.4,473.3z
		 M396.7,460.4c-0.2,0-0.4,0.1-0.4,0.3v4.3c0,0.1,0.2,0.3,0.4,0.3h20c1.3,0,2.4,1,2.4,2.3v3.5c0,0.1,0.1,0.2,0.1,0.2
		c0.1,0.1,0.3,0.1,0.5,0l12.8-7.9c0.1-0.1,0.1-0.1,0.1-0.2s0-0.1-0.1-0.2l-12.8-8.4c-0.2-0.1-0.4-0.1-0.5,0c-0.1,0-0.2,0.1-0.2,0.2
		v3.4c0,1.2-1.1,2.3-2.4,2.3L396.7,460.4L396.7,460.4z"/>
	<path style="display:inline;opacity:0.27;fill:#B5E3EE;enable-background:new    ;" d="M419.5,474.1c-0.5,0-1-0.1-1.4-0.4
		c-0.9-0.5-1.4-1.4-1.4-2.4v-3.4h-19.9c-1.6,0-2.9-1.2-2.9-2.8v-4.5c0-1.5,1.3-2.8,2.9-2.8h19.9v-3.3c0-1,0.6-1.9,1.5-2.4
		c1-0.5,2.1-0.5,3,0.2l12.8,8.6c0.8,0.5,1.2,1.4,1.2,2.3s-0.5,1.8-1.3,2.3l-12.9,8.1C420.6,473.9,420,474.1,419.5,474.1z
		 M396.8,464.9h19.9c1.6,0,2.9,1.2,2.9,2.8v3.4l12.4-7.8l-12.4-8.4v3.2c0,1.5-1.3,2.8-2.9,2.8h-19.9L396.8,464.9L396.8,464.9z"/>
	<path style="display:inline;opacity:0.27;fill:#B5E3EE;enable-background:new    ;" d="M420.4,400.6c-0.5,0-1-0.1-1.5-0.4
		c-0.9-0.5-1.4-1.4-1.4-2.4v-3.3h-19.9c-1.6,0-2.9-1.2-2.9-2.7v-4.5c0-1.5,1.3-2.7,2.9-2.7h19.9v-3.2c0-1,0.5-1.9,1.5-2.4
		s2.1-0.5,3.1,0.1l12.9,8.5c0.8,0.5,1.2,1.4,1.2,2.3s-0.5,1.8-1.3,2.3l-12.9,8C421.5,400.4,420.9,400.6,420.4,400.6z M397.7,391.5
		h19.9c1.6,0,2.9,1.2,2.9,2.7v3.3l12.3-7.7l-12.3-8.2v3.2c0,1.5-1.3,2.7-2.9,2.7h-19.9V391.5z"/>
	<path style="display:inline;fill:#B5E3EE;" d="M418.4,555.1c-0.4,0-0.9-0.1-1.2-0.3c-0.7-0.4-1.1-1.1-1.1-1.9v-3.4
		c0-0.1-0.1-0.2-0.4-0.2h-20c-1.3,0-2.4-1-2.4-2.2v-4.2c0-1.2,1.1-2.2,2.4-2.2h20c0.2,0,0.4-0.1,0.4-0.2v-3.3c0-0.8,0.4-1.5,1.2-1.9
		c0.8-0.4,1.8-0.4,2.5,0.1l12.8,8.2c0.7,0.4,1,1.1,1,1.9s-0.4,1.4-1.1,1.8l-12.8,7.6C419.3,555,418.8,555.1,418.4,555.1z
		 M395.7,542.6c-0.2,0-0.4,0.1-0.4,0.2v4.2c0,0.1,0.1,0.2,0.4,0.2h20c1.3,0,2.4,1,2.4,2.2v3.4c0,0.1,0.1,0.1,0.1,0.2
		c0.1,0.1,0.3,0.1,0.5,0l12.8-7.6c0.1,0,0.1-0.1,0.1-0.2c0-0.1-0.1-0.1-0.1-0.2l-12.8-8.2c-0.2-0.1-0.4-0.1-0.5,0
		c0,0-0.1,0.1-0.1,0.2v3.3c0,1.2-1.1,2.2-2.4,2.2L395.7,542.6L395.7,542.6z"/>
	<path style="display:inline;opacity:0.27;fill:#B5E3EE;enable-background:new    ;" d="M418.5,555.9c-0.5,0-1-0.1-1.5-0.4
		c-0.9-0.5-1.4-1.4-1.4-2.3v-3.3h-19.9c-1.6,0-2.9-1.2-2.9-2.7v-4.4c0-1.5,1.3-2.7,2.9-2.7h19.9v-3.2c0-1,0.5-1.9,1.4-2.4
		c1-0.5,2.1-0.5,3.1,0.1L433,543c0.8,0.5,1.3,1.4,1.2,2.3c0,0.9-0.5,1.8-1.3,2.3l-12.9,7.9C419.6,555.8,419,555.9,418.5,555.9z
		 M395.8,546.9h19.9c1.6,0,2.9,1.2,2.9,2.7v3.2l12.3-7.5l-12.3-8.1v3.1c0,1.5-1.3,2.7-2.9,2.7h-19.9L395.8,546.9L395.8,546.9z"/>
	<path style="display:inline;fill:#B5E3EE;" d="M522.3,399.5c-0.4,0-0.8-0.1-1.2-0.3c-0.7-0.4-1.2-1.1-1.2-1.9v-3.4
		c0-0.1-0.2-0.2-0.4-0.2h-20c-1.3,0-2.4-1-2.4-2.2v-4.3c0-1.2,1.1-2.2,2.4-2.2h20c0.2,0,0.4-0.1,0.4-0.2v-3.3c0-0.8,0.4-1.5,1.2-1.9
		s1.8-0.4,2.5,0.1l12.8,8.3c0.7,0.4,1,1.1,1,1.9s-0.4,1.4-1.1,1.9l-12.8,7.7C523.2,399.4,522.8,399.5,522.3,399.5z M499.6,386.9
		c-0.2,0-0.4,0.1-0.4,0.2v4.3c0,0.1,0.2,0.2,0.4,0.2h20c1.3,0,2.4,1,2.4,2.2v3.4c0,0.1,0.1,0.1,0.1,0.2c0.1,0.1,0.3,0.1,0.5,0
		l12.8-7.7c0.1,0,0.1-0.1,0.1-0.2s-0.1-0.1-0.1-0.2l-12.8-8.3c-0.2-0.1-0.4-0.1-0.5,0c-0.1,0-0.1,0.1-0.1,0.2v3.3
		c0,1.2-1.1,2.2-2.4,2.2h-20V386.9z"/>
	<path style="display:inline;opacity:0.27;fill:#B5E3EE;enable-background:new    ;" d="M522.4,400.3c-0.5,0-1-0.1-1.5-0.4
		c-0.9-0.5-1.4-1.4-1.4-2.4v-3.3h-19.9c-1.6,0-2.9-1.2-2.9-2.7V387c0-1.5,1.3-2.7,2.9-2.7h19.9v-3.2c0-1,0.5-1.9,1.5-2.4
		s2.1-0.5,3.1,0.1l12.9,8.5c0.8,0.5,1.2,1.4,1.2,2.3s-0.5,1.8-1.3,2.3l-12.9,8C523.5,400.2,522.9,400.3,522.4,400.3z M499.7,391.2
		h19.9c1.6,0,2.9,1.2,2.9,2.7v3.3l12.3-7.7l-12.3-8.2v3.2c0,1.5-1.3,2.7-2.9,2.7h-19.9V391.2z"/>
	<path style="display:inline;fill:#B5E3EE;" d="M620.3,399.9c-0.4,0-0.8-0.1-1.2-0.3c-0.7-0.4-1.2-1.1-1.2-1.9v-3.4
		c0-0.1-0.2-0.2-0.4-0.2h-20c-1.3,0-2.4-1-2.4-2.2v-4.3c0-1.2,1.1-2.2,2.4-2.2h20c0.2,0,0.4-0.1,0.4-0.2v-3.3c0-0.8,0.4-1.5,1.2-1.9
		s1.8-0.4,2.5,0.1l12.8,8.3c0.7,0.4,1,1.1,1,1.9s-0.4,1.4-1.1,1.9l-12.8,7.7C621.2,399.8,620.8,399.9,620.3,399.9z M597.6,387.2
		c-0.2,0-0.4,0.1-0.4,0.2v4.3c0,0.1,0.2,0.2,0.4,0.2h20c1.3,0,2.4,1,2.4,2.2v3.4c0,0.1,0.1,0.1,0.1,0.2c0.1,0.1,0.3,0.1,0.5,0
		l12.8-7.7c0.1,0,0.1-0.1,0.1-0.2s-0.1-0.1-0.1-0.2l-12.8-8.3c-0.2-0.1-0.4-0.1-0.5,0c-0.1,0-0.1,0.1-0.1,0.2v3.3
		c0,1.2-1.1,2.2-2.4,2.2h-20V387.2z"/>
	<path style="display:inline;opacity:0.27;fill:#B5E3EE;enable-background:new    ;" d="M620.4,400.7c-0.5,0-1-0.1-1.5-0.4
		c-0.9-0.5-1.4-1.4-1.4-2.4v-3.3h-19.9c-1.6,0-2.9-1.2-2.9-2.7v-4.5c0-1.5,1.3-2.7,2.9-2.7h19.9v-3.2c0-1,0.5-1.9,1.5-2.4
		s2.1-0.5,3.1,0.1l12.9,8.5c0.8,0.5,1.2,1.4,1.2,2.3s-0.5,1.8-1.3,2.3l-12.9,8C621.5,400.5,620.9,400.7,620.4,400.7z M597.7,391.6
		h19.9c1.6,0,2.9,1.2,2.9,2.7v3.3l12.3-7.7l-12.3-8.2v3.2c0,1.5-1.3,2.7-2.9,2.7h-19.9V391.6z"/>
	<path style="display:inline;fill:none;stroke:#B5E3EE;stroke-width:3;stroke-linejoin:round;stroke-miterlimit:10;" d="
		M526.6,478.7"/>
	<path style="display:inline;fill:none;stroke:#B5E3EE;stroke-width:2;stroke-linejoin:round;stroke-miterlimit:10;" d="
		M526.6,468.1"/>
	<path style="display:inline;fill:none;stroke:#B5E3EE;stroke-width:3;stroke-linejoin:round;stroke-miterlimit:10;" d="
		M525.6,469.2"/>
	<path style="display:inline;fill:none;stroke:#B5E3EE;stroke-width:2;stroke-linejoin:round;stroke-miterlimit:10;" d="
		M518.9,473.5"/>
	<path style="display:inline;fill:none;stroke:#B5E3EE;stroke-width:2;stroke-linejoin:round;stroke-miterlimit:10;" d="
		M526.6,470.6"/>
	<path style="display:inline;fill:#B5E3EE;" d="M549,467.6h-3.3c-13.9-0.2-21.9-0.3-22.8-0.4c-0.4,0-1.1-0.3-1.4-1.4
		c-0.5-1.5-0.7-5,0.8-6.4c0.4-0.3,0.6-0.6,9.1-0.5c3.3,0,8.5,0,11.5,0h2.2c0.4,0,1.6,0,1.6-2.3v-2.3c0-2,0-4.4,0-5.8
		c0,0-0.1-0.2-0.4-0.2h-3.6c-0.9,0-1.8-0.5-2.2-1.3c-0.3-0.7-0.2-1.6,0.3-2.2l9-10.9c0.5-0.6,1.1-0.9,1.9-0.9c0.8,0,1.4,0.3,1.9,0.9
		l8.4,10.9c0.5,0.6,0.6,1.5,0.2,2.2c-0.4,0.8-1.2,1.3-2.2,1.3h-3.7c-0.2,0-0.4,0.1-0.4,0.2c0.1,6.9,0.1,15.3-0.5,16.4l0,0
		c-0.7,1.3-1.7,2-2.9,2.4C551.5,467.5,549.3,467.6,549,467.6z M523.4,465.1c1.9,0.1,11.4,0.2,22.3,0.4h3.3c0.8,0,2.3-0.1,2.9-0.3
		c0.8-0.2,1.3-0.7,1.8-1.5c0.3-1.1,0.4-8.7,0.3-15.5c0-1.2,1.1-2.2,2.4-2.2h3.7c0.2,0,0.3-0.1,0.3-0.1l0.8-0.7l-0.8,0.6l-8.4-10.9
		c-0.1-0.1-0.2-0.1-0.3-0.1l0,0c-0.1,0-0.3,0-0.3,0.1l-9,10.9v0.1c0,0,0.1,0.1,0.3,0.1h3.6c1.3,0,2.4,1,2.4,2.2c0,1.4,0,3.8,0,5.8
		v2.3c0,2.7-1.3,4.3-3.6,4.3h-2.2c-3.1,0-8.3,0-11.5,0h-0.1c-4.4-0.1-7,0-7.8,0.1C523,461.7,523.1,464.3,523.4,465.1z M553.8,463.8
		L553.8,463.8L553.8,463.8L553.8,463.8z"/>
	<path style="display:inline;fill:none;stroke:#B5E3EE;stroke-width:3;stroke-linejoin:round;stroke-miterlimit:10;" d="
		M549.5,470.8"/>
	<path style="display:inline;fill:#B5E3EE;" d="M447.6,516.3c-0.4,0-0.8-0.1-1.2-0.3l-10.8-6.5c-0.6-0.4-1-1-1-1.7s0.3-1.3,0.9-1.7
		l10.8-7c0.7-0.4,1.6-0.5,2.3-0.1s1.1,1,1.1,1.8v2.8c0,0,0.1,0.1,0.2,0.1c1.5,0,4,0,6.1,0h2c1,0,2.3-0.2,2.3-1V501
		c0-2.4,0-6.4,0-8.9c-0.1-6.8,0.1-7,0.6-7.3c1.4-1.1,5.3-1,6.7-0.4c0.8,0.3,1,0.8,1.1,1.2c0.1,0.7,0.2,6.8,0.4,17.6l0.1,2.6
		c0,0.4-0.1,2-0.4,2.9c-0.4,1-1.2,1.8-2.5,2.4c-1.2,0.5-10.7,0.5-16.2,0.4c-0.1,0-0.1,0-0.2,0.1v2.9c0,0.7-0.4,1.4-1.1,1.8
		C448.3,516.2,447.9,516.3,447.6,516.3z M447.5,500.7L447.5,500.7l-10.9,7l10.8,6.6c0.1,0.1,0.3,0,0.3,0v-2.9c0-1.1,1-2.1,2.2-2.1
		c6.8,0.1,14.4,0,15.4-0.2c1-0.5,1.3-0.9,1.4-1.3c0.2-0.4,0.3-1.5,0.3-2.2l-0.1-2.6c-0.2-7.8-0.3-15.2-0.4-17
		c-0.9-0.3-3.4-0.3-4.3,0.1c-0.1,0.7-0.1,2.7-0.1,5.8v0.1c0,2.5,0,6.5,0,8.8v1.7c0,0.7-0.3,3-4.3,3h-2c-2.1,0-4.6,0-6,0
		c-1.2,0-2.2-0.9-2.2-2.1v-2.8l0,0C447.7,500.7,447.7,500.7,447.5,500.7C447.6,500.7,447.6,500.7,447.5,500.7z"/>
	<path style="display:inline;fill:none;stroke:#B5E3EE;stroke-width:3;stroke-linejoin:round;stroke-miterlimit:10;" d="
		M463.7,508.5"/>
	<path style="display:inline;fill:none;stroke:#B5E3EE;stroke-width:3;stroke-linejoin:round;stroke-miterlimit:10;" d="
		M548.5,461.4"/>
	<path style="display:inline;fill:none;stroke:#B5E3EE;stroke-width:2;stroke-linejoin:round;stroke-miterlimit:10;" d="
		M549.5,462.7"/>
	<path style="display:inline;fill:none;stroke:#B5E3EE;stroke-width:2;stroke-linejoin:round;stroke-miterlimit:10;" d="M523,460"/>
	<path style="display:inline;fill:none;stroke:#B5E3EE;stroke-width:2;stroke-linejoin:round;stroke-miterlimit:10;" d="
		M524.3,459.8"/>
	<path style="display:inline;fill:none;stroke:#B5E3EE;stroke-width:2;stroke-linejoin:round;stroke-miterlimit:10;" d="M523,460"/>
</g>
</svg>
