<?xml version="1.0" encoding="utf-8"?>
<!-- Generator: Adobe Illustrator 21.0.2, SVG Export Plug-In . SVG Version: 6.00 Build 0)  -->
<svg version="1.1" xmlns="http://www.w3.org/2000/svg" xmlns:xlink="http://www.w3.org/1999/xlink" x="0px" y="0px"
	 viewBox="0 0 960 640" style="enable-background:new 0 0 960 640;" xml:space="preserve">
<style type="text/css">
	.st0{display:none;}
	.st1{fill:#12131E;}
	.st2{opacity:0.31;fill:url(#SVGID_1_);}
	.st3{opacity:0.18;fill:url(#SVGID_2_);}
	.st4{opacity:0.46;fill:url(#SVGID_3_);}
	.st5{fill:url(#SVGID_4_);stroke:#FFFFFF;stroke-miterlimit:10;}
	.st6{fill:#F9ED32;}
	.st7{opacity:0.17;fill:#F9ED32;}
	.st8{fill:#4A64AE;}
	.st9{opacity:0.17;fill:#4A64AE;}
	.st10{fill:#F9F9FA;}
	.st11{opacity:0.17;fill:#F9F9FA;}
	.st12{fill:#A02821;}
	.st13{opacity:0.17;fill:#A02821;}
	.st14{fill:none;}
	.st15{fill:#B5E3EE;}
	.st16{opacity:0.27;fill:#B5E3EE;}
	.st17{fill:none;stroke:#B5E3EE;stroke-width:3;stroke-linejoin:round;stroke-miterlimit:10;}
	.st18{fill:none;stroke:#B5E3EE;stroke-width:2;stroke-linejoin:round;stroke-miterlimit:10;}
</style>
<g id="Layer_1" class="st0">
</g>
<g id="Layer_2">
	<rect x="1.3" y="-1.1" class="st1" width="960" height="640"/>
	
		<radialGradient id="SVGID_1_" cx="37.6708" cy="289.2518" r="107.3432" gradientTransform="matrix(1.3241 -0.9893 3.1067 4.1582 -933.3853 -607.3222)" gradientUnits="userSpaceOnUse">
		<stop  offset="0" style="stop-color:#2484C6"/>
		<stop  offset="0" style="stop-color:#2484C6;stop-opacity:0.9598"/>
		<stop  offset="0.4686" style="stop-color:#2484C6;stop-opacity:0"/>
		<stop  offset="0.7517" style="stop-color:#2484C6;stop-opacity:0"/>
		<stop  offset="0.8705" style="stop-color:#2484C6;stop-opacity:0"/>
	</radialGradient>
	<path class="st2" d="M-117.2,449.5c53.1-46.4,81.5-52.2,97.7-48.7c11.7,2.5,11.2,8.7,42.7,37.8c25,23.1,37.6,34.7,52.6,40.1
		c24,8.5,34.9,2.1,52.1,14.5c3.9,2.8,17.5,13,22,32.2c4.4,19-5.2,25.6-3.1,42.8c3.8,31.3,38.1,29.9,37.5,53
		c-0.6,21.7-31.5,43.7-48.9,56c-9.4,6.7-63.4,45-110.7,34.1c-16.4-3.8-27.3-15.2-49-37.9c-40.4-42.5-34.1-59.5-65.1-76.1
		c-22.7-12.1-34.2-7.3-47.8-22.6c-18-20.2-15.4-48.1-14.6-55.5C-148,483.6-124.1,456.9-117.2,449.5z"/>
	
		<radialGradient id="SVGID_2_" cx="302.7472" cy="343.5435" r="107.3432" gradientTransform="matrix(5.5666 1.0927 -1.3244 6.7472 -851.5035 -2484.6428)" gradientUnits="userSpaceOnUse">
		<stop  offset="0" style="stop-color:#2484C6"/>
		<stop  offset="0" style="stop-color:#2484C6;stop-opacity:0.9598"/>
		<stop  offset="0.4686" style="stop-color:#2484C6;stop-opacity:0"/>
		<stop  offset="0.7517" style="stop-color:#2484C6;stop-opacity:0"/>
		<stop  offset="0.8705" style="stop-color:#2484C6;stop-opacity:0"/>
	</radialGradient>
	<path class="st3" d="M283.3-79C521.4-39.5,606.8-6.1,640.1,17.3c24.1,16.9,9.1,20.3,24.7,80.2c12.4,47.7,18.6,71.5,45,94.7
		c42,36.8,84.2,47,100.4,77.5c3.6,6.9,15.8,31.3-15.5,49.5c-31,18-70.1,9.8-102.9,23.6C631.9,368,722.4,412,669.7,426
		c-49.6,13.3-177.2-13-248.9-27.8c-38.7-8-261.2-53.9-357.5-122.7C29.9,251.6,27.6,230,22.9,187c-8.7-80.3,45.4-83,3.2-134.3
		C-4.8,15.2-44.7,3.4-45.4-24.4c-1-36.6,67.6-51.2,85.9-55C129.2-97.3,249.2-83.3,283.3-79z"/>
	
		<radialGradient id="SVGID_3_" cx="660.6011" cy="252.8437" r="132.7843" gradientTransform="matrix(1.6528 0 0 6.189 -122.6543 -1364.2202)" gradientUnits="userSpaceOnUse">
		<stop  offset="0" style="stop-color:#2484C6"/>
		<stop  offset="0" style="stop-color:#2484C6;stop-opacity:0.9598"/>
		<stop  offset="0.4686" style="stop-color:#2484C6;stop-opacity:0"/>
		<stop  offset="0.7517" style="stop-color:#2484C6;stop-opacity:0"/>
		<stop  offset="0.8705" style="stop-color:#2484C6;stop-opacity:0"/>
	</radialGradient>
	<path class="st4" d="M918.5-44.5c87-7.9,119.5,10.3,132.9,28.7c9.7,13.3,4.6,20.2,14.3,82.3c7.7,49.4,11.5,74.1,22.5,93.8
		c17.4,31.2,33.1,33.3,40.9,63.2c1.8,6.7,7.8,30.8-2,57.4c-9.7,26.3-24.1,25.7-34.8,47.8c-19.4,40.3,15.6,69-2,95.7
		c-16.6,25.1-63.6,23.7-90,23c-14.2-0.4-96.1-2.8-134.9-57.4c-13.5-19-15.8-42-20.4-88c-8.6-85.9,10.3-100.4-8.2-147.4
		c-13.5-34.4-28.5-38.7-30.7-68.9c-2.9-39.8,20.3-70.5,26.6-78.5C862.8-31.5,906.2-42,918.5-44.5z"/>
	
		<radialGradient id="SVGID_4_" cx="661.3035" cy="344.6995" r="0" gradientTransform="matrix(1 0 0 4 0 -1034.0985)" gradientUnits="userSpaceOnUse">
		<stop  offset="0" style="stop-color:#2484C6"/>
		<stop  offset="1" style="stop-color:#2484C6;stop-opacity:0"/>
	</radialGradient>
	<path class="st5" d="M661.3,344.7"/>
	<circle class="st6" cx="219.3" cy="399.7" r="3.5"/>
	<circle class="st7" cx="219.3" cy="399.7" r="3.7"/>
	<circle class="st6" cx="58.3" cy="59.7" r="3.5"/>
	<circle class="st7" cx="58.3" cy="59.7" r="3.7"/>
	<circle class="st8" cx="82.2" cy="570.3" r="2.5"/>
	<circle class="st9" cx="82.2" cy="570.3" r="2.7"/>
	<circle class="st8" cx="385.1" cy="124.1" r="2.5"/>
	<circle class="st9" cx="385.1" cy="124.1" r="2.7"/>
	<circle class="st8" cx="397.4" cy="258.4" r="2.5"/>
	<circle class="st9" cx="397.4" cy="258.5" r="2.7"/>
	<circle class="st9" cx="487.1" cy="97" r="2.7"/>
	<circle class="st9" cx="510.2" cy="46.7" r="2.7"/>
	<circle class="st9" cx="593" cy="399.2" r="2"/>
	<ellipse class="st9" cx="626" cy="378.8" rx="2" ry="1.5"/>
	<circle class="st9" cx="921.3" cy="173.4" r="2.7"/>
	<circle class="st9" cx="931.6" cy="83.7" r="2.7"/>
	<circle class="st9" cx="946.3" cy="58.7" r="2.7"/>
	<circle class="st9" cx="67.3" cy="128.1" r="2.7"/>
	<circle class="st9" cx="22.8" cy="81" r="2.7"/>
	<circle class="st8" cx="470.5" cy="148.1" r="2.5"/>
	<circle class="st9" cx="470.5" cy="148.1" r="2.7"/>
	<circle class="st8" cx="696.1" cy="129" r="2.5"/>
	<circle class="st9" cx="696.1" cy="129" r="2.7"/>
	<circle class="st8" cx="916" cy="432.3" r="2.5"/>
	<circle class="st9" cx="916" cy="432.3" r="2.7"/>
	<circle class="st8" cx="882.3" cy="516.4" r="2.5"/>
	<circle class="st9" cx="882.3" cy="516.4" r="2.7"/>
	<circle class="st8" cx="64.7" cy="227.8" r="2.5"/>
	<circle class="st9" cx="64.6" cy="227.9" r="2.7"/>
	<circle class="st8" cx="96.3" cy="198" r="2.5"/>
	<circle class="st9" cx="96.3" cy="198" r="2.7"/>
	<circle class="st8" cx="279.3" cy="237.7" r="2.5"/>
	<circle class="st9" cx="279.2" cy="237.7" r="2.7"/>
	<circle class="st8" cx="879.7" cy="86.4" r="2.5"/>
	<circle class="st9" cx="879.6" cy="86.4" r="2.7"/>
	<circle class="st8" cx="900.3" cy="118.8" r="2.5"/>
	<circle class="st9" cx="900.3" cy="118.8" r="2.7"/>
	<circle class="st8" cx="64.5" cy="396" r="2.5"/>
	<circle class="st9" cx="64.5" cy="396" r="2.7"/>
	<circle class="st8" cx="82.2" cy="408.4" r="2.5"/>
	<circle class="st9" cx="82.2" cy="408.4" r="2.7"/>
	<circle class="st10" cx="104.7" cy="436.9" r="1.1"/>
	<circle class="st11" cx="104.7" cy="436.9" r="1.3"/>
	<circle class="st10" cx="418.4" cy="502" r="1.1"/>
	<circle class="st11" cx="418.4" cy="502" r="1.3"/>
	<circle class="st10" cx="654.6" cy="95.7" r="1.1"/>
	<circle class="st11" cx="654.6" cy="95.7" r="1.3"/>
	<circle class="st10" cx="630.6" cy="94.6" r="1.1"/>
	<circle class="st11" cx="630.6" cy="94.6" r="1.3"/>
	<circle class="st10" cx="660" cy="108.7" r="1.1"/>
	<circle class="st11" cx="660" cy="108.7" r="1.3"/>
	<circle class="st10" cx="693.6" cy="85.1" r="1.1"/>
	<circle class="st11" cx="693.6" cy="85.1" r="1.3"/>
	<circle class="st10" cx="822" cy="206.3" r="1.1"/>
	<circle class="st11" cx="822" cy="206.3" r="1.3"/>
	<circle class="st10" cx="854.9" cy="245.3" r="1.1"/>
	<circle class="st11" cx="854.9" cy="245.3" r="1.3"/>
	<circle class="st10" cx="161.5" cy="518.8" r="0.9"/>
	<circle class="st11" cx="161.5" cy="518.8" r="1.1"/>
	<circle class="st10" cx="901.4" cy="596.4" r="0.9"/>
	<circle class="st11" cx="901.4" cy="596.4" r="1.1"/>
	<circle class="st10" cx="901.4" cy="513.7" r="0.9"/>
	<circle class="st11" cx="901.4" cy="513.7" r="1.1"/>
	<circle class="st10" cx="525.8" cy="620.8" r="0.9"/>
	<circle class="st11" cx="525.8" cy="620.8" r="1.1"/>
	<circle class="st10" cx="418.6" cy="33.1" r="0.9"/>
	<circle class="st11" cx="418.6" cy="33.1" r="1"/>
	<circle class="st10" cx="738.6" cy="43" r="0.9"/>
	<circle class="st11" cx="738.6" cy="43" r="1"/>
	<circle class="st10" cx="120.2" cy="288.6" r="0.7"/>
	<circle class="st11" cx="120.2" cy="288.6" r="0.8"/>
	<circle class="st10" cx="412.9" cy="198" r="0.7"/>
	<circle class="st11" cx="412.9" cy="198" r="0.8"/>
	<circle class="st10" cx="438.2" cy="200.6" r="0.7"/>
	<circle class="st11" cx="438.2" cy="200.6" r="0.8"/>
	<circle class="st10" cx="457.6" cy="236.9" r="0.7"/>
	<circle class="st11" cx="457.6" cy="236.9" r="0.8"/>
	<circle class="st10" cx="513" cy="414.5" r="0.7"/>
	<circle class="st11" cx="513" cy="414.5" r="0.8"/>
	<circle class="st10" cx="591" cy="466.7" r="0.7"/>
	<circle class="st11" cx="591" cy="466.7" r="0.8"/>
	<circle class="st10" cx="623.2" cy="447.7" r="0.7"/>
	<circle class="st11" cx="623.2" cy="447.7" r="0.8"/>
	<circle class="st10" cx="756.3" cy="462.5" r="0.7"/>
	<circle class="st11" cx="756.3" cy="462.5" r="0.8"/>
	<circle class="st10" cx="456.8" cy="618.9" r="0.7"/>
	<circle class="st11" cx="456.8" cy="618.9" r="0.8"/>
	<circle class="st10" cx="765.4" cy="492.7" r="0.7"/>
	<circle class="st11" cx="765.4" cy="492.7" r="0.8"/>
	<circle class="st10" cx="929.8" cy="258.5" r="0.7"/>
	<circle class="st11" cx="929.8" cy="258.5" r="0.8"/>
	<circle class="st10" cx="935.1" cy="214.7" r="0.7"/>
	<circle class="st11" cx="935.1" cy="214.7" r="0.8"/>
	<circle class="st10" cx="47.3" cy="34" r="0.7"/>
	<circle class="st11" cx="47.3" cy="34" r="0.8"/>
	<circle class="st10" cx="23.3" cy="393.5" r="0.7"/>
	<circle class="st11" cx="23.3" cy="393.5" r="0.8"/>
	<ellipse class="st10" cx="537.4" cy="203.2" rx="0.7" ry="0.5"/>
	<ellipse class="st11" cx="537.4" cy="203.2" rx="0.8" ry="0.6"/>
	<circle class="st10" cx="706" cy="242.6" r="0.7"/>
	<circle class="st11" cx="706" cy="242.6" r="0.8"/>
	<circle class="st10" cx="863.7" cy="125.9" r="0.7"/>
	<circle class="st11" cx="863.7" cy="125.9" r="0.8"/>
	<circle class="st10" cx="121.8" cy="116.3" r="0.7"/>
	<circle class="st11" cx="121.8" cy="116.3" r="0.8"/>
	<circle class="st10" cx="67.4" cy="128.2" r="0.7"/>
	<circle class="st11" cx="67.4" cy="128.2" r="0.8"/>
	<circle class="st10" cx="23.3" cy="81" r="0.7"/>
	<circle class="st11" cx="23.3" cy="81" r="0.8"/>
	<circle class="st10" cx="22.5" cy="81" r="0.7"/>
	<circle class="st11" cx="22.5" cy="81" r="0.8"/>
	<circle class="st10" cx="5.3" cy="129.6" r="0.7"/>
	<circle class="st11" cx="5.3" cy="129.6" r="0.8"/>
	<circle class="st10" cx="406.7" cy="257.6" r="0.7"/>
	<circle class="st11" cx="406.7" cy="257.6" r="0.8"/>
	<circle class="st12" cx="26.3" cy="318.7" r="0.7"/>
	<circle class="st13" cx="26.3" cy="318.7" r="0.8"/>
	<circle class="st12" cx="452.6" cy="418.2" r="0.7"/>
	<circle class="st13" cx="452.6" cy="418.2" r="0.8"/>
	<circle class="st12" cx="118.6" cy="596.4" r="0.7"/>
	<circle class="st13" cx="118.6" cy="596.4" r="0.8"/>
	<circle class="st12" cx="165.5" cy="522.7" r="0.7"/>
	<circle class="st13" cx="165.5" cy="522.7" r="0.8"/>
	<circle class="st12" cx="213.6" cy="405.1" r="0.7"/>
	<circle class="st13" cx="213.6" cy="405.1" r="0.8"/>
	<ellipse class="st12" cx="228.7" cy="465" rx="0.7" ry="0.5"/>
	<ellipse class="st13" cx="228.7" cy="465" rx="0.8" ry="0.6"/>
	<circle class="st12" cx="29.6" cy="499.7" r="0.7"/>
	<circle class="st13" cx="29.6" cy="499.7" r="0.8"/>
	<circle class="st12" cx="708.3" cy="97.9" r="0.7"/>
	<circle class="st13" cx="708.3" cy="97.9" r="0.8"/>
	<circle class="st8" cx="292.3" cy="581" r="2.5"/>
	<circle class="st9" cx="292.3" cy="581" r="2.7"/>
	<circle class="st8" cx="311.7" cy="593.7" r="2.5"/>
	<circle class="st9" cx="311.6" cy="593.7" r="2.7"/>
	<circle class="st8" cx="658.7" cy="591.1" r="2.5"/>
	<circle class="st9" cx="658.6" cy="591.2" r="2.7"/>
	<circle class="st8" cx="673.7" cy="605.7" r="2.5"/>
	<circle class="st9" cx="673.6" cy="605.7" r="2.7"/>
	<circle class="st6" cx="184.4" cy="29.7" r="3.5"/>
	<circle class="st7" cx="184.4" cy="29.7" r="3.7"/>
	<circle class="st6" cx="201" cy="46.7" r="3.5"/>
	<circle class="st7" cx="201" cy="46.7" r="3.7"/>
	<circle class="st6" cx="446.3" cy="411.1" r="2.5"/>
	<circle class="st7" cx="446.2" cy="411.1" r="2.6"/>
	<circle class="st6" cx="509.3" cy="499.7" r="3.5"/>
	<circle class="st7" cx="509.3" cy="499.7" r="3.7"/>
	<circle class="st6" cx="178.5" cy="578.1" r="3.5"/>
	<circle class="st7" cx="321.3" cy="284.7" r="3.7"/>
	<circle class="st6" cx="704.1" cy="165.8" r="2.6"/>
	<circle class="st7" cx="704.1" cy="165.8" r="2.7"/>
	<circle class="st6" cx="768.3" cy="410" r="3.5"/>
	<circle class="st7" cx="768.3" cy="410" r="3.7"/>
	<circle class="st6" cx="775.1" cy="427.2" r="2.3"/>
	<circle class="st7" cx="775.1" cy="427.2" r="2.5"/>
	<line class="st14" x1="174.3" y1="253.7" x2="174.3" y2="252.2"/>
	<path d="M173.1,252.4"/>
	<path class="st15" d="M103.7,268.6C103.7,268.6,103.7,268.6,103.7,268.6c-0.3,0-0.6-0.1-0.8-0.4l-17.3-22.3
		c-0.2-0.3-0.3-0.7-0.1-1.1c0.2-0.3,0.5-0.6,0.9-0.6h11.1v-29.6c0-0.6,0.4-1,1-1h11.6c0.6,0,1,0.4,1,1v29.6h11.1
		c0.4,0,0.7,0.2,0.9,0.6c0.2,0.4,0.1,0.8-0.1,1.1l-18.5,22.3C104.3,268.5,104,268.6,103.7,268.6z M88.5,246.3l15.2,19.7l16.3-19.7
		h-9.9c-0.6,0-1-0.4-1-1v-29.6h-9.6v29.6c0,0.6-0.4,1-1,1H88.5z"/>
	<path class="st16" d="M103.7,269.3C103.7,269.3,103.6,269.3,103.7,269.3c-0.5,0-0.9-0.2-1.2-0.6l-17.8-22.4
		c-0.4-0.5-0.4-1.1-0.2-1.6c0.3-0.5,0.8-0.8,1.4-0.8h10.9v-29.2c0-0.8,0.7-1.5,1.5-1.5h12c0.8,0,1.5,0.7,1.5,1.5v29.2h10.9
		c0.6,0,1.1,0.3,1.4,0.9c0.2,0.5,0.2,1.2-0.2,1.6l-19,22.4C104.5,269.1,104.1,269.3,103.7,269.3z M89,246.9l14.7,18.5l15.7-18.5
		h-9.2c-0.8,0-1.5-0.7-1.5-1.5v-29.2h-9v29.2c0,0.8-0.7,1.5-1.5,1.5H89z"/>
	<path class="st15" d="M224.8,163.2c-0.4,0-0.8-0.1-1.1-0.3c-0.8-0.4-1.3-1.2-1.3-2.1v-3.9c0-0.2-0.2-0.4-0.4-0.4h-20
		c-1.3,0-2.4-1.1-2.4-2.4v-4.8c0-1.3,1.1-2.4,2.4-2.4h20c0.2,0,0.4-0.2,0.4-0.4v-3.8c0-0.9,0.5-1.7,1.3-2.1c0.8-0.4,1.7-0.3,2.5,0.2
		l12.8,9.3c0.6,0.5,1,1.2,1,2c0,0.8-0.4,1.5-1,2l-12.8,8.7C225.8,163.1,225.3,163.2,224.8,163.2z M202.1,148.9
		c-0.2,0-0.4,0.2-0.4,0.4v4.8c0,0.2,0.2,0.4,0.4,0.4h20c1.3,0,2.4,1.1,2.4,2.4v3.9c0,0.2,0.1,0.3,0.2,0.4c0.1,0,0.2,0.1,0.4,0
		l12.8-8.7c0.1-0.1,0.2-0.3,0.2-0.3c0-0.1,0-0.2-0.2-0.3l-12.8-9.3c-0.1-0.1-0.3-0.1-0.4,0c-0.1,0-0.2,0.1-0.2,0.4v3.8
		c0,1.3-1.1,2.4-2.4,2.4H202.1z"/>
	<path class="st16" d="M224.9,164c-0.4,0-0.9-0.1-1.3-0.3c-1-0.5-1.6-1.5-1.6-2.6v-4h-19.9c-1.6,0-2.9-1.3-2.9-2.9v-5
		c0-1.6,1.3-2.9,2.9-2.9H222v-3.9c0-1.1,0.6-2.1,1.6-2.6c1-0.5,2.1-0.4,3,0.3l12.9,9.7c0.7,0.6,1.2,1.4,1.2,2.4s-0.5,1.8-1.2,2.3
		l-12.9,9C226.1,163.9,225.5,164,224.9,164z M202.2,154.2h19.9c1.6,0,2.9,1.3,2.9,2.9v3.9l12.6-8.8l-12.6-9.4v3.7
		c0,1.6-1.3,2.9-2.9,2.9h-19.9V154.2z"/>
	<path class="st15" d="M225.5,345.1c-0.4,0-0.8-0.1-1.2-0.3c-0.7-0.4-1.2-1.1-1.2-1.9v-3.4c0-0.1-0.2-0.2-0.4-0.2h-20
		c-1.3,0-2.4-1-2.4-2.2v-4.3c0-1.2,1.1-2.2,2.4-2.2h20c0.2,0,0.4-0.1,0.4-0.2v-3.3c0-0.8,0.4-1.5,1.2-1.9c0.8-0.4,1.8-0.4,2.5,0.1
		l12.8,8.3c0.7,0.4,1,1.1,1,1.9c0,0.8-0.4,1.4-1.1,1.9l-12.8,7.7C226.4,345,226,345.1,225.5,345.1z M202.8,332.4
		c-0.2,0-0.4,0.1-0.4,0.2v4.3c0,0.1,0.2,0.2,0.4,0.2h20c1.3,0,2.4,1,2.4,2.2v3.4c0,0.1,0.1,0.1,0.1,0.2c0.1,0.1,0.3,0.1,0.5,0
		l12.8-7.7c0.1,0,0.1-0.1,0.1-0.2c0-0.1-0.1-0.1-0.1-0.2l-12.8-8.3c-0.2-0.1-0.4-0.1-0.5,0c-0.1,0-0.1,0.1-0.1,0.2v3.3
		c0,1.2-1.1,2.2-2.4,2.2H202.8z"/>
	<path class="st16" d="M225.6,345.9c-0.5,0-1-0.1-1.5-0.4c-0.9-0.5-1.4-1.4-1.4-2.4v-3.3h-19.9c-1.6,0-2.9-1.2-2.9-2.7v-4.5
		c0-1.5,1.3-2.7,2.9-2.7h19.9v-3.2c0-1,0.5-1.9,1.5-2.4c1-0.5,2.1-0.5,3.1,0.1l12.9,8.5c0.8,0.5,1.2,1.4,1.2,2.3
		c0,0.9-0.5,1.8-1.3,2.3l-12.9,8C226.7,345.7,226.2,345.9,225.6,345.9z M202.9,336.8h19.9c1.6,0,2.9,1.2,2.9,2.7v3.3l12.3-7.7
		l-12.3-8.2v3.2c0,1.5-1.3,2.7-2.9,2.7h-19.9V336.8z"/>
	<path class="st15" d="M329.8,345.4c-0.4,0-0.8-0.1-1.2-0.3c-0.7-0.4-1.2-1.1-1.2-1.9v-3.4c0-0.1-0.2-0.2-0.4-0.2h-20
		c-1.3,0-2.4-1-2.4-2.2V333c0-1.2,1.1-2.2,2.4-2.2h20c0.2,0,0.4-0.1,0.4-0.2v-3.3c0-0.8,0.4-1.5,1.2-1.9c0.8-0.4,1.8-0.4,2.5,0.1
		l12.8,8.3c0.7,0.4,1,1.1,1,1.9c0,0.8-0.4,1.4-1.1,1.9l-12.8,7.7C330.7,345.3,330.2,345.4,329.8,345.4z M307.1,332.8
		c-0.2,0-0.4,0.1-0.4,0.2v4.3c0,0.1,0.2,0.2,0.4,0.2h20c1.3,0,2.4,1,2.4,2.2v3.4c0,0.1,0.1,0.1,0.1,0.2c0.1,0.1,0.3,0.1,0.5,0
		l12.8-7.7c0.1,0,0.1-0.1,0.1-0.2c0-0.1-0.1-0.1-0.1-0.2L330,327c-0.2-0.1-0.4-0.1-0.5,0c-0.1,0-0.1,0.1-0.1,0.2v3.3
		c0,1.2-1.1,2.2-2.4,2.2H307.1z"/>
	<path class="st16" d="M329.8,346.2c-0.5,0-1-0.1-1.5-0.4c-0.9-0.5-1.4-1.4-1.4-2.4v-3.3h-19.9c-1.6,0-2.9-1.2-2.9-2.7v-4.5
		c0-1.5,1.3-2.7,2.9-2.7H327v-3.2c0-1,0.5-1.9,1.5-2.4c1-0.5,2.1-0.5,3.1,0.1l12.9,8.5c0.8,0.5,1.2,1.4,1.2,2.3
		c0,0.9-0.5,1.8-1.3,2.3l-12.9,8C330.9,346.1,330.4,346.2,329.8,346.2z M307.2,337.1h19.9c1.6,0,2.9,1.2,2.9,2.7v3.3l12.3-7.7
		l-12.3-8.2v3.2c0,1.5-1.3,2.7-2.9,2.7h-19.9V337.1z"/>
	<path class="st15" d="M329.8,474.1c-0.4,0-0.8-0.1-1.2-0.3c-0.7-0.4-1.2-1.1-1.2-2v-3.5c0-0.1-0.2-0.3-0.4-0.3h-20
		c-1.3,0-2.4-1-2.4-2.3v-4.4c0-1.3,1.1-2.3,2.4-2.3h20c0.2,0,0.4-0.1,0.4-0.3v-3.4c0-0.8,0.5-1.6,1.2-2c0.8-0.4,1.8-0.4,2.5,0.1
		l12.8,8.5c0.7,0.4,1,1.1,1,1.9c0,0.8-0.4,1.5-1.1,1.9l-12.8,8C330.7,473.9,330.2,474.1,329.8,474.1z M307.1,461
		c-0.2,0-0.4,0.1-0.4,0.3v4.4c0,0.2,0.2,0.3,0.4,0.3h20c1.3,0,2.4,1,2.4,2.3v3.5c0,0.1,0.1,0.2,0.2,0.2c0.1,0.1,0.3,0.1,0.5,0
		l12.8-8c0.1-0.1,0.1-0.2,0.1-0.2c0-0.1,0-0.1-0.1-0.2l-12.8-8.5c-0.2-0.1-0.3-0.1-0.5,0c-0.1,0-0.2,0.1-0.2,0.2v3.4
		c0,1.3-1.1,2.3-2.4,2.3H307.1z"/>
	<path class="st16" d="M329.8,474.9c-0.5,0-1-0.1-1.4-0.4c-0.9-0.5-1.5-1.4-1.5-2.4v-3.5h-19.9c-1.6,0-2.9-1.2-2.9-2.8v-4.6
		c0-1.5,1.3-2.8,2.9-2.8H327v-3.4c0-1,0.6-2,1.5-2.4c1-0.5,2.1-0.4,3,0.2l12.9,8.8c0.8,0.5,1.2,1.4,1.2,2.3c0,0.9-0.5,1.8-1.3,2.3
		l-12.9,8.2C331,474.7,330.4,474.9,329.8,474.9z M307.2,465.6h19.9c1.6,0,2.9,1.2,2.9,2.8v3.4l12.4-8l-12.4-8.5v3.3
		c0,1.5-1.3,2.8-2.9,2.8h-19.9V465.6z M307.1,465.6v1.5V465.6L307.1,465.6z"/>
	<path class="st15" d="M225.3,473.2c-0.4,0-0.8-0.1-1.2-0.3c-0.7-0.4-1.2-1.2-1.2-2v-3.5c0-0.1-0.2-0.3-0.4-0.3h-20
		c-1.3,0-2.4-1-2.4-2.3v-4.4c0-1.3,1.1-2.3,2.4-2.3h20c0.2,0,0.4-0.1,0.4-0.3v-3.4c0-0.8,0.5-1.6,1.2-2c0.8-0.4,1.8-0.4,2.5,0.1
		l12.8,8.5c0.6,0.4,1,1.1,1,1.9c0,0.8-0.4,1.5-1.1,1.9l-12.8,8C226.2,473.1,225.7,473.2,225.3,473.2z M202.6,460.2
		c-0.2,0-0.4,0.1-0.4,0.3v4.4c0,0.1,0.2,0.3,0.4,0.3h20c1.3,0,2.4,1,2.4,2.3v3.5c0,0.1,0.1,0.2,0.2,0.2c0.1,0.1,0.3,0.1,0.5,0
		l12.8-8c0.1-0.1,0.1-0.2,0.1-0.2c0-0.1,0-0.1-0.1-0.2l-12.8-8.5c-0.2-0.1-0.3-0.1-0.5,0c-0.1,0-0.2,0.1-0.2,0.2v3.4
		c0,1.3-1.1,2.3-2.4,2.3H202.6z"/>
	<path class="st16" d="M225.4,474c-0.5,0-1-0.1-1.4-0.4c-0.9-0.5-1.5-1.4-1.5-2.4v-3.5h-19.9c-1.6,0-2.9-1.2-2.9-2.8v-4.6
		c0-1.5,1.3-2.8,2.9-2.8h19.9v-3.4c0-1,0.6-2,1.5-2.4c1-0.5,2.1-0.4,3,0.2l12.9,8.8c0.8,0.5,1.2,1.4,1.2,2.3c0,0.9-0.5,1.8-1.3,2.3
		l-12.9,8.2C226.5,473.9,225.9,474,225.4,474z M202.7,464.8h19.9c1.6,0,2.9,1.2,2.9,2.8v3.4l12.4-8l-12.4-8.5v3.3
		c0,1.5-1.3,2.8-2.9,2.8h-19.9V464.8z M202.6,464.8v1.5V464.8L202.6,464.8z"/>
	<path class="st15" d="M329.9,163.8c-0.4,0-0.8-0.1-1.1-0.3c-0.8-0.4-1.3-1.2-1.3-2.1v-3.9c0-0.2-0.2-0.4-0.4-0.4h-20
		c-1.3,0-2.4-1.1-2.4-2.4v-4.8c0-1.3,1.1-2.4,2.4-2.4h20c0.2,0,0.4-0.2,0.4-0.4v-3.8c0-0.9,0.5-1.7,1.3-2.2c0.8-0.4,1.7-0.3,2.5,0.2
		l12.8,9.3c0.6,0.5,1,1.2,1,2c0,0.8-0.4,1.5-1,2l-12.8,8.7C330.8,163.7,330.4,163.8,329.9,163.8z M307.2,149.5
		c-0.2,0-0.4,0.2-0.4,0.4v4.8c0,0.2,0.2,0.4,0.4,0.4h20c1.3,0,2.4,1.1,2.4,2.4v3.9c0,0.2,0.1,0.3,0.2,0.4c0.1,0,0.2,0.1,0.4,0
		l12.8-8.7c0.1-0.1,0.2-0.3,0.2-0.3c0-0.1,0-0.2-0.2-0.3l-12.8-9.3c-0.1-0.1-0.3-0.1-0.4,0c-0.1,0-0.2,0.1-0.2,0.4v3.8
		c0,1.3-1.1,2.4-2.4,2.4H307.2z"/>
	<path class="st16" d="M330,164.7c-0.4,0-0.9-0.1-1.3-0.3c-1-0.5-1.6-1.5-1.6-2.6v-4h-19.9c-1.6,0-2.9-1.3-2.9-2.9v-5
		c0-1.6,1.3-2.9,2.9-2.9h19.9v-3.9c0-1.1,0.6-2.1,1.6-2.6c1-0.5,2.1-0.4,3,0.3l12.9,9.7c0.7,0.6,1.2,1.4,1.2,2.4
		c0,0.9-0.5,1.8-1.2,2.3l-12.9,9C331.1,164.5,330.5,164.7,330,164.7z M307.3,154.8h19.9c1.6,0,2.9,1.3,2.9,2.9v3.9l12.6-8.8
		l-12.6-9.4v3.7c0,1.6-1.3,2.9-2.9,2.9h-19.9V154.8z"/>
	<path class="st15" d="M430.8,163.8c-0.4,0-0.8-0.1-1.1-0.3c-0.8-0.4-1.3-1.2-1.3-2.1v-3.9c0-0.2-0.2-0.4-0.4-0.4h-20
		c-1.3,0-2.4-1.1-2.4-2.4v-4.8c0-1.3,1.1-2.4,2.4-2.4h20c0.2,0,0.4-0.2,0.4-0.4v-3.8c0-0.9,0.5-1.7,1.3-2.2c0.8-0.4,1.7-0.3,2.5,0.2
		l12.8,9.3c0.6,0.5,1,1.2,1,2c0,0.8-0.4,1.5-1,2l-12.8,8.7C431.7,163.7,431.3,163.8,430.8,163.8z M408.1,149.5
		c-0.2,0-0.4,0.2-0.4,0.4v4.8c0,0.2,0.2,0.4,0.4,0.4h20c1.3,0,2.4,1.1,2.4,2.4v3.9c0,0.2,0.1,0.3,0.2,0.4c0.1,0,0.2,0.1,0.4,0
		l12.8-8.7c0.1-0.1,0.2-0.3,0.2-0.3c0-0.1,0-0.2-0.2-0.3L431,143c-0.1-0.1-0.3-0.1-0.4,0c-0.1,0-0.2,0.1-0.2,0.4v3.8
		c0,1.3-1.1,2.4-2.4,2.4H408.1z"/>
	<path class="st16" d="M430.9,164.7c-0.4,0-0.9-0.1-1.3-0.3c-1-0.5-1.6-1.5-1.6-2.6v-4h-19.9c-1.6,0-2.9-1.3-2.9-2.9v-5
		c0-1.6,1.3-2.9,2.9-2.9H428v-3.9c0-1.1,0.6-2.1,1.6-2.6c1-0.5,2.1-0.4,3,0.3l12.9,9.7c0.7,0.6,1.2,1.4,1.2,2.4
		c0,0.9-0.5,1.8-1.2,2.3l-12.9,9C432,164.5,431.5,164.7,430.9,164.7z M408.2,154.8h19.9c1.6,0,2.9,1.3,2.9,2.9v3.9l12.6-8.8
		l-12.6-9.4v3.7c0,1.6-1.3,2.9-2.9,2.9h-19.9V154.8z"/>
	<path class="st15" d="M532,120.4c-0.4,0-0.8-0.1-1.1-0.3c-0.8-0.4-1.2-1.2-1.2-2.1v-3.7c0-0.2-0.2-0.3-0.4-0.3h-20
		c-1.3,0-2.4-1.1-2.4-2.3v-4.6c0-1.3,1.1-2.3,2.4-2.3h20c0.2,0,0.4-0.2,0.4-0.3v-3.6c0-0.9,0.5-1.7,1.3-2.1c0.8-0.4,1.8-0.4,2.5,0.2
		l12.8,8.9c0.6,0.4,1,1.2,1,1.9c0,0.8-0.4,1.5-1.1,1.9l-12.8,8.3C532.9,120.3,532.4,120.4,532,120.4z M509.3,106.8
		c-0.2,0-0.4,0.2-0.4,0.3v4.6c0,0.2,0.2,0.3,0.4,0.3h20c1.3,0,2.4,1.1,2.4,2.3v3.7c0,0.2,0.1,0.2,0.2,0.3c0.1,0,0.2,0.1,0.4,0
		L545,110c0.1-0.1,0.2-0.2,0.2-0.3c0-0.1,0-0.2-0.1-0.3l-12.8-8.9c-0.2-0.1-0.4-0.1-0.4,0c-0.1,0-0.2,0.1-0.2,0.3v3.6
		c0,1.3-1.1,2.3-2.4,2.3H509.3z"/>
	<path class="st16" d="M532,121.2c-0.5,0-0.9-0.1-1.4-0.3c-0.9-0.5-1.5-1.5-1.5-2.5v-3.7h-19.9c-1.6,0-2.9-1.3-2.9-2.8V107
		c0-1.6,1.3-2.8,2.9-2.8h19.9v-3.6c0-1.1,0.6-2,1.5-2.5c1-0.5,2.1-0.4,3,0.2l12.9,9.2c0.8,0.5,1.2,1.4,1.2,2.3
		c0,0.9-0.5,1.8-1.3,2.3l-12.9,8.6C533.2,121.1,532.6,121.2,532,121.2z M509.4,111.7h19.9c1.6,0,2.9,1.3,2.9,2.8v3.7l12.5-8.4
		l-12.5-8.9v3.5c0,1.6-1.3,2.8-2.9,2.8h-19.9V111.7z M544.9,109.7C544.9,109.7,544.9,109.7,544.9,109.7L544.9,109.7z"/>
	<path class="st15" d="M532.8,207.1c-0.4,0-0.8-0.1-1.2-0.3c-0.8-0.4-1.2-1.2-1.2-2v-3.7c0-0.2-0.2-0.3-0.4-0.3h-20
		c-1.3,0-2.4-1-2.4-2.3v-4.6c0-1.3,1.1-2.3,2.4-2.3h20c0.2,0,0.4-0.1,0.4-0.3v-3.6c0-0.9,0.5-1.7,1.3-2.1c0.8-0.4,1.8-0.4,2.5,0.2
		l12.8,8.9c0.6,0.4,1,1.2,1,1.9c0,0.8-0.4,1.5-1.1,1.9l-12.8,8.3C533.7,206.9,533.3,207.1,532.8,207.1z M510.1,193.5
		c-0.2,0-0.4,0.1-0.4,0.3v4.6c0,0.2,0.2,0.3,0.4,0.3h20c1.3,0,2.4,1,2.4,2.3v3.7c0,0.2,0.1,0.2,0.2,0.3c0.1,0,0.2,0.1,0.4,0
		l12.8-8.3c0.1-0.1,0.2-0.2,0.2-0.3c0-0.1,0-0.2-0.1-0.3l-12.8-8.9c-0.2-0.1-0.4-0.1-0.4,0c-0.1,0-0.2,0.1-0.2,0.3v3.6
		c0,1.3-1.1,2.3-2.4,2.3H510.1z"/>
	<path class="st16" d="M532.9,207.9c-0.5,0-0.9-0.1-1.4-0.3c-0.9-0.5-1.5-1.4-1.5-2.5v-3.7h-19.9c-1.6,0-2.9-1.3-2.9-2.8v-4.8
		c0-1.6,1.3-2.8,2.9-2.8H530v-3.6c0-1.1,0.6-2,1.5-2.5c1-0.5,2.1-0.4,3,0.2l12.9,9.2c0.8,0.5,1.2,1.4,1.2,2.3c0,0.9-0.5,1.8-1.3,2.3
		l-12.9,8.5C534,207.7,533.4,207.9,532.9,207.9z M510.2,198.4h19.9c1.6,0,2.9,1.3,2.9,2.8v3.6l12.5-8.3l-12.5-8.9v3.5
		c0,1.6-1.3,2.8-2.9,2.8h-19.9V198.4z M545.7,196.4L545.7,196.4L545.7,196.4z"/>
	<path class="st15" d="M634.3,121.3c-0.4,0-0.8-0.1-1.1-0.3c-0.8-0.4-1.2-1.2-1.2-2.1v-3.7c0-0.2-0.2-0.3-0.4-0.3h-20
		c-1.3,0-2.4-1.1-2.4-2.3V108c0-1.3,1.1-2.3,2.4-2.3h20c0.2,0,0.4-0.2,0.4-0.3v-3.6c0-0.9,0.5-1.7,1.3-2.1c0.8-0.4,1.8-0.4,2.5,0.2
		l12.8,8.9c0.6,0.4,1,1.2,1,1.9c0,0.8-0.4,1.5-1.1,1.9l-12.8,8.3C635.2,121.2,634.7,121.3,634.3,121.3z M611.5,107.7
		c-0.2,0-0.4,0.2-0.4,0.3v4.6c0,0.2,0.2,0.3,0.4,0.3h20c1.3,0,2.4,1.1,2.4,2.3v3.7c0,0.2,0.1,0.2,0.2,0.3c0.1,0,0.2,0.1,0.4,0
		l12.8-8.3c0.1-0.1,0.2-0.2,0.2-0.3c0-0.1,0-0.2-0.1-0.3l-12.8-8.9c-0.2-0.1-0.4-0.1-0.4,0c-0.1,0-0.2,0.1-0.2,0.3v3.6
		c0,1.3-1.1,2.3-2.4,2.3H611.5z"/>
	<path class="st16" d="M634.3,122.1c-0.5,0-0.9-0.1-1.4-0.3c-0.9-0.5-1.5-1.5-1.5-2.5v-3.7h-19.9c-1.6,0-2.9-1.3-2.9-2.8v-4.8
		c0-1.6,1.3-2.8,2.9-2.8h19.9v-3.6c0-1.1,0.6-2,1.5-2.5c1-0.5,2.1-0.4,3,0.2l12.9,9.2c0.8,0.5,1.2,1.4,1.2,2.3s-0.5,1.8-1.3,2.3
		l-12.9,8.6C635.4,121.9,634.9,122.1,634.3,122.1z M611.7,112.6h19.9c1.6,0,2.9,1.3,2.9,2.8v3.7l12.5-8.4l-12.5-8.9v3.5
		c0,1.6-1.3,2.8-2.9,2.8h-19.9V112.6z M647.1,110.5C647.1,110.5,647.1,110.5,647.1,110.5L647.1,110.5z"/>
	<path class="st15" d="M635,207.4c-0.4,0-0.8-0.1-1.2-0.3c-0.8-0.4-1.2-1.2-1.2-2v-3.7c0-0.2-0.2-0.3-0.4-0.3h-20
		c-1.3,0-2.4-1-2.4-2.3v-4.6c0-1.3,1.1-2.3,2.4-2.3h20c0.2,0,0.4-0.1,0.4-0.3V188c0-0.9,0.5-1.7,1.3-2.1c0.8-0.4,1.8-0.4,2.5,0.2
		l12.8,8.9c0.6,0.4,1,1.2,1,1.9c0,0.8-0.4,1.5-1.1,1.9l-12.8,8.3C636,207.3,635.5,207.4,635,207.4z M612.3,193.9
		c-0.2,0-0.4,0.1-0.4,0.3v4.6c0,0.2,0.2,0.3,0.4,0.3h20c1.3,0,2.4,1,2.4,2.3v3.7c0,0.2,0.1,0.2,0.2,0.3c0.1,0,0.2,0.1,0.4,0
		l12.8-8.3c0.1-0.1,0.2-0.2,0.2-0.3c0-0.1,0-0.2-0.1-0.3l-12.8-8.9c-0.2-0.1-0.4-0.1-0.4,0c-0.1,0-0.2,0.1-0.2,0.3v3.6
		c0,1.3-1.1,2.3-2.4,2.3H612.3z"/>
	<path class="st16" d="M635.1,208.2c-0.5,0-0.9-0.1-1.4-0.3c-0.9-0.5-1.5-1.4-1.5-2.5v-3.7h-19.9c-1.6,0-2.9-1.3-2.9-2.8v-4.8
		c0-1.6,1.3-2.8,2.9-2.8h19.9v-3.6c0-1.1,0.6-2,1.5-2.5c1-0.5,2.1-0.4,3,0.2l12.9,9.2c0.8,0.5,1.2,1.4,1.2,2.3
		c0,0.9-0.5,1.8-1.3,2.3l-12.9,8.5C636.2,208.1,635.7,208.2,635.1,208.2z M612.5,198.7h19.9c1.6,0,2.9,1.3,2.9,2.8v3.6l12.5-8.3
		l-12.5-8.9v3.5c0,1.6-1.3,2.8-2.9,2.8h-19.9V198.7z M647.9,196.7L647.9,196.7L647.9,196.7z"/>
	<path class="st17" d="M116.1,213"/>
	<path class="st15" d="M736.8,121.9c-0.4,0-0.8-0.1-1.1-0.3c-0.8-0.4-1.2-1.2-1.2-2.1v-3.7c0-0.2-0.2-0.3-0.4-0.3h-20
		c-1.3,0-2.4-1.1-2.4-2.3v-4.6c0-1.3,1.1-2.3,2.4-2.3h20c0.2,0,0.4-0.2,0.4-0.3v-3.6c0-0.9,0.5-1.7,1.3-2.1c0.8-0.4,1.8-0.4,2.5,0.2
		l12.8,8.9c0.6,0.4,1,1.2,1,1.9c0,0.8-0.4,1.5-1.1,1.9l-12.8,8.3C737.7,121.7,737.2,121.9,736.8,121.9z M714.1,108.2
		c-0.2,0-0.4,0.2-0.4,0.3v4.6c0,0.2,0.2,0.3,0.4,0.3h20c1.3,0,2.4,1.1,2.4,2.3v3.7c0,0.2,0.1,0.2,0.2,0.3c0.1,0,0.2,0.1,0.4,0
		l12.8-8.3c0.1-0.1,0.2-0.2,0.2-0.3c0-0.1,0-0.2-0.1-0.3L737,102c-0.2-0.1-0.4-0.1-0.4,0c-0.1,0-0.2,0.1-0.2,0.3v3.6
		c0,1.3-1.1,2.3-2.4,2.3H714.1z"/>
	<path class="st16" d="M736.9,122.7c-0.5,0-0.9-0.1-1.4-0.3c-0.9-0.5-1.5-1.5-1.5-2.5v-3.7h-19.9c-1.6,0-2.9-1.3-2.9-2.8v-4.8
		c0-1.6,1.3-2.8,2.9-2.8H734V102c0-1.1,0.6-2,1.5-2.5c1-0.5,2.1-0.4,3,0.2l12.9,9.2c0.8,0.5,1.2,1.4,1.2,2.3s-0.5,1.8-1.3,2.3
		l-12.9,8.6C738,122.5,737.4,122.7,736.9,122.7z M714.2,113.1h19.9c1.6,0,2.9,1.3,2.9,2.8v3.7l12.5-8.4l-12.5-8.9v3.5
		c0,1.6-1.3,2.8-2.9,2.8h-19.9V113.1z M749.7,111.1C749.7,111.1,749.7,111.1,749.7,111.1L749.7,111.1z"/>
	<path class="st15" d="M737.5,207.6c-0.4,0-0.8-0.1-1.2-0.3c-0.8-0.4-1.2-1.2-1.2-2v-3.7c0-0.2-0.2-0.3-0.4-0.3h-20
		c-1.3,0-2.4-1-2.4-2.3v-4.6c0-1.3,1.1-2.3,2.4-2.3h20c0.2,0,0.4-0.1,0.4-0.3v-3.6c0-0.9,0.5-1.7,1.3-2.1c0.8-0.4,1.8-0.4,2.5,0.2
		l12.8,8.9c0.6,0.4,1,1.2,1,1.9c0,0.8-0.4,1.5-1.1,1.9l-12.8,8.3C738.4,207.5,738,207.6,737.5,207.6z M714.8,194
		c-0.2,0-0.4,0.1-0.4,0.3v4.6c0,0.2,0.2,0.3,0.4,0.3h20c1.3,0,2.4,1,2.4,2.3v3.7c0,0.2,0.1,0.2,0.2,0.3c0.1,0,0.2,0.1,0.4,0
		l12.8-8.3c0.1-0.1,0.2-0.2,0.2-0.3c0-0.1,0-0.2-0.1-0.3l-12.8-8.9c-0.2-0.1-0.4-0.1-0.4,0c-0.1,0-0.2,0.1-0.2,0.3v3.6
		c0,1.3-1.1,2.3-2.4,2.3H714.8z"/>
	<path class="st16" d="M737.6,208.4c-0.5,0-0.9-0.1-1.4-0.3c-0.9-0.5-1.5-1.4-1.5-2.5v-3.7h-19.9c-1.6,0-2.9-1.3-2.9-2.8v-4.8
		c0-1.6,1.3-2.8,2.9-2.8h19.9v-3.6c0-1.1,0.6-2,1.5-2.5c1-0.5,2.1-0.4,3,0.2l12.9,9.2c0.8,0.5,1.2,1.4,1.2,2.3
		c0,0.9-0.5,1.8-1.3,2.3l-12.9,8.5C738.7,208.2,738.2,208.4,737.6,208.4z M714.9,198.9h19.9c1.6,0,2.9,1.3,2.9,2.8v3.6l12.5-8.3
		l-12.5-8.9v3.5c0,1.6-1.3,2.8-2.9,2.8h-19.9V198.9z M750.4,196.9L750.4,196.9L750.4,196.9z"/>
	<path class="st15" d="M433.1,298.8c-0.4,0-0.8-0.1-1.2-0.3c-0.7-0.4-1.2-1.1-1.2-1.9v-3.4c0-0.1-0.2-0.2-0.4-0.2h-20
		c-1.3,0-2.4-1-2.4-2.2v-4.3c0-1.2,1.1-2.2,2.4-2.2h20c0.2,0,0.4-0.1,0.4-0.2v-3.3c0-0.8,0.4-1.5,1.2-1.9c0.8-0.4,1.8-0.4,2.5,0.1
		l12.8,8.3c0.7,0.4,1,1.1,1,1.9c0,0.8-0.4,1.4-1.1,1.9l-12.8,7.7C434,298.7,433.5,298.8,433.1,298.8z M410.4,286.2
		c-0.2,0-0.4,0.1-0.4,0.2v4.3c0,0.1,0.2,0.2,0.4,0.2h20c1.3,0,2.4,1,2.4,2.2v3.4c0,0.1,0.1,0.1,0.1,0.2c0.1,0.1,0.3,0.1,0.5,0
		l12.8-7.7c0.1,0,0.1-0.1,0.1-0.2c0-0.1-0.1-0.1-0.1-0.2l-12.8-8.3c-0.2-0.1-0.4-0.1-0.5,0c-0.1,0-0.1,0.1-0.1,0.2v3.3
		c0,1.2-1.1,2.2-2.4,2.2H410.4z"/>
	<path class="st16" d="M433.2,299.6c-0.5,0-1-0.1-1.5-0.4c-0.9-0.5-1.4-1.4-1.4-2.4v-3.3l-19.9,0c-1.6,0-2.9-1.2-2.9-2.7v-4.5
		c0-1.5,1.3-2.7,2.9-2.7h19.9v-3.2c0-1,0.5-1.9,1.5-2.4c1-0.5,2.1-0.5,3.1,0.1l12.9,8.5c0.8,0.5,1.2,1.4,1.2,2.3
		c0,0.9-0.5,1.8-1.3,2.3l-12.9,8C434.2,299.4,433.7,299.6,433.2,299.6z M410.5,290.5h19.9c1.6,0,2.9,1.2,2.9,2.7v3.3l12.3-7.7
		l-12.3-8.2v3.2c0,1.5-1.3,2.7-2.9,2.7h-19.9V290.5z"/>
	<path class="st15" d="M431.7,411.8c-0.4,0-0.9-0.1-1.2-0.3c-0.7-0.4-1.1-1.1-1.1-1.9v-3.4c0-0.1-0.1-0.2-0.4-0.2h-20
		c-1.3,0-2.4-1-2.4-2.2v-4.2c0-1.2,1.1-2.2,2.4-2.2h20c0.2,0,0.4-0.1,0.4-0.2v-3.3c0-0.8,0.4-1.5,1.2-1.9c0.8-0.4,1.8-0.4,2.5,0.1
		l12.8,8.2c0.7,0.4,1,1.1,1,1.9c0,0.8-0.4,1.4-1.1,1.8l-12.8,7.6C432.5,411.7,432.1,411.8,431.7,411.8z M408.9,399.3
		c-0.2,0-0.4,0.1-0.4,0.2v4.2c0,0.1,0.1,0.2,0.4,0.2h20c1.3,0,2.4,1,2.4,2.2v3.4c0,0.1,0.1,0.1,0.1,0.2c0.1,0.1,0.3,0.1,0.5,0
		l12.8-7.6c0.1,0,0.1-0.1,0.1-0.2c0-0.1-0.1-0.1-0.1-0.2l-12.8-8.2c-0.2-0.1-0.4-0.1-0.5,0c-0.1,0-0.1,0.1-0.1,0.2v3.3
		c0,1.2-1.1,2.2-2.4,2.2H408.9z"/>
	<path class="st16" d="M431.7,412.6c-0.5,0-1-0.1-1.5-0.4c-0.9-0.5-1.4-1.4-1.4-2.3v-3.3l-19.9,0c-1.6,0-2.9-1.2-2.9-2.7v-4.4
		c0-1.5,1.3-2.7,2.9-2.7h19.9v-3.2c0-1,0.5-1.9,1.4-2.4c1-0.5,2.1-0.5,3.1,0.1l12.9,8.4c0.8,0.5,1.3,1.4,1.2,2.3
		c0,0.9-0.5,1.8-1.3,2.3l-12.9,7.9C432.8,412.4,432.3,412.6,431.7,412.6z M409.1,403.6H429c1.6,0,2.9,1.2,2.9,2.7v3.2l12.3-7.6
		l-12.3-8.1v3.1c0,1.5-1.3,2.7-2.9,2.7h-19.9V403.6z"/>
	<path class="st15" d="M535.3,298.9c-0.4,0-0.8-0.1-1.2-0.3c-0.7-0.4-1.2-1.1-1.2-1.9v-3.4c0-0.1-0.2-0.2-0.4-0.2h-20
		c-1.3,0-2.4-1-2.4-2.2v-4.3c0-1.2,1.1-2.2,2.4-2.2h20c0.2,0,0.4-0.1,0.4-0.2v-3.3c0-0.8,0.4-1.5,1.2-1.9c0.8-0.4,1.8-0.4,2.5,0.1
		l12.8,8.3c0.7,0.4,1,1.1,1,1.9c0,0.8-0.4,1.4-1.1,1.9l-12.8,7.7C536.2,298.8,535.8,298.9,535.3,298.9z M512.6,286.2
		c-0.2,0-0.4,0.1-0.4,0.2v4.3c0,0.1,0.2,0.2,0.4,0.2h20c1.3,0,2.4,1,2.4,2.2v3.4c0,0.1,0.1,0.1,0.1,0.2c0.1,0.1,0.3,0.1,0.5,0
		l12.8-7.7c0.1,0,0.1-0.1,0.1-0.2c0-0.1-0.1-0.1-0.1-0.2l-12.8-8.3c-0.2-0.1-0.4-0.1-0.5,0c-0.1,0-0.1,0.1-0.1,0.2v3.3
		c0,1.2-1.1,2.2-2.4,2.2H512.6z"/>
	<path class="st15" d="M534.4,372.4c-0.4,0-0.8-0.1-1.2-0.3c-0.7-0.4-1.2-1.1-1.2-2v-3.5c0-0.1-0.2-0.3-0.4-0.3h-20
		c-1.3,0-2.4-1-2.4-2.3v-4.3c0-1.2,1.1-2.3,2.4-2.3h20c0.2,0,0.4-0.1,0.4-0.3v-3.4c0-0.8,0.5-1.6,1.2-2c0.8-0.4,1.8-0.4,2.5,0.1
		l12.8,8.4c0.7,0.4,1,1.1,1,1.9c0,0.8-0.4,1.5-1.1,1.9l-12.8,7.9C535.3,372.3,534.9,372.4,534.4,372.4z M511.7,359.5
		c-0.2,0-0.4,0.1-0.4,0.3v4.3c0,0.1,0.2,0.3,0.4,0.3h20c1.3,0,2.4,1,2.4,2.3v3.5c0,0.1,0.1,0.2,0.1,0.2c0.1,0.1,0.3,0.1,0.5,0
		l12.8-7.9c0.1-0.1,0.1-0.1,0.1-0.2c0-0.1,0-0.1-0.1-0.2l-12.8-8.4c-0.2-0.1-0.4-0.1-0.5,0c-0.1,0-0.2,0.1-0.2,0.2v3.4
		c0,1.2-1.1,2.3-2.4,2.3H511.7z"/>
	<path class="st16" d="M534.5,373.2c-0.5,0-1-0.1-1.4-0.4c-0.9-0.5-1.4-1.4-1.4-2.4V367h-19.9c-1.6,0-2.9-1.2-2.9-2.8v-4.5
		c0-1.5,1.3-2.8,2.9-2.8h19.9v-3.3c0-1,0.6-1.9,1.5-2.4c1-0.5,2.1-0.5,3,0.2L549,360c0.8,0.5,1.2,1.4,1.2,2.3c0,0.9-0.5,1.8-1.3,2.3
		l-12.9,8.1C535.6,373,535,373.2,534.5,373.2z M511.8,364h19.9c1.6,0,2.9,1.2,2.9,2.8v3.4l12.4-7.8l-12.4-8.4v3.2
		c0,1.5-1.3,2.8-2.9,2.8h-19.9V364z"/>
	<path class="st16" d="M535.4,299.7c-0.5,0-1-0.1-1.5-0.4c-0.9-0.5-1.4-1.4-1.4-2.4v-3.3l-19.9,0c-1.6,0-2.9-1.2-2.9-2.7v-4.5
		c0-1.5,1.3-2.7,2.9-2.7h19.9v-3.2c0-1,0.5-1.9,1.5-2.4c1-0.5,2.1-0.5,3.1,0.1l12.9,8.5c0.8,0.5,1.2,1.4,1.2,2.3
		c0,0.9-0.5,1.8-1.3,2.3l-12.9,8C536.5,299.5,535.9,299.7,535.4,299.7z M512.7,290.6h19.9c1.6,0,2.9,1.2,2.9,2.7v3.3l12.3-7.7
		l-12.3-8.2v3.2c0,1.5-1.3,2.7-2.9,2.7h-19.9V290.6z"/>
	<path class="st15" d="M533.4,454.2c-0.4,0-0.9-0.1-1.2-0.3c-0.7-0.4-1.1-1.1-1.1-1.9v-3.4c0-0.1-0.1-0.2-0.4-0.2h-20
		c-1.3,0-2.4-1-2.4-2.2V442c0-1.2,1.1-2.2,2.4-2.2h20c0.2,0,0.4-0.1,0.4-0.2v-3.3c0-0.8,0.4-1.5,1.2-1.9c0.8-0.4,1.8-0.4,2.5,0.1
		l12.8,8.2c0.7,0.4,1,1.1,1,1.9c0,0.8-0.4,1.4-1.1,1.8l-12.8,7.6C534.3,454.1,533.8,454.2,533.4,454.2z M510.7,441.7
		c-0.2,0-0.4,0.1-0.4,0.2v4.2c0,0.1,0.1,0.2,0.4,0.2h20c1.3,0,2.4,1,2.4,2.2v3.4c0,0.1,0.1,0.1,0.1,0.2c0.1,0.1,0.3,0.1,0.5,0
		l12.8-7.6c0.1,0,0.1-0.1,0.1-0.2c0-0.1-0.1-0.1-0.1-0.2l-12.8-8.2c-0.2-0.1-0.4-0.1-0.5,0c0,0-0.1,0.1-0.1,0.2v3.3
		c0,1.2-1.1,2.2-2.4,2.2H510.7z"/>
	<path class="st16" d="M533.5,455c-0.5,0-1-0.1-1.5-0.4c-0.9-0.5-1.4-1.4-1.4-2.3V449l-19.9,0c-1.6,0-2.9-1.2-2.9-2.7v-4.4
		c0-1.5,1.3-2.7,2.9-2.7h19.9V436c0-1,0.5-1.9,1.4-2.4c1-0.5,2.1-0.5,3.1,0.1l12.9,8.4c0.8,0.5,1.3,1.4,1.2,2.3
		c0,0.9-0.5,1.8-1.3,2.3l-12.9,7.9C534.6,454.9,534,455,533.5,455z M510.8,446h19.9c1.6,0,2.9,1.2,2.9,2.7v3.2l12.3-7.5l-12.3-8.1
		v3.1c0,1.5-1.3,2.7-2.9,2.7h-19.9V446z"/>
	<path class="st15" d="M637.3,298.6c-0.4,0-0.8-0.1-1.2-0.3c-0.7-0.4-1.2-1.1-1.2-1.9V293c0-0.1-0.2-0.2-0.4-0.2h-20
		c-1.3,0-2.4-1-2.4-2.2v-4.3c0-1.2,1.1-2.2,2.4-2.2h20c0.2,0,0.4-0.1,0.4-0.2v-3.3c0-0.8,0.4-1.5,1.2-1.9c0.8-0.4,1.8-0.4,2.5,0.1
		l12.8,8.3c0.7,0.4,1,1.1,1,1.9c0,0.8-0.4,1.4-1.1,1.9l-12.8,7.7C638.2,298.5,637.8,298.6,637.3,298.6z M614.6,286
		c-0.2,0-0.4,0.1-0.4,0.2v4.3c0,0.1,0.2,0.2,0.4,0.2h20c1.3,0,2.4,1,2.4,2.2v3.4c0,0.1,0.1,0.1,0.1,0.2c0.1,0.1,0.3,0.1,0.5,0
		l12.8-7.7c0.1,0,0.1-0.1,0.1-0.2c0-0.1-0.1-0.1-0.1-0.2l-12.8-8.3c-0.2-0.1-0.4-0.1-0.5,0c-0.1,0-0.1,0.1-0.1,0.2v3.3
		c0,1.2-1.1,2.2-2.4,2.2H614.6z"/>
	<path class="st16" d="M637.4,299.4c-0.5,0-1-0.1-1.5-0.4c-0.9-0.5-1.4-1.4-1.4-2.4v-3.3l-19.9,0c-1.6,0-2.9-1.2-2.9-2.7v-4.5
		c0-1.5,1.3-2.7,2.9-2.7h19.9v-3.2c0-1,0.5-1.9,1.5-2.4c1-0.5,2.1-0.5,3.1,0.1l12.9,8.5c0.8,0.5,1.2,1.4,1.2,2.3
		c0,0.9-0.5,1.8-1.3,2.3l-12.9,8C638.5,299.3,637.9,299.4,637.4,299.4z M614.7,290.3h19.9c1.6,0,2.9,1.2,2.9,2.7v3.3l12.3-7.7
		l-12.3-8.2v3.2c0,1.5-1.3,2.7-2.9,2.7h-19.9V290.3z"/>
	<path class="st15" d="M735.3,299c-0.4,0-0.8-0.1-1.2-0.3c-0.7-0.4-1.2-1.1-1.2-1.9v-3.4c0-0.1-0.2-0.2-0.4-0.2h-20
		c-1.3,0-2.4-1-2.4-2.2v-4.3c0-1.2,1.1-2.2,2.4-2.2h20c0.2,0,0.4-0.1,0.4-0.2v-3.3c0-0.8,0.4-1.5,1.2-1.9c0.8-0.4,1.8-0.4,2.5,0.1
		l12.8,8.3c0.7,0.4,1,1.1,1,1.9c0,0.8-0.4,1.4-1.1,1.9l-12.8,7.7C736.2,298.9,735.8,299,735.3,299z M712.6,286.3
		c-0.2,0-0.4,0.1-0.4,0.2v4.3c0,0.1,0.2,0.2,0.4,0.2h20c1.3,0,2.4,1,2.4,2.2v3.4c0,0.1,0.1,0.1,0.1,0.2c0.1,0.1,0.3,0.1,0.5,0
		l12.8-7.7c0.1,0,0.1-0.1,0.1-0.2c0-0.1-0.1-0.1-0.1-0.2l-12.8-8.3c-0.2-0.1-0.4-0.1-0.5,0c-0.1,0-0.1,0.1-0.1,0.2v3.3
		c0,1.2-1.1,2.2-2.4,2.2H712.6z"/>
	<path class="st16" d="M735.4,299.8c-0.5,0-1-0.1-1.5-0.4c-0.9-0.5-1.4-1.4-1.4-2.4v-3.3l-19.9,0c-1.6,0-2.9-1.2-2.9-2.7v-4.5
		c0-1.5,1.3-2.7,2.9-2.7h19.9v-3.2c0-1,0.5-1.9,1.5-2.4c1-0.5,2.1-0.5,3.1,0.1l12.9,8.5c0.8,0.5,1.2,1.4,1.2,2.3
		c0,0.9-0.5,1.8-1.3,2.3l-12.9,8C736.5,299.6,735.9,299.8,735.4,299.8z M712.7,290.7h19.9c1.6,0,2.9,1.2,2.9,2.7v3.3l12.3-7.7
		l-12.3-8.2v3.2c0,1.5-1.3,2.7-2.9,2.7h-19.9V290.7z"/>
	<path class="st17" d="M641.6,377.8"/>
	<path class="st18" d="M641.6,367.2"/>
	<path class="st17" d="M640.6,368.3"/>
	<path class="st18" d="M633.9,372.6"/>
	<path class="st18" d="M641.6,369.7"/>
	<path class="st15" d="M664,366.7l-3.3,0c-13.9-0.2-21.9-0.3-22.8-0.4c-0.4,0-1.1-0.3-1.4-1.4c-0.5-1.5-0.7-5,0.8-6.4
		c0.4-0.3,0.6-0.6,9.1-0.5c3.3,0,8.5,0,11.5,0l2.2,0c0.4,0,1.6,0,1.6-2.3l0-2.3c0-2,0-4.4,0-5.8c0,0-0.1-0.2-0.4-0.2h-3.6
		c-0.9,0-1.8-0.5-2.2-1.3c-0.3-0.7-0.2-1.6,0.3-2.2l9-10.9c0.5-0.6,1.1-0.9,1.9-0.9c0.8,0,1.4,0.3,1.9,0.9l8.4,10.9
		c0.5,0.6,0.6,1.5,0.2,2.2c-0.4,0.8-1.2,1.3-2.2,1.3h-3.7c-0.2,0-0.4,0.1-0.4,0.2c0.1,6.9,0.1,15.3-0.5,16.4l0,0
		c-0.7,1.3-1.7,2-2.9,2.4C666.5,366.6,664.3,366.7,664,366.7z M638.4,364.2c1.9,0.1,11.4,0.2,22.3,0.4l3.3,0c0.8,0,2.3-0.1,2.9-0.3
		c0.8-0.2,1.3-0.7,1.8-1.5c0.3-1.1,0.4-8.7,0.3-15.5c0-1.2,1.1-2.2,2.4-2.2h3.7c0.2,0,0.3-0.1,0.3-0.1l0.8-0.7l-0.8,0.6l-8.4-10.9
		c-0.1-0.1-0.2-0.1-0.3-0.1c0,0,0,0,0,0c-0.1,0-0.3,0-0.3,0.1l-9,10.9l0,0.1c0,0,0.1,0.1,0.3,0.1h3.6c1.3,0,2.4,1,2.4,2.2
		c0,1.4,0,3.8,0,5.8l0,2.3c0,2.7-1.3,4.3-3.6,4.3l-2.2,0c-3.1,0-8.3,0-11.5,0l-0.1,0c-4.4-0.1-7,0-7.8,0.1
		C638,360.8,638.1,363.4,638.4,364.2z M668.8,362.9C668.8,362.9,668.8,362.9,668.8,362.9C668.8,362.9,668.8,362.9,668.8,362.9
		C668.8,362.9,668.8,362.9,668.8,362.9z"/>
	<path class="st17" d="M664.5,369.9"/>
	<path class="st15" d="M562.6,415.4c-0.4,0-0.8-0.1-1.2-0.3l-10.8-6.5c-0.6-0.4-1-1-1-1.7c0-0.7,0.3-1.3,0.9-1.7l10.8-7
		c0.7-0.4,1.6-0.5,2.3-0.1c0.7,0.4,1.1,1,1.1,1.8v2.8c0,0,0.1,0.1,0.2,0.1c1.5,0,4,0,6.1,0l2,0c1,0,2.3-0.2,2.3-1l0-1.7
		c0-2.4,0-6.4,0-8.9c-0.1-6.8,0.1-7,0.6-7.3c1.4-1.1,5.3-1,6.7-0.4c0.8,0.3,1,0.8,1.1,1.2c0.1,0.7,0.2,6.8,0.4,17.6l0.1,2.6
		c0,0.4-0.1,2-0.4,2.9c-0.4,1-1.2,1.8-2.5,2.4c-1.2,0.5-10.7,0.5-16.2,0.4c-0.1,0-0.1,0-0.2,0.1l0,2.9c0,0.7-0.4,1.4-1.1,1.8
		C563.3,415.3,562.9,415.4,562.6,415.4z M562.5,399.8c0,0-0.1,0-0.1,0l-10.8,7l10.8,6.6c0.1,0.1,0.3,0,0.3,0l0-2.9
		c0-1.1,1-2.1,2.2-2.1c6.8,0.1,14.4,0,15.4-0.2c1-0.5,1.3-0.9,1.4-1.3c0.2-0.4,0.3-1.5,0.3-2.2l-0.1-2.6c-0.2-7.8-0.3-15.2-0.4-17
		c-0.9-0.3-3.4-0.3-4.3,0.1c-0.1,0.7-0.1,2.7-0.1,5.8c0,0,0,0.1,0,0.1c0,2.5,0,6.5,0,8.8l0,1.7c0,0.7-0.3,3-4.3,3l-2,0
		c-2.1,0-4.6,0-6,0c-1.2,0-2.2-0.9-2.2-2.1v-2.8l0,0C562.7,399.8,562.7,399.8,562.5,399.8C562.6,399.8,562.6,399.8,562.5,399.8z"/>
	<path class="st17" d="M578.7,407.6"/>
	<path class="st17" d="M663.5,360.5"/>
	<path class="st18" d="M664.5,361.8"/>
	<path class="st18" d="M638,359.1"/>
	<path class="st18" d="M639.3,358.9"/>
	<path class="st18" d="M638,359.1"/>
</g>
</svg>
