<?xml version="1.0" encoding="utf-8"?>
<!-- Generator: Adobe Illustrator 19.0.0, SVG Export Plug-In . SVG Version: 6.00 Build 0)  -->
<svg version="1.1" id="Layer_1" xmlns="http://www.w3.org/2000/svg" xmlns:xlink="http://www.w3.org/1999/xlink" x="0px" y="0px"
	 viewBox="-297 0 595.3 841.9" style="enable-background:new -297 0 595.3 841.9;" xml:space="preserve">
<path style="fill:#662D91;" d="M-13.1,294.2l13.3-14.4l-3-0.9l2.1-2l-2.2-1.6l-22.4,7.1l0.6-3.9l4.2-4.2l20.1-3.1l4.3,4.6l6.2-8.5
	l3.5,3.1l3-4.9c0,0,17.4,8.1,17,8.6c-0.4,0.5,14.2-3.2,14.2-3.2l1.8,4.1l13.2-0.1l9.6,9.4l1.3-2.7v-1.8H96l12.6,14.4l1,5.1l0.7-0.5
	v-5.7l46.9,57.6h-19.3l-4.2,10l2,6.8l11.1-3l4.5,8.1l3.6-1.7c0,0-1.7-7.6-2-8.3s6.5-1.5,6.5-1.5l21.4,54.9c0,0-1.1,12.3-3,11.2
	c-1.9-1.1,3,1.9,3,1.9h13.1h12l-14.6,10l-6.7-2.2l-7.8,40l-5.2-12l-2.6-6.7l4.1-12l1.9-7.1l-4.5-5.9c0,0-3,0-5.6,4.1
	s4.5,9.3,4.5,9.3s-3.4,3.7-6.7,5.2s-6.3,6-7.8,7.5s-1.3,9.9-1.3,9.9l-2.8,4.1l-2.6,3.5l-1.1,5.4l-5,2.2l-1.1,3.4
	c0,0-2.6,2.1-3.7,2.4c-1.1,0.4-4.1,3.2-4.1,3.2l-2.6,5.2l1.9,8c0,0-7.8-0.9-8.6,0c-0.7,0.9-0.6,4.3-1.7,4.9c-1.1,0.6-4.9,0-4.9,0
	s0-2.1,0-3.7c0-1.7-0.4-5.8-0.4-5.8l-2.4-3l-1.5,3.2l0.9,9.6l2.2,7l4.3-4.3l0.4-1.1h3.5l0.9-0.6l0.7-1.3l2.8,1.7l-1.9,3l3.5,0.2
	l-3.4,8.4h-4.7l0.2,5.6h7.8l-7.3,4.3c0,0-3.5,0-6.5,4.9s-4.9,6.9-6,9s-20.6-18.3-20.6-18.3l15.4-6.9l-1.9-4.9l-0.6-7.5
	c0,0-3.2-3.5-4.1-3.7s-6.3-1.1-6.3-1.1l-1.3,0.4l2.4,6.5l1.5-1.3l-5.1,5.6v1.7l-1.4-7.7c0,0-1.5,0-2.1,0.2s-3.5,3.5-4.1,4.1
	c-0.2,0.5-0.2,0.5-0.2,0.5s-1.9,3.2-2.4,3.4s-2.4-2.1-2.4-2.1l-3.9,2.4l0.2,5c0,0-0.2,2.1-0.2,2.6c0,0.6-11,0.6-11,0.6h-6l-4.5-3.9
	l-6.3-2.2l-0.4,3.4l-2.8,4.7l-3.4,1.7l-5.4,5.6l-8-2.1l-0.2-3.2l6.9-0.6l0.6-1.9l-1.9-3c0,0-3,0-3.5,0c-0.6,0-1.7,0.6-1.7,0.6
	l-1.3,2.4l-1.7-1.5l-6.9-4.9l-1.2,2.4c0,0-3.3,2.6-0.9,3.4s9.3,4.1,9.3,4.1l-1.7,1.9c0,0-1.9,0-2.6-0.4c-0.7-0.4-3,1.1-3,1.1
	l-0.4,1.5l-4.7-0.9c0,0-3.7-2.6-4.3-2.8c-0.6-0.2-2.2-0.9-2.2-0.9s-2.2,1.1-3.5,1.5s-4.5,0.7-4.9-0.2s-0.4-7.1-0.4-7.1l2-3.6
	l-9.1,1.4c0,0-6.1-0.9-6.8-1.2c-0.7-0.4-9.6-4.9-9.6-4.9l-3.5-0.2c0,0-2.4-4.1-2.6-4.6c-0.2-0.5-4.4-3.5-4.4-3.5l-5.9-1.4l-7.1-1.7
	l-1.9-2.1c0,0-9.5,3.9-10.5,4.2c-1,0.4-9.3,2.7-9.3,2.7v-1.2l7.3-2.7l1.7-4.5l-6.8,0.1c0,0-10.1,2.7-11.1,2.7s-10.5,5.5-10.5,5.5
	l13.2,0.5l0.2,5.5l2,5.7l5.7,2.7l26.6,9l12.5-3l1.2,3l7.2,9.7c0,0-11,0.2-12-0.7c-1-1-4.2-1.7-4.2-1.7v10c0,0-3.2-1.7-4.5-6
	s-1.2-6.2-2.5-7.5c-1.2-1.2-12.5-2.5-13.4-2.5c-1,0-17.4-6-17.4-6l-22.4-10.2v-5.7l-5.2-6.7l-8.5,0.2v-6.7l20.2-1.2l2.7-6
	c0,0-12.5,0.5-13.4,0.7s0.7-9.5,0.7-9.5l-14.7,8.5l-4.5-1v-12.5l-4.5-21.2l8.5-25.6l0.2-13.7l-16.2-9.2l-1-19.2l2.2,6.5l2.7-1.2
	l-0.5-9.2l-6.5-1.2l-4.5-13.4l-4-5.2l-10.2,3.7l-3.2-13.9l20.2,2.5l6-6l-4.2-3.7c0,0-12-6-12.7-6s-11.2-4-11.2-4l8.7-6l8.7,4.2
	l5,0.5l-10.7-8.2l-2.2-1.7l13.9-4.5l10.5-1.2c0,0,2.5,1.2,1.7,2c-0.7,0.7-2,2.5-2,2.5s0.7,6.7,1.2,8c0.5,1.2,14.9,3.2,14.9,3.2
	l2.5-5c0,0-2-5-2.7-5s3.5-4,3.5-4l9.2-11l13.4-6.5l-4.2,8.7l-4.7,7c0,0-1.2,5-1.5,7c-0.2,2,1.2,8,2,9c0.7,1,10-13.2,10-13.2l4.2-7.7
	l12.2-5.7l10-6.7l14.7-5l7-0.2l2.2,0.7l-2,7.2l-10.7,0.7l10.2,4l3.5-1.7l3-7.2l3-2.7l1.5-4.5c0,0,1-3.5,0.2-3.5s-4,2-4,2l-2.2-4.7
	l-5.8-3l2.2-4.7l2.5-1.7L-13.1,294.2z"/>
<path style="fill:#662D91;" d="M39.6,564.7l34.3-17.1l19.9,2.7l-19.1,12.5c0,0-7.2-7.9-7.9-8.3c-0.7-0.4-2.6,3-2.6,3l0.1,7.2l-19,1
	l-4.4,0.7L39.6,564.7z"/>
<path style="fill:#662D91;" d="M36.6,536l11.4-3.4c0,0,2,3.5,2.1,3.4c0.2-0.1-2.4,3.6-3,4.1c-0.6,0.5,3.8,3.3,3.8,3.3
	s-2.1,1.8-2.6,1.9c-0.5,0.1-5.6,6.2-5.9,6.3c-0.3,0.2-0.5,3.7-0.5,3.7s-0.1,2.6-0.6,2.6s-13.7,2.2-13.7,2.2s5.7-6.1,6.3-6.3
	c0.6-0.2,2.7-3.7,2.6-4s-5.2-0.1-6.3,0.3c-1,0.4-5.9,0.5-6-0.2c-0.1-0.7,4.7-8.1,4.7-8.1l3.9-1.6l0.1,4.9c0,0,4.9-0.7,5.2-2.1
	s0.7-4.9,0.7-4.9L36.6,536z"/>
<path style="fill:#634A89;" d="M1.2,375.3l6.7,1.8l7.1,7.1v4.9c0,0-0.4,4.8,0,5.9s-11.6,0-11.6,0L6,407.7l9-3.7l-2.9,7.8l8.9,4.8
	l4.9,1.9L21,430.1l-8.9,10.1l-6.5-3.4L3,431.2l-14.2-4.5v7.1l-9-13.8l-7.5-9.7l-1.5-10.8h-8.6l2.6,7.1l-10.8,6l9,21.2
	c0,0-10.5,21.3-11.6,22.1c-1.1,0.7,3.7,3.7,3.7,4.9s16.1,9.3,16.1,9.3l10.8,7.8l15.3,14.6l3.4,4.5l4.1,4.9l11.2,4.9l0.7,9.7
	l37.4-3.6l16.9-1.7l3-7.5l11.2-1.5l2.6-6.3l6.3,1.5v4.5l3.7-2.8l15.3-15.1l5.6,19l8.6-19l-4.5-0.4l4.5-6.3v-10.1l9.3-4.9l14.2-20.9
	v-4.5l10.5-16.8l5.6-10.5l-7.1-0.7l-0.7-14.2l-10.5-11.2L140,373h-5.6l-7.5-0.4l4.1-5.4c0,0,6.7,0.8,6.7,1.8s-10.5-10.2-10.5-10.2
	l-2.2-8.6l-13.1-4.8l-3-4.2c0,0-42.6-1.1-43.7,0c-1.1,1.1-45.6-6-45.6-6l-21.7,13.4L1.2,375.3z"/>
<path style="fill:#A15063;" d="M-82.2,458l11.5-1v4l-5.7,6.2l-5.7-5.1l-11.5,14.1h5.5l-4,5l-6.2,9.7l15.4,1.5l2-11.2l-3.6-0.5
	c0,0,1.1-6.7,0-6s12.1-1.7,12.1-1.7l-6.7,9.7l2,5.5l2.2,7.7h12.7v-4.5l6.2-0.5l3.2,2l-4.2,12.5l10-12.5l11.7-6l-23.4-13.4L-49,463
	l16.4-16.2l-32.9-7.7l-12.9,2.7l-7.2,12L-82.2,458z"/>
<path style="fill:#8B737D;" d="M58.1,318.6l2.7,6c0,0,7.2,3.7,8.2,0s1-3.7,1-3.7s0,0.5,6.7,6.2c6.7,5.7,12.2,6.5,12.2,6.5
	s0-1.2,4.5,4s10.5,8.5,10.5,8.5l5.7-3.5v-3.5l-12.2-11.5l-6.7-7.5l4-4.7l-7.5-2.7l-2.7,5.4l-2,2.1l-4-9.8l-3.2-2.4v3.5l-3,0.7
	l-12-10l-4.5,1.5l-5.7-5.5c0,0-7.2-0.7-7.2,1s1.5,7,1.5,7l-4,1.2l0.2-5.5c0,0-1.2-1.7-2.5-1.7c-1.2,0-4.2-6.5-4.2-6.5
	s-0.7,8.2-1.2,9.2s0,9.2,0,9.2l-8,0.5l-8.5-13.4l-21.7,9.2v3l-5.2-2.7l1.2,4v8c0,0-2.7,5.2-2.7,7s4.7,4.7,4.7,4.7l-0.2-11.7l0.5-4.2
	l9.2-2.2l6.2-1l1.2,0.5l6.5-7.5c0,0,1,4.7,0.2,6.5c-0.8,1.8-1.2,3.7-1.2,3.7l4.7-2.7l3.5,0.7l7,4.5l5.2-2.5L36,320l5.2-3.5l5.5-6
	l1.9-5.5v-3.8l1.1,6"/>
<path style="fill:#C2B59B;" d="M44.5,303.8l2.5-2.4l7.8,3.6l0.6,3.7v2.2l3.5-2.2l1.2-0.9L73,318.3l2.4,0.6l-2-4.5l3.6,0.1l3.7,10.2
	h1.7l0.6-2l-1-2.4l11.5-0.1c0,0,2.5-1.4,2,0.1s-1.5,8.2-1.5,8.2l-1.6,0.6l1.7,3l2.7,2.6l3.6-1.6v1.6l10.6,9.1l-3.3,14.3l2.2,3.2
	l1-4.7v-2.4l1.4-0.7l1.1,2.6l-2.1,5.2l-0.7,3.2l6.5,14.9l-5.6,2.1l4.7,3l8.2,7.5l-2.4-10.3l4.7,3.4l3.2,9.9l-2.1,5.4h-3.9l1.3-3.4
	l-1.7-0.6l-3,2.1l-12.1-12.1l-3.9-4.7l-5-4.1l-15.3,6l-0.6,1.7l-11,6.7l5.2,1.7l3,4.3l6.3,2.4l3.6-6.7l13.1,4.1l-9.9,8.6
	c0,0-4.9,1.9-5.4,0.9c-0.6-0.9-7.3-4.7-7.3-4.7l-2.1-0.2c0,0-3.7-3.5-4.3-3.5s-6.7-0.2-6.7-0.2l-14.4,8.9l-4.3,5v-3.5l2.8-3.7
	l-5.8-4.5l-2.2-2.1c0,0,0.6,4.3,0,4.9s-3.2,2.8-3.2,2.8v-3.9v-4.1l-5.8,1.3l-4.1,5.4l4.9-1.9l1.7,1.1l-3.7,4.5l-4.1,3.7l3.7,8.5
	l-1.2,5.3l0.6,1.9l-5.6,1.9l3.5-5.4l-2.6-1.2l-7-4.9l-6.6,4.1l-2.5-8.7l-1.5-2.7l3.9-5.9c0,0,0.9-1.7,1.2-1.7s4.8-2.7,4.8-2.7
	L22,399v-2.2l0.2-2.2l1.9,2.6l6.4-0.1l2.8,0.3c0,0-0.2,2.4-0.5,2.4s2-1.2,2-1.2l0.9-1.9l-3.5-9.7l3.4-2.2l1.3-5.3l0.9-5l-7.5-4.2
	L27,368l-2.7-0.6l-1.8-2.1l-0.2-0.9h2.3l1-2.7l-0.8-1.5l-5.8-2.3l-2.2,2l2.3,1.3l1,0.2l1,2.4l-1.6,0.3l-1.7-1.5l-2.4-0.8l-2.4-1.6
	h-1.3L9,361.5l-11.6,10.4l4.4,0.7l-1.7,1.8l-7.4,3l-7.3,1l-7.8,5.6l-6.2,4.6l-3.2,1.5l-7.8,0.2l-10.3,15.8l2.4,5.8l3,2.5l2.5,0.5
	l0.1,2.1l3.7,2.9l1.5-0.4l0.9-1.8l2.9,2.3l2.1,1.7l-3.5,1.3l-2.7,1.1l2.4,11.5l1.4,3.7l2.2,5l0.8,0.9l1.5-1.1V442l3.5-0.5l-1.6,2.9
	l-2.8,5.6l-3.7-0.7l4,11.3l-2.8,6.2l5.6,1.3l0.7-2.2l1.7-5.9l1.3-4.5l0.9,1.7l-1.9,5.6l13.4-3l3.5,2.1l-8,4.1l1.3,2.2
	c0,0-2.1,1.1-3.7,2.1c-1.7,0.9-2.1,0-2.1,0l1.3-3.5l-5-1.9l-2.6,4.3l2.1,13.6c0,0,15.3,7.3,16.1,7.8c0.7,0.6,1.1,3.4,1.1,3.4
	l-40.7,8.8c0,0-2.2-3.2-3.1-3.2s-7.8,3.2-7.8,3.2l-16.4,2.6l12.7-13.8l-6.9-7.5l-10.8,3.9v-8.4l1.5-4.3l-7.7-9.3l10.3-15.1l-7.3-2.1
	l-5.4,2.6l-22.4,6l-0.9-6.5l-4.9-1.9c0,0-6,4.7-6.9,4.9c-0.9,0.2-1.1-2.8-1.1-2.8l6.2-3.7l1.7-7.7l1.5-0.4l0.4,4.5l1.3,2.8l9.7-4.3
	l4.1,6l1.5-10.8l6.9-3.5l-0.4-3.7l-4.3,1.5l-0.2-5.4l-0.2-4.2l-22.2-5.4l8.6-11.6l4.1-2.6l21.3-3l3.9-31.7l-4.3,5.5l-2.7-3.1l1-2
	l4.7-1.2l-2.5-4.5l3.4,3l0.7,0.6l1-1.4l-0.9-2.9l-1.5-1.9l1.6-2.9l0.5-3.1l-3.2,0.5L-87,358l-0.7-6l23.4,2.6l33-5l9.8-1.1l2.2-4.9
	l2.7-1.7l-2.1-1.9l4.9-9.2l2.9,3.2l0.4-18.2l6.5,0.6l-1.7-4.9l19.8-7.8l3.2,1.5l-0.4,3.4l3.2,1.7l1.3-2.8l2.8,2.6l1.1,4.9l1.5,3.4
	l4.7-0.4l0.9-17.9h2.1l0.9,3.7l0.7,6.3l3-5.2l1.1-0.2l0.6,3.2l2.6-3.9L44.5,303.8z"/>
<path style="fill:#C2B59B;" d="M-97.1,407h6.3l1.7-5.8l-6.9-3.7l-2.4-5.4l6.3,2.6l4.3,2.2l2.1-0.2l2-1.6V390v-4.7
	c0,0-1.1-4.1-1.7-4.7s-0.6-1.7-0.6-1.7l3.2,1.5l0.7,1.1l1.3,4.9l7.1,9.2l1.3,5.4c0,0-1.1,17.2-1.7,17.9c-0.6,0.7-2.6,3.5-5.2,3.7
	C-81.8,422.9-97.1,407-97.1,407z"/>
<polygon style="fill:#5C90A8;" points="117.9,406.5 98.9,427 106.7,427 103.9,433.5 98.9,447.6 104.1,449 106.7,446.8 105.6,441.2 
	109.9,437.3 114,441.2 115.5,444.2 112.3,449 107.5,452.2 106.7,458.6 117.9,464.4 110.3,469.8 113.8,476.5 117.9,474.4 
	119.4,475.2 120.9,494.1 126.1,479.3 126.1,467.9 129.5,463.4 140.9,452.8 146.3,450.3 153.2,436.7 155.6,435 167,430.4 165,422.2 
	159.9,422 156,428.3 151.5,430.7 130.8,406.5 125.4,411.5 "/>
<path style="fill:#2B3990;" d="M103.8,389.4l4.9,14.1l-9.2,4.4l-5.7,2.7l4.9,4.5l12.3-8.2l2.1-0.7v9l0.9,10.6c0,0,5.8-6.9,6.9-8.2
	c1.1-1.3,1.3-5.6,1.3-5.6l-2.4-1.1l-2.1,1.3l-11.4-25L103.8,389.4z"/>
<path style="fill:#2B3990;" d="M12.8,494.5l23.5-10.6h5.6l10.6,8.1l-3.7,3.7h-2.4l2.6,4.7l3,3.9l-6,1.4h-6c0,0-12.6,2.2-13.1,2.4
	c-0.5,0.1-5.1,0-5.1,0l4.7-5.6l1-2.7l-1-2.4c0,0-3.7,0-4.1,0.5s-0.7-1.8-0.7-1.8s-7.5,0.2-8.3,0.7c-0.9,0.5-0.6-1.5-0.6-1.5"/>
<path style="fill:#2B3990;" d="M36.5,534.8l12.8-3.4l1.9,2.2l-2.4,4.7l1.1,3.4l1.2,2l-9.3,9.2c0,0,0.4,2.9,0.4,3.2
	c0,0.4-2.2,2.4-3.6,3.4s-8.8,2.4-8.8,2.4v-3.7l5.9-2l1.2-5l-0.9-2.6l-5.1-1.1c0,0,2.2-5.6,1.8-6.1c-0.4-0.5,3.8,1.4,3.8,1.4l2.4-3.5
	L36.5,534.8z"/>
<path style="fill:#634A89;" d="M107.6,303.6l10.8,13.2l5.1,13.4l7.3,12.6l7.7,5.1c0,0-3.2,0.6-3.6,0c-0.4-0.6-4.9-3.9-4.9-3.9
	l-2.4-2.5l-5.2-10.7l-10.7,4l-0.5-3.6l3-2l0.6-4.5l-4.7-12.6l-4.6-6.1L107.6,303.6z"/>
<path style="fill:#634A89;" d="M85,292l5.6-5.2l9.7,10.1c0,0,0.4,5.6,0,7.1s0.2,2.2,0.2,2.2L97,301l-2.6-1.5l-2.6-0.7l1.1,4.5
	c0,0-7.1-4.9-7.8-6c-0.7-1.1-2.6-3.4-2.6-3.4l-0.7,3.4L51,286.8l5.6-3.4L85,292z"/>
<polygon style="fill:#A15063;" points="-121.6,417 -112.9,422.7 -110.2,422.7 -121.6,425.8 -123.8,422.7 -116.7,430.9 -107.9,425.8 
	-102.9,422.7 -106.9,419.4 -113.4,417.4 "/>
<path style="fill:#8B59A4;" d="M3.3,285.4c1.1-0.4,20.8-7.1,20.8-7.1h16.8l1.2,11.2h3.2l5.1-7.1l-1.7-2.6l7.7,2.2
	c0,0-4.2,4.1-4.9,4.2c-0.6,0.1-2.4,2-2.9,3.2s-0.1,3-0.1,3l3.9-2.2l1.4,3.2l-0.6,2.6l-8.8-2.4l-1.5-3.4c0,0-4.2-0.1-4.6-0.1
	c-0.4,0-0.6,3.5-0.6,3.5s-3.1-2.4-3.9-3.5c-0.7-1.1-2.7-3.1-5.9-3.1c-3.1,0.1-9.6,2.9-9.6,2.9l-0.2,0.9c0,0,2.2,0.7,2.1,1.2
	s-2.1,3.9-2.1,3.9l0.1,1.6l-1.9-3.9l-0.5-3.1c0,0-5.3-2.1-6.2-2.1s-4.4,2-4.7,2.2s-1.2-1.1-1.6-2.4C2.9,287.3,3.3,285.4,3.3,285.4z"
	/>
<path style="fill:#9B747A;" d="M-11,349l11.8,9.2h-3.9l-5.6-2.6l1.1,2.6c0,0,4.9,16.2,5,17c0.2,0.7-3.4-4.3-3.4-4.3
	s-0.7-2.2-1.9-2.2c-1.1,0-9,4.7-9,4.7v0.9l6.9-0.9l1.9,3l-9.7,5.6l-0.9,4.3l-4.9-2.2l-6.9,2.2l2.8,2.6h5.6l-0.7,3.4h-8.8l-1.5-3.7
	l-4.1,2.4c0,0-3.9,10.8-4.5,11.6s-5.8,8.2-5.8,8.2h2.4l1.7-3.2l2.1,0.6l-0.6,3.9l8.6,4.3l-5.6,0.9l-14.4-2.4l4.7,15.6l5.2,7.5
	l-5.4-3.5l-2.6-6.2l-2.8,0.6c0,0,1.7,8.2,2.4,9.2c0.7,0.9,0.9,3,0.4,3c-0.6,0-25.2-15.7-25.2-15.7l9.2-10.1l2.4,6.9l6.5-7.7
	l10.1-11.8l-2.1-2.1L-40,395l2.1-5.2l5.6-6l6.7-5.6l3-12.9l6.3-12.1L-11,349z"/>
<polygon style="fill:#E5E4CE;" points="-63.4,446.9 -55.7,457.1 -44.3,490.5 -57.5,483.3 -61.2,480.5 -76.1,486.7 -67.4,477 
	-71.2,476 -68.4,470.8 -68.4,468.7 -69.2,459.3 -65.2,448.4 -73.9,437.2 -78.9,435.4 -78.9,439.7 -77.1,442.2 -86.1,447.9 
	-90.3,445.9 -82.1,432.5 -80.1,431 -82.9,428.7 -86.8,428.7 -94.3,427 -94.3,423.2 -100.3,412.5 -88.8,414 -84.1,412.5 -82.9,410 
	-82.6,415.3 -82.6,418.5 -82.6,423.2 -82.1,425.5 -77.9,431.5 -68.9,439.4 -59.2,442.7 "/>
<path style="fill:#9B747A;" d="M-29,351l5.5-4.5l-1.2-3.7c0,0-6.3-2.5-6.7-2.5s9.6,1.5,9.6,1.5l2.5,0.9l-1.2-3.1l6.3-2.9l1.4,0.7
	c0,0-3.4,3.9-4,4.4s2.9,3.2,2.9,3.2l-3.5,2.7l-0.2,3.2c0,0-3.9-0.1-4.4,0s-1.1-1.4-1.1-1.4l-7,2.5L-29,351z"/>
<path style="fill:#E7D9D0;" d="M70.8,329.1l4.7-1l1-4.7l4.7,4.2l5.5,5.5V348l1,4.2l-8-6l4.2,7.7l-3.5-1.7L73.9,340l-8.7,0.5l-0.2,4
	l-1.5,5.5l-6-6h-6.7v-7.2l-7.7,9.7l-9.7-1.5l-2.7-11.7l2.5-2.5l4.7,3.2l2.5,0.5l3.7-9l1-6.2c0,0,0.7,5.2,1,6.5
	c0.2,1.2,1.7,1.5,1.7,1.5l1.7-8L70.8,329.1z"/>
<path style="fill:#E7D9D0;" d="M-2.4,356.5c0.5-0.1,14.2-12.9,14.2-12.9l5.1,1.5l4.5-6.8h1.1l5.1,7l0.5,2.2l-6.8-2.3l-1,4.2
	l-1.5,5.9L4,360L-2.4,356.5z"/>
<polygon style="fill:#E7D9D0;" points="-59.9,362.2 -28.5,358.1 -30.9,366.6 -27.4,366.6 -29.8,365.1 -26.3,360.5 -22.2,358.1 
	-23.9,366.3 -25.3,370.6 -32.6,373.6 -32.8,372.4 -59.9,371.9 -53.5,369.6 -56.2,367.2 -57.8,364 -59.9,363.3 "/>
<path style="fill:#70859F;" d="M-90.8,352.7l-5.5,9.4l11.2,3.9c0,0,0.5,2.4,0.5,2.9s3.1,0,3.1,0l-0.7-3.1l-0.4-1.6l2.2,1.9
	c0,0,1.2,1.1,1.2,0.5s0-4.5,0-4.5l-2.1-2.1l2.1-5.7l-1.4-2.3l-4.9,4.7l0.2-4.7l-4.6,0.5L-90.8,352.7z"/>
<polyline style="fill:#A55B73;" points="-60.1,354 -52.4,350.5 -54.2,348.2 -49.6,348.2 -50.8,345 -40.1,342 -44.6,346.8 
	-41.6,348.5 -43.7,349.8 -47.6,352.4 -48.6,353 -48.9,353.4 -60.9,354 "/>
<path style="fill:#E7D9D0;" d="M64.8,487.9c0.3,0,29.9-7.1,29.9-7.1l-4.5,13.4l-7.5-2.2l-12.3,8.2c0,0-12-4.9-13.1-4.9s0-3.7,0-3.7
	l3.7-1.1"/>
<path style="fill:#A15063;" d="M62.4,437.2h9l9.7-11.4v14.9l-18.7,8.2c0,0-13.4,15.4-14.9,16.3S58,461,58,461l15.7-1.9l-9.4,14
	l-10.8,8.3l-6.1-8.3l-8.8-2.8l-6.7-11.2l5.2-5.5l9,5.5l10.5-10.2L62.4,437.2z"/>
</svg>
