<?xml version="1.0" encoding="utf-8"?>
<!-- Generator: Adobe Illustrator 21.0.2, SVG Export Plug-In . SVG Version: 6.00 Build 0)  -->
<svg version="1.1" xmlns="http://www.w3.org/2000/svg" xmlns:xlink="http://www.w3.org/1999/xlink" x="0px" y="0px"
	 viewBox="0 0 595.3 841.9" style="enable-background:new 0 0 595.3 841.9;" xml:space="preserve">
<style type="text/css">
	.st0{display:none;}
	.st1{display:inline;stroke:#FFFFFF;stroke-miterlimit:10;}
	.st2{fill:#662D91;}
	.st3{fill:#634A89;}
	.st4{fill:#A15063;}
	.st5{fill:#8B737D;}
	.st6{fill:#C2B59B;}
	.st7{fill:#5C90A8;}
	.st8{fill:#2B3990;}
	.st9{fill:#8B59A4;}
	.st10{fill:#9B747A;}
	.st11{fill:#E5E4CE;}
	.st12{fill:#E7D9D0;}
	.st13{fill:#70859F;}
	.st14{fill:#A55B73;}
	.st15{fill:#DDA78B;}
	.st16{fill:#D88064;}
	.st17{fill:#582621;}
	.st18{fill:#69342D;}
	.st19{fill:#6B463F;}
	.st20{fill:#C2C8B1;}
	.st21{fill:#1C9BCF;}
	.st22{fill:#A7C5B5;}
	.st23{fill:#5BC1D5;}
	.st24{fill:#BEB398;}
	.st25{fill:#127DA0;}
	.st26{fill:#478079;}
	.st27{fill:#147E9F;}
	.st28{fill:#9D7962;}
	.st29{fill:#725549;}
	.st30{fill:#AB604C;}
	.st31{fill:#5B1A1C;}
	.st32{fill:#5C403C;}
	.st33{fill:#7D4E24;}
	.st34{fill:#F3EFE8;}
	.st35{fill:#A01E22;}
	.st36{fill:#F05E24;}
	.st37{fill:#FFDDAD;}
	.st38{fill:#600B10;}
	.st39{fill:#C82728;}
	.st40{fill:#F37423;}
	.st41{fill:#FDD09F;}
	.st42{fill:#F4762B;}
	.st43{fill:#701912;}
	.st44{fill:#A91F23;}
	.st45{fill:#C42A27;}
	.st46{fill:#F57F20;}
	.st47{fill:#FFE3B3;}
	.st48{fill:#B82126;}
	.st49{fill:#F59333;}
	.st50{fill:#1D0F10;}
	.st51{fill:#060707;}
</style>
<g id="Layer_1">
</g>
<g id="Layer_3" class="st0">
	<rect class="st1" width="595.3" height="841.9"/>
</g>
<g id="Layer_2">
	<path class="st2" d="M261.9,323l13.3-14.4l-3-0.9l2.1-2l-2.2-1.6l-22.4,7.1l0.6-3.9l4.2-4.2l20.1-3.1l4.3,4.6l6.2-8.5l3.5,3.1
		l3-4.9c0,0,17.4,8.1,17,8.6c-0.4,0.5,14.2-3.2,14.2-3.2l1.8,4.1l13.2-0.1l9.6,9.4l1.3-2.7v-1.8h22.3l12.6,14.4l1,5.1l0.7-0.5v-5.7
		l46.9,57.6h-19.3l-4.2,10l2,6.8l11.1-3l4.5,8.1l3.6-1.7c0,0-1.7-7.6-2-8.3s6.5-1.5,6.5-1.5l21.4,54.9c0,0-1.1,12.3-3,11.2
		c-1.9-1.1,3,1.9,3,1.9h13.1h12l-14.6,10l-6.7-2.2l-7.8,40l-5.2-12l-2.6-6.7l4.1-12l1.9-7.1l-4.5-5.9c0,0-3,0-5.6,4.1
		c-2.6,4.1,4.5,9.3,4.5,9.3s-3.4,3.7-6.7,5.2s-6.3,6-7.8,7.5c-1.5,1.5-1.3,9.9-1.3,9.9l-2.8,4.1l-2.6,3.5l-1.1,5.4l-5,2.2l-1.1,3.4
		c0,0-2.6,2.1-3.7,2.4c-1.1,0.4-4.1,3.2-4.1,3.2l-2.6,5.2l1.9,8c0,0-7.8-0.9-8.6,0c-0.7,0.9-0.6,4.3-1.7,4.9s-4.9,0-4.9,0
		s0-2.1,0-3.7c0-1.7-0.4-5.8-0.4-5.8l-2.4-3L388,531l0.9,9.6l2.2,7l4.3-4.3l0.4-1.1h3.5l0.9-0.6l0.7-1.3l2.8,1.7l-1.9,3l3.5,0.2
		l-3.4,8.4h-4.7l0.2,5.6h7.8l-7.3,4.3c0,0-3.5,0-6.5,4.9c-3,4.9-4.9,6.9-6,9c-1.1,2.1-20.6-18.3-20.6-18.3l15.4-6.9l-1.9-4.9
		l-0.6-7.5c0,0-3.2-3.5-4.1-3.7c-0.9-0.2-6.3-1.1-6.3-1.1l-1.3,0.4l2.4,6.5l1.5-1.3l-5.1,5.6v1.7l-1.4-7.7c0,0-1.5,0-2.1,0.2
		c-0.6,0.2-3.5,3.5-4.1,4.1C357,545,357,545,357,545s-1.9,3.2-2.4,3.4s-2.4-2.1-2.4-2.1l-3.9,2.4l0.2,5c0,0-0.2,2.1-0.2,2.6
		c0,0.6-11,0.6-11,0.6h-6l-4.5-3.9l-6.3-2.2l-0.4,3.4l-2.8,4.7l-3.4,1.7l-5.4,5.6l-8-2.1l-0.2-3.2l6.9-0.6l0.6-1.9l-1.9-3
		c0,0-3,0-3.5,0c-0.6,0-1.7,0.6-1.7,0.6l-1.3,2.4l-1.7-1.5l-6.9-4.9l-1.2,2.4c0,0-3.3,2.6-0.9,3.4s9.3,4.1,9.3,4.1l-1.7,1.9
		c0,0-1.9,0-2.6-0.4c-0.7-0.4-3,1.1-3,1.1l-0.4,1.5l-4.7-0.9c0,0-3.7-2.6-4.3-2.8c-0.6-0.2-2.2-0.9-2.2-0.9s-2.2,1.1-3.5,1.5
		c-1.3,0.4-4.5,0.7-4.9-0.2c-0.4-0.9-0.4-7.1-0.4-7.1l2-3.6l-9.1,1.4c0,0-6.1-0.9-6.8-1.2c-0.7-0.4-9.6-4.9-9.6-4.9l-3.5-0.2
		c0,0-2.4-4.1-2.6-4.6c-0.2-0.5-4.4-3.5-4.4-3.5l-5.9-1.4l-7.1-1.7l-1.9-2.1c0,0-9.5,3.9-10.5,4.2c-1,0.4-9.3,2.7-9.3,2.7v-1.2
		l7.3-2.7l1.7-4.5l-6.8,0.1c0,0-10.1,2.7-11.1,2.7s-10.5,5.5-10.5,5.5l13.2,0.5l0.2,5.5l2,5.7l5.7,2.7l26.6,9l12.5-3l1.2,3l7.2,9.7
		c0,0-11,0.2-12-0.7c-1-1-4.2-1.7-4.2-1.7v10c0,0-3.2-1.7-4.5-6s-1.2-6.2-2.5-7.5c-1.2-1.2-12.5-2.5-13.4-2.5c-1,0-17.4-6-17.4-6
		l-22.4-10.2v-5.7l-5.2-6.7l-8.5,0.2v-6.7l20.2-1.2l2.7-6c0,0-12.5,0.5-13.4,0.7s0.7-9.5,0.7-9.5l-14.7,8.5l-4.5-1v-12.5l-4.5-21.2
		l8.5-25.6l0.2-13.7l-16.2-9.2l-1-19.2l2.2,6.5l2.7-1.2l-0.5-9.2l-6.5-1.2l-4.5-13.4l-4-5.2l-10.2,3.7l-3.2-13.9l20.2,2.5l6-6
		l-4.2-3.7c0,0-12-6-12.7-6c-0.7,0-11.2-4-11.2-4l8.7-6l8.7,4.2l5,0.5l-10.7-8.2l-2.2-1.7l13.9-4.5l10.5-1.2c0,0,2.5,1.2,1.7,2
		c-0.7,0.7-2,2.5-2,2.5s0.7,6.7,1.2,8c0.5,1.2,14.9,3.2,14.9,3.2l2.5-5c0,0-2-5-2.7-5c-0.7,0,3.5-4,3.5-4l9.2-11l13.4-6.5l-4.2,8.7
		l-4.7,7c0,0-1.2,5-1.5,7c-0.2,2,1.2,8,2,9c0.7,1,10-13.2,10-13.2l4.2-7.7l12.2-5.7l10-6.7l14.7-5l7-0.2l2.2,0.7l-2,7.2l-10.7,0.7
		l10.2,4l3.5-1.7l3-7.2l3-2.7l1.5-4.5c0,0,1-3.5,0.2-3.5s-4,2-4,2l-2.2-4.7L237,317l2.2-4.7l2.5-1.7L261.9,323z"/>
	<path class="st2" d="M314.6,593.5l34.3-17.1l19.9,2.7l-19.1,12.5c0,0-7.2-7.9-7.9-8.3c-0.7-0.4-2.6,3-2.6,3l0.1,7.2l-19,1l-4.4,0.7
		L314.6,593.5z"/>
	<path class="st2" d="M311.6,564.8l11.4-3.4c0,0,2,3.5,2.1,3.4c0.2-0.1-2.4,3.6-3,4.1c-0.6,0.5,3.8,3.3,3.8,3.3s-2.1,1.8-2.6,1.9
		c-0.5,0.1-5.6,6.2-5.9,6.3c-0.3,0.2-0.5,3.7-0.5,3.7s-0.1,2.6-0.6,2.6c-0.5,0-13.7,2.2-13.7,2.2s5.7-6.1,6.3-6.3
		c0.6-0.2,2.7-3.7,2.6-4c-0.1-0.3-5.2-0.1-6.3,0.3c-1,0.4-5.9,0.5-6-0.2s4.7-8.1,4.7-8.1l3.9-1.6l0.1,4.9c0,0,4.9-0.7,5.2-2.1
		s0.7-4.9,0.7-4.9L311.6,564.8z"/>
	<path class="st3" d="M276.2,404.1l6.7,1.8l7.1,7.1v4.9c0,0-0.4,4.8,0,5.9c0.4,1.1-11.6,0-11.6,0l2.6,12.7l9-3.7l-2.9,7.8l8.9,4.8
		l4.9,1.9l-4.9,11.6l-8.9,10.1l-6.5-3.4l-2.6-5.6l-14.2-4.5v7.1l-9-13.8l-7.5-9.7l-1.5-10.8h-8.6l2.6,7.1l-10.8,6l9,21.2
		c0,0-10.5,21.3-11.6,22.1c-1.1,0.7,3.7,3.7,3.7,4.9s16.1,9.3,16.1,9.3l10.8,7.8l15.3,14.6l3.4,4.5l4.1,4.9l11.2,4.9l0.7,9.7
		l37.4-3.6L346,540l3-7.5l11.2-1.5l2.6-6.3l6.3,1.5v4.5l3.7-2.8l15.3-15.1l5.6,19l8.6-19l-4.5-0.4l4.5-6.3v-10.1l9.3-4.9l14.2-20.9
		v-4.5l10.5-16.8l5.6-10.5l-7.1-0.7l-0.7-14.2l-10.5-11.2l-8.6-10.5h-5.6l-7.5-0.4l4.1-5.4c0,0,6.7,0.8,6.7,1.8
		c0,1-10.5-10.2-10.5-10.2l-2.2-8.6l-13.1-4.8l-3-4.2c0,0-42.6-1.1-43.7,0c-1.1,1.1-45.6-6-45.6-6l-21.7,13.4L276.2,404.1z"/>
	<path class="st4" d="M192.8,486.8l11.5-1v4l-5.7,6.2l-5.7-5.1l-11.5,14.1h5.5l-4,5l-6.2,9.7l15.4,1.5l2-11.2l-3.6-0.5
		c0,0,1.1-6.7,0-6c-1.1,0.7,12.1-1.7,12.1-1.7l-6.7,9.7l2,5.5l2.2,7.7h12.7v-4.5l6.2-0.5l3.2,2l-4.2,12.5l10-12.5l11.7-6l-23.4-13.4
		l9.7-10.5l16.4-16.2l-32.9-7.7l-12.9,2.7l-7.2,12L192.8,486.8z"/>
	<path class="st5" d="M333.1,347.4l2.7,6c0,0,7.2,3.7,8.2,0c1-3.7,1-3.7,1-3.7s0,0.5,6.7,6.2c6.7,5.7,12.2,6.5,12.2,6.5s0-1.2,4.5,4
		s10.5,8.5,10.5,8.5l5.7-3.5v-3.5l-12.2-11.5l-6.7-7.5l4-4.7l-7.5-2.7l-2.7,5.4l-2,2.1l-4-9.8l-3.2-2.4v3.5l-3,0.7l-12-10l-4.5,1.5
		l-5.7-5.5c0,0-7.2-0.7-7.2,1s1.5,7,1.5,7l-4,1.2l0.2-5.5c0,0-1.2-1.7-2.5-1.7c-1.2,0-4.2-6.5-4.2-6.5s-0.7,8.2-1.2,9.2
		c-0.5,1,0,9.2,0,9.2l-8,0.5l-8.5-13.4l-21.7,9.2v3l-5.2-2.7l1.2,4v8c0,0-2.7,5.2-2.7,7s4.7,4.7,4.7,4.7l-0.2-11.7l0.5-4.2l9.2-2.2
		l6.2-1l1.2,0.5l6.5-7.5c0,0,1,4.7,0.2,6.5s-1.2,3.7-1.2,3.7l4.7-2.7l3.5,0.7l7,4.5l5.2-2.5l0.7,3.5l5.2-3.5l5.5-6l1.9-5.5V330
		l1.1,6"/>
	<path class="st6" d="M319.5,332.6l2.5-2.4l7.8,3.6l0.6,3.7v2.2l3.5-2.2l1.2-0.9l12.9,10.5l2.4,0.6l-2-4.5l3.6,0.1l3.7,10.2h1.7
		l0.6-2l-1-2.4l11.5-0.1c0,0,2.5-1.4,2,0.1c-0.5,1.5-1.5,8.2-1.5,8.2l-1.6,0.6l1.7,3l2.7,2.6l3.6-1.6v1.6l10.6,9.1l-3.3,14.3
		l2.2,3.2l1-4.7v-2.4l1.4-0.7l1.1,2.6l-2.1,5.2l-0.7,3.2l6.5,14.9l-5.6,2.1l4.7,3l8.2,7.5l-2.4-10.3l4.7,3.4l3.2,9.9l-2.1,5.4h-3.9
		l1.3-3.4l-1.7-0.6l-3,2.1l-12.1-12.1l-3.9-4.7l-5-4.1l-15.3,6l-0.6,1.7l-11,6.7l5.2,1.7l3,4.3l6.3,2.4l3.6-6.7l13.1,4.1l-9.9,8.6
		c0,0-4.9,1.9-5.4,0.9c-0.6-0.9-7.3-4.7-7.3-4.7l-2.1-0.2c0,0-3.7-3.5-4.3-3.5s-6.7-0.2-6.7-0.2l-14.4,8.9l-4.3,5v-3.5l2.8-3.7
		l-5.8-4.5l-2.2-2.1c0,0,0.6,4.3,0,4.9c-0.6,0.6-3.2,2.8-3.2,2.8v-3.9v-4.1l-5.8,1.3l-4.1,5.4l4.9-1.9l1.7,1.1l-3.7,4.5l-4.1,3.7
		l3.7,8.5l-1.2,5.3l0.6,1.9l-5.6,1.9l3.5-5.4l-2.6-1.2l-7-4.9l-6.6,4.1l-2.5-8.7l-1.5-2.7l3.9-5.9c0,0,0.9-1.7,1.2-1.7
		s4.8-2.7,4.8-2.7l1.4-2.1v-2.2l0.2-2.2l1.9,2.6l6.4-0.1l2.8,0.3c0,0-0.2,2.4-0.5,2.4c-0.3,0,2-1.2,2-1.2l0.9-1.9l-3.5-9.7l3.4-2.2
		l1.3-5.3l0.9-5l-7.5-4.2l-3.3-2.3l-2.7-0.6l-1.8-2.1l-0.2-0.9h2.3l1-2.7l-0.8-1.5l-5.8-2.3l-2.2,2l2.3,1.3l1,0.2l1,2.4l-1.6,0.3
		l-1.7-1.5l-2.4-0.8L288,389h-1.3l-2.7,1.3l-11.6,10.4l4.4,0.7l-1.7,1.8l-7.4,3l-7.3,1l-7.8,5.6l-6.2,4.6l-3.2,1.5l-7.8,0.2
		l-10.3,15.8l2.4,5.8l3,2.5l2.5,0.5l0.1,2.1l3.7,2.9l1.5-0.4l0.9-1.8l2.9,2.3l2.1,1.7l-3.5,1.3l-2.7,1.1l2.4,11.5l1.4,3.7l2.2,5
		l0.8,0.9l1.5-1.1v-2.1l3.5-0.5l-1.6,2.9l-2.8,5.6l-3.7-0.7l4,11.3l-2.8,6.2l5.6,1.3l0.7-2.2l1.7-5.9l1.3-4.5l0.9,1.7l-1.9,5.6
		l13.4-3l3.5,2.1l-8,4.1l1.3,2.2c0,0-2.1,1.1-3.7,2.1c-1.7,0.9-2.1,0-2.1,0l1.3-3.5l-5-1.9l-2.6,4.3l2.1,13.6c0,0,15.3,7.3,16.1,7.8
		c0.7,0.6,1.1,3.4,1.1,3.4l-40.7,8.8c0,0-2.2-3.2-3.1-3.2s-7.8,3.2-7.8,3.2l-16.4,2.6l12.7-13.8l-6.9-7.5l-10.8,3.9v-8.4l1.5-4.3
		l-7.7-9.3l10.3-15.1l-7.3-2.1l-5.4,2.6l-22.4,6l-0.9-6.5l-4.9-1.9c0,0-6,4.7-6.9,4.9c-0.9,0.2-1.1-2.8-1.1-2.8l6.2-3.7l1.7-7.7
		l1.5-0.4l0.4,4.5l1.3,2.8l9.7-4.3l4.1,6l1.5-10.8l6.9-3.5l-0.4-3.7l-4.3,1.5l-0.2-5.4L179,451l-22.2-5.4l8.6-11.6l4.1-2.6l21.3-3
		l3.9-31.7l-4.3,5.5l-2.7-3.1l1-2l4.7-1.2l-2.5-4.5l3.4,3l0.7,0.6l1-1.4l-0.9-2.9l-1.5-1.9l1.6-2.9l0.5-3.1l-3.2,0.5l-4.5,3.5
		l-0.7-6l23.4,2.6l33-5l9.8-1.1l2.2-4.9l2.7-1.7l-2.1-1.9l4.9-9.2l2.9,3.2l0.4-18.2l6.5,0.6l-1.7-4.9l19.8-7.8l3.2,1.5l-0.4,3.4
		l3.2,1.7l1.3-2.8l2.8,2.6l1.1,4.9l1.5,3.4l4.7-0.4l0.9-17.9h2.1l0.9,3.7l0.7,6.3l3-5.2l1.1-0.2l0.6,3.2l2.6-3.9L319.5,332.6z"/>
	<path class="st6" d="M177.9,435.8h6.3l1.7-5.8l-6.9-3.7l-2.4-5.4l6.3,2.6l4.3,2.2l2.1-0.2l2-1.6v-5.1v-4.7c0,0-1.1-4.1-1.7-4.7
		c-0.6-0.6-0.6-1.7-0.6-1.7l3.2,1.5l0.7,1.1l1.3,4.9l7.1,9.2l1.3,5.4c0,0-1.1,17.2-1.7,17.9c-0.6,0.7-2.6,3.5-5.2,3.7
		C193.2,451.7,177.9,435.8,177.9,435.8z"/>
	<polygon class="st7" points="392.9,435.3 373.9,455.8 381.7,455.8 378.9,462.3 373.9,476.4 379.1,477.8 381.7,475.6 380.6,470 
		384.9,466.1 389,470 390.5,473 387.3,477.8 382.5,481 381.7,487.4 392.9,493.2 385.3,498.6 388.8,505.3 392.9,503.2 394.4,504 
		395.9,522.9 401.1,508.1 401.1,496.7 404.5,492.2 415.9,481.6 421.3,479.1 428.2,465.5 430.6,463.8 442,459.2 440,451 434.9,450.8 
		431,457.1 426.5,459.5 405.8,435.3 400.4,440.3 	"/>
	<path class="st8" d="M378.8,418.2l4.9,14.1l-9.2,4.4l-5.7,2.7l4.9,4.5l12.3-8.2l2.1-0.7v9l0.9,10.6c0,0,5.8-6.9,6.9-8.2
		c1.1-1.3,1.3-5.6,1.3-5.6l-2.4-1.1l-2.1,1.3l-11.4-25L378.8,418.2z"/>
	<path class="st8" d="M287.8,523.3l23.5-10.6h5.6l10.6,8.1l-3.7,3.7h-2.4l2.6,4.7l3,3.9l-6,1.4h-6c0,0-12.6,2.2-13.1,2.4
		c-0.5,0.1-5.1,0-5.1,0l4.7-5.6l1-2.7l-1-2.4c0,0-3.7,0-4.1,0.5c-0.4,0.5-0.7-1.8-0.7-1.8s-7.5,0.2-8.3,0.7
		c-0.9,0.5-0.6-1.5-0.6-1.5"/>
	<path class="st8" d="M311.5,563.6l12.8-3.4l1.9,2.2l-2.4,4.7l1.1,3.4l1.2,2l-9.3,9.2c0,0,0.4,2.9,0.4,3.2c0,0.4-2.2,2.4-3.6,3.4
		c-1.4,1-8.8,2.4-8.8,2.4V587l5.9-2l1.2-5l-0.9-2.6l-5.1-1.1c0,0,2.2-5.6,1.8-6.1c-0.4-0.5,3.8,1.4,3.8,1.4l2.4-3.5L311.5,563.6z"/>
	<path class="st3" d="M382.6,332.4l10.8,13.2l5.1,13.4l7.3,12.6l7.7,5.1c0,0-3.2,0.6-3.6,0s-4.9-3.9-4.9-3.9l-2.4-2.5l-5.2-10.7
		l-10.7,4l-0.5-3.6l3-2l0.6-4.5l-4.7-12.6l-4.6-6.1L382.6,332.4z"/>
	<path class="st3" d="M360,320.8l5.6-5.2l9.7,10.1c0,0,0.4,5.6,0,7.1s0.2,2.2,0.2,2.2l-3.5-5.2l-2.6-1.5l-2.6-0.7l1.1,4.5
		c0,0-7.1-4.9-7.8-6c-0.7-1.1-2.6-3.4-2.6-3.4l-0.7,3.4L326,315.6l5.6-3.4L360,320.8z"/>
	<polygon class="st4" points="153.4,445.8 162.1,451.5 164.8,451.5 153.4,454.6 151.2,451.5 158.3,459.7 167.1,454.6 172.1,451.5 
		168.1,448.2 161.6,446.2 	"/>
	<path class="st9" d="M278.3,314.2c1.1-0.4,20.8-7.1,20.8-7.1h16.8l1.2,11.2h3.2l5.1-7.1l-1.7-2.6l7.7,2.2c0,0-4.2,4.1-4.9,4.2
		c-0.6,0.1-2.4,2-2.9,3.2c-0.5,1.2-0.1,3-0.1,3l3.9-2.2l1.4,3.2l-0.6,2.6l-8.8-2.4l-1.5-3.4c0,0-4.2-0.1-4.6-0.1s-0.6,3.5-0.6,3.5
		s-3.1-2.4-3.9-3.5c-0.7-1.1-2.7-3.1-5.9-3.1c-3.1,0.1-9.6,2.9-9.6,2.9l-0.2,0.9c0,0,2.2,0.7,2.1,1.2c-0.1,0.5-2.1,3.9-2.1,3.9
		l0.1,1.6l-1.9-3.9l-0.5-3.1c0,0-5.3-2.1-6.2-2.1c-0.9,0-4.4,2-4.7,2.2s-1.2-1.1-1.6-2.4C277.9,316.1,278.3,314.2,278.3,314.2z"/>
	<path class="st10" d="M264,377.8l11.8,9.2h-3.9l-5.6-2.6l1.1,2.6c0,0,4.9,16.2,5,17c0.2,0.7-3.4-4.3-3.4-4.3s-0.7-2.2-1.9-2.2
		c-1.1,0-9,4.7-9,4.7v0.9l6.9-0.9l1.9,3l-9.7,5.6l-0.9,4.3l-4.9-2.2l-6.9,2.2l2.8,2.6h5.6l-0.7,3.4h-8.8l-1.5-3.7l-4.1,2.4
		c0,0-3.9,10.8-4.5,11.6s-5.8,8.2-5.8,8.2h2.4l1.7-3.2l2.1,0.6l-0.6,3.9l8.6,4.3l-5.6,0.9l-14.4-2.4l4.7,15.6l5.2,7.5l-5.4-3.5
		l-2.6-6.2l-2.8,0.6c0,0,1.7,8.2,2.4,9.2c0.7,0.9,0.9,3,0.4,3c-0.6,0-25.2-15.7-25.2-15.7l9.2-10.1l2.4,6.9l6.5-7.7l10.1-11.8
		l-2.1-2.1l10.5-5.6l2.1-5.2l5.6-6l6.7-5.6l3-12.9l6.3-12.1L264,377.8z"/>
	<polygon class="st11" points="211.6,475.7 219.3,485.9 230.7,519.3 217.5,512.1 213.8,509.3 198.9,515.5 207.6,505.8 203.8,504.8 
		206.6,499.6 206.6,497.5 205.8,488.1 209.8,477.2 201.1,466 196.1,464.2 196.1,468.5 197.9,471 188.9,476.7 184.7,474.7 
		192.9,461.3 194.9,459.8 192.1,457.5 188.2,457.5 180.7,455.8 180.7,452 174.7,441.3 186.2,442.8 190.9,441.3 192.1,438.8 
		192.4,444.1 192.4,447.3 192.4,452 192.9,454.3 197.1,460.3 206.1,468.2 215.8,471.5 	"/>
	<path class="st10" d="M246,379.8l5.5-4.5l-1.2-3.7c0,0-6.3-2.5-6.7-2.5s9.6,1.5,9.6,1.5l2.5,0.9l-1.2-3.1l6.3-2.9l1.4,0.7
		c0,0-3.4,3.9-4,4.4c-0.6,0.5,2.9,3.2,2.9,3.2l-3.5,2.7l-0.2,3.2c0,0-3.9-0.1-4.4,0s-1.1-1.4-1.1-1.4l-7,2.5L246,379.8z"/>
	<path class="st12" d="M345.8,357.9l4.7-1l1-4.7l4.7,4.2l5.5,5.5v14.9l1,4.2l-8-6l4.2,7.7l-3.5-1.7l-6.5-12.2l-8.7,0.5l-0.2,4
		l-1.5,5.5l-6-6h-6.7v-7.2l-7.7,9.7l-9.7-1.5l-2.7-11.7l2.5-2.5l4.7,3.2l2.5,0.5l3.7-9l1-6.2c0,0,0.7,5.2,1,6.5
		c0.2,1.2,1.7,1.5,1.7,1.5l1.7-8L345.8,357.9z"/>
	<path class="st12" d="M272.6,385.3c0.5-0.1,14.2-12.9,14.2-12.9l5.1,1.5l4.5-6.8h1.1l5.1,7l0.5,2.2l-6.8-2.3l-1,4.2l-1.5,5.9
		l-14.8,4.7L272.6,385.3z"/>
	<polygon class="st12" points="215.1,391 246.5,386.9 244.1,395.4 247.6,395.4 245.2,393.9 248.7,389.3 252.8,386.9 251.1,395.1 
		249.7,399.4 242.4,402.4 242.2,401.2 215.1,400.7 221.5,398.4 218.8,396 217.2,392.8 215.1,392.1 	"/>
	<path class="st13" d="M184.2,381.5l-5.5,9.4l11.2,3.9c0,0,0.5,2.4,0.5,2.9c0,0.5,3.1,0,3.1,0l-0.7-3.1l-0.4-1.6l2.2,1.9
		c0,0,1.2,1.1,1.2,0.5c0-0.6,0-4.5,0-4.5l-2.1-2.1l2.1-5.7l-1.4-2.3l-4.9,4.7l0.2-4.7l-4.6,0.5L184.2,381.5z"/>
	<polyline class="st14" points="214.9,382.8 222.6,379.3 220.8,377 225.4,377 224.2,373.8 234.9,370.8 230.4,375.6 233.4,377.3 
		231.3,378.6 227.4,381.2 226.4,381.8 226.1,382.2 214.1,382.8 	"/>
	<path class="st12" d="M339.8,516.7c0.3,0,29.9-7.1,29.9-7.1l-4.5,13.4l-7.5-2.2l-12.3,8.2c0,0-12-4.9-13.1-4.9c-1.1,0,0-3.7,0-3.7
		l3.7-1.1"/>
	<path class="st4" d="M337.4,466h9l9.7-11.4v14.9l-18.7,8.2c0,0-13.4,15.4-14.9,16.3c-1.5,0.9,10.5-4.2,10.5-4.2l15.7-1.9l-9.4,14
		l-10.8,8.3l-6.1-8.3l-8.8-2.8l-6.7-11.2l5.2-5.5l9,5.5l10.5-10.2L337.4,466z"/>
</g>
<g id="Layer_4">
</g>
</svg>
